<?xml version="1.0" encoding="utf-8" standalone="no"?>
<!DOCTYPE svg PUBLIC "-//W3C//DTD SVG 1.1//EN"
  "http://www.w3.org/Graphics/SVG/1.1/DTD/svg11.dtd">
<svg xmlns:xlink="http://www.w3.org/1999/xlink" width="504pt" height="288pt" viewBox="0 0 504 288" xmlns="http://www.w3.org/2000/svg" version="1.1">
 <metadata>
  <rdf:RDF xmlns:dc="http://purl.org/dc/elements/1.1/" xmlns:cc="http://creativecommons.org/ns#" xmlns:rdf="http://www.w3.org/1999/02/22-rdf-syntax-ns#">
   <cc:Work>
    <dc:type rdf:resource="http://purl.org/dc/dcmitype/StillImage"/>
    <dc:date>2024-04-29T18:19:59.541519</dc:date>
    <dc:format>image/svg+xml</dc:format>
    <dc:creator>
     <cc:Agent>
      <dc:title>Matplotlib v3.6.2, https://matplotlib.org/</dc:title>
     </cc:Agent>
    </dc:creator>
   </cc:Work>
  </rdf:RDF>
 </metadata>
 <defs>
  <style type="text/css">*{stroke-linejoin: round; stroke-linecap: butt}</style>
 </defs>
 <g id="figure_1">
  <g id="patch_1">
   <path d="M 0 288 
L 504 288 
L 504 0 
L 0 0 
z
" style="fill: #ffffff"/>
  </g>
  <g id="axes_1">
   <g id="patch_2">
    <path d="M 63 256.32 
L 453.6 256.32 
L 453.6 34.56 
L 63 34.56 
z
" style="fill: #ffffff"/>
   </g>
   <g id="PolyCollection_1"/>
   <g id="PolyCollection_2"/>
   <g id="PolyCollection_3"/>
   <g id="PolyCollection_4"/>
   <g id="PolyCollection_5"/>
   <g id="matplotlib.axis_1">
    <g id="xtick_1">
     <g id="line2d_1">
      <defs>
       <path id="m79652cf4a3" d="M 0 0 
L 0 3.5 
" style="stroke: #000000; stroke-width: 0.8"/>
      </defs>
      <g>
       <use xlink:href="#m79652cf4a3" x="93.046154" y="256.32" style="stroke: #000000; stroke-width: 0.8"/>
      </g>
     </g>
     <g id="text_1">
      <!-- $K_{m}$1 -->
      <g transform="translate(82.996154 270.918437) scale(0.1 -0.1)">
       <defs>
        <path id="DejaVuSans-Oblique-4b" d="M 1081 4666 
L 1716 4666 
L 1331 2700 
L 3781 4666 
L 4622 4666 
L 1850 2438 
L 3878 0 
L 3109 0 
L 1247 2272 
L 806 0 
L 172 0 
L 1081 4666 
z
" transform="scale(0.015625)"/>
        <path id="DejaVuSans-Oblique-6d" d="M 5747 2113 
L 5338 0 
L 4763 0 
L 5166 2094 
Q 5191 2228 5203 2325 
Q 5216 2422 5216 2491 
Q 5216 2772 5059 2928 
Q 4903 3084 4622 3084 
Q 4203 3084 3875 2770 
Q 3547 2456 3450 1953 
L 3066 0 
L 2491 0 
L 2900 2094 
Q 2925 2209 2937 2307 
Q 2950 2406 2950 2484 
Q 2950 2769 2794 2926 
Q 2638 3084 2363 3084 
Q 1938 3084 1609 2770 
Q 1281 2456 1184 1953 
L 800 0 
L 225 0 
L 909 3500 
L 1484 3500 
L 1375 2956 
Q 1609 3263 1923 3423 
Q 2238 3584 2597 3584 
Q 2978 3584 3223 3384 
Q 3469 3184 3519 2828 
Q 3781 3197 4126 3390 
Q 4472 3584 4856 3584 
Q 5306 3584 5551 3325 
Q 5797 3066 5797 2591 
Q 5797 2488 5784 2364 
Q 5772 2241 5747 2113 
z
" transform="scale(0.015625)"/>
        <path id="DejaVuSans-31" d="M 794 531 
L 1825 531 
L 1825 4091 
L 703 3866 
L 703 4441 
L 1819 4666 
L 2450 4666 
L 2450 531 
L 3481 531 
L 3481 0 
L 794 0 
L 794 531 
z
" transform="scale(0.015625)"/>
       </defs>
       <use xlink:href="#DejaVuSans-Oblique-4b" transform="translate(0 0.09375)"/>
       <use xlink:href="#DejaVuSans-Oblique-6d" transform="translate(65.576172 -16.3125) scale(0.7)"/>
       <use xlink:href="#DejaVuSans-31" transform="translate(136.499023 0.09375)"/>
      </g>
     </g>
    </g>
    <g id="xtick_2">
     <g id="line2d_2">
      <g>
       <use xlink:href="#m79652cf4a3" x="123.092308" y="256.32" style="stroke: #000000; stroke-width: 0.8"/>
      </g>
     </g>
     <g id="text_2">
      <!-- $K_{m}$2 -->
      <g transform="translate(113.042308 270.918437) scale(0.1 -0.1)">
       <defs>
        <path id="DejaVuSans-32" d="M 1228 531 
L 3431 531 
L 3431 0 
L 469 0 
L 469 531 
Q 828 903 1448 1529 
Q 2069 2156 2228 2338 
Q 2531 2678 2651 2914 
Q 2772 3150 2772 3378 
Q 2772 3750 2511 3984 
Q 2250 4219 1831 4219 
Q 1534 4219 1204 4116 
Q 875 4013 500 3803 
L 500 4441 
Q 881 4594 1212 4672 
Q 1544 4750 1819 4750 
Q 2544 4750 2975 4387 
Q 3406 4025 3406 3419 
Q 3406 3131 3298 2873 
Q 3191 2616 2906 2266 
Q 2828 2175 2409 1742 
Q 1991 1309 1228 531 
z
" transform="scale(0.015625)"/>
       </defs>
       <use xlink:href="#DejaVuSans-Oblique-4b" transform="translate(0 0.78125)"/>
       <use xlink:href="#DejaVuSans-Oblique-6d" transform="translate(65.576172 -15.625) scale(0.7)"/>
       <use xlink:href="#DejaVuSans-32" transform="translate(136.499023 0.78125)"/>
      </g>
     </g>
    </g>
    <g id="xtick_3">
     <g id="line2d_3">
      <g>
       <use xlink:href="#m79652cf4a3" x="153.138462" y="256.32" style="stroke: #000000; stroke-width: 0.8"/>
      </g>
     </g>
     <g id="text_3">
      <!-- $K_{m}$3 -->
      <g transform="translate(143.088462 270.918437) scale(0.1 -0.1)">
       <defs>
        <path id="DejaVuSans-33" d="M 2597 2516 
Q 3050 2419 3304 2112 
Q 3559 1806 3559 1356 
Q 3559 666 3084 287 
Q 2609 -91 1734 -91 
Q 1441 -91 1130 -33 
Q 819 25 488 141 
L 488 750 
Q 750 597 1062 519 
Q 1375 441 1716 441 
Q 2309 441 2620 675 
Q 2931 909 2931 1356 
Q 2931 1769 2642 2001 
Q 2353 2234 1838 2234 
L 1294 2234 
L 1294 2753 
L 1863 2753 
Q 2328 2753 2575 2939 
Q 2822 3125 2822 3475 
Q 2822 3834 2567 4026 
Q 2313 4219 1838 4219 
Q 1578 4219 1281 4162 
Q 984 4106 628 3988 
L 628 4550 
Q 988 4650 1302 4700 
Q 1616 4750 1894 4750 
Q 2613 4750 3031 4423 
Q 3450 4097 3450 3541 
Q 3450 3153 3228 2886 
Q 3006 2619 2597 2516 
z
" transform="scale(0.015625)"/>
       </defs>
       <use xlink:href="#DejaVuSans-Oblique-4b" transform="translate(0 0.78125)"/>
       <use xlink:href="#DejaVuSans-Oblique-6d" transform="translate(65.576172 -15.625) scale(0.7)"/>
       <use xlink:href="#DejaVuSans-33" transform="translate(136.499023 0.78125)"/>
      </g>
     </g>
    </g>
    <g id="xtick_4">
     <g id="line2d_4">
      <g>
       <use xlink:href="#m79652cf4a3" x="183.184615" y="256.32" style="stroke: #000000; stroke-width: 0.8"/>
      </g>
     </g>
     <g id="text_4">
      <!-- $K_{m}$4 -->
      <g transform="translate(173.134615 270.918437) scale(0.1 -0.1)">
       <defs>
        <path id="DejaVuSans-34" d="M 2419 4116 
L 825 1625 
L 2419 1625 
L 2419 4116 
z
M 2253 4666 
L 3047 4666 
L 3047 1625 
L 3713 1625 
L 3713 1100 
L 3047 1100 
L 3047 0 
L 2419 0 
L 2419 1100 
L 313 1100 
L 313 1709 
L 2253 4666 
z
" transform="scale(0.015625)"/>
       </defs>
       <use xlink:href="#DejaVuSans-Oblique-4b" transform="translate(0 0.09375)"/>
       <use xlink:href="#DejaVuSans-Oblique-6d" transform="translate(65.576172 -16.3125) scale(0.7)"/>
       <use xlink:href="#DejaVuSans-34" transform="translate(136.499023 0.09375)"/>
      </g>
     </g>
    </g>
    <g id="xtick_5">
     <g id="line2d_5">
      <g>
       <use xlink:href="#m79652cf4a3" x="213.230769" y="256.32" style="stroke: #000000; stroke-width: 0.8"/>
      </g>
     </g>
     <g id="text_5">
      <!-- $K_{m}$5 -->
      <g transform="translate(203.180769 270.918437) scale(0.1 -0.1)">
       <defs>
        <path id="DejaVuSans-35" d="M 691 4666 
L 3169 4666 
L 3169 4134 
L 1269 4134 
L 1269 2991 
Q 1406 3038 1543 3061 
Q 1681 3084 1819 3084 
Q 2600 3084 3056 2656 
Q 3513 2228 3513 1497 
Q 3513 744 3044 326 
Q 2575 -91 1722 -91 
Q 1428 -91 1123 -41 
Q 819 9 494 109 
L 494 744 
Q 775 591 1075 516 
Q 1375 441 1709 441 
Q 2250 441 2565 725 
Q 2881 1009 2881 1497 
Q 2881 1984 2565 2268 
Q 2250 2553 1709 2553 
Q 1456 2553 1204 2497 
Q 953 2441 691 2322 
L 691 4666 
z
" transform="scale(0.015625)"/>
       </defs>
       <use xlink:href="#DejaVuSans-Oblique-4b" transform="translate(0 0.09375)"/>
       <use xlink:href="#DejaVuSans-Oblique-6d" transform="translate(65.576172 -16.3125) scale(0.7)"/>
       <use xlink:href="#DejaVuSans-35" transform="translate(136.499023 0.09375)"/>
      </g>
     </g>
    </g>
    <g id="text_6">
     <!-- Substrate concentration (S) -->
     <g transform="translate(189.178906 284.596563) scale(0.1 -0.1)">
      <defs>
       <path id="DejaVuSans-53" d="M 3425 4513 
L 3425 3897 
Q 3066 4069 2747 4153 
Q 2428 4238 2131 4238 
Q 1616 4238 1336 4038 
Q 1056 3838 1056 3469 
Q 1056 3159 1242 3001 
Q 1428 2844 1947 2747 
L 2328 2669 
Q 3034 2534 3370 2195 
Q 3706 1856 3706 1288 
Q 3706 609 3251 259 
Q 2797 -91 1919 -91 
Q 1588 -91 1214 -16 
Q 841 59 441 206 
L 441 856 
Q 825 641 1194 531 
Q 1563 422 1919 422 
Q 2459 422 2753 634 
Q 3047 847 3047 1241 
Q 3047 1584 2836 1778 
Q 2625 1972 2144 2069 
L 1759 2144 
Q 1053 2284 737 2584 
Q 422 2884 422 3419 
Q 422 4038 858 4394 
Q 1294 4750 2059 4750 
Q 2388 4750 2728 4690 
Q 3069 4631 3425 4513 
z
" transform="scale(0.015625)"/>
       <path id="DejaVuSans-75" d="M 544 1381 
L 544 3500 
L 1119 3500 
L 1119 1403 
Q 1119 906 1312 657 
Q 1506 409 1894 409 
Q 2359 409 2629 706 
Q 2900 1003 2900 1516 
L 2900 3500 
L 3475 3500 
L 3475 0 
L 2900 0 
L 2900 538 
Q 2691 219 2414 64 
Q 2138 -91 1772 -91 
Q 1169 -91 856 284 
Q 544 659 544 1381 
z
M 1991 3584 
L 1991 3584 
z
" transform="scale(0.015625)"/>
       <path id="DejaVuSans-62" d="M 3116 1747 
Q 3116 2381 2855 2742 
Q 2594 3103 2138 3103 
Q 1681 3103 1420 2742 
Q 1159 2381 1159 1747 
Q 1159 1113 1420 752 
Q 1681 391 2138 391 
Q 2594 391 2855 752 
Q 3116 1113 3116 1747 
z
M 1159 2969 
Q 1341 3281 1617 3432 
Q 1894 3584 2278 3584 
Q 2916 3584 3314 3078 
Q 3713 2572 3713 1747 
Q 3713 922 3314 415 
Q 2916 -91 2278 -91 
Q 1894 -91 1617 61 
Q 1341 213 1159 525 
L 1159 0 
L 581 0 
L 581 4863 
L 1159 4863 
L 1159 2969 
z
" transform="scale(0.015625)"/>
       <path id="DejaVuSans-73" d="M 2834 3397 
L 2834 2853 
Q 2591 2978 2328 3040 
Q 2066 3103 1784 3103 
Q 1356 3103 1142 2972 
Q 928 2841 928 2578 
Q 928 2378 1081 2264 
Q 1234 2150 1697 2047 
L 1894 2003 
Q 2506 1872 2764 1633 
Q 3022 1394 3022 966 
Q 3022 478 2636 193 
Q 2250 -91 1575 -91 
Q 1294 -91 989 -36 
Q 684 19 347 128 
L 347 722 
Q 666 556 975 473 
Q 1284 391 1588 391 
Q 1994 391 2212 530 
Q 2431 669 2431 922 
Q 2431 1156 2273 1281 
Q 2116 1406 1581 1522 
L 1381 1569 
Q 847 1681 609 1914 
Q 372 2147 372 2553 
Q 372 3047 722 3315 
Q 1072 3584 1716 3584 
Q 2034 3584 2315 3537 
Q 2597 3491 2834 3397 
z
" transform="scale(0.015625)"/>
       <path id="DejaVuSans-74" d="M 1172 4494 
L 1172 3500 
L 2356 3500 
L 2356 3053 
L 1172 3053 
L 1172 1153 
Q 1172 725 1289 603 
Q 1406 481 1766 481 
L 2356 481 
L 2356 0 
L 1766 0 
Q 1100 0 847 248 
Q 594 497 594 1153 
L 594 3053 
L 172 3053 
L 172 3500 
L 594 3500 
L 594 4494 
L 1172 4494 
z
" transform="scale(0.015625)"/>
       <path id="DejaVuSans-72" d="M 2631 2963 
Q 2534 3019 2420 3045 
Q 2306 3072 2169 3072 
Q 1681 3072 1420 2755 
Q 1159 2438 1159 1844 
L 1159 0 
L 581 0 
L 581 3500 
L 1159 3500 
L 1159 2956 
Q 1341 3275 1631 3429 
Q 1922 3584 2338 3584 
Q 2397 3584 2469 3576 
Q 2541 3569 2628 3553 
L 2631 2963 
z
" transform="scale(0.015625)"/>
       <path id="DejaVuSans-61" d="M 2194 1759 
Q 1497 1759 1228 1600 
Q 959 1441 959 1056 
Q 959 750 1161 570 
Q 1363 391 1709 391 
Q 2188 391 2477 730 
Q 2766 1069 2766 1631 
L 2766 1759 
L 2194 1759 
z
M 3341 1997 
L 3341 0 
L 2766 0 
L 2766 531 
Q 2569 213 2275 61 
Q 1981 -91 1556 -91 
Q 1019 -91 701 211 
Q 384 513 384 1019 
Q 384 1609 779 1909 
Q 1175 2209 1959 2209 
L 2766 2209 
L 2766 2266 
Q 2766 2663 2505 2880 
Q 2244 3097 1772 3097 
Q 1472 3097 1187 3025 
Q 903 2953 641 2809 
L 641 3341 
Q 956 3463 1253 3523 
Q 1550 3584 1831 3584 
Q 2591 3584 2966 3190 
Q 3341 2797 3341 1997 
z
" transform="scale(0.015625)"/>
       <path id="DejaVuSans-65" d="M 3597 1894 
L 3597 1613 
L 953 1613 
Q 991 1019 1311 708 
Q 1631 397 2203 397 
Q 2534 397 2845 478 
Q 3156 559 3463 722 
L 3463 178 
Q 3153 47 2828 -22 
Q 2503 -91 2169 -91 
Q 1331 -91 842 396 
Q 353 884 353 1716 
Q 353 2575 817 3079 
Q 1281 3584 2069 3584 
Q 2775 3584 3186 3129 
Q 3597 2675 3597 1894 
z
M 3022 2063 
Q 3016 2534 2758 2815 
Q 2500 3097 2075 3097 
Q 1594 3097 1305 2825 
Q 1016 2553 972 2059 
L 3022 2063 
z
" transform="scale(0.015625)"/>
       <path id="DejaVuSans-20" transform="scale(0.015625)"/>
       <path id="DejaVuSans-63" d="M 3122 3366 
L 3122 2828 
Q 2878 2963 2633 3030 
Q 2388 3097 2138 3097 
Q 1578 3097 1268 2742 
Q 959 2388 959 1747 
Q 959 1106 1268 751 
Q 1578 397 2138 397 
Q 2388 397 2633 464 
Q 2878 531 3122 666 
L 3122 134 
Q 2881 22 2623 -34 
Q 2366 -91 2075 -91 
Q 1284 -91 818 406 
Q 353 903 353 1747 
Q 353 2603 823 3093 
Q 1294 3584 2113 3584 
Q 2378 3584 2631 3529 
Q 2884 3475 3122 3366 
z
" transform="scale(0.015625)"/>
       <path id="DejaVuSans-6f" d="M 1959 3097 
Q 1497 3097 1228 2736 
Q 959 2375 959 1747 
Q 959 1119 1226 758 
Q 1494 397 1959 397 
Q 2419 397 2687 759 
Q 2956 1122 2956 1747 
Q 2956 2369 2687 2733 
Q 2419 3097 1959 3097 
z
M 1959 3584 
Q 2709 3584 3137 3096 
Q 3566 2609 3566 1747 
Q 3566 888 3137 398 
Q 2709 -91 1959 -91 
Q 1206 -91 779 398 
Q 353 888 353 1747 
Q 353 2609 779 3096 
Q 1206 3584 1959 3584 
z
" transform="scale(0.015625)"/>
       <path id="DejaVuSans-6e" d="M 3513 2113 
L 3513 0 
L 2938 0 
L 2938 2094 
Q 2938 2591 2744 2837 
Q 2550 3084 2163 3084 
Q 1697 3084 1428 2787 
Q 1159 2491 1159 1978 
L 1159 0 
L 581 0 
L 581 3500 
L 1159 3500 
L 1159 2956 
Q 1366 3272 1645 3428 
Q 1925 3584 2291 3584 
Q 2894 3584 3203 3211 
Q 3513 2838 3513 2113 
z
" transform="scale(0.015625)"/>
       <path id="DejaVuSans-69" d="M 603 3500 
L 1178 3500 
L 1178 0 
L 603 0 
L 603 3500 
z
M 603 4863 
L 1178 4863 
L 1178 4134 
L 603 4134 
L 603 4863 
z
" transform="scale(0.015625)"/>
       <path id="DejaVuSans-28" d="M 1984 4856 
Q 1566 4138 1362 3434 
Q 1159 2731 1159 2009 
Q 1159 1288 1364 580 
Q 1569 -128 1984 -844 
L 1484 -844 
Q 1016 -109 783 600 
Q 550 1309 550 2009 
Q 550 2706 781 3412 
Q 1013 4119 1484 4856 
L 1984 4856 
z
" transform="scale(0.015625)"/>
       <path id="DejaVuSans-29" d="M 513 4856 
L 1013 4856 
Q 1481 4119 1714 3412 
Q 1947 2706 1947 2009 
Q 1947 1309 1714 600 
Q 1481 -109 1013 -844 
L 513 -844 
Q 928 -128 1133 580 
Q 1338 1288 1338 2009 
Q 1338 2731 1133 3434 
Q 928 4138 513 4856 
z
" transform="scale(0.015625)"/>
      </defs>
      <use xlink:href="#DejaVuSans-53"/>
      <use xlink:href="#DejaVuSans-75" x="63.476562"/>
      <use xlink:href="#DejaVuSans-62" x="126.855469"/>
      <use xlink:href="#DejaVuSans-73" x="190.332031"/>
      <use xlink:href="#DejaVuSans-74" x="242.431641"/>
      <use xlink:href="#DejaVuSans-72" x="281.640625"/>
      <use xlink:href="#DejaVuSans-61" x="322.753906"/>
      <use xlink:href="#DejaVuSans-74" x="384.033203"/>
      <use xlink:href="#DejaVuSans-65" x="423.242188"/>
      <use xlink:href="#DejaVuSans-20" x="484.765625"/>
      <use xlink:href="#DejaVuSans-63" x="516.552734"/>
      <use xlink:href="#DejaVuSans-6f" x="571.533203"/>
      <use xlink:href="#DejaVuSans-6e" x="632.714844"/>
      <use xlink:href="#DejaVuSans-63" x="696.09375"/>
      <use xlink:href="#DejaVuSans-65" x="751.074219"/>
      <use xlink:href="#DejaVuSans-6e" x="812.597656"/>
      <use xlink:href="#DejaVuSans-74" x="875.976562"/>
      <use xlink:href="#DejaVuSans-72" x="915.185547"/>
      <use xlink:href="#DejaVuSans-61" x="956.298828"/>
      <use xlink:href="#DejaVuSans-74" x="1017.578125"/>
      <use xlink:href="#DejaVuSans-69" x="1056.787109"/>
      <use xlink:href="#DejaVuSans-6f" x="1084.570312"/>
      <use xlink:href="#DejaVuSans-6e" x="1145.751953"/>
      <use xlink:href="#DejaVuSans-20" x="1209.130859"/>
      <use xlink:href="#DejaVuSans-28" x="1240.917969"/>
      <use xlink:href="#DejaVuSans-53" x="1279.931641"/>
      <use xlink:href="#DejaVuSans-29" x="1343.408203"/>
     </g>
    </g>
   </g>
   <g id="matplotlib.axis_2">
    <g id="ytick_1">
     <g id="line2d_6">
      <defs>
       <path id="m1fbd23356c" d="M 0 0 
L -3.5 0 
" style="stroke: #000000; stroke-width: 0.8"/>
      </defs>
      <g>
       <use xlink:href="#m1fbd23356c" x="63" y="45.12" style="stroke: #000000; stroke-width: 0.8"/>
      </g>
     </g>
     <g id="text_7">
      <!-- $v_{max}$ -->
      <g transform="translate(34.5 48.919219) scale(0.1 -0.1)">
       <defs>
        <path id="DejaVuSans-Oblique-76" d="M 459 3500 
L 1069 3500 
L 1581 525 
L 3256 3500 
L 3866 3500 
L 1875 0 
L 1100 0 
L 459 3500 
z
" transform="scale(0.015625)"/>
        <path id="DejaVuSans-Oblique-61" d="M 3438 1997 
L 3047 0 
L 2472 0 
L 2578 531 
Q 2325 219 2001 64 
Q 1678 -91 1281 -91 
Q 834 -91 548 182 
Q 263 456 263 884 
Q 263 1497 752 1853 
Q 1241 2209 2100 2209 
L 2900 2209 
L 2931 2363 
Q 2938 2388 2941 2417 
Q 2944 2447 2944 2509 
Q 2944 2788 2717 2942 
Q 2491 3097 2081 3097 
Q 1800 3097 1504 3025 
Q 1209 2953 897 2809 
L 997 3341 
Q 1322 3463 1633 3523 
Q 1944 3584 2234 3584 
Q 2853 3584 3176 3315 
Q 3500 3047 3500 2534 
Q 3500 2431 3484 2292 
Q 3469 2153 3438 1997 
z
M 2816 1759 
L 2241 1759 
Q 1534 1759 1195 1570 
Q 856 1381 856 984 
Q 856 709 1029 553 
Q 1203 397 1509 397 
Q 1978 397 2328 733 
Q 2678 1069 2791 1631 
L 2816 1759 
z
" transform="scale(0.015625)"/>
        <path id="DejaVuSans-Oblique-78" d="M 3841 3500 
L 2234 1784 
L 3219 0 
L 2559 0 
L 1819 1388 
L 531 0 
L -166 0 
L 1556 1844 
L 641 3500 
L 1300 3500 
L 1972 2234 
L 3144 3500 
L 3841 3500 
z
" transform="scale(0.015625)"/>
       </defs>
       <use xlink:href="#DejaVuSans-Oblique-76" transform="translate(0 0.3125)"/>
       <use xlink:href="#DejaVuSans-Oblique-6d" transform="translate(59.179688 -16.09375) scale(0.7)"/>
       <use xlink:href="#DejaVuSans-Oblique-61" transform="translate(127.368164 -16.09375) scale(0.7)"/>
       <use xlink:href="#DejaVuSans-Oblique-78" transform="translate(170.263672 -16.09375) scale(0.7)"/>
      </g>
     </g>
    </g>
    <g id="ytick_2">
     <g id="line2d_7">
      <g>
       <use xlink:href="#m1fbd23356c" x="63" y="150.72" style="stroke: #000000; stroke-width: 0.8"/>
      </g>
     </g>
     <g id="text_8">
      <!-- $\frac{1}{2}v_{max}$ -->
      <g transform="translate(28.8 155.47) scale(0.1 -0.1)">
       <use xlink:href="#DejaVuSans-31" transform="translate(0 43.965625) scale(0.7)"/>
       <use xlink:href="#DejaVuSans-32" transform="translate(0 -39.2375) scale(0.7)"/>
       <use xlink:href="#DejaVuSans-Oblique-76" transform="translate(57.036133 0.16875)"/>
       <use xlink:href="#DejaVuSans-Oblique-6d" transform="translate(116.21582 -16.2375) scale(0.7)"/>
       <use xlink:href="#DejaVuSans-Oblique-61" transform="translate(184.404297 -16.2375) scale(0.7)"/>
       <use xlink:href="#DejaVuSans-Oblique-78" transform="translate(227.299805 -16.2375) scale(0.7)"/>
       <path d="M 0 18.965625 
L 0 25.215625 
L 44.536133 25.215625 
L 44.536133 18.965625 
L 0 18.965625 
z
"/>
      </g>
     </g>
    </g>
    <g id="text_9">
     <!-- Reaction rate (v) -->
     <g transform="translate(22.720312 187.351719) rotate(-90) scale(0.1 -0.1)">
      <defs>
       <path id="DejaVuSans-52" d="M 2841 2188 
Q 3044 2119 3236 1894 
Q 3428 1669 3622 1275 
L 4263 0 
L 3584 0 
L 2988 1197 
Q 2756 1666 2539 1819 
Q 2322 1972 1947 1972 
L 1259 1972 
L 1259 0 
L 628 0 
L 628 4666 
L 2053 4666 
Q 2853 4666 3247 4331 
Q 3641 3997 3641 3322 
Q 3641 2881 3436 2590 
Q 3231 2300 2841 2188 
z
M 1259 4147 
L 1259 2491 
L 2053 2491 
Q 2509 2491 2742 2702 
Q 2975 2913 2975 3322 
Q 2975 3731 2742 3939 
Q 2509 4147 2053 4147 
L 1259 4147 
z
" transform="scale(0.015625)"/>
       <path id="DejaVuSans-76" d="M 191 3500 
L 800 3500 
L 1894 563 
L 2988 3500 
L 3597 3500 
L 2284 0 
L 1503 0 
L 191 3500 
z
" transform="scale(0.015625)"/>
      </defs>
      <use xlink:href="#DejaVuSans-52"/>
      <use xlink:href="#DejaVuSans-65" x="64.982422"/>
      <use xlink:href="#DejaVuSans-61" x="126.505859"/>
      <use xlink:href="#DejaVuSans-63" x="187.785156"/>
      <use xlink:href="#DejaVuSans-74" x="242.765625"/>
      <use xlink:href="#DejaVuSans-69" x="281.974609"/>
      <use xlink:href="#DejaVuSans-6f" x="309.757812"/>
      <use xlink:href="#DejaVuSans-6e" x="370.939453"/>
      <use xlink:href="#DejaVuSans-20" x="434.318359"/>
      <use xlink:href="#DejaVuSans-72" x="466.105469"/>
      <use xlink:href="#DejaVuSans-61" x="507.21875"/>
      <use xlink:href="#DejaVuSans-74" x="568.498047"/>
      <use xlink:href="#DejaVuSans-65" x="607.707031"/>
      <use xlink:href="#DejaVuSans-20" x="669.230469"/>
      <use xlink:href="#DejaVuSans-28" x="701.017578"/>
      <use xlink:href="#DejaVuSans-76" x="740.03125"/>
      <use xlink:href="#DejaVuSans-29" x="799.210938"/>
     </g>
    </g>
   </g>
   <g id="line2d_8">
    <path d="M 63 256.32 
L 66.945455 231.805714 
L 70.890909 212.3904 
L 74.836364 196.633043 
L 78.781818 183.588874 
L 82.727273 172.612683 
L 86.672727 163.248814 
L 90.618182 155.166316 
L 94.563636 148.119015 
L 98.509091 141.92 
L 102.454545 136.424803 
L 106.4 131.52 
L 110.345455 127.115294 
L 114.290909 123.13791 
L 118.236364 119.528541 
L 122.181818 116.238367 
L 126.127273 113.22684 
L 130.072727 110.46 
L 134.018182 107.909189 
L 137.963636 105.550058 
L 141.909091 103.361783 
L 145.854545 101.326452 
L 149.8 99.428571 
L 153.745455 97.654673 
L 157.690909 95.992993 
L 161.636364 94.433208 
L 165.581818 92.966224 
L 169.527273 91.584 
L 173.472727 90.279395 
L 177.418182 89.04605 
L 181.363636 87.878282 
L 185.309091 86.770996 
L 189.254545 85.719612 
L 193.2 84.72 
L 197.145455 83.768429 
L 201.090909 82.861516 
L 205.036364 81.99619 
L 208.981818 81.169655 
L 212.927273 80.379359 
L 216.872727 79.62297 
L 220.818182 78.898352 
L 224.763636 78.203544 
L 228.709091 77.536744 
L 232.654545 76.896292 
L 236.6 76.280656 
L 240.545455 75.688421 
L 244.490909 75.118278 
L 248.436364 74.569014 
L 252.381818 74.039502 
L 256.327273 73.528696 
L 260.272727 73.035621 
L 264.218182 72.55937 
L 268.163636 72.099097 
L 272.109091 71.65401 
L 276.054545 71.223371 
L 280 70.806486 
L 283.945455 70.402709 
L 287.890909 70.011429 
L 291.836364 69.632075 
L 295.781818 69.264111 
L 299.727273 68.907031 
L 303.672727 68.560359 
L 307.618182 68.223646 
L 311.563636 67.896471 
L 315.509091 67.578432 
L 319.454545 67.269153 
L 323.4 66.968276 
L 327.345455 66.675464 
L 331.290909 66.390397 
L 335.236364 66.112771 
L 339.181818 65.842299 
L 343.127273 65.578708 
L 347.072727 65.321739 
L 351.018182 65.071145 
L 354.963636 64.826692 
L 358.909091 64.588156 
L 362.854545 64.355327 
L 366.8 64.128 
L 370.745455 63.905984 
L 374.690909 63.689094 
L 378.636364 63.477155 
L 382.581818 63.27 
L 386.527273 63.067468 
L 390.472727 62.869406 
L 394.418182 62.675668 
L 398.363636 62.486113 
L 402.309091 62.300608 
L 406.254545 62.119024 
L 410.2 61.941239 
L 414.145455 61.767134 
L 418.090909 61.596596 
L 422.036364 61.429516 
L 425.981818 61.265792 
L 429.927273 61.105321 
L 433.872727 60.948009 
L 437.818182 60.793763 
L 441.763636 60.642494 
L 445.709091 60.494118 
L 449.654545 60.348551 
L 453.6 60.205714 
" clip-path="url(#pf12ecf9829)" style="fill: none; stroke: #1f77b4; stroke-width: 1.5; stroke-linecap: square"/>
   </g>
   <g id="line2d_9">
    <path d="M 63 256.32 
L 66.945455 243.307678 
L 70.890909 231.805714 
L 74.836364 221.56557 
L 78.781818 212.3904 
L 82.727273 204.122281 
L 86.672727 196.633043 
L 90.618182 189.817578 
L 94.563636 183.588874 
L 98.509091 177.874286 
L 102.454545 172.612683 
L 106.4 167.752258 
L 110.345455 163.248814 
L 114.290909 159.064414 
L 118.236364 155.166316 
L 122.181818 151.526107 
L 126.127273 148.119015 
L 130.072727 144.923341 
L 134.018182 141.92 
L 137.963636 139.092135 
L 141.909091 136.424803 
L 145.854545 133.904713 
L 149.8 131.52 
L 153.745455 129.26004 
L 157.690909 127.115294 
L 161.636364 125.07717 
L 165.581818 123.13791 
L 169.527273 121.290492 
L 173.472727 119.528541 
L 177.418182 117.846261 
L 181.363636 116.238367 
L 185.309091 114.700033 
L 189.254545 113.22684 
L 193.2 111.814737 
L 197.145455 110.46 
L 201.090909 109.159204 
L 205.036364 107.909189 
L 208.981818 106.70704 
L 212.927273 105.550058 
L 216.872727 104.435745 
L 220.818182 103.361783 
L 224.763636 102.326019 
L 228.709091 101.326452 
L 232.654545 100.361215 
L 236.6 99.428571 
L 240.545455 98.526897 
L 244.490909 97.654673 
L 248.436364 96.810482 
L 252.381818 95.992993 
L 256.327273 95.200958 
L 260.272727 94.433208 
L 264.218182 93.688641 
L 268.163636 92.966224 
L 272.109091 92.264983 
L 276.054545 91.584 
L 280 90.92241 
L 283.945455 90.279395 
L 287.890909 89.654185 
L 291.836364 89.04605 
L 295.781818 88.454301 
L 299.727273 87.878282 
L 303.672727 87.317376 
L 307.618182 86.770996 
L 311.563636 86.238584 
L 315.509091 85.719612 
L 319.454545 85.213576 
L 323.4 84.72 
L 327.345455 84.238428 
L 331.290909 83.768429 
L 335.236364 83.309589 
L 339.181818 82.861516 
L 343.127273 82.423836 
L 347.072727 81.99619 
L 351.018182 81.578239 
L 354.963636 81.169655 
L 358.909091 80.770128 
L 362.854545 80.379359 
L 366.8 79.997064 
L 370.745455 79.62297 
L 374.690909 79.256816 
L 378.636364 78.898352 
L 382.581818 78.547338 
L 386.527273 78.203544 
L 390.472727 77.86675 
L 394.418182 77.536744 
L 398.363636 77.213323 
L 402.309091 76.896292 
L 406.254545 76.585463 
L 410.2 76.280656 
L 414.145455 75.981697 
L 418.090909 75.688421 
L 422.036364 75.400666 
L 425.981818 75.118278 
L 429.927273 74.841109 
L 433.872727 74.569014 
L 437.818182 74.301856 
L 441.763636 74.039502 
L 445.709091 73.781823 
L 449.654545 73.528696 
L 453.6 73.28 
" clip-path="url(#pf12ecf9829)" style="fill: none; stroke: #ff7f0e; stroke-width: 1.5; stroke-linecap: square"/>
   </g>
   <g id="line2d_10">
    <path d="M 63 256.32 
L 66.945455 247.463226 
L 70.890909 239.319381 
L 74.836364 231.805714 
L 78.781818 224.851805 
L 82.727273 218.397348 
L 86.672727 212.3904 
L 90.618182 206.785979 
L 94.563636 201.544938 
L 98.509091 196.633043 
L 102.454545 192.020234 
L 106.4 187.68 
L 110.345455 183.588874 
L 114.290909 179.726009 
L 118.236364 176.072818 
L 122.181818 172.612683 
L 126.127273 169.330693 
L 130.072727 166.213436 
L 134.018182 163.248814 
L 137.963636 160.425882 
L 141.909091 157.734722 
L 145.854545 155.166316 
L 149.8 152.712453 
L 153.745455 150.365638 
L 157.690909 148.119015 
L 161.636364 145.966302 
L 165.581818 143.901732 
L 169.527273 141.92 
L 173.472727 140.016218 
L 177.418182 138.185875 
L 181.363636 136.424803 
L 185.309091 134.729143 
L 189.254545 133.095316 
L 193.2 131.52 
L 197.145455 130.000108 
L 201.090909 128.532766 
L 205.036364 127.115294 
L 208.981818 125.745193 
L 212.927273 124.420126 
L 216.872727 123.13791 
L 220.818182 121.896499 
L 224.763636 120.693976 
L 228.709091 119.528541 
L 232.654545 118.398505 
L 236.6 117.302278 
L 240.545455 116.238367 
L 244.490909 115.205363 
L 248.436364 114.201938 
L 252.381818 113.22684 
L 256.327273 112.278887 
L 260.272727 111.356959 
L 264.218182 110.46 
L 268.163636 109.587009 
L 272.109091 108.737039 
L 276.054545 107.909189 
L 280 107.102609 
L 283.945455 106.316488 
L 287.890909 105.550058 
L 291.836364 104.802588 
L 295.781818 104.073383 
L 299.727273 103.361783 
L 303.672727 102.667156 
L 307.618182 101.988903 
L 311.563636 101.326452 
L 315.509091 100.679256 
L 319.454545 100.046795 
L 323.4 99.428571 
L 327.345455 98.82411 
L 331.290909 98.232955 
L 335.236364 97.654673 
L 339.181818 97.088848 
L 343.127273 96.535082 
L 347.072727 95.992993 
L 351.018182 95.462215 
L 354.963636 94.942399 
L 358.909091 94.433208 
L 362.854545 93.934319 
L 366.8 93.445424 
L 370.745455 92.966224 
L 374.690909 92.496435 
L 378.636364 92.035782 
L 382.581818 91.584 
L 386.527273 91.140836 
L 390.472727 90.706047 
L 394.418182 90.279395 
L 398.363636 89.860656 
L 402.309091 89.449611 
L 406.254545 89.04605 
L 410.2 88.649771 
L 414.145455 88.260578 
L 418.090909 87.878282 
L 422.036364 87.502703 
L 425.981818 87.133664 
L 429.927273 86.770996 
L 433.872727 86.414536 
L 437.818182 86.064125 
L 441.763636 85.719612 
L 445.709091 85.380847 
L 449.654545 85.047689 
L 453.6 84.72 
" clip-path="url(#pf12ecf9829)" style="fill: none; stroke: #2ca02c; stroke-width: 1.5; stroke-linecap: square"/>
   </g>
   <g id="line2d_11">
    <path d="M 63 256.32 
L 66.945455 249.607042 
L 70.890909 243.307678 
L 74.836364 237.384828 
L 78.781818 231.805714 
L 82.727273 226.541258 
L 86.672727 221.56557 
L 90.618182 216.855524 
L 94.563636 212.3904 
L 98.509091 208.151579 
L 102.454545 204.122281 
L 106.4 200.287347 
L 110.345455 196.633043 
L 114.290909 193.146903 
L 118.236364 189.817578 
L 122.181818 186.634721 
L 126.127273 183.588874 
L 130.072727 180.671378 
L 134.018182 177.874286 
L 137.963636 175.190295 
L 141.909091 172.612683 
L 145.854545 170.135247 
L 149.8 167.752258 
L 153.745455 165.458417 
L 157.690909 163.248814 
L 161.636364 161.11889 
L 165.581818 159.064414 
L 169.527273 157.081446 
L 173.472727 155.166316 
L 177.418182 153.315602 
L 181.363636 151.526107 
L 185.309091 149.794844 
L 189.254545 148.119015 
L 193.2 146.496 
L 197.145455 144.923341 
L 201.090909 143.398731 
L 205.036364 141.92 
L 208.981818 140.485108 
L 212.927273 139.092135 
L 216.872727 137.739269 
L 220.818182 136.424803 
L 224.763636 135.147126 
L 228.709091 133.904713 
L 232.654545 132.696126 
L 236.6 131.52 
L 240.545455 130.375046 
L 244.490909 129.26004 
L 248.436364 128.173823 
L 252.381818 127.115294 
L 256.327273 126.083408 
L 260.272727 125.07717 
L 264.218182 124.095637 
L 268.163636 123.13791 
L 272.109091 122.203134 
L 276.054545 121.290492 
L 280 120.399208 
L 283.945455 119.528541 
L 287.890909 118.677784 
L 291.836364 117.846261 
L 295.781818 117.033328 
L 299.727273 116.238367 
L 303.672727 115.460791 
L 307.618182 114.700033 
L 311.563636 113.955556 
L 315.509091 113.22684 
L 319.454545 112.513392 
L 323.4 111.814737 
L 327.345455 111.130418 
L 331.290909 110.46 
L 335.236364 109.803063 
L 339.181818 109.159204 
L 343.127273 108.528036 
L 347.072727 107.909189 
L 351.018182 107.302305 
L 354.963636 106.70704 
L 358.909091 106.123063 
L 362.854545 105.550058 
L 366.8 104.987717 
L 370.745455 104.435745 
L 374.690909 103.893858 
L 378.636364 103.361783 
L 382.581818 102.839255 
L 386.527273 102.326019 
L 390.472727 101.821831 
L 394.418182 101.326452 
L 398.363636 100.839654 
L 402.309091 100.361215 
L 406.254545 99.890923 
L 410.2 99.428571 
L 414.145455 98.97396 
L 418.090909 98.526897 
L 422.036364 98.087194 
L 425.981818 97.654673 
L 429.927273 97.229159 
L 433.872727 96.810482 
L 437.818182 96.398479 
L 441.763636 95.992993 
L 445.709091 95.593868 
L 449.654545 95.200958 
L 453.6 94.814118 
" clip-path="url(#pf12ecf9829)" style="fill: none; stroke: #d62728; stroke-width: 1.5; stroke-linecap: square"/>
   </g>
   <g id="line2d_12">
    <path d="M 63 256.32 
L 66.945455 250.915276 
L 70.890909 245.780269 
L 74.836364 240.895281 
L 78.781818 236.242486 
L 82.727273 231.805714 
L 86.672727 227.570262 
L 90.618182 223.52273 
L 94.563636 219.650885 
L 98.509091 215.943529 
L 102.454545 212.3904 
L 106.4 208.982069 
L 110.345455 205.709862 
L 114.290909 202.565783 
L 118.236364 199.542452 
L 122.181818 196.633043 
L 126.127273 193.831238 
L 130.072727 191.131173 
L 134.018182 188.527407 
L 137.963636 186.014879 
L 141.909091 183.588874 
L 145.854545 181.245 
L 149.8 178.979155 
L 153.745455 176.787506 
L 157.690909 174.666468 
L 161.636364 172.612683 
L 165.581818 170.623001 
L 169.527273 168.694468 
L 173.472727 166.824307 
L 177.418182 165.009908 
L 181.363636 163.248814 
L 185.309091 161.538708 
L 189.254545 159.877409 
L 193.2 158.262857 
L 197.145455 156.693106 
L 201.090909 155.166316 
L 205.036364 153.680748 
L 208.981818 152.234754 
L 212.927273 150.826775 
L 216.872727 149.455329 
L 220.818182 148.119015 
L 224.763636 146.816498 
L 228.709091 145.546513 
L 232.654545 144.307856 
L 236.6 143.099381 
L 240.545455 141.92 
L 244.490909 140.768673 
L 248.436364 139.644412 
L 252.381818 138.546273 
L 256.327273 137.473357 
L 260.272727 136.424803 
L 264.218182 135.399793 
L 268.163636 134.397541 
L 272.109091 133.417297 
L 276.054545 132.458346 
L 280 131.52 
L 283.945455 130.601603 
L 287.890909 129.702524 
L 291.836364 128.822162 
L 295.781818 127.959937 
L 299.727273 127.115294 
L 303.672727 126.287702 
L 307.618182 125.476649 
L 311.563636 124.681644 
L 315.509091 123.902216 
L 319.454545 123.13791 
L 323.4 122.388293 
L 327.345455 121.652943 
L 331.290909 120.931458 
L 335.236364 120.223448 
L 339.181818 119.528541 
L 343.127273 118.846375 
L 347.072727 118.176604 
L 351.018182 117.518892 
L 354.963636 116.872917 
L 358.909091 116.238367 
L 362.854545 115.614943 
L 366.8 115.002353 
L 370.745455 114.400318 
L 374.690909 113.808568 
L 378.636364 113.22684 
L 382.581818 112.654884 
L 386.527273 112.092454 
L 390.472727 111.539314 
L 394.418182 110.995236 
L 398.363636 110.46 
L 402.309091 109.933391 
L 406.254545 109.415203 
L 410.2 108.905235 
L 414.145455 108.403293 
L 418.090909 107.909189 
L 422.036364 107.422741 
L 425.981818 106.943773 
L 429.927273 106.472113 
L 433.872727 106.007595 
L 437.818182 105.550058 
L 441.763636 105.099346 
L 445.709091 104.655308 
L 449.654545 104.217795 
L 453.6 103.786667 
" clip-path="url(#pf12ecf9829)" style="fill: none; stroke: #9467bd; stroke-width: 1.5; stroke-linecap: square"/>
   </g>
   <g id="line2d_13">
    <path d="M 63 45.12 
L 453.6 45.12 
" clip-path="url(#pf12ecf9829)" style="fill: none; stroke-dasharray: 3.7,1.6; stroke-dashoffset: 0; stroke: #000000"/>
   </g>
   <g id="line2d_14">
    <path d="M 63 150.72 
L 213.230769 150.72 
" clip-path="url(#pf12ecf9829)" style="fill: none; stroke-dasharray: 3.7,1.6; stroke-dashoffset: 0; stroke: #000000"/>
   </g>
   <g id="line2d_15">
    <path d="M 93.046154 256.32 
L 93.046154 150.72 
" clip-path="url(#pf12ecf9829)" style="fill: none; stroke-dasharray: 3.7,1.6; stroke-dashoffset: 0; stroke: #1f77b4"/>
   </g>
   <g id="line2d_16">
    <path d="M 123.092308 256.32 
L 123.092308 150.72 
" clip-path="url(#pf12ecf9829)" style="fill: none; stroke-dasharray: 3.7,1.6; stroke-dashoffset: 0; stroke: #ff7f0e"/>
   </g>
   <g id="line2d_17">
    <path d="M 153.138462 256.32 
L 153.138462 150.72 
" clip-path="url(#pf12ecf9829)" style="fill: none; stroke-dasharray: 3.7,1.6; stroke-dashoffset: 0; stroke: #2ca02c"/>
   </g>
   <g id="line2d_18">
    <path d="M 183.184615 256.32 
L 183.184615 150.72 
" clip-path="url(#pf12ecf9829)" style="fill: none; stroke-dasharray: 3.7,1.6; stroke-dashoffset: 0; stroke: #d62728"/>
   </g>
   <g id="line2d_19">
    <path d="M 213.230769 256.32 
L 213.230769 150.72 
" clip-path="url(#pf12ecf9829)" style="fill: none; stroke-dasharray: 3.7,1.6; stroke-dashoffset: 0; stroke: #9467bd"/>
   </g>
   <g id="patch_3">
    <path d="M 63 256.32 
L 63 34.56 
" style="fill: none; stroke: #000000; stroke-width: 0.8; stroke-linejoin: miter; stroke-linecap: square"/>
   </g>
   <g id="patch_4">
    <path d="M 453.6 256.32 
L 453.6 34.56 
" style="fill: none; stroke: #000000; stroke-width: 0.8; stroke-linejoin: miter; stroke-linecap: square"/>
   </g>
   <g id="patch_5">
    <path d="M 63 256.32 
L 453.6 256.32 
" style="fill: none; stroke: #000000; stroke-width: 0.8; stroke-linejoin: miter; stroke-linecap: square"/>
   </g>
   <g id="patch_6">
    <path d="M 63 34.56 
L 453.6 34.56 
" style="fill: none; stroke: #000000; stroke-width: 0.8; stroke-linejoin: miter; stroke-linecap: square"/>
   </g>
   <g id="text_10">
    <!-- $v = \frac{v_{max}*S}{K_m+S}$ -->
    <g transform="translate(303.369231 203.52) scale(0.24 -0.24)">
     <defs>
      <path id="DejaVuSans-3d" d="M 678 2906 
L 4684 2906 
L 4684 2381 
L 678 2381 
L 678 2906 
z
M 678 1631 
L 4684 1631 
L 4684 1100 
L 678 1100 
L 678 1631 
z
" transform="scale(0.015625)"/>
      <path id="DejaVuSans-2a" d="M 3009 3897 
L 1888 3291 
L 3009 2681 
L 2828 2375 
L 1778 3009 
L 1778 1831 
L 1422 1831 
L 1422 3009 
L 372 2375 
L 191 2681 
L 1313 3291 
L 191 3897 
L 372 4206 
L 1422 3572 
L 1422 4750 
L 1778 4750 
L 1778 3572 
L 2828 4206 
L 3009 3897 
z
" transform="scale(0.015625)"/>
      <path id="DejaVuSans-Oblique-53" d="M 3859 4513 
L 3738 3897 
Q 3422 4066 3111 4152 
Q 2800 4238 2509 4238 
Q 1944 4238 1609 3991 
Q 1275 3744 1275 3334 
Q 1275 3109 1398 2989 
Q 1522 2869 2034 2731 
L 2413 2638 
Q 3053 2472 3303 2217 
Q 3553 1963 3553 1503 
Q 3553 797 2998 353 
Q 2444 -91 1538 -91 
Q 1166 -91 791 -17 
Q 416 56 38 206 
L 166 856 
Q 513 641 861 531 
Q 1209 422 1556 422 
Q 2147 422 2503 684 
Q 2859 947 2859 1369 
Q 2859 1650 2717 1795 
Q 2575 1941 2106 2059 
L 1728 2156 
Q 1081 2325 845 2545 
Q 609 2766 609 3163 
Q 609 3859 1145 4304 
Q 1681 4750 2541 4750 
Q 2875 4750 3203 4690 
Q 3531 4631 3859 4513 
z
" transform="scale(0.015625)"/>
      <path id="DejaVuSans-2b" d="M 2944 4013 
L 2944 2272 
L 4684 2272 
L 4684 1741 
L 2944 1741 
L 2944 0 
L 2419 0 
L 2419 1741 
L 678 1741 
L 678 2272 
L 2419 2272 
L 2419 4013 
L 2944 4013 
z
" transform="scale(0.015625)"/>
     </defs>
     <use xlink:href="#DejaVuSans-Oblique-76" transform="translate(0 0.068906)"/>
     <use xlink:href="#DejaVuSans-3d" transform="translate(78.662109 0.068906)"/>
     <use xlink:href="#DejaVuSans-Oblique-76" transform="translate(181.933594 56.046875) scale(0.7)"/>
     <use xlink:href="#DejaVuSans-Oblique-6d" transform="translate(223.359375 44.5625) scale(0.49)"/>
     <use xlink:href="#DejaVuSans-Oblique-61" transform="translate(271.091309 44.5625) scale(0.49)"/>
     <use xlink:href="#DejaVuSans-Oblique-78" transform="translate(301.118164 44.5625) scale(0.49)"/>
     <use xlink:href="#DejaVuSans-2a" transform="translate(345.667969 56.046875) scale(0.7)"/>
     <use xlink:href="#DejaVuSans-Oblique-53" transform="translate(394.305664 56.046875) scale(0.7)"/>
     <use xlink:href="#DejaVuSans-Oblique-4b" transform="translate(196.933594 -39.337344) scale(0.7)"/>
     <use xlink:href="#DejaVuSans-Oblique-6d" transform="translate(242.836914 -50.821719) scale(0.49)"/>
     <use xlink:href="#DejaVuSans-2b" transform="translate(306.120605 -39.337344) scale(0.7)"/>
     <use xlink:href="#DejaVuSans-Oblique-53" transform="translate(378.410645 -39.337344) scale(0.7)"/>
     <path d="M 181.933594 18.865781 
L 181.933594 25.115781 
L 438.739258 25.115781 
L 438.739258 18.865781 
L 181.933594 18.865781 
z
"/>
    </g>
   </g>
  </g>
 </g>
 <defs>
  <clipPath id="pf12ecf9829">
   <rect x="63" y="34.56" width="390.6" height="221.76"/>
  </clipPath>
 </defs>
</svg>
