<?xml version="1.0" encoding="utf-8" standalone="no"?>
<!DOCTYPE svg PUBLIC "-//W3C//DTD SVG 1.1//EN"
  "http://www.w3.org/Graphics/SVG/1.1/DTD/svg11.dtd">
<svg xmlns:xlink="http://www.w3.org/1999/xlink" width="864pt" height="288pt" viewBox="0 0 864 288" xmlns="http://www.w3.org/2000/svg" version="1.1">
 <metadata>
  <rdf:RDF xmlns:dc="http://purl.org/dc/elements/1.1/" xmlns:cc="http://creativecommons.org/ns#" xmlns:rdf="http://www.w3.org/1999/02/22-rdf-syntax-ns#">
   <cc:Work>
    <dc:type rdf:resource="http://purl.org/dc/dcmitype/StillImage"/>
    <dc:date>2023-11-02T13:30:51.783854</dc:date>
    <dc:format>image/svg+xml</dc:format>
    <dc:creator>
     <cc:Agent>
      <dc:title>Matplotlib v3.6.2, https://matplotlib.org/</dc:title>
     </cc:Agent>
    </dc:creator>
   </cc:Work>
  </rdf:RDF>
 </metadata>
 <defs>
  <style type="text/css">*{stroke-linejoin: round; stroke-linecap: butt}</style>
 </defs>
 <g id="figure_1">
  <g id="patch_1">
   <path d="M 0 288 
L 864 288 
L 864 0 
L 0 0 
z
" style="fill: #ffffff"/>
  </g>
  <g id="axes_1">
   <g id="patch_2">
    <path d="M 108 256.32 
L 412.363636 256.32 
L 412.363636 34.56 
L 108 34.56 
z
" style="fill: #ffffff"/>
   </g>
   <g id="PolyCollection_1"/>
   <g id="PolyCollection_2"/>
   <g id="PolyCollection_3"/>
   <g id="PolyCollection_4"/>
   <g id="PolyCollection_5"/>
   <g id="PolyCollection_6"/>
   <g id="PolyCollection_7"/>
   <g id="PolyCollection_8"/>
   <g id="PolyCollection_9"/>
   <g id="PolyCollection_10"/>
   <g id="PolyCollection_11"/>
   <g id="PolyCollection_12"/>
   <g id="PolyCollection_13"/>
   <g id="matplotlib.axis_1">
    <g id="xtick_1">
     <g id="line2d_1">
      <defs>
       <path id="me6632bb28f" d="M 0 0 
L 0 3.5 
" style="stroke: #000000; stroke-width: 0.8"/>
      </defs>
      <g>
       <use xlink:href="#me6632bb28f" x="121.834711" y="256.32" style="stroke: #000000; stroke-width: 0.8"/>
      </g>
     </g>
     <g id="text_1">
      <!-- 0 -->
      <g transform="translate(118.653461 270.918437) scale(0.1 -0.1)">
       <defs>
        <path id="DejaVuSans-30" d="M 2034 4250 
Q 1547 4250 1301 3770 
Q 1056 3291 1056 2328 
Q 1056 1369 1301 889 
Q 1547 409 2034 409 
Q 2525 409 2770 889 
Q 3016 1369 3016 2328 
Q 3016 3291 2770 3770 
Q 2525 4250 2034 4250 
z
M 2034 4750 
Q 2819 4750 3233 4129 
Q 3647 3509 3647 2328 
Q 3647 1150 3233 529 
Q 2819 -91 2034 -91 
Q 1250 -91 836 529 
Q 422 1150 422 2328 
Q 422 3509 836 4129 
Q 1250 4750 2034 4750 
z
" transform="scale(0.015625)"/>
       </defs>
       <use xlink:href="#DejaVuSans-30"/>
      </g>
     </g>
    </g>
    <g id="xtick_2">
     <g id="line2d_2">
      <g>
       <use xlink:href="#me6632bb28f" x="167.950413" y="256.32" style="stroke: #000000; stroke-width: 0.8"/>
      </g>
     </g>
     <g id="text_2">
      <!-- 10 -->
      <g transform="translate(161.587913 270.918437) scale(0.1 -0.1)">
       <defs>
        <path id="DejaVuSans-31" d="M 794 531 
L 1825 531 
L 1825 4091 
L 703 3866 
L 703 4441 
L 1819 4666 
L 2450 4666 
L 2450 531 
L 3481 531 
L 3481 0 
L 794 0 
L 794 531 
z
" transform="scale(0.015625)"/>
       </defs>
       <use xlink:href="#DejaVuSans-31"/>
       <use xlink:href="#DejaVuSans-30" x="63.623047"/>
      </g>
     </g>
    </g>
    <g id="xtick_3">
     <g id="line2d_3">
      <g>
       <use xlink:href="#me6632bb28f" x="214.066116" y="256.32" style="stroke: #000000; stroke-width: 0.8"/>
      </g>
     </g>
     <g id="text_3">
      <!-- 20 -->
      <g transform="translate(207.703616 270.918437) scale(0.1 -0.1)">
       <defs>
        <path id="DejaVuSans-32" d="M 1228 531 
L 3431 531 
L 3431 0 
L 469 0 
L 469 531 
Q 828 903 1448 1529 
Q 2069 2156 2228 2338 
Q 2531 2678 2651 2914 
Q 2772 3150 2772 3378 
Q 2772 3750 2511 3984 
Q 2250 4219 1831 4219 
Q 1534 4219 1204 4116 
Q 875 4013 500 3803 
L 500 4441 
Q 881 4594 1212 4672 
Q 1544 4750 1819 4750 
Q 2544 4750 2975 4387 
Q 3406 4025 3406 3419 
Q 3406 3131 3298 2873 
Q 3191 2616 2906 2266 
Q 2828 2175 2409 1742 
Q 1991 1309 1228 531 
z
" transform="scale(0.015625)"/>
       </defs>
       <use xlink:href="#DejaVuSans-32"/>
       <use xlink:href="#DejaVuSans-30" x="63.623047"/>
      </g>
     </g>
    </g>
    <g id="xtick_4">
     <g id="line2d_4">
      <g>
       <use xlink:href="#me6632bb28f" x="260.181818" y="256.32" style="stroke: #000000; stroke-width: 0.8"/>
      </g>
     </g>
     <g id="text_4">
      <!-- 30 -->
      <g transform="translate(253.819318 270.918437) scale(0.1 -0.1)">
       <defs>
        <path id="DejaVuSans-33" d="M 2597 2516 
Q 3050 2419 3304 2112 
Q 3559 1806 3559 1356 
Q 3559 666 3084 287 
Q 2609 -91 1734 -91 
Q 1441 -91 1130 -33 
Q 819 25 488 141 
L 488 750 
Q 750 597 1062 519 
Q 1375 441 1716 441 
Q 2309 441 2620 675 
Q 2931 909 2931 1356 
Q 2931 1769 2642 2001 
Q 2353 2234 1838 2234 
L 1294 2234 
L 1294 2753 
L 1863 2753 
Q 2328 2753 2575 2939 
Q 2822 3125 2822 3475 
Q 2822 3834 2567 4026 
Q 2313 4219 1838 4219 
Q 1578 4219 1281 4162 
Q 984 4106 628 3988 
L 628 4550 
Q 988 4650 1302 4700 
Q 1616 4750 1894 4750 
Q 2613 4750 3031 4423 
Q 3450 4097 3450 3541 
Q 3450 3153 3228 2886 
Q 3006 2619 2597 2516 
z
" transform="scale(0.015625)"/>
       </defs>
       <use xlink:href="#DejaVuSans-33"/>
       <use xlink:href="#DejaVuSans-30" x="63.623047"/>
      </g>
     </g>
    </g>
    <g id="xtick_5">
     <g id="line2d_5">
      <g>
       <use xlink:href="#me6632bb28f" x="306.297521" y="256.32" style="stroke: #000000; stroke-width: 0.8"/>
      </g>
     </g>
     <g id="text_5">
      <!-- 40 -->
      <g transform="translate(299.935021 270.918437) scale(0.1 -0.1)">
       <defs>
        <path id="DejaVuSans-34" d="M 2419 4116 
L 825 1625 
L 2419 1625 
L 2419 4116 
z
M 2253 4666 
L 3047 4666 
L 3047 1625 
L 3713 1625 
L 3713 1100 
L 3047 1100 
L 3047 0 
L 2419 0 
L 2419 1100 
L 313 1100 
L 313 1709 
L 2253 4666 
z
" transform="scale(0.015625)"/>
       </defs>
       <use xlink:href="#DejaVuSans-34"/>
       <use xlink:href="#DejaVuSans-30" x="63.623047"/>
      </g>
     </g>
    </g>
    <g id="xtick_6">
     <g id="line2d_6">
      <g>
       <use xlink:href="#me6632bb28f" x="352.413223" y="256.32" style="stroke: #000000; stroke-width: 0.8"/>
      </g>
     </g>
     <g id="text_6">
      <!-- 50 -->
      <g transform="translate(346.050723 270.918437) scale(0.1 -0.1)">
       <defs>
        <path id="DejaVuSans-35" d="M 691 4666 
L 3169 4666 
L 3169 4134 
L 1269 4134 
L 1269 2991 
Q 1406 3038 1543 3061 
Q 1681 3084 1819 3084 
Q 2600 3084 3056 2656 
Q 3513 2228 3513 1497 
Q 3513 744 3044 326 
Q 2575 -91 1722 -91 
Q 1428 -91 1123 -41 
Q 819 9 494 109 
L 494 744 
Q 775 591 1075 516 
Q 1375 441 1709 441 
Q 2250 441 2565 725 
Q 2881 1009 2881 1497 
Q 2881 1984 2565 2268 
Q 2250 2553 1709 2553 
Q 1456 2553 1204 2497 
Q 953 2441 691 2322 
L 691 4666 
z
" transform="scale(0.015625)"/>
       </defs>
       <use xlink:href="#DejaVuSans-35"/>
       <use xlink:href="#DejaVuSans-30" x="63.623047"/>
      </g>
     </g>
    </g>
    <g id="xtick_7">
     <g id="line2d_7">
      <g>
       <use xlink:href="#me6632bb28f" x="398.528926" y="256.32" style="stroke: #000000; stroke-width: 0.8"/>
      </g>
     </g>
     <g id="text_7">
      <!-- 60 -->
      <g transform="translate(392.166426 270.918437) scale(0.1 -0.1)">
       <defs>
        <path id="DejaVuSans-36" d="M 2113 2584 
Q 1688 2584 1439 2293 
Q 1191 2003 1191 1497 
Q 1191 994 1439 701 
Q 1688 409 2113 409 
Q 2538 409 2786 701 
Q 3034 994 3034 1497 
Q 3034 2003 2786 2293 
Q 2538 2584 2113 2584 
z
M 3366 4563 
L 3366 3988 
Q 3128 4100 2886 4159 
Q 2644 4219 2406 4219 
Q 1781 4219 1451 3797 
Q 1122 3375 1075 2522 
Q 1259 2794 1537 2939 
Q 1816 3084 2150 3084 
Q 2853 3084 3261 2657 
Q 3669 2231 3669 1497 
Q 3669 778 3244 343 
Q 2819 -91 2113 -91 
Q 1303 -91 875 529 
Q 447 1150 447 2328 
Q 447 3434 972 4092 
Q 1497 4750 2381 4750 
Q 2619 4750 2861 4703 
Q 3103 4656 3366 4563 
z
" transform="scale(0.015625)"/>
       </defs>
       <use xlink:href="#DejaVuSans-36"/>
       <use xlink:href="#DejaVuSans-30" x="63.623047"/>
      </g>
     </g>
    </g>
    <g id="text_8">
     <!-- Time -->
     <g transform="translate(247.948224 284.596563) scale(0.1 -0.1)">
      <defs>
       <path id="DejaVuSans-54" d="M -19 4666 
L 3928 4666 
L 3928 4134 
L 2272 4134 
L 2272 0 
L 1638 0 
L 1638 4134 
L -19 4134 
L -19 4666 
z
" transform="scale(0.015625)"/>
       <path id="DejaVuSans-69" d="M 603 3500 
L 1178 3500 
L 1178 0 
L 603 0 
L 603 3500 
z
M 603 4863 
L 1178 4863 
L 1178 4134 
L 603 4134 
L 603 4863 
z
" transform="scale(0.015625)"/>
       <path id="DejaVuSans-6d" d="M 3328 2828 
Q 3544 3216 3844 3400 
Q 4144 3584 4550 3584 
Q 5097 3584 5394 3201 
Q 5691 2819 5691 2113 
L 5691 0 
L 5113 0 
L 5113 2094 
Q 5113 2597 4934 2840 
Q 4756 3084 4391 3084 
Q 3944 3084 3684 2787 
Q 3425 2491 3425 1978 
L 3425 0 
L 2847 0 
L 2847 2094 
Q 2847 2600 2669 2842 
Q 2491 3084 2119 3084 
Q 1678 3084 1418 2786 
Q 1159 2488 1159 1978 
L 1159 0 
L 581 0 
L 581 3500 
L 1159 3500 
L 1159 2956 
Q 1356 3278 1631 3431 
Q 1906 3584 2284 3584 
Q 2666 3584 2933 3390 
Q 3200 3197 3328 2828 
z
" transform="scale(0.015625)"/>
       <path id="DejaVuSans-65" d="M 3597 1894 
L 3597 1613 
L 953 1613 
Q 991 1019 1311 708 
Q 1631 397 2203 397 
Q 2534 397 2845 478 
Q 3156 559 3463 722 
L 3463 178 
Q 3153 47 2828 -22 
Q 2503 -91 2169 -91 
Q 1331 -91 842 396 
Q 353 884 353 1716 
Q 353 2575 817 3079 
Q 1281 3584 2069 3584 
Q 2775 3584 3186 3129 
Q 3597 2675 3597 1894 
z
M 3022 2063 
Q 3016 2534 2758 2815 
Q 2500 3097 2075 3097 
Q 1594 3097 1305 2825 
Q 1016 2553 972 2059 
L 3022 2063 
z
" transform="scale(0.015625)"/>
      </defs>
      <use xlink:href="#DejaVuSans-54"/>
      <use xlink:href="#DejaVuSans-69" x="57.958984"/>
      <use xlink:href="#DejaVuSans-6d" x="85.742188"/>
      <use xlink:href="#DejaVuSans-65" x="183.154297"/>
     </g>
    </g>
   </g>
   <g id="matplotlib.axis_2">
    <g id="ytick_1">
     <g id="line2d_8">
      <defs>
       <path id="m095910bd42" d="M 0 0 
L -3.5 0 
" style="stroke: #000000; stroke-width: 0.8"/>
      </defs>
      <g>
       <use xlink:href="#m095910bd42" x="108" y="238.559657" style="stroke: #000000; stroke-width: 0.8"/>
      </g>
     </g>
     <g id="text_9">
      <!-- 0.02 -->
      <g transform="translate(78.734375 242.358876) scale(0.1 -0.1)">
       <defs>
        <path id="DejaVuSans-2e" d="M 684 794 
L 1344 794 
L 1344 0 
L 684 0 
L 684 794 
z
" transform="scale(0.015625)"/>
       </defs>
       <use xlink:href="#DejaVuSans-30"/>
       <use xlink:href="#DejaVuSans-2e" x="63.623047"/>
       <use xlink:href="#DejaVuSans-30" x="95.410156"/>
       <use xlink:href="#DejaVuSans-32" x="159.033203"/>
      </g>
     </g>
    </g>
    <g id="ytick_2">
     <g id="line2d_9">
      <g>
       <use xlink:href="#m095910bd42" x="108" y="203.649009" style="stroke: #000000; stroke-width: 0.8"/>
      </g>
     </g>
     <g id="text_10">
      <!-- 0.04 -->
      <g transform="translate(78.734375 207.448228) scale(0.1 -0.1)">
       <use xlink:href="#DejaVuSans-30"/>
       <use xlink:href="#DejaVuSans-2e" x="63.623047"/>
       <use xlink:href="#DejaVuSans-30" x="95.410156"/>
       <use xlink:href="#DejaVuSans-34" x="159.033203"/>
      </g>
     </g>
    </g>
    <g id="ytick_3">
     <g id="line2d_10">
      <g>
       <use xlink:href="#m095910bd42" x="108" y="168.738361" style="stroke: #000000; stroke-width: 0.8"/>
      </g>
     </g>
     <g id="text_11">
      <!-- 0.06 -->
      <g transform="translate(78.734375 172.53758) scale(0.1 -0.1)">
       <use xlink:href="#DejaVuSans-30"/>
       <use xlink:href="#DejaVuSans-2e" x="63.623047"/>
       <use xlink:href="#DejaVuSans-30" x="95.410156"/>
       <use xlink:href="#DejaVuSans-36" x="159.033203"/>
      </g>
     </g>
    </g>
    <g id="ytick_4">
     <g id="line2d_11">
      <g>
       <use xlink:href="#m095910bd42" x="108" y="133.827713" style="stroke: #000000; stroke-width: 0.8"/>
      </g>
     </g>
     <g id="text_12">
      <!-- 0.08 -->
      <g transform="translate(78.734375 137.626932) scale(0.1 -0.1)">
       <defs>
        <path id="DejaVuSans-38" d="M 2034 2216 
Q 1584 2216 1326 1975 
Q 1069 1734 1069 1313 
Q 1069 891 1326 650 
Q 1584 409 2034 409 
Q 2484 409 2743 651 
Q 3003 894 3003 1313 
Q 3003 1734 2745 1975 
Q 2488 2216 2034 2216 
z
M 1403 2484 
Q 997 2584 770 2862 
Q 544 3141 544 3541 
Q 544 4100 942 4425 
Q 1341 4750 2034 4750 
Q 2731 4750 3128 4425 
Q 3525 4100 3525 3541 
Q 3525 3141 3298 2862 
Q 3072 2584 2669 2484 
Q 3125 2378 3379 2068 
Q 3634 1759 3634 1313 
Q 3634 634 3220 271 
Q 2806 -91 2034 -91 
Q 1263 -91 848 271 
Q 434 634 434 1313 
Q 434 1759 690 2068 
Q 947 2378 1403 2484 
z
M 1172 3481 
Q 1172 3119 1398 2916 
Q 1625 2713 2034 2713 
Q 2441 2713 2670 2916 
Q 2900 3119 2900 3481 
Q 2900 3844 2670 4047 
Q 2441 4250 2034 4250 
Q 1625 4250 1398 4047 
Q 1172 3844 1172 3481 
z
" transform="scale(0.015625)"/>
       </defs>
       <use xlink:href="#DejaVuSans-30"/>
       <use xlink:href="#DejaVuSans-2e" x="63.623047"/>
       <use xlink:href="#DejaVuSans-30" x="95.410156"/>
       <use xlink:href="#DejaVuSans-38" x="159.033203"/>
      </g>
     </g>
    </g>
    <g id="ytick_5">
     <g id="line2d_12">
      <g>
       <use xlink:href="#m095910bd42" x="108" y="98.917065" style="stroke: #000000; stroke-width: 0.8"/>
      </g>
     </g>
     <g id="text_13">
      <!-- 0.10 -->
      <g transform="translate(78.734375 102.716284) scale(0.1 -0.1)">
       <use xlink:href="#DejaVuSans-30"/>
       <use xlink:href="#DejaVuSans-2e" x="63.623047"/>
       <use xlink:href="#DejaVuSans-31" x="95.410156"/>
       <use xlink:href="#DejaVuSans-30" x="159.033203"/>
      </g>
     </g>
    </g>
    <g id="ytick_6">
     <g id="line2d_13">
      <g>
       <use xlink:href="#m095910bd42" x="108" y="64.006417" style="stroke: #000000; stroke-width: 0.8"/>
      </g>
     </g>
     <g id="text_14">
      <!-- 0.12 -->
      <g transform="translate(78.734375 67.805636) scale(0.1 -0.1)">
       <use xlink:href="#DejaVuSans-30"/>
       <use xlink:href="#DejaVuSans-2e" x="63.623047"/>
       <use xlink:href="#DejaVuSans-31" x="95.410156"/>
       <use xlink:href="#DejaVuSans-32" x="159.033203"/>
      </g>
     </g>
    </g>
    <g id="text_15">
     <!-- Biomass (gDW) -->
     <g transform="translate(72.654687 183.92125) rotate(-90) scale(0.1 -0.1)">
      <defs>
       <path id="DejaVuSans-42" d="M 1259 2228 
L 1259 519 
L 2272 519 
Q 2781 519 3026 730 
Q 3272 941 3272 1375 
Q 3272 1813 3026 2020 
Q 2781 2228 2272 2228 
L 1259 2228 
z
M 1259 4147 
L 1259 2741 
L 2194 2741 
Q 2656 2741 2882 2914 
Q 3109 3088 3109 3444 
Q 3109 3797 2882 3972 
Q 2656 4147 2194 4147 
L 1259 4147 
z
M 628 4666 
L 2241 4666 
Q 2963 4666 3353 4366 
Q 3744 4066 3744 3513 
Q 3744 3084 3544 2831 
Q 3344 2578 2956 2516 
Q 3422 2416 3680 2098 
Q 3938 1781 3938 1306 
Q 3938 681 3513 340 
Q 3088 0 2303 0 
L 628 0 
L 628 4666 
z
" transform="scale(0.015625)"/>
       <path id="DejaVuSans-6f" d="M 1959 3097 
Q 1497 3097 1228 2736 
Q 959 2375 959 1747 
Q 959 1119 1226 758 
Q 1494 397 1959 397 
Q 2419 397 2687 759 
Q 2956 1122 2956 1747 
Q 2956 2369 2687 2733 
Q 2419 3097 1959 3097 
z
M 1959 3584 
Q 2709 3584 3137 3096 
Q 3566 2609 3566 1747 
Q 3566 888 3137 398 
Q 2709 -91 1959 -91 
Q 1206 -91 779 398 
Q 353 888 353 1747 
Q 353 2609 779 3096 
Q 1206 3584 1959 3584 
z
" transform="scale(0.015625)"/>
       <path id="DejaVuSans-61" d="M 2194 1759 
Q 1497 1759 1228 1600 
Q 959 1441 959 1056 
Q 959 750 1161 570 
Q 1363 391 1709 391 
Q 2188 391 2477 730 
Q 2766 1069 2766 1631 
L 2766 1759 
L 2194 1759 
z
M 3341 1997 
L 3341 0 
L 2766 0 
L 2766 531 
Q 2569 213 2275 61 
Q 1981 -91 1556 -91 
Q 1019 -91 701 211 
Q 384 513 384 1019 
Q 384 1609 779 1909 
Q 1175 2209 1959 2209 
L 2766 2209 
L 2766 2266 
Q 2766 2663 2505 2880 
Q 2244 3097 1772 3097 
Q 1472 3097 1187 3025 
Q 903 2953 641 2809 
L 641 3341 
Q 956 3463 1253 3523 
Q 1550 3584 1831 3584 
Q 2591 3584 2966 3190 
Q 3341 2797 3341 1997 
z
" transform="scale(0.015625)"/>
       <path id="DejaVuSans-73" d="M 2834 3397 
L 2834 2853 
Q 2591 2978 2328 3040 
Q 2066 3103 1784 3103 
Q 1356 3103 1142 2972 
Q 928 2841 928 2578 
Q 928 2378 1081 2264 
Q 1234 2150 1697 2047 
L 1894 2003 
Q 2506 1872 2764 1633 
Q 3022 1394 3022 966 
Q 3022 478 2636 193 
Q 2250 -91 1575 -91 
Q 1294 -91 989 -36 
Q 684 19 347 128 
L 347 722 
Q 666 556 975 473 
Q 1284 391 1588 391 
Q 1994 391 2212 530 
Q 2431 669 2431 922 
Q 2431 1156 2273 1281 
Q 2116 1406 1581 1522 
L 1381 1569 
Q 847 1681 609 1914 
Q 372 2147 372 2553 
Q 372 3047 722 3315 
Q 1072 3584 1716 3584 
Q 2034 3584 2315 3537 
Q 2597 3491 2834 3397 
z
" transform="scale(0.015625)"/>
       <path id="DejaVuSans-20" transform="scale(0.015625)"/>
       <path id="DejaVuSans-28" d="M 1984 4856 
Q 1566 4138 1362 3434 
Q 1159 2731 1159 2009 
Q 1159 1288 1364 580 
Q 1569 -128 1984 -844 
L 1484 -844 
Q 1016 -109 783 600 
Q 550 1309 550 2009 
Q 550 2706 781 3412 
Q 1013 4119 1484 4856 
L 1984 4856 
z
" transform="scale(0.015625)"/>
       <path id="DejaVuSans-67" d="M 2906 1791 
Q 2906 2416 2648 2759 
Q 2391 3103 1925 3103 
Q 1463 3103 1205 2759 
Q 947 2416 947 1791 
Q 947 1169 1205 825 
Q 1463 481 1925 481 
Q 2391 481 2648 825 
Q 2906 1169 2906 1791 
z
M 3481 434 
Q 3481 -459 3084 -895 
Q 2688 -1331 1869 -1331 
Q 1566 -1331 1297 -1286 
Q 1028 -1241 775 -1147 
L 775 -588 
Q 1028 -725 1275 -790 
Q 1522 -856 1778 -856 
Q 2344 -856 2625 -561 
Q 2906 -266 2906 331 
L 2906 616 
Q 2728 306 2450 153 
Q 2172 0 1784 0 
Q 1141 0 747 490 
Q 353 981 353 1791 
Q 353 2603 747 3093 
Q 1141 3584 1784 3584 
Q 2172 3584 2450 3431 
Q 2728 3278 2906 2969 
L 2906 3500 
L 3481 3500 
L 3481 434 
z
" transform="scale(0.015625)"/>
       <path id="DejaVuSans-44" d="M 1259 4147 
L 1259 519 
L 2022 519 
Q 2988 519 3436 956 
Q 3884 1394 3884 2338 
Q 3884 3275 3436 3711 
Q 2988 4147 2022 4147 
L 1259 4147 
z
M 628 4666 
L 1925 4666 
Q 3281 4666 3915 4102 
Q 4550 3538 4550 2338 
Q 4550 1131 3912 565 
Q 3275 0 1925 0 
L 628 0 
L 628 4666 
z
" transform="scale(0.015625)"/>
       <path id="DejaVuSans-57" d="M 213 4666 
L 850 4666 
L 1831 722 
L 2809 4666 
L 3519 4666 
L 4500 722 
L 5478 4666 
L 6119 4666 
L 4947 0 
L 4153 0 
L 3169 4050 
L 2175 0 
L 1381 0 
L 213 4666 
z
" transform="scale(0.015625)"/>
       <path id="DejaVuSans-29" d="M 513 4856 
L 1013 4856 
Q 1481 4119 1714 3412 
Q 1947 2706 1947 2009 
Q 1947 1309 1714 600 
Q 1481 -109 1013 -844 
L 513 -844 
Q 928 -128 1133 580 
Q 1338 1288 1338 2009 
Q 1338 2731 1133 3434 
Q 928 4138 513 4856 
z
" transform="scale(0.015625)"/>
      </defs>
      <use xlink:href="#DejaVuSans-42"/>
      <use xlink:href="#DejaVuSans-69" x="68.603516"/>
      <use xlink:href="#DejaVuSans-6f" x="96.386719"/>
      <use xlink:href="#DejaVuSans-6d" x="157.568359"/>
      <use xlink:href="#DejaVuSans-61" x="254.980469"/>
      <use xlink:href="#DejaVuSans-73" x="316.259766"/>
      <use xlink:href="#DejaVuSans-73" x="368.359375"/>
      <use xlink:href="#DejaVuSans-20" x="420.458984"/>
      <use xlink:href="#DejaVuSans-28" x="452.246094"/>
      <use xlink:href="#DejaVuSans-67" x="491.259766"/>
      <use xlink:href="#DejaVuSans-44" x="554.736328"/>
      <use xlink:href="#DejaVuSans-57" x="631.738281"/>
      <use xlink:href="#DejaVuSans-29" x="730.615234"/>
     </g>
    </g>
   </g>
   <g id="line2d_14">
    <path d="M 121.834711 246.24 
L 124.140496 244.707427 
L 126.446281 242.916649 
L 128.752066 240.823678 
L 131.057851 238.379034 
L 132.902479 236.133478 
L 134.747107 233.597691 
L 136.591736 230.739993 
L 138.436364 227.527872 
L 140.280992 223.928893 
L 142.12562 219.911924 
L 143.970248 215.445976 
L 146.276033 209.192861 
L 148.581818 202.168015 
L 150.887603 194.367175 
L 153.193388 185.819257 
L 155.960331 174.676182 
L 159.18843 160.72408 
L 168.872727 117.978972 
L 171.639669 107.184455 
L 173.945455 99.119594 
L 175.790083 93.357467 
L 177.634711 88.247537 
L 179.479339 83.796923 
L 181.323967 79.992453 
L 183.168595 76.805532 
L 184.552066 74.796892 
L 185.935537 73.093512 
L 187.319008 71.674116 
L 188.702479 70.516761 
L 190.08595 69.599291 
L 191.469421 68.89989 
L 192.852893 68.397413 
L 194.697521 67.982756 
L 203.920661 66.086683 
L 213.143802 63.964529 
L 222.366942 61.608093 
L 231.590083 59.023101 
L 242.196694 55.806164 
L 266.638017 48.238802 
L 271.710744 47.070131 
L 276.783471 46.139575 
L 281.856198 45.445894 
L 286.928926 44.979028 
L 292.46281 44.708824 
L 298.919008 44.64 
L 398.528926 44.64 
L 398.528926 44.64 
" clip-path="url(#pf2d409b0fd)" style="fill: none; stroke: #edb081; stroke-width: 1.5; stroke-linecap: square"/>
   </g>
   <g id="line2d_15">
    <path d="M 121.834711 246.24 
L 124.140496 244.728835 
L 126.446281 242.962622 
L 128.752066 240.898122 
L 131.057851 238.486737 
L 132.902479 236.271915 
L 134.747107 233.771152 
L 136.591736 230.953387 
L 138.436364 227.786746 
L 140.280992 224.239428 
L 142.12562 220.280897 
L 143.970248 215.88112 
L 146.276033 209.721564 
L 148.581818 202.80247 
L 150.887603 195.118975 
L 153.193388 186.69838 
L 155.960331 175.717262 
L 159.18843 161.957622 
L 169.333884 117.812337 
L 172.100826 107.268964 
L 174.406612 99.418305 
L 176.25124 93.825188 
L 178.095868 88.877932 
L 179.940496 84.58011 
L 181.785124 80.916534 
L 183.629752 77.857484 
L 185.013223 75.935969 
L 186.396694 74.312273 
L 187.780165 72.965373 
L 189.163636 71.873691 
L 190.547107 71.015519 
L 191.930579 70.369545 
L 193.31405 69.915145 
L 195.619835 69.458454 
L 205.304132 67.575854 
L 214.527273 65.564041 
L 223.750413 63.33243 
L 233.434711 60.761192 
L 244.502479 57.581836 
L 268.943802 50.441746 
L 274.016529 49.337431 
L 279.089256 48.463279 
L 284.161983 47.8172 
L 289.234711 47.389171 
L 294.768595 47.147155 
L 301.68595 47.086659 
L 398.528926 47.086659 
L 398.528926 47.086659 
" clip-path="url(#pf2d409b0fd)" style="fill: none; stroke: #eb9b74; stroke-width: 1.5; stroke-linecap: square"/>
   </g>
   <g id="line2d_16">
    <path d="M 121.834711 246.24 
L 124.140496 244.750226 
L 126.446281 243.008514 
L 128.752066 240.972365 
L 131.057851 238.594051 
L 133.363636 235.820831 
L 135.208264 233.279676 
L 137.052893 230.41859 
L 138.897521 227.206252 
L 140.742149 223.611675 
L 142.586777 219.605431 
L 144.431405 215.157683 
L 146.73719 208.942458 
L 149.042975 201.976522 
L 151.34876 194.260079 
L 153.654545 185.825976 
L 156.421488 174.862082 
L 160.110744 159.170013 
L 168.41157 123.220901 
L 171.178512 112.394132 
L 173.484298 104.222588 
L 175.790083 96.95515 
L 177.634711 91.845507 
L 179.479339 87.377387 
L 181.323967 83.542014 
L 183.168595 80.315051 
L 184.552066 78.272726 
L 185.935537 76.534165 
L 187.319008 75.079255 
L 188.702479 73.887123 
L 190.08595 72.93645 
L 191.469421 72.206082 
L 192.852893 71.675398 
L 194.697521 71.244538 
L 204.842975 69.423648 
L 214.527273 67.459932 
L 224.21157 65.269263 
L 234.357025 62.740453 
L 245.88595 59.625623 
L 271.710744 52.52542 
L 276.783471 51.488844 
L 281.856198 50.676145 
L 286.928926 50.084025 
L 292.46281 49.676322 
L 298.457851 49.465872 
L 306.758678 49.437062 
L 398.528926 49.437062 
L 398.528926 49.437062 
" clip-path="url(#pf2d409b0fd)" style="fill: none; stroke: #e98768; stroke-width: 1.5; stroke-linecap: square"/>
   </g>
   <g id="line2d_17">
    <path d="M 121.834711 246.24 
L 124.140496 244.7716 
L 126.446281 243.054327 
L 128.752066 241.046409 
L 131.057851 238.700978 
L 133.363636 235.966278 
L 135.208264 233.460739 
L 137.052893 230.640186 
L 138.897521 227.473924 
L 140.742149 223.931572 
L 142.586777 219.984264 
L 144.431405 215.603094 
L 146.73719 209.481713 
L 149.042975 202.62147 
L 151.34876 195.021859 
L 153.654545 186.714018 
L 156.421488 175.910004 
L 160.110744 160.433344 
L 168.872727 123.01887 
L 171.639669 112.431922 
L 173.945455 104.467893 
L 176.25124 97.406235 
L 178.095868 92.455512 
L 179.940496 88.137142 
L 181.785124 84.440264 
L 183.629752 81.339311 
L 185.013223 79.382993 
L 186.396694 77.723146 
L 187.780165 76.339928 
L 189.163636 75.212753 
L 190.547107 74.320712 
L 191.930579 73.64312 
L 193.31405 73.159841 
L 195.158678 72.779608 
L 205.304132 71.079032 
L 215.449587 69.150903 
L 225.595041 66.989726 
L 236.201653 64.494031 
L 248.652893 61.318106 
L 273.555372 54.870749 
L 278.628099 53.863728 
L 283.700826 53.07279 
L 288.773554 52.495342 
L 294.307438 52.088175 
L 300.302479 51.865857 
L 308.142149 51.829285 
L 398.528926 51.829285 
L 398.528926 51.829285 
" clip-path="url(#pf2d409b0fd)" style="fill: none; stroke: #e5715e; stroke-width: 1.5; stroke-linecap: square"/>
   </g>
   <g id="line2d_18">
    <path d="M 121.834711 246.24 
L 124.140496 244.792958 
L 126.446281 243.10006 
L 128.752066 241.120254 
L 131.057851 238.807518 
L 133.363636 236.111071 
L 135.208264 233.640861 
L 137.052893 230.860483 
L 138.897521 227.739854 
L 140.742149 224.249195 
L 142.586777 220.360194 
L 144.431405 216.044865 
L 146.73719 210.016262 
L 149.042975 203.2605 
L 151.34876 195.776397 
L 153.654545 187.593447 
L 156.421488 176.947731 
L 159.649587 163.640753 
L 169.795041 121.063532 
L 172.561983 110.889061 
L 174.867769 103.302591 
L 176.712397 97.889287 
L 178.557025 93.093635 
L 180.401653 88.92091 
L 182.246281 85.358343 
L 184.090909 82.37929 
L 185.47438 80.506013 
L 186.857851 78.922087 
L 188.241322 77.607893 
L 189.624793 76.543175 
L 191.008264 75.70744 
L 192.391736 75.080468 
L 193.775207 74.642601 
L 195.619835 74.308072 
L 206.226446 72.646057 
L 216.371901 70.837204 
L 226.517355 68.810433 
L 237.585124 66.366361 
L 250.497521 63.275697 
L 276.322314 57.02571 
L 281.856198 55.992748 
L 286.928926 55.265024 
L 292.46281 54.697238 
L 298.457851 54.314654 
L 304.91405 54.143985 
L 320.132231 54.13619 
L 398.528926 54.13619 
L 398.528926 54.13619 
" clip-path="url(#pf2d409b0fd)" style="fill: none; stroke: #de5d5c; stroke-width: 1.5; stroke-linecap: square"/>
   </g>
   <g id="line2d_19">
    <path d="M 121.834711 246.24 
L 124.140496 244.814299 
L 126.446281 243.145713 
L 128.752066 241.1939 
L 131.057851 238.913673 
L 133.363636 236.25521 
L 135.208264 233.820045 
L 137.052893 231.079487 
L 138.897521 228.004054 
L 140.742149 224.564561 
L 142.586777 220.73324 
L 144.431405 216.48302 
L 146.73719 210.546139 
L 149.042975 203.893654 
L 151.34876 196.523745 
L 153.654545 188.464323 
L 156.421488 177.975328 
L 159.649587 164.854257 
L 169.795041 122.735892 
L 172.561983 112.62322 
L 174.867769 105.065076 
L 176.712397 99.660235 
L 178.557025 94.862076 
L 180.401653 90.678375 
L 182.246281 87.098443 
L 184.090909 84.097636 
L 185.47438 82.206265 
L 186.857851 80.603474 
L 188.241322 79.270222 
L 189.624793 78.186744 
L 191.008264 77.332944 
L 192.391736 76.688918 
L 193.775207 76.235255 
L 195.619835 75.891493 
L 206.687603 74.283443 
L 217.294215 72.517502 
L 227.900826 70.529218 
L 239.429752 68.135394 
L 253.72562 64.91943 
L 277.244628 59.597042 
L 282.778512 58.541573 
L 288.312397 57.722218 
L 293.846281 57.120748 
L 299.841322 56.699804 
L 305.836364 56.496118 
L 314.13719 56.466607 
L 398.528926 56.466607 
L 398.528926 56.466607 
" clip-path="url(#pf2d409b0fd)" style="fill: none; stroke: #d34c60; stroke-width: 1.5; stroke-linecap: square"/>
   </g>
   <g id="line2d_20">
    <path d="M 121.834711 246.24 
L 124.140496 244.835623 
L 126.446281 243.191286 
L 128.752066 241.267348 
L 131.057851 239.019445 
L 133.363636 236.398699 
L 135.208264 233.998297 
L 137.052893 231.297205 
L 138.897521 228.266535 
L 140.742149 224.877684 
L 142.586777 221.103424 
L 144.892562 215.803405 
L 147.198347 209.817359 
L 149.504132 203.124659 
L 151.809917 195.728111 
L 154.57686 185.971968 
L 157.343802 175.377012 
L 161.033058 160.313668 
L 168.872727 127.949423 
L 171.639669 117.5787 
L 173.945455 109.723937 
L 176.25124 102.711212 
L 178.095868 97.760015 
L 179.940496 93.414233 
L 181.785124 89.669219 
L 183.629752 86.505507 
L 185.47438 83.892153 
L 186.857851 82.270038 
L 188.241322 80.91712 
L 189.624793 79.814166 
L 191.008264 78.941487 
L 192.391736 78.279503 
L 193.775207 77.809075 
L 195.619835 77.448242 
L 206.687603 75.963479 
L 217.755372 74.253417 
L 228.82314 72.317255 
L 240.813223 69.987628 
L 256.031405 66.786548 
L 278.166942 62.134615 
L 286.006612 60.696274 
L 291.540496 59.916556 
L 297.07438 59.346826 
L 303.069421 58.953272 
L 309.52562 58.763763 
L 320.593388 58.74867 
L 398.528926 58.74867 
L 398.528926 58.74867 
" clip-path="url(#pf2d409b0fd)" style="fill: none; stroke: #c14168; stroke-width: 1.5; stroke-linecap: square"/>
   </g>
   <g id="line2d_21">
    <path d="M 121.834711 246.24 
L 124.140496 244.856931 
L 126.446281 243.236779 
L 128.752066 241.340598 
L 131.057851 239.124834 
L 133.363636 236.541541 
L 135.208264 234.175622 
L 137.052893 231.513645 
L 138.897521 228.527307 
L 140.742149 225.188579 
L 142.586777 221.470766 
L 144.892562 216.251333 
L 147.198347 210.357187 
L 149.504132 203.767602 
L 151.809917 196.48465 
L 154.57686 186.876239 
L 157.343802 176.43678 
L 161.033058 161.580578 
L 168.872727 129.569882 
L 171.639669 119.273264 
L 173.945455 111.456955 
L 176.25124 104.462854 
L 178.095868 99.512937 
L 179.940496 95.159136 
L 181.785124 91.398795 
L 183.629752 88.214441 
L 185.47438 85.576989 
L 186.857851 83.935529 
L 188.241322 82.562845 
L 189.624793 81.44021 
L 191.008264 80.548355 
L 192.391736 79.868039 
L 193.775207 79.380395 
L 195.619835 78.998609 
L 207.14876 77.571923 
L 218.677686 75.915257 
L 230.206612 74.029993 
L 242.657851 71.765067 
L 260.181818 68.31998 
L 278.628099 64.744338 
L 284.62314 63.801962 
L 290.618182 63.078421 
L 296.613223 62.56971 
L 303.069421 62.246198 
L 309.986777 62.129262 
L 398.528926 62.129065 
L 398.528926 62.129065 
" clip-path="url(#pf2d409b0fd)" style="fill: none; stroke: #ae3b6d; stroke-width: 1.5; stroke-linecap: square"/>
   </g>
   <g id="line2d_22">
    <path d="M 121.834711 246.24 
L 124.140496 244.878221 
L 126.446281 243.282193 
L 128.752066 241.413651 
L 131.057851 239.229842 
L 133.363636 236.683739 
L 135.669421 233.724628 
L 137.51405 231.024217 
L 139.358678 227.997655 
L 141.203306 224.617699 
L 143.047934 220.85869 
L 145.353719 215.5889 
L 147.659504 209.649757 
L 149.965289 203.024564 
L 152.271074 195.71986 
L 155.038017 186.110303 
L 158.266116 173.905805 
L 162.416529 157.182119 
L 168.41157 132.958707 
L 171.178512 122.598612 
L 173.484298 114.674069 
L 175.790083 107.531765 
L 177.634711 102.43964 
L 179.479339 97.931144 
L 181.323967 94.010289 
L 183.168595 90.664993 
L 185.013223 87.870652 
L 186.396694 86.116319 
L 187.780165 84.636181 
L 189.163636 83.412195 
L 190.547107 82.425706 
L 191.930579 81.65779 
L 193.31405 81.089727 
L 195.158678 80.611777 
L 197.464463 80.334311 
L 209.454545 78.934071 
L 220.983471 77.366372 
L 232.973554 75.512112 
L 246.347107 73.214746 
L 278.628099 67.526335 
L 285.084298 66.76098 
L 291.540496 66.210537 
L 298.457851 65.84715 
L 305.836364 65.692135 
L 327.510744 65.68701 
L 398.528926 65.68701 
L 398.528926 65.68701 
" clip-path="url(#pf2d409b0fd)" style="fill: none; stroke: #9a3670; stroke-width: 1.5; stroke-linecap: square"/>
   </g>
   <g id="line2d_23">
    <path d="M 121.834711 246.24 
L 124.140496 244.899496 
L 126.446281 243.327528 
L 128.752066 241.486507 
L 131.057851 239.33447 
L 133.363636 236.825294 
L 135.669421 233.909273 
L 137.51405 231.248494 
L 139.358678 228.266767 
L 141.203306 224.937398 
L 143.509091 220.248739 
L 145.814876 214.930175 
L 148.120661 208.948357 
L 150.426446 202.290508 
L 152.732231 194.967581 
L 155.499174 185.361696 
L 158.727273 173.205941 
L 163.338843 154.756981 
L 168.872727 132.770684 
L 171.639669 122.624643 
L 173.945455 114.887801 
L 176.25124 107.93356 
L 178.095868 102.988365 
L 179.940496 98.61998 
L 181.785124 94.829878 
L 183.629752 91.604491 
L 185.47438 88.918428 
L 186.857851 87.237542 
L 188.241322 85.824272 
L 189.624793 84.660869 
L 191.008264 83.728964 
L 192.391736 83.010021 
L 193.775207 82.485744 
L 195.619835 82.058846 
L 198.847934 81.724396 
L 210.838017 80.416448 
L 222.828099 78.88765 
L 235.279339 77.077627 
L 250.036364 74.695713 
L 267.560331 71.854815 
L 274.938843 70.947805 
L 282.317355 70.269109 
L 289.695868 69.815863 
L 297.535537 69.564084 
L 306.758678 69.514098 
L 398.528926 69.514098 
L 398.528926 69.514098 
" clip-path="url(#pf2d409b0fd)" style="fill: none; stroke: #863071; stroke-width: 1.5; stroke-linecap: square"/>
   </g>
   <g id="line2d_24">
    <path d="M 121.834711 246.24 
L 124.140496 244.920753 
L 126.446281 243.372783 
L 128.752066 241.559166 
L 131.057851 239.43872 
L 133.363636 236.966211 
L 135.669421 234.092925 
L 137.51405 231.471418 
L 139.358678 228.534083 
L 141.203306 225.254773 
L 143.509091 220.637399 
L 145.814876 215.401097 
L 148.120661 209.512379 
L 150.426446 202.958276 
L 152.732231 195.748786 
L 155.499174 186.28912 
L 158.727273 174.311187 
L 163.338843 156.107677 
L 168.872727 134.354663 
L 171.639669 124.28546 
L 173.945455 116.589963 
L 176.25124 109.657325 
L 178.095868 104.715868 
L 179.940496 100.341257 
L 181.785124 96.537077 
L 183.629752 93.291669 
L 185.47438 90.581475 
L 186.857851 88.880796 
L 188.241322 87.447 
L 189.624793 86.262804 
L 191.008264 85.31032 
L 192.391736 84.571379 
L 193.775207 84.027977 
L 195.619835 83.577348 
L 197.92562 83.335847 
L 210.37686 82.10985 
L 222.828099 80.659708 
L 235.740496 78.932266 
L 257.876033 75.899138 
L 266.638017 75.023628 
L 274.938843 74.415 
L 283.700826 74.003542 
L 292.46281 73.812305 
L 305.836364 73.791068 
L 398.528926 73.791068 
L 398.528926 73.791068 
" clip-path="url(#pf2d409b0fd)" style="fill: none; stroke: #722c6e; stroke-width: 1.5; stroke-linecap: square"/>
   </g>
   <g id="line2d_25">
    <path d="M 121.834711 246.24 
L 124.601653 244.656348 
L 126.907438 243.082872 
L 129.213223 241.239348 
L 131.519008 239.084548 
L 133.824793 236.573382 
L 136.130579 233.657544 
L 137.975207 230.99968 
L 139.819835 228.024554 
L 141.664463 224.706807 
L 143.970248 220.041916 
L 146.276033 214.760498 
L 148.581818 208.833225 
L 150.887603 202.25094 
L 153.193388 195.027872 
L 155.960331 185.577301 
L 159.18843 173.653499 
L 163.8 155.620916 
L 168.872727 135.926182 
L 171.639669 125.934731 
L 173.945455 118.281574 
L 176.25124 111.371593 
L 178.095868 106.434921 
L 179.940496 102.05477 
L 181.785124 98.237027 
L 183.629752 94.971915 
L 185.47438 92.237692 
L 187.319008 90.003569 
L 188.702479 88.634018 
L 190.08595 87.507987 
L 191.469421 86.607865 
L 192.852893 85.915851 
L 194.236364 85.414348 
L 196.080992 85.012492 
L 198.847934 84.765912 
L 211.760331 83.59144 
L 228.361983 81.818102 
L 240.352066 80.686308 
L 251.419835 79.863449 
L 262.026446 79.299076 
L 272.633058 78.95554 
L 283.700826 78.816038 
L 322.438017 78.812605 
L 398.528926 78.812605 
L 398.528926 78.812605 
" clip-path="url(#pf2d409b0fd)" style="fill: none; stroke: #5e2868; stroke-width: 1.5; stroke-linecap: square"/>
   </g>
   <g id="line2d_26">
    <path d="M 121.834711 246.24 
L 124.601653 244.68212 
L 126.907438 243.133125 
L 129.213223 241.317524 
L 131.519008 239.194868 
L 133.824793 236.720954 
L 136.130579 233.848453 
L 138.436364 230.528024 
L 140.280992 227.51578 
L 142.586777 223.265435 
L 144.892562 218.434983 
L 147.198347 212.98428 
L 149.504132 206.892153 
L 151.809917 200.157546 
L 154.57686 191.263493 
L 157.343802 181.578508 
L 161.033058 167.733966 
L 170.256198 132.437184 
L 173.02314 122.926396 
L 175.328926 115.738547 
L 177.634711 109.328382 
L 179.479339 104.805255 
L 181.323967 100.836152 
L 183.168595 97.416562 
L 185.013223 94.529283 
L 186.857851 92.148299 
L 188.241322 90.677413 
L 189.624793 89.458767 
L 191.008264 88.475479 
L 192.391736 87.710194 
L 193.775207 87.145573 
L 195.619835 86.67555 
L 197.464463 86.490861 
L 214.527273 85.744095 
L 230.667769 85.258972 
L 246.808264 84.998768 
L 264.793388 84.942851 
L 398.528926 84.942851 
L 398.528926 84.942851 
" clip-path="url(#pf2d409b0fd)" style="fill: none; stroke: #4b2362; stroke-width: 1.5; stroke-linecap: square"/>
   </g>
   <g id="line2d_27"/>
   <g id="line2d_28"/>
   <g id="line2d_29"/>
   <g id="line2d_30"/>
   <g id="line2d_31"/>
   <g id="patch_3">
    <path d="M 108 256.32 
L 108 34.56 
" style="fill: none; stroke: #000000; stroke-width: 0.8; stroke-linejoin: miter; stroke-linecap: square"/>
   </g>
   <g id="patch_4">
    <path d="M 412.363636 256.32 
L 412.363636 34.56 
" style="fill: none; stroke: #000000; stroke-width: 0.8; stroke-linejoin: miter; stroke-linecap: square"/>
   </g>
   <g id="patch_5">
    <path d="M 108 256.32 
L 412.363636 256.32 
" style="fill: none; stroke: #000000; stroke-width: 0.8; stroke-linejoin: miter; stroke-linecap: square"/>
   </g>
   <g id="patch_6">
    <path d="M 108 34.56 
L 412.363636 34.56 
" style="fill: none; stroke: #000000; stroke-width: 0.8; stroke-linejoin: miter; stroke-linecap: square"/>
   </g>
   <g id="legend_1">
    <g id="patch_7">
     <path d="M 288.041761 251.32 
L 405.363636 251.32 
Q 407.363636 251.32 407.363636 249.32 
L 407.363636 162.25125 
Q 407.363636 160.25125 405.363636 160.25125 
L 288.041761 160.25125 
Q 286.041761 160.25125 286.041761 162.25125 
L 286.041761 249.32 
Q 286.041761 251.32 288.041761 251.32 
z
" style="fill: #ffffff; opacity: 0.8; stroke: #cccccc; stroke-linejoin: miter"/>
    </g>
    <g id="text_16">
     <!-- production yield factor -->
     <g transform="translate(290.041761 171.849688) scale(0.1 -0.1)">
      <defs>
       <path id="DejaVuSans-70" d="M 1159 525 
L 1159 -1331 
L 581 -1331 
L 581 3500 
L 1159 3500 
L 1159 2969 
Q 1341 3281 1617 3432 
Q 1894 3584 2278 3584 
Q 2916 3584 3314 3078 
Q 3713 2572 3713 1747 
Q 3713 922 3314 415 
Q 2916 -91 2278 -91 
Q 1894 -91 1617 61 
Q 1341 213 1159 525 
z
M 3116 1747 
Q 3116 2381 2855 2742 
Q 2594 3103 2138 3103 
Q 1681 3103 1420 2742 
Q 1159 2381 1159 1747 
Q 1159 1113 1420 752 
Q 1681 391 2138 391 
Q 2594 391 2855 752 
Q 3116 1113 3116 1747 
z
" transform="scale(0.015625)"/>
       <path id="DejaVuSans-72" d="M 2631 2963 
Q 2534 3019 2420 3045 
Q 2306 3072 2169 3072 
Q 1681 3072 1420 2755 
Q 1159 2438 1159 1844 
L 1159 0 
L 581 0 
L 581 3500 
L 1159 3500 
L 1159 2956 
Q 1341 3275 1631 3429 
Q 1922 3584 2338 3584 
Q 2397 3584 2469 3576 
Q 2541 3569 2628 3553 
L 2631 2963 
z
" transform="scale(0.015625)"/>
       <path id="DejaVuSans-64" d="M 2906 2969 
L 2906 4863 
L 3481 4863 
L 3481 0 
L 2906 0 
L 2906 525 
Q 2725 213 2448 61 
Q 2172 -91 1784 -91 
Q 1150 -91 751 415 
Q 353 922 353 1747 
Q 353 2572 751 3078 
Q 1150 3584 1784 3584 
Q 2172 3584 2448 3432 
Q 2725 3281 2906 2969 
z
M 947 1747 
Q 947 1113 1208 752 
Q 1469 391 1925 391 
Q 2381 391 2643 752 
Q 2906 1113 2906 1747 
Q 2906 2381 2643 2742 
Q 2381 3103 1925 3103 
Q 1469 3103 1208 2742 
Q 947 2381 947 1747 
z
" transform="scale(0.015625)"/>
       <path id="DejaVuSans-75" d="M 544 1381 
L 544 3500 
L 1119 3500 
L 1119 1403 
Q 1119 906 1312 657 
Q 1506 409 1894 409 
Q 2359 409 2629 706 
Q 2900 1003 2900 1516 
L 2900 3500 
L 3475 3500 
L 3475 0 
L 2900 0 
L 2900 538 
Q 2691 219 2414 64 
Q 2138 -91 1772 -91 
Q 1169 -91 856 284 
Q 544 659 544 1381 
z
M 1991 3584 
L 1991 3584 
z
" transform="scale(0.015625)"/>
       <path id="DejaVuSans-63" d="M 3122 3366 
L 3122 2828 
Q 2878 2963 2633 3030 
Q 2388 3097 2138 3097 
Q 1578 3097 1268 2742 
Q 959 2388 959 1747 
Q 959 1106 1268 751 
Q 1578 397 2138 397 
Q 2388 397 2633 464 
Q 2878 531 3122 666 
L 3122 134 
Q 2881 22 2623 -34 
Q 2366 -91 2075 -91 
Q 1284 -91 818 406 
Q 353 903 353 1747 
Q 353 2603 823 3093 
Q 1294 3584 2113 3584 
Q 2378 3584 2631 3529 
Q 2884 3475 3122 3366 
z
" transform="scale(0.015625)"/>
       <path id="DejaVuSans-74" d="M 1172 4494 
L 1172 3500 
L 2356 3500 
L 2356 3053 
L 1172 3053 
L 1172 1153 
Q 1172 725 1289 603 
Q 1406 481 1766 481 
L 2356 481 
L 2356 0 
L 1766 0 
Q 1100 0 847 248 
Q 594 497 594 1153 
L 594 3053 
L 172 3053 
L 172 3500 
L 594 3500 
L 594 4494 
L 1172 4494 
z
" transform="scale(0.015625)"/>
       <path id="DejaVuSans-6e" d="M 3513 2113 
L 3513 0 
L 2938 0 
L 2938 2094 
Q 2938 2591 2744 2837 
Q 2550 3084 2163 3084 
Q 1697 3084 1428 2787 
Q 1159 2491 1159 1978 
L 1159 0 
L 581 0 
L 581 3500 
L 1159 3500 
L 1159 2956 
Q 1366 3272 1645 3428 
Q 1925 3584 2291 3584 
Q 2894 3584 3203 3211 
Q 3513 2838 3513 2113 
z
" transform="scale(0.015625)"/>
       <path id="DejaVuSans-79" d="M 2059 -325 
Q 1816 -950 1584 -1140 
Q 1353 -1331 966 -1331 
L 506 -1331 
L 506 -850 
L 844 -850 
Q 1081 -850 1212 -737 
Q 1344 -625 1503 -206 
L 1606 56 
L 191 3500 
L 800 3500 
L 1894 763 
L 2988 3500 
L 3597 3500 
L 2059 -325 
z
" transform="scale(0.015625)"/>
       <path id="DejaVuSans-6c" d="M 603 4863 
L 1178 4863 
L 1178 0 
L 603 0 
L 603 4863 
z
" transform="scale(0.015625)"/>
       <path id="DejaVuSans-66" d="M 2375 4863 
L 2375 4384 
L 1825 4384 
Q 1516 4384 1395 4259 
Q 1275 4134 1275 3809 
L 1275 3500 
L 2222 3500 
L 2222 3053 
L 1275 3053 
L 1275 0 
L 697 0 
L 697 3053 
L 147 3053 
L 147 3500 
L 697 3500 
L 697 3744 
Q 697 4328 969 4595 
Q 1241 4863 1831 4863 
L 2375 4863 
z
" transform="scale(0.015625)"/>
      </defs>
      <use xlink:href="#DejaVuSans-70"/>
      <use xlink:href="#DejaVuSans-72" x="63.476562"/>
      <use xlink:href="#DejaVuSans-6f" x="102.339844"/>
      <use xlink:href="#DejaVuSans-64" x="163.521484"/>
      <use xlink:href="#DejaVuSans-75" x="226.998047"/>
      <use xlink:href="#DejaVuSans-63" x="290.376953"/>
      <use xlink:href="#DejaVuSans-74" x="345.357422"/>
      <use xlink:href="#DejaVuSans-69" x="384.566406"/>
      <use xlink:href="#DejaVuSans-6f" x="412.349609"/>
      <use xlink:href="#DejaVuSans-6e" x="473.53125"/>
      <use xlink:href="#DejaVuSans-20" x="536.910156"/>
      <use xlink:href="#DejaVuSans-79" x="568.697266"/>
      <use xlink:href="#DejaVuSans-69" x="627.876953"/>
      <use xlink:href="#DejaVuSans-65" x="655.660156"/>
      <use xlink:href="#DejaVuSans-6c" x="717.183594"/>
      <use xlink:href="#DejaVuSans-64" x="744.966797"/>
      <use xlink:href="#DejaVuSans-20" x="808.443359"/>
      <use xlink:href="#DejaVuSans-66" x="840.230469"/>
      <use xlink:href="#DejaVuSans-61" x="875.435547"/>
      <use xlink:href="#DejaVuSans-63" x="936.714844"/>
      <use xlink:href="#DejaVuSans-74" x="991.695312"/>
      <use xlink:href="#DejaVuSans-6f" x="1030.904297"/>
      <use xlink:href="#DejaVuSans-72" x="1092.085938"/>
     </g>
    </g>
    <g id="line2d_32">
     <path d="M 321.569886 183.027813 
L 331.569886 183.027813 
L 341.569886 183.027813 
" style="fill: none; stroke: #edb081; stroke-width: 1.5; stroke-linecap: square"/>
    </g>
    <g id="text_17">
     <!-- 2.50 -->
     <g transform="translate(349.569886 186.527813) scale(0.1 -0.1)">
      <use xlink:href="#DejaVuSans-32"/>
      <use xlink:href="#DejaVuSans-2e" x="63.623047"/>
      <use xlink:href="#DejaVuSans-35" x="95.410156"/>
      <use xlink:href="#DejaVuSans-30" x="159.033203"/>
     </g>
    </g>
    <g id="line2d_33">
     <path d="M 321.569886 197.705938 
L 331.569886 197.705938 
L 341.569886 197.705938 
" style="fill: none; stroke: #e77c63; stroke-width: 1.5; stroke-linecap: square"/>
    </g>
    <g id="text_18">
     <!-- 2.75 -->
     <g transform="translate(349.569886 201.205938) scale(0.1 -0.1)">
      <defs>
       <path id="DejaVuSans-37" d="M 525 4666 
L 3525 4666 
L 3525 4397 
L 1831 0 
L 1172 0 
L 2766 4134 
L 525 4134 
L 525 4666 
z
" transform="scale(0.015625)"/>
      </defs>
      <use xlink:href="#DejaVuSans-32"/>
      <use xlink:href="#DejaVuSans-2e" x="63.623047"/>
      <use xlink:href="#DejaVuSans-37" x="95.410156"/>
      <use xlink:href="#DejaVuSans-35" x="159.033203"/>
     </g>
    </g>
    <g id="line2d_34">
     <path d="M 321.569886 212.384063 
L 331.569886 212.384063 
L 341.569886 212.384063 
" style="fill: none; stroke: #d34c60; stroke-width: 1.5; stroke-linecap: square"/>
    </g>
    <g id="text_19">
     <!-- 3.00 -->
     <g transform="translate(349.569886 215.884063) scale(0.1 -0.1)">
      <use xlink:href="#DejaVuSans-33"/>
      <use xlink:href="#DejaVuSans-2e" x="63.623047"/>
      <use xlink:href="#DejaVuSans-30" x="95.410156"/>
      <use xlink:href="#DejaVuSans-30" x="159.033203"/>
     </g>
    </g>
    <g id="line2d_35">
     <path d="M 321.569886 227.062188 
L 331.569886 227.062188 
L 341.569886 227.062188 
" style="fill: none; stroke: #a4386f; stroke-width: 1.5; stroke-linecap: square"/>
    </g>
    <g id="text_20">
     <!-- 3.25 -->
     <g transform="translate(349.569886 230.562188) scale(0.1 -0.1)">
      <use xlink:href="#DejaVuSans-33"/>
      <use xlink:href="#DejaVuSans-2e" x="63.623047"/>
      <use xlink:href="#DejaVuSans-32" x="95.410156"/>
      <use xlink:href="#DejaVuSans-35" x="159.033203"/>
     </g>
    </g>
    <g id="line2d_36">
     <path d="M 321.569886 241.740313 
L 331.569886 241.740313 
L 341.569886 241.740313 
" style="fill: none; stroke: #722c6e; stroke-width: 1.5; stroke-linecap: square"/>
    </g>
    <g id="text_21">
     <!-- 3.50 -->
     <g transform="translate(349.569886 245.240313) scale(0.1 -0.1)">
      <use xlink:href="#DejaVuSans-33"/>
      <use xlink:href="#DejaVuSans-2e" x="63.623047"/>
      <use xlink:href="#DejaVuSans-35" x="95.410156"/>
      <use xlink:href="#DejaVuSans-30" x="159.033203"/>
     </g>
    </g>
   </g>
  </g>
  <g id="axes_2">
   <g id="patch_8">
    <path d="M 473.236364 256.32 
L 777.6 256.32 
L 777.6 34.56 
L 473.236364 34.56 
z
" style="fill: #ffffff"/>
   </g>
   <g id="PolyCollection_14"/>
   <g id="PolyCollection_15"/>
   <g id="PolyCollection_16"/>
   <g id="PolyCollection_17"/>
   <g id="PolyCollection_18"/>
   <g id="PolyCollection_19"/>
   <g id="PolyCollection_20"/>
   <g id="PolyCollection_21"/>
   <g id="PolyCollection_22"/>
   <g id="PolyCollection_23"/>
   <g id="PolyCollection_24"/>
   <g id="PolyCollection_25"/>
   <g id="PolyCollection_26"/>
   <g id="matplotlib.axis_3">
    <g id="xtick_8">
     <g id="line2d_37">
      <g>
       <use xlink:href="#me6632bb28f" x="487.071074" y="256.32" style="stroke: #000000; stroke-width: 0.8"/>
      </g>
     </g>
     <g id="text_22">
      <!-- 0 -->
      <g transform="translate(483.889824 270.918437) scale(0.1 -0.1)">
       <use xlink:href="#DejaVuSans-30"/>
      </g>
     </g>
    </g>
    <g id="xtick_9">
     <g id="line2d_38">
      <g>
       <use xlink:href="#me6632bb28f" x="533.186777" y="256.32" style="stroke: #000000; stroke-width: 0.8"/>
      </g>
     </g>
     <g id="text_23">
      <!-- 10 -->
      <g transform="translate(526.824277 270.918437) scale(0.1 -0.1)">
       <use xlink:href="#DejaVuSans-31"/>
       <use xlink:href="#DejaVuSans-30" x="63.623047"/>
      </g>
     </g>
    </g>
    <g id="xtick_10">
     <g id="line2d_39">
      <g>
       <use xlink:href="#me6632bb28f" x="579.302479" y="256.32" style="stroke: #000000; stroke-width: 0.8"/>
      </g>
     </g>
     <g id="text_24">
      <!-- 20 -->
      <g transform="translate(572.939979 270.918437) scale(0.1 -0.1)">
       <use xlink:href="#DejaVuSans-32"/>
       <use xlink:href="#DejaVuSans-30" x="63.623047"/>
      </g>
     </g>
    </g>
    <g id="xtick_11">
     <g id="line2d_40">
      <g>
       <use xlink:href="#me6632bb28f" x="625.418182" y="256.32" style="stroke: #000000; stroke-width: 0.8"/>
      </g>
     </g>
     <g id="text_25">
      <!-- 30 -->
      <g transform="translate(619.055682 270.918437) scale(0.1 -0.1)">
       <use xlink:href="#DejaVuSans-33"/>
       <use xlink:href="#DejaVuSans-30" x="63.623047"/>
      </g>
     </g>
    </g>
    <g id="xtick_12">
     <g id="line2d_41">
      <g>
       <use xlink:href="#me6632bb28f" x="671.533884" y="256.32" style="stroke: #000000; stroke-width: 0.8"/>
      </g>
     </g>
     <g id="text_26">
      <!-- 40 -->
      <g transform="translate(665.171384 270.918437) scale(0.1 -0.1)">
       <use xlink:href="#DejaVuSans-34"/>
       <use xlink:href="#DejaVuSans-30" x="63.623047"/>
      </g>
     </g>
    </g>
    <g id="xtick_13">
     <g id="line2d_42">
      <g>
       <use xlink:href="#me6632bb28f" x="717.649587" y="256.32" style="stroke: #000000; stroke-width: 0.8"/>
      </g>
     </g>
     <g id="text_27">
      <!-- 50 -->
      <g transform="translate(711.287087 270.918437) scale(0.1 -0.1)">
       <use xlink:href="#DejaVuSans-35"/>
       <use xlink:href="#DejaVuSans-30" x="63.623047"/>
      </g>
     </g>
    </g>
    <g id="xtick_14">
     <g id="line2d_43">
      <g>
       <use xlink:href="#me6632bb28f" x="763.765289" y="256.32" style="stroke: #000000; stroke-width: 0.8"/>
      </g>
     </g>
     <g id="text_28">
      <!-- 60 -->
      <g transform="translate(757.402789 270.918437) scale(0.1 -0.1)">
       <use xlink:href="#DejaVuSans-36"/>
       <use xlink:href="#DejaVuSans-30" x="63.623047"/>
      </g>
     </g>
    </g>
    <g id="text_29">
     <!-- Time -->
     <g transform="translate(613.184588 284.596563) scale(0.1 -0.1)">
      <use xlink:href="#DejaVuSans-54"/>
      <use xlink:href="#DejaVuSans-69" x="57.958984"/>
      <use xlink:href="#DejaVuSans-6d" x="85.742188"/>
      <use xlink:href="#DejaVuSans-65" x="183.154297"/>
     </g>
    </g>
   </g>
   <g id="matplotlib.axis_4">
    <g id="ytick_7">
     <g id="line2d_44">
      <g>
       <use xlink:href="#m095910bd42" x="473.236364" y="246.24" style="stroke: #000000; stroke-width: 0.8"/>
      </g>
     </g>
     <g id="text_30">
      <!-- 0.000 -->
      <g transform="translate(437.608239 250.039219) scale(0.1 -0.1)">
       <use xlink:href="#DejaVuSans-30"/>
       <use xlink:href="#DejaVuSans-2e" x="63.623047"/>
       <use xlink:href="#DejaVuSans-30" x="95.410156"/>
       <use xlink:href="#DejaVuSans-30" x="159.033203"/>
       <use xlink:href="#DejaVuSans-30" x="222.65625"/>
      </g>
     </g>
    </g>
    <g id="ytick_8">
     <g id="line2d_45">
      <g>
       <use xlink:href="#m095910bd42" x="473.236364" y="215.745124" style="stroke: #000000; stroke-width: 0.8"/>
      </g>
     </g>
     <g id="text_31">
      <!-- 0.025 -->
      <g transform="translate(437.608239 219.544343) scale(0.1 -0.1)">
       <use xlink:href="#DejaVuSans-30"/>
       <use xlink:href="#DejaVuSans-2e" x="63.623047"/>
       <use xlink:href="#DejaVuSans-30" x="95.410156"/>
       <use xlink:href="#DejaVuSans-32" x="159.033203"/>
       <use xlink:href="#DejaVuSans-35" x="222.65625"/>
      </g>
     </g>
    </g>
    <g id="ytick_9">
     <g id="line2d_46">
      <g>
       <use xlink:href="#m095910bd42" x="473.236364" y="185.250248" style="stroke: #000000; stroke-width: 0.8"/>
      </g>
     </g>
     <g id="text_32">
      <!-- 0.050 -->
      <g transform="translate(437.608239 189.049467) scale(0.1 -0.1)">
       <use xlink:href="#DejaVuSans-30"/>
       <use xlink:href="#DejaVuSans-2e" x="63.623047"/>
       <use xlink:href="#DejaVuSans-30" x="95.410156"/>
       <use xlink:href="#DejaVuSans-35" x="159.033203"/>
       <use xlink:href="#DejaVuSans-30" x="222.65625"/>
      </g>
     </g>
    </g>
    <g id="ytick_10">
     <g id="line2d_47">
      <g>
       <use xlink:href="#m095910bd42" x="473.236364" y="154.755372" style="stroke: #000000; stroke-width: 0.8"/>
      </g>
     </g>
     <g id="text_33">
      <!-- 0.075 -->
      <g transform="translate(437.608239 158.554591) scale(0.1 -0.1)">
       <use xlink:href="#DejaVuSans-30"/>
       <use xlink:href="#DejaVuSans-2e" x="63.623047"/>
       <use xlink:href="#DejaVuSans-30" x="95.410156"/>
       <use xlink:href="#DejaVuSans-37" x="159.033203"/>
       <use xlink:href="#DejaVuSans-35" x="222.65625"/>
      </g>
     </g>
    </g>
    <g id="ytick_11">
     <g id="line2d_48">
      <g>
       <use xlink:href="#m095910bd42" x="473.236364" y="124.260496" style="stroke: #000000; stroke-width: 0.8"/>
      </g>
     </g>
     <g id="text_34">
      <!-- 0.100 -->
      <g transform="translate(437.608239 128.059715) scale(0.1 -0.1)">
       <use xlink:href="#DejaVuSans-30"/>
       <use xlink:href="#DejaVuSans-2e" x="63.623047"/>
       <use xlink:href="#DejaVuSans-31" x="95.410156"/>
       <use xlink:href="#DejaVuSans-30" x="159.033203"/>
       <use xlink:href="#DejaVuSans-30" x="222.65625"/>
      </g>
     </g>
    </g>
    <g id="ytick_12">
     <g id="line2d_49">
      <g>
       <use xlink:href="#m095910bd42" x="473.236364" y="93.76562" style="stroke: #000000; stroke-width: 0.8"/>
      </g>
     </g>
     <g id="text_35">
      <!-- 0.125 -->
      <g transform="translate(437.608239 97.564839) scale(0.1 -0.1)">
       <use xlink:href="#DejaVuSans-30"/>
       <use xlink:href="#DejaVuSans-2e" x="63.623047"/>
       <use xlink:href="#DejaVuSans-31" x="95.410156"/>
       <use xlink:href="#DejaVuSans-32" x="159.033203"/>
       <use xlink:href="#DejaVuSans-35" x="222.65625"/>
      </g>
     </g>
    </g>
    <g id="ytick_13">
     <g id="line2d_50">
      <g>
       <use xlink:href="#m095910bd42" x="473.236364" y="63.270744" style="stroke: #000000; stroke-width: 0.8"/>
      </g>
     </g>
     <g id="text_36">
      <!-- 0.150 -->
      <g transform="translate(437.608239 67.069963) scale(0.1 -0.1)">
       <use xlink:href="#DejaVuSans-30"/>
       <use xlink:href="#DejaVuSans-2e" x="63.623047"/>
       <use xlink:href="#DejaVuSans-31" x="95.410156"/>
       <use xlink:href="#DejaVuSans-35" x="159.033203"/>
       <use xlink:href="#DejaVuSans-30" x="222.65625"/>
      </g>
     </g>
    </g>
    <g id="text_37">
     <!-- RA produced (mmol) -->
     <g transform="translate(431.528551 196.922812) rotate(-90) scale(0.1 -0.1)">
      <defs>
       <path id="DejaVuSans-52" d="M 2841 2188 
Q 3044 2119 3236 1894 
Q 3428 1669 3622 1275 
L 4263 0 
L 3584 0 
L 2988 1197 
Q 2756 1666 2539 1819 
Q 2322 1972 1947 1972 
L 1259 1972 
L 1259 0 
L 628 0 
L 628 4666 
L 2053 4666 
Q 2853 4666 3247 4331 
Q 3641 3997 3641 3322 
Q 3641 2881 3436 2590 
Q 3231 2300 2841 2188 
z
M 1259 4147 
L 1259 2491 
L 2053 2491 
Q 2509 2491 2742 2702 
Q 2975 2913 2975 3322 
Q 2975 3731 2742 3939 
Q 2509 4147 2053 4147 
L 1259 4147 
z
" transform="scale(0.015625)"/>
       <path id="DejaVuSans-41" d="M 2188 4044 
L 1331 1722 
L 3047 1722 
L 2188 4044 
z
M 1831 4666 
L 2547 4666 
L 4325 0 
L 3669 0 
L 3244 1197 
L 1141 1197 
L 716 0 
L 50 0 
L 1831 4666 
z
" transform="scale(0.015625)"/>
      </defs>
      <use xlink:href="#DejaVuSans-52"/>
      <use xlink:href="#DejaVuSans-41" x="65.482422"/>
      <use xlink:href="#DejaVuSans-20" x="133.890625"/>
      <use xlink:href="#DejaVuSans-70" x="165.677734"/>
      <use xlink:href="#DejaVuSans-72" x="229.154297"/>
      <use xlink:href="#DejaVuSans-6f" x="268.017578"/>
      <use xlink:href="#DejaVuSans-64" x="329.199219"/>
      <use xlink:href="#DejaVuSans-75" x="392.675781"/>
      <use xlink:href="#DejaVuSans-63" x="456.054688"/>
      <use xlink:href="#DejaVuSans-65" x="511.035156"/>
      <use xlink:href="#DejaVuSans-64" x="572.558594"/>
      <use xlink:href="#DejaVuSans-20" x="636.035156"/>
      <use xlink:href="#DejaVuSans-28" x="667.822266"/>
      <use xlink:href="#DejaVuSans-6d" x="706.835938"/>
      <use xlink:href="#DejaVuSans-6d" x="804.248047"/>
      <use xlink:href="#DejaVuSans-6f" x="901.660156"/>
      <use xlink:href="#DejaVuSans-6c" x="962.841797"/>
      <use xlink:href="#DejaVuSans-29" x="990.625"/>
     </g>
    </g>
   </g>
   <g id="line2d_51">
    <path d="M 487.071074 246.24 
L 507.82314 246.140141 
L 512.895868 244.912055 
L 517.968595 243.443073 
L 523.041322 241.725443 
L 527.652893 239.93852 
L 532.264463 237.925259 
L 536.876033 235.671944 
L 541.487603 233.162547 
L 546.099174 230.378836 
L 550.249587 227.622221 
L 554.4 224.610905 
L 558.550413 221.327748 
L 562.700826 217.754789 
L 566.85124 213.873559 
L 571.001653 209.665473 
L 575.152066 205.11233 
L 579.302479 200.196922 
L 583.452893 194.903773 
L 587.603306 189.219975 
L 591.753719 183.136145 
L 595.904132 176.647449 
L 600.054545 169.754661 
L 604.666116 161.63134 
L 609.277686 153.039672 
L 614.350413 143.088794 
L 619.884298 131.709712 
L 630.490909 109.614446 
L 634.180165 102.6141 
L 637.869421 96.087956 
L 641.097521 90.784801 
L 644.32562 85.868228 
L 647.553719 81.336471 
L 650.781818 77.181268 
L 654.009917 73.389124 
L 657.238017 69.942567 
L 660.466116 66.821332 
L 662.771901 64.778903 
L 763.765289 64.778903 
L 763.765289 64.778903 
" clip-path="url(#p495675de2a)" style="fill: none; stroke: #edb081; stroke-width: 1.5; stroke-linecap: square"/>
   </g>
   <g id="line2d_52">
    <path d="M 487.071074 246.24 
L 507.82314 246.138652 
L 512.895868 244.892847 
L 517.968595 243.404785 
L 523.041322 241.667477 
L 527.652893 239.862841 
L 532.264463 237.832757 
L 536.876033 235.564299 
L 541.487603 233.042344 
L 546.099174 230.249694 
L 550.249587 227.489102 
L 554.4 224.47866 
L 558.550413 221.202299 
L 562.700826 217.64323 
L 566.85124 213.784243 
L 571.001653 209.608075 
L 575.152066 205.097885 
L 579.302479 200.23781 
L 583.452893 195.013642 
L 587.603306 189.413586 
L 591.753719 183.42912 
L 595.904132 177.05591 
L 600.054545 170.294752 
L 604.666116 162.335901 
L 609.277686 153.926101 
L 614.350413 144.191743 
L 619.884298 133.061868 
L 626.340496 119.534446 
L 630.952066 109.909449 
L 635.102479 101.793977 
L 638.791736 95.072581 
L 642.480992 88.843333 
L 645.709091 83.806357 
L 648.93719 79.155437 
L 652.165289 74.883647 
L 655.393388 70.978624 
L 658.621488 67.423803 
L 661.849587 64.199605 
L 664.616529 61.68286 
L 763.765289 61.68286 
L 763.765289 61.68286 
" clip-path="url(#p495675de2a)" style="fill: none; stroke: #eb9b74; stroke-width: 1.5; stroke-linecap: square"/>
   </g>
   <g id="line2d_53">
    <path d="M 487.071074 246.24 
L 508.284298 246.134746 
L 513.357025 244.845266 
L 518.429752 243.311839 
L 523.502479 241.527831 
L 528.11405 239.679965 
L 532.72562 237.606354 
L 537.33719 235.294609 
L 541.94876 232.730267 
L 546.560331 229.896933 
L 551.171901 226.776454 
L 555.322314 223.70628 
L 559.472727 220.372398 
L 563.62314 216.759047 
L 567.773554 212.850201 
L 571.923967 208.629948 
L 576.07438 204.082938 
L 580.224793 199.194934 
L 584.375207 193.953436 
L 588.52562 188.3484 
L 592.676033 182.373016 
L 596.826446 176.024539 
L 601.438017 168.535901 
L 606.049587 160.600697 
L 610.661157 152.240008 
L 615.733884 142.590038 
L 621.267769 131.587903 
L 627.723967 118.252286 
L 635.563636 102.029799 
L 639.252893 95.003292 
L 642.942149 88.460632 
L 646.170248 83.148208 
L 649.398347 78.225166 
L 652.626446 73.688205 
L 655.854545 69.527905 
L 659.082645 65.729961 
L 662.310744 62.276395 
L 665.538843 59.146679 
L 666.922314 57.899071 
L 763.765289 57.899071 
L 763.765289 57.899071 
" clip-path="url(#p495675de2a)" style="fill: none; stroke: #e98768; stroke-width: 1.5; stroke-linecap: square"/>
   </g>
   <g id="line2d_54">
    <path d="M 487.071074 246.24 
L 508.284298 246.133236 
L 513.357025 244.82625 
L 518.429752 243.274201 
L 523.502479 241.471239 
L 528.11405 239.60657 
L 532.72562 237.517297 
L 537.33719 235.19183 
L 541.94876 232.616608 
L 546.560331 229.776261 
L 551.171901 226.653791 
L 555.322314 223.587186 
L 559.472727 220.263028 
L 563.62314 216.666683 
L 567.773554 212.783324 
L 571.923967 208.59829 
L 576.07438 204.097507 
L 580.224793 199.267988 
L 584.375207 194.098412 
L 588.52562 188.579764 
L 592.676033 182.706045 
L 596.826446 176.474999 
L 601.438017 169.135414 
L 606.049587 161.36819 
L 611.122314 152.353933 
L 616.195041 142.885619 
L 621.728926 132.102687 
L 628.185124 119.041691 
L 640.175207 94.616424 
L 643.864463 87.855583 
L 647.553719 81.591595 
L 650.781818 76.526416 
L 654.009917 71.848224 
L 657.238017 67.549348 
L 660.466116 63.616957 
L 663.694215 60.03425 
L 666.922314 56.781584 
L 669.228099 54.64847 
L 763.765289 54.64847 
L 763.765289 54.64847 
" clip-path="url(#p495675de2a)" style="fill: none; stroke: #e5715e; stroke-width: 1.5; stroke-linecap: square"/>
   </g>
   <g id="line2d_55">
    <path d="M 487.071074 246.24 
L 508.284298 246.131742 
L 513.357025 244.807469 
L 518.429752 243.2371 
L 523.502479 241.415581 
L 528.11405 239.534556 
L 532.72562 237.430149 
L 537.33719 235.091566 
L 541.94876 232.506142 
L 546.560331 229.659515 
L 551.171901 226.535821 
L 555.783471 223.117946 
L 559.933884 219.775417 
L 564.084298 216.166406 
L 568.234711 212.277254 
L 572.385124 208.094555 
L 576.535537 203.605558 
L 580.68595 198.798637 
L 584.836364 193.663822 
L 588.986777 188.193388 
L 593.13719 182.382492 
L 597.74876 175.525176 
L 602.360331 168.250337 
L 606.971901 160.569691 
L 612.044628 151.676365 
L 617.578512 141.488401 
L 623.573554 129.957043 
L 630.490909 116.155007 
L 644.32562 88.359715 
L 648.014876 81.752716 
L 651.242975 76.384353 
L 654.471074 71.405236 
L 657.699174 66.811877 
L 660.927273 62.594879 
L 664.155372 58.740113 
L 667.383471 55.229881 
L 670.61157 52.043991 
L 671.995041 50.772547 
L 763.765289 50.772547 
L 763.765289 50.772547 
" clip-path="url(#p495675de2a)" style="fill: none; stroke: #de5d5c; stroke-width: 1.5; stroke-linecap: square"/>
   </g>
   <g id="line2d_56">
    <path d="M 487.071074 246.24 
L 508.284298 246.130287 
L 513.357025 244.78894 
L 518.429752 243.200549 
L 523.502479 241.360861 
L 528.11405 239.463914 
L 532.72562 237.344887 
L 537.33719 234.993775 
L 541.94876 232.3988 
L 546.560331 229.546592 
L 551.171901 226.422403 
L 555.783471 223.010349 
L 560.395041 219.293724 
L 564.545455 215.674178 
L 568.695868 211.781518 
L 572.846281 207.603562 
L 576.996694 203.128844 
L 581.147107 198.347048 
L 585.297521 193.249506 
L 589.447934 187.829725 
L 594.059504 181.425374 
L 598.671074 174.618404 
L 603.282645 167.414601 
L 608.355372 159.047455 
L 613.428099 150.243234 
L 618.961983 140.186721 
L 624.957025 128.836587 
L 632.335537 114.371845 
L 648.014876 83.368005 
L 651.704132 76.885501 
L 654.932231 71.626289 
L 658.160331 66.753929 
L 661.38843 62.262976 
L 664.616529 58.142566 
L 667.844628 54.37757 
L 671.072727 50.949693 
L 674.300826 47.83849 
L 674.761983 47.418627 
L 763.765289 47.418627 
L 763.765289 47.418627 
" clip-path="url(#p495675de2a)" style="fill: none; stroke: #d34c60; stroke-width: 1.5; stroke-linecap: square"/>
   </g>
   <g id="line2d_57">
    <path d="M 487.071074 246.24 
L 508.284298 246.24 
L 513.357025 244.877285 
L 518.429752 243.266647 
L 523.502479 241.404587 
L 528.575207 239.284182 
L 533.186777 237.124037 
L 537.798347 234.732761 
L 542.409917 232.09926 
L 547.021488 229.210976 
L 551.633058 226.054108 
L 556.244628 222.613874 
L 560.856198 218.874817 
L 565.467769 214.821182 
L 569.618182 210.891041 
L 573.768595 206.682529 
L 577.919008 202.185547 
L 582.530579 196.839836 
L 587.142149 191.117395 
L 591.753719 185.011948 
L 596.365289 178.521498 
L 600.97686 171.649191 
L 606.049587 163.659665 
L 611.122314 155.24067 
L 616.656198 145.604271 
L 622.65124 134.696442 
L 629.568595 121.621931 
L 638.791736 103.65794 
L 650.320661 81.176994 
L 654.009917 74.617933 
L 657.238017 69.288564 
L 660.466116 64.344078 
L 663.694215 59.779977 
L 666.922314 55.586306 
L 670.150413 51.748765 
L 673.378512 48.249785 
L 676.606612 45.06953 
L 677.067769 44.64 
L 763.765289 44.64 
L 763.765289 44.64 
" clip-path="url(#p495675de2a)" style="fill: none; stroke: #c14168; stroke-width: 1.5; stroke-linecap: square"/>
   </g>
   <g id="line2d_58">
    <path d="M 487.071074 246.24 
L 508.284298 246.24 
L 513.357025 244.86056 
L 518.429752 243.232408 
L 523.502479 241.352859 
L 528.575207 239.21586 
L 533.186777 237.042203 
L 537.798347 234.639725 
L 542.409917 231.998208 
L 547.021488 229.106067 
L 551.633058 225.95058 
L 556.244628 222.518147 
L 560.856198 218.794601 
L 565.467769 214.765568 
L 570.079339 210.416902 
L 574.690909 205.735184 
L 579.302479 200.708304 
L 583.91405 195.326115 
L 588.52562 189.581147 
L 593.13719 183.469369 
L 597.74876 176.990965 
L 602.360331 170.151081 
L 607.433058 162.222759 
L 612.505785 153.893262 
L 618.039669 144.387583 
L 624.034711 133.65964 
L 631.413223 119.970063 
L 641.558678 100.613833 
L 645.709091 92.857071 
L 649.398347 86.404408 
L 653.087603 80.389997 
L 656.77686 74.823428 
L 660.004959 70.319946 
L 663.233058 66.153483 
L 666.461157 62.314241 
L 669.689256 58.789155 
L 672.917355 55.562725 
L 675.684298 53.021931 
L 763.765289 53.021931 
L 763.765289 53.021931 
" clip-path="url(#p495675de2a)" style="fill: none; stroke: #ae3b6d; stroke-width: 1.5; stroke-linecap: square"/>
   </g>
   <g id="line2d_59">
    <path d="M 487.071074 246.24 
L 508.284298 246.24 
L 513.357025 244.844032 
L 518.429752 243.198651 
L 523.502479 241.301982 
L 528.575207 239.148842 
L 533.647934 236.731172 
L 538.259504 234.294897 
L 542.871074 231.621808 
L 547.482645 228.70116 
L 552.094215 225.521194 
L 556.705785 222.069401 
L 561.317355 218.332833 
L 565.928926 214.298459 
L 570.540496 209.953583 
L 575.152066 205.286326 
L 579.763636 200.286165 
L 584.375207 194.944538 
L 588.986777 189.2555 
L 593.598347 183.216401 
L 598.209917 176.828575 
L 603.282645 169.406461 
L 608.355372 161.584975 
L 613.889256 152.624907 
L 619.884298 142.463207 
L 626.340496 131.0698 
L 634.180165 116.760642 
L 638.791736 108.441836 
L 642.942149 101.401831 
L 647.092562 94.823203 
L 650.781818 89.380613 
L 654.471074 84.325896 
L 658.160331 79.657607 
L 661.849587 75.367893 
L 665.538843 71.44372 
L 669.228099 67.868093 
L 672.917355 64.621203 
L 763.765289 64.621203 
L 763.765289 64.621203 
" clip-path="url(#p495675de2a)" style="fill: none; stroke: #9a3670; stroke-width: 1.5; stroke-linecap: square"/>
   </g>
   <g id="line2d_60">
    <path d="M 487.071074 246.24 
L 508.745455 246.24 
L 513.818182 244.800178 
L 518.890909 243.110359 
L 523.963636 241.169111 
L 529.036364 238.971786 
L 534.109091 236.510983 
L 538.720661 234.037067 
L 543.332231 231.328557 
L 547.943802 228.375525 
L 552.555372 225.167147 
L 557.166942 221.691979 
L 561.778512 217.938261 
L 566.390083 213.894273 
L 571.001653 209.548733 
L 575.613223 204.891259 
L 580.224793 199.912874 
L 584.836364 194.606567 
L 589.447934 188.967885 
L 594.059504 182.995541 
L 599.132231 176.043678 
L 604.204959 168.700588 
L 609.277686 160.982782 
L 614.81157 152.164602 
L 620.806612 142.190031 
L 630.952066 125.126561 
L 635.563636 117.931262 
L 639.71405 111.840711 
L 643.864463 106.138993 
L 648.014876 100.838634 
L 651.704132 96.466938 
L 655.393388 92.411884 
L 659.082645 88.666084 
L 662.771901 85.218727 
L 666.461157 82.056371 
L 668.305785 80.577335 
L 763.765289 80.577335 
L 763.765289 80.577335 
" clip-path="url(#p495675de2a)" style="fill: none; stroke: #863071; stroke-width: 1.5; stroke-linecap: square"/>
   </g>
   <g id="line2d_61">
    <path d="M 487.071074 246.24 
L 508.745455 246.24 
L 513.818182 244.783903 
L 518.890909 243.077325 
L 523.963636 241.119664 
L 529.036364 238.907145 
L 534.109091 236.433312 
L 539.181818 233.689428 
L 543.793388 230.951729 
L 548.404959 227.972993 
L 553.016529 224.743349 
L 557.628099 221.252421 
L 562.239669 217.489625 
L 566.85124 213.444521 
L 571.46281 209.107196 
L 576.07438 204.468696 
L 580.68595 199.521503 
L 585.297521 194.260045 
L 589.909091 188.681234 
L 594.981818 182.17803 
L 600.054545 175.295751 
L 605.127273 168.045293 
L 621.728926 143.870174 
L 626.801653 137.111724 
L 631.413223 131.318078 
L 636.024793 125.882964 
L 640.175207 121.309657 
L 644.32562 117.04214 
L 648.476033 113.079107 
L 652.626446 109.414779 
L 656.77686 106.039732 
L 660.927273 102.941705 
L 661.849587 102.289466 
L 763.765289 102.289466 
L 763.765289 102.289466 
" clip-path="url(#p495675de2a)" style="fill: none; stroke: #722c6e; stroke-width: 1.5; stroke-linecap: square"/>
   </g>
   <g id="line2d_62">
    <path d="M 487.071074 246.24 
L 508.745455 246.24 
L 513.818182 244.767837 
L 518.890909 243.044767 
L 523.963636 241.071028 
L 529.036364 238.84372 
L 534.109091 236.357323 
L 539.181818 233.604123 
L 544.254545 230.574611 
L 548.866116 227.571574 
L 553.477686 224.32225 
L 558.089256 220.817312 
L 562.700826 217.047333 
L 567.312397 213.003116 
L 571.923967 208.67607 
L 576.535537 204.058615 
L 581.147107 199.144624 
L 585.758678 193.929892 
L 596.365289 181.723338 
L 603.743802 173.577292 
L 610.2 166.794103 
L 615.733884 161.287492 
L 621.267769 156.09639 
L 626.340496 151.632081 
L 631.413223 147.457915 
L 636.48595 143.576247 
L 641.558678 139.984242 
L 646.631405 136.67474 
L 651.242975 133.902398 
L 763.765289 133.902398 
L 763.765289 133.902398 
" clip-path="url(#p495675de2a)" style="fill: none; stroke: #5e2868; stroke-width: 1.5; stroke-linecap: square"/>
   </g>
   <g id="line2d_63">
    <path d="M 487.071074 246.24 
L 508.745455 246.24 
L 513.357025 244.897692 
L 518.429752 243.181172 
L 523.502479 241.214517 
L 528.575207 238.995956 
L 533.647934 236.521116 
L 538.720661 233.783468 
L 543.793388 230.774744 
L 548.866116 227.485341 
L 558.089256 221.086183 
L 568.695868 213.915246 
L 577.457851 208.25641 
L 585.297521 203.449001 
L 592.676033 199.1749 
L 600.054545 195.162367 
L 606.971901 191.647607 
L 613.889256 188.375122 
L 620.806612 185.343343 
L 624.034711 184.009484 
L 763.765289 184.009484 
L 763.765289 184.009484 
" clip-path="url(#p495675de2a)" style="fill: none; stroke: #4b2362; stroke-width: 1.5; stroke-linecap: square"/>
   </g>
   <g id="patch_9">
    <path d="M 473.236364 256.32 
L 473.236364 34.56 
" style="fill: none; stroke: #000000; stroke-width: 0.8; stroke-linejoin: miter; stroke-linecap: square"/>
   </g>
   <g id="patch_10">
    <path d="M 777.6 256.32 
L 777.6 34.56 
" style="fill: none; stroke: #000000; stroke-width: 0.8; stroke-linejoin: miter; stroke-linecap: square"/>
   </g>
   <g id="patch_11">
    <path d="M 473.236364 256.32 
L 777.6 256.32 
" style="fill: none; stroke: #000000; stroke-width: 0.8; stroke-linejoin: miter; stroke-linecap: square"/>
   </g>
   <g id="patch_12">
    <path d="M 473.236364 34.56 
L 777.6 34.56 
" style="fill: none; stroke: #000000; stroke-width: 0.8; stroke-linejoin: miter; stroke-linecap: square"/>
   </g>
  </g>
 </g>
 <defs>
  <clipPath id="pf2d409b0fd">
   <rect x="108" y="34.56" width="304.363636" height="221.76"/>
  </clipPath>
  <clipPath id="p495675de2a">
   <rect x="473.236364" y="34.56" width="304.363636" height="221.76"/>
  </clipPath>
 </defs>
</svg>
