<?xml version="1.0" encoding="utf-8" standalone="no"?>
<!DOCTYPE svg PUBLIC "-//W3C//DTD SVG 1.1//EN"
  "http://www.w3.org/Graphics/SVG/1.1/DTD/svg11.dtd">
<svg xmlns:xlink="http://www.w3.org/1999/xlink" width="576pt" height="432pt" viewBox="0 0 576 432" xmlns="http://www.w3.org/2000/svg" version="1.1">
 <metadata>
  <rdf:RDF xmlns:dc="http://purl.org/dc/elements/1.1/" xmlns:cc="http://creativecommons.org/ns#" xmlns:rdf="http://www.w3.org/1999/02/22-rdf-syntax-ns#">
   <cc:Work>
    <dc:type rdf:resource="http://purl.org/dc/dcmitype/StillImage"/>
    <dc:date>2024-03-15T11:59:30.262756</dc:date>
    <dc:format>image/svg+xml</dc:format>
    <dc:creator>
     <cc:Agent>
      <dc:title>Matplotlib v3.6.2, https://matplotlib.org/</dc:title>
     </cc:Agent>
    </dc:creator>
   </cc:Work>
  </rdf:RDF>
 </metadata>
 <defs>
  <style type="text/css">*{stroke-linejoin: round; stroke-linecap: butt}</style>
 </defs>
 <g id="figure_1">
  <g id="patch_1">
   <path d="M 0 432 
L 576 432 
L 576 0 
L 0 0 
z
" style="fill: #ffffff"/>
  </g>
  <g id="patch_2">
   <path d="M 82.8 421.2 
L 493.2 421.2 
L 493.2 10.8 
L 82.8 10.8 
z
" style="fill: #ffffff"/>
  </g>
  <g id="pane3d_1">
   <g id="patch_3">
    <path d="M 278.669745 237.358936 
L 109.059819 308.263757 
L 103.298381 120.975299 
L 278.2426 63.125657 
" style="fill: #f2f2f2; opacity: 0.5; stroke: #f2f2f2; stroke-linejoin: miter"/>
   </g>
  </g>
  <g id="pane3d_2">
   <g id="patch_4">
    <path d="M 475.543438 296.052569 
L 278.669745 237.358936 
L 278.2426 63.125657 
L 481.148126 110.992301 
" style="fill: #e6e6e6; opacity: 0.5; stroke: #e6e6e6; stroke-linejoin: miter"/>
   </g>
  </g>
  <g id="pane3d_3">
   <g id="patch_5">
    <path d="M 475.543438 296.052569 
L 278.669745 237.358936 
L 109.059819 308.263757 
L 310.925749 377.772928 
" style="fill: #ececec; opacity: 0.5; stroke: #ececec; stroke-linejoin: miter"/>
   </g>
  </g>
  <g id="axis3d_1">
   <g id="line2d_1">
    <path d="M 109.059819 308.263757 
L 310.925749 377.772928 
" style="fill: none; stroke: #000000; stroke-width: 0.8; stroke-linecap: square"/>
   </g>
   <g id="text_1">
    <!-- Xylan concentration (g/L) -->
    <g transform="translate(124.318366 355.504732) rotate(-340.999706) scale(0.1 -0.1)">
     <defs>
      <path id="DejaVuSans-58" d="M 403 4666 
L 1081 4666 
L 2241 2931 
L 3406 4666 
L 4084 4666 
L 2584 2425 
L 4184 0 
L 3506 0 
L 2194 1984 
L 872 0 
L 191 0 
L 1856 2491 
L 403 4666 
z
" transform="scale(0.015625)"/>
      <path id="DejaVuSans-79" d="M 2059 -325 
Q 1816 -950 1584 -1140 
Q 1353 -1331 966 -1331 
L 506 -1331 
L 506 -850 
L 844 -850 
Q 1081 -850 1212 -737 
Q 1344 -625 1503 -206 
L 1606 56 
L 191 3500 
L 800 3500 
L 1894 763 
L 2988 3500 
L 3597 3500 
L 2059 -325 
z
" transform="scale(0.015625)"/>
      <path id="DejaVuSans-6c" d="M 603 4863 
L 1178 4863 
L 1178 0 
L 603 0 
L 603 4863 
z
" transform="scale(0.015625)"/>
      <path id="DejaVuSans-61" d="M 2194 1759 
Q 1497 1759 1228 1600 
Q 959 1441 959 1056 
Q 959 750 1161 570 
Q 1363 391 1709 391 
Q 2188 391 2477 730 
Q 2766 1069 2766 1631 
L 2766 1759 
L 2194 1759 
z
M 3341 1997 
L 3341 0 
L 2766 0 
L 2766 531 
Q 2569 213 2275 61 
Q 1981 -91 1556 -91 
Q 1019 -91 701 211 
Q 384 513 384 1019 
Q 384 1609 779 1909 
Q 1175 2209 1959 2209 
L 2766 2209 
L 2766 2266 
Q 2766 2663 2505 2880 
Q 2244 3097 1772 3097 
Q 1472 3097 1187 3025 
Q 903 2953 641 2809 
L 641 3341 
Q 956 3463 1253 3523 
Q 1550 3584 1831 3584 
Q 2591 3584 2966 3190 
Q 3341 2797 3341 1997 
z
" transform="scale(0.015625)"/>
      <path id="DejaVuSans-6e" d="M 3513 2113 
L 3513 0 
L 2938 0 
L 2938 2094 
Q 2938 2591 2744 2837 
Q 2550 3084 2163 3084 
Q 1697 3084 1428 2787 
Q 1159 2491 1159 1978 
L 1159 0 
L 581 0 
L 581 3500 
L 1159 3500 
L 1159 2956 
Q 1366 3272 1645 3428 
Q 1925 3584 2291 3584 
Q 2894 3584 3203 3211 
Q 3513 2838 3513 2113 
z
" transform="scale(0.015625)"/>
      <path id="DejaVuSans-20" transform="scale(0.015625)"/>
      <path id="DejaVuSans-63" d="M 3122 3366 
L 3122 2828 
Q 2878 2963 2633 3030 
Q 2388 3097 2138 3097 
Q 1578 3097 1268 2742 
Q 959 2388 959 1747 
Q 959 1106 1268 751 
Q 1578 397 2138 397 
Q 2388 397 2633 464 
Q 2878 531 3122 666 
L 3122 134 
Q 2881 22 2623 -34 
Q 2366 -91 2075 -91 
Q 1284 -91 818 406 
Q 353 903 353 1747 
Q 353 2603 823 3093 
Q 1294 3584 2113 3584 
Q 2378 3584 2631 3529 
Q 2884 3475 3122 3366 
z
" transform="scale(0.015625)"/>
      <path id="DejaVuSans-6f" d="M 1959 3097 
Q 1497 3097 1228 2736 
Q 959 2375 959 1747 
Q 959 1119 1226 758 
Q 1494 397 1959 397 
Q 2419 397 2687 759 
Q 2956 1122 2956 1747 
Q 2956 2369 2687 2733 
Q 2419 3097 1959 3097 
z
M 1959 3584 
Q 2709 3584 3137 3096 
Q 3566 2609 3566 1747 
Q 3566 888 3137 398 
Q 2709 -91 1959 -91 
Q 1206 -91 779 398 
Q 353 888 353 1747 
Q 353 2609 779 3096 
Q 1206 3584 1959 3584 
z
" transform="scale(0.015625)"/>
      <path id="DejaVuSans-65" d="M 3597 1894 
L 3597 1613 
L 953 1613 
Q 991 1019 1311 708 
Q 1631 397 2203 397 
Q 2534 397 2845 478 
Q 3156 559 3463 722 
L 3463 178 
Q 3153 47 2828 -22 
Q 2503 -91 2169 -91 
Q 1331 -91 842 396 
Q 353 884 353 1716 
Q 353 2575 817 3079 
Q 1281 3584 2069 3584 
Q 2775 3584 3186 3129 
Q 3597 2675 3597 1894 
z
M 3022 2063 
Q 3016 2534 2758 2815 
Q 2500 3097 2075 3097 
Q 1594 3097 1305 2825 
Q 1016 2553 972 2059 
L 3022 2063 
z
" transform="scale(0.015625)"/>
      <path id="DejaVuSans-74" d="M 1172 4494 
L 1172 3500 
L 2356 3500 
L 2356 3053 
L 1172 3053 
L 1172 1153 
Q 1172 725 1289 603 
Q 1406 481 1766 481 
L 2356 481 
L 2356 0 
L 1766 0 
Q 1100 0 847 248 
Q 594 497 594 1153 
L 594 3053 
L 172 3053 
L 172 3500 
L 594 3500 
L 594 4494 
L 1172 4494 
z
" transform="scale(0.015625)"/>
      <path id="DejaVuSans-72" d="M 2631 2963 
Q 2534 3019 2420 3045 
Q 2306 3072 2169 3072 
Q 1681 3072 1420 2755 
Q 1159 2438 1159 1844 
L 1159 0 
L 581 0 
L 581 3500 
L 1159 3500 
L 1159 2956 
Q 1341 3275 1631 3429 
Q 1922 3584 2338 3584 
Q 2397 3584 2469 3576 
Q 2541 3569 2628 3553 
L 2631 2963 
z
" transform="scale(0.015625)"/>
      <path id="DejaVuSans-69" d="M 603 3500 
L 1178 3500 
L 1178 0 
L 603 0 
L 603 3500 
z
M 603 4863 
L 1178 4863 
L 1178 4134 
L 603 4134 
L 603 4863 
z
" transform="scale(0.015625)"/>
      <path id="DejaVuSans-28" d="M 1984 4856 
Q 1566 4138 1362 3434 
Q 1159 2731 1159 2009 
Q 1159 1288 1364 580 
Q 1569 -128 1984 -844 
L 1484 -844 
Q 1016 -109 783 600 
Q 550 1309 550 2009 
Q 550 2706 781 3412 
Q 1013 4119 1484 4856 
L 1984 4856 
z
" transform="scale(0.015625)"/>
      <path id="DejaVuSans-67" d="M 2906 1791 
Q 2906 2416 2648 2759 
Q 2391 3103 1925 3103 
Q 1463 3103 1205 2759 
Q 947 2416 947 1791 
Q 947 1169 1205 825 
Q 1463 481 1925 481 
Q 2391 481 2648 825 
Q 2906 1169 2906 1791 
z
M 3481 434 
Q 3481 -459 3084 -895 
Q 2688 -1331 1869 -1331 
Q 1566 -1331 1297 -1286 
Q 1028 -1241 775 -1147 
L 775 -588 
Q 1028 -725 1275 -790 
Q 1522 -856 1778 -856 
Q 2344 -856 2625 -561 
Q 2906 -266 2906 331 
L 2906 616 
Q 2728 306 2450 153 
Q 2172 0 1784 0 
Q 1141 0 747 490 
Q 353 981 353 1791 
Q 353 2603 747 3093 
Q 1141 3584 1784 3584 
Q 2172 3584 2450 3431 
Q 2728 3278 2906 2969 
L 2906 3500 
L 3481 3500 
L 3481 434 
z
" transform="scale(0.015625)"/>
      <path id="DejaVuSans-2f" d="M 1625 4666 
L 2156 4666 
L 531 -594 
L 0 -594 
L 1625 4666 
z
" transform="scale(0.015625)"/>
      <path id="DejaVuSans-4c" d="M 628 4666 
L 1259 4666 
L 1259 531 
L 3531 531 
L 3531 0 
L 628 0 
L 628 4666 
z
" transform="scale(0.015625)"/>
      <path id="DejaVuSans-29" d="M 513 4856 
L 1013 4856 
Q 1481 4119 1714 3412 
Q 1947 2706 1947 2009 
Q 1947 1309 1714 600 
Q 1481 -109 1013 -844 
L 513 -844 
Q 928 -128 1133 580 
Q 1338 1288 1338 2009 
Q 1338 2731 1133 3434 
Q 928 4138 513 4856 
z
" transform="scale(0.015625)"/>
     </defs>
     <use xlink:href="#DejaVuSans-58"/>
     <use xlink:href="#DejaVuSans-79" x="68.505859"/>
     <use xlink:href="#DejaVuSans-6c" x="127.685547"/>
     <use xlink:href="#DejaVuSans-61" x="155.46875"/>
     <use xlink:href="#DejaVuSans-6e" x="216.748047"/>
     <use xlink:href="#DejaVuSans-20" x="280.126953"/>
     <use xlink:href="#DejaVuSans-63" x="311.914062"/>
     <use xlink:href="#DejaVuSans-6f" x="366.894531"/>
     <use xlink:href="#DejaVuSans-6e" x="428.076172"/>
     <use xlink:href="#DejaVuSans-63" x="491.455078"/>
     <use xlink:href="#DejaVuSans-65" x="546.435547"/>
     <use xlink:href="#DejaVuSans-6e" x="607.958984"/>
     <use xlink:href="#DejaVuSans-74" x="671.337891"/>
     <use xlink:href="#DejaVuSans-72" x="710.546875"/>
     <use xlink:href="#DejaVuSans-61" x="751.660156"/>
     <use xlink:href="#DejaVuSans-74" x="812.939453"/>
     <use xlink:href="#DejaVuSans-69" x="852.148438"/>
     <use xlink:href="#DejaVuSans-6f" x="879.931641"/>
     <use xlink:href="#DejaVuSans-6e" x="941.113281"/>
     <use xlink:href="#DejaVuSans-20" x="1004.492188"/>
     <use xlink:href="#DejaVuSans-28" x="1036.279297"/>
     <use xlink:href="#DejaVuSans-67" x="1075.292969"/>
     <use xlink:href="#DejaVuSans-2f" x="1138.769531"/>
     <use xlink:href="#DejaVuSans-4c" x="1172.460938"/>
     <use xlink:href="#DejaVuSans-29" x="1228.173828"/>
    </g>
   </g>
   <g id="Line3DCollection_1">
    <path d="M 297.160604 373.03313 
L 462.193529 292.072582 
L 467.363244 107.740364 
" style="fill: none; stroke: #b0b0b0; stroke-width: 0.8"/>
    <path d="M 273.872089 365.014118 
L 439.582716 285.331657 
L 444.024346 102.234576 
" style="fill: none; stroke: #b0b0b0; stroke-width: 0.8"/>
    <path d="M 250.965469 357.126604 
L 417.312204 278.692186 
L 421.047306 96.814153 
" style="fill: none; stroke: #b0b0b0; stroke-width: 0.8"/>
    <path d="M 228.431427 349.367382 
L 395.374367 272.151895 
L 398.423775 91.477125 
" style="fill: none; stroke: #b0b0b0; stroke-width: 0.8"/>
    <path d="M 206.260946 341.733346 
L 373.761807 265.708577 
L 376.145655 86.221582 
" style="fill: none; stroke: #b0b0b0; stroke-width: 0.8"/>
    <path d="M 184.445298 334.221491 
L 352.467342 259.360093 
L 354.205098 81.045671 
" style="fill: none; stroke: #b0b0b0; stroke-width: 0.8"/>
    <path d="M 162.976032 326.828907 
L 331.484002 253.104364 
L 332.594487 75.947597 
" style="fill: none; stroke: #b0b0b0; stroke-width: 0.8"/>
    <path d="M 141.844964 319.552776 
L 310.805016 246.939372 
L 311.306436 70.925616 
" style="fill: none; stroke: #b0b0b0; stroke-width: 0.8"/>
    <path d="M 121.044164 312.390367 
L 290.423811 240.863157 
L 290.333777 65.978039 
" style="fill: none; stroke: #b0b0b0; stroke-width: 0.8"/>
   </g>
   <g id="xtick_1">
    <g id="line2d_2">
     <path d="M 298.600049 372.326979 
L 294.275414 374.448524 
" style="fill: none; stroke: #000000; stroke-width: 0.8; stroke-linecap: square"/>
    </g>
    <g id="text_2">
     <!-- 40 -->
     <g transform="translate(281.073601 395.789032) scale(0.1 -0.1)">
      <defs>
       <path id="DejaVuSans-34" d="M 2419 4116 
L 825 1625 
L 2419 1625 
L 2419 4116 
z
M 2253 4666 
L 3047 4666 
L 3047 1625 
L 3713 1625 
L 3713 1100 
L 3047 1100 
L 3047 0 
L 2419 0 
L 2419 1100 
L 313 1100 
L 313 1709 
L 2253 4666 
z
" transform="scale(0.015625)"/>
       <path id="DejaVuSans-30" d="M 2034 4250 
Q 1547 4250 1301 3770 
Q 1056 3291 1056 2328 
Q 1056 1369 1301 889 
Q 1547 409 2034 409 
Q 2525 409 2770 889 
Q 3016 1369 3016 2328 
Q 3016 3291 2770 3770 
Q 2525 4250 2034 4250 
z
M 2034 4750 
Q 2819 4750 3233 4129 
Q 3647 3509 3647 2328 
Q 3647 1150 3233 529 
Q 2819 -91 2034 -91 
Q 1250 -91 836 529 
Q 422 1150 422 2328 
Q 422 3509 836 4129 
Q 1250 4750 2034 4750 
z
" transform="scale(0.015625)"/>
      </defs>
      <use xlink:href="#DejaVuSans-34"/>
      <use xlink:href="#DejaVuSans-30" x="63.623047"/>
     </g>
    </g>
   </g>
   <g id="xtick_2">
    <g id="line2d_3">
     <path d="M 275.316456 364.319589 
L 270.977085 366.406189 
" style="fill: none; stroke: #000000; stroke-width: 0.8; stroke-linecap: square"/>
    </g>
    <g id="text_3">
     <!-- 45 -->
     <g transform="translate(257.792668 387.619162) scale(0.1 -0.1)">
      <defs>
       <path id="DejaVuSans-35" d="M 691 4666 
L 3169 4666 
L 3169 4134 
L 1269 4134 
L 1269 2991 
Q 1406 3038 1543 3061 
Q 1681 3084 1819 3084 
Q 2600 3084 3056 2656 
Q 3513 2228 3513 1497 
Q 3513 744 3044 326 
Q 2575 -91 1722 -91 
Q 1428 -91 1123 -41 
Q 819 9 494 109 
L 494 744 
Q 775 591 1075 516 
Q 1375 441 1709 441 
Q 2250 441 2565 725 
Q 2881 1009 2881 1497 
Q 2881 1984 2565 2268 
Q 2250 2553 1709 2553 
Q 1456 2553 1204 2497 
Q 953 2441 691 2322 
L 691 4666 
z
" transform="scale(0.015625)"/>
      </defs>
      <use xlink:href="#DejaVuSans-34"/>
      <use xlink:href="#DejaVuSans-35" x="63.623047"/>
     </g>
    </g>
   </g>
   <g id="xtick_3">
    <g id="line2d_4">
     <path d="M 252.414404 356.443415 
L 248.06136 358.495926 
" style="fill: none; stroke: #000000; stroke-width: 0.8; stroke-linecap: square"/>
    </g>
    <g id="text_4">
     <!-- 50 -->
     <g transform="translate(234.894694 379.583682) scale(0.1 -0.1)">
      <use xlink:href="#DejaVuSans-35"/>
      <use xlink:href="#DejaVuSans-30" x="63.623047"/>
     </g>
    </g>
   </g>
   <g id="xtick_4">
    <g id="line2d_5">
     <path d="M 229.884591 348.695256 
L 225.518892 350.714506 
" style="fill: none; stroke: #000000; stroke-width: 0.8; stroke-linecap: square"/>
    </g>
    <g id="text_5">
     <!-- 55 -->
     <g transform="translate(212.370307 371.679303) scale(0.1 -0.1)">
      <use xlink:href="#DejaVuSans-35"/>
      <use xlink:href="#DejaVuSans-35" x="63.623047"/>
     </g>
    </g>
   </g>
   <g id="xtick_5">
    <g id="line2d_6">
     <path d="M 207.718015 341.072016 
L 203.340634 343.058808 
" style="fill: none; stroke: #000000; stroke-width: 0.8; stroke-linecap: square"/>
    </g>
    <g id="text_6">
     <!-- 60 -->
     <g transform="translate(190.210438 363.902843) scale(0.1 -0.1)">
      <defs>
       <path id="DejaVuSans-36" d="M 2113 2584 
Q 1688 2584 1439 2293 
Q 1191 2003 1191 1497 
Q 1191 994 1439 701 
Q 1688 409 2113 409 
Q 2538 409 2786 701 
Q 3034 994 3034 1497 
Q 3034 2003 2786 2293 
Q 2538 2584 2113 2584 
z
M 3366 4563 
L 3366 3988 
Q 3128 4100 2886 4159 
Q 2644 4219 2406 4219 
Q 1781 4219 1451 3797 
Q 1122 3375 1075 2522 
Q 1259 2794 1537 2939 
Q 1816 3084 2150 3084 
Q 2853 3084 3261 2657 
Q 3669 2231 3669 1497 
Q 3669 778 3244 343 
Q 2819 -91 2113 -91 
Q 1303 -91 875 529 
Q 447 1150 447 2328 
Q 447 3434 972 4092 
Q 1497 4750 2381 4750 
Q 2619 4750 2861 4703 
Q 3103 4656 3366 4563 
z
" transform="scale(0.015625)"/>
      </defs>
      <use xlink:href="#DejaVuSans-36"/>
      <use xlink:href="#DejaVuSans-30" x="63.623047"/>
     </g>
    </g>
   </g>
   <g id="xtick_6">
    <g id="line2d_7">
     <path d="M 185.905962 333.5707 
L 181.517831 335.52581 
" style="fill: none; stroke: #000000; stroke-width: 0.8; stroke-linecap: square"/>
    </g>
    <g id="text_7">
     <!-- 65 -->
     <g transform="translate(168.406308 356.25122) scale(0.1 -0.1)">
      <use xlink:href="#DejaVuSans-36"/>
      <use xlink:href="#DejaVuSans-35" x="63.623047"/>
     </g>
    </g>
   </g>
   <g id="xtick_7">
    <g id="line2d_8">
     <path d="M 164.439994 326.188404 
L 160.042005 328.112584 
" style="fill: none; stroke: #000000; stroke-width: 0.8; stroke-linecap: square"/>
    </g>
    <g id="text_8">
     <!-- 70 -->
     <g transform="translate(146.949421 348.721454) scale(0.1 -0.1)">
      <defs>
       <path id="DejaVuSans-37" d="M 525 4666 
L 3525 4666 
L 3525 4397 
L 1831 0 
L 1172 0 
L 2766 4134 
L 525 4134 
L 525 4666 
z
" transform="scale(0.015625)"/>
      </defs>
      <use xlink:href="#DejaVuSans-37"/>
      <use xlink:href="#DejaVuSans-30" x="63.623047"/>
     </g>
    </g>
   </g>
   <g id="xtick_8">
    <g id="line2d_9">
     <path d="M 143.311938 318.922319 
L 138.904947 320.816297 
" style="fill: none; stroke: #000000; stroke-width: 0.8; stroke-linecap: square"/>
    </g>
    <g id="text_9">
     <!-- 75 -->
     <g transform="translate(125.831547 341.310656) scale(0.1 -0.1)">
      <use xlink:href="#DejaVuSans-37"/>
      <use xlink:href="#DejaVuSans-35" x="63.623047"/>
     </g>
    </g>
   </g>
   <g id="xtick_9">
    <g id="line2d_10">
     <path d="M 122.513879 311.769722 
L 118.098703 313.634204 
" style="fill: none; stroke: #000000; stroke-width: 0.8; stroke-linecap: square"/>
    </g>
    <g id="text_10">
     <!-- 80 -->
     <g transform="translate(105.044714 334.016029) scale(0.1 -0.1)">
      <defs>
       <path id="DejaVuSans-38" d="M 2034 2216 
Q 1584 2216 1326 1975 
Q 1069 1734 1069 1313 
Q 1069 891 1326 650 
Q 1584 409 2034 409 
Q 2484 409 2743 651 
Q 3003 894 3003 1313 
Q 3003 1734 2745 1975 
Q 2488 2216 2034 2216 
z
M 1403 2484 
Q 997 2584 770 2862 
Q 544 3141 544 3541 
Q 544 4100 942 4425 
Q 1341 4750 2034 4750 
Q 2731 4750 3128 4425 
Q 3525 4100 3525 3541 
Q 3525 3141 3298 2862 
Q 3072 2584 2669 2484 
Q 3125 2378 3379 2068 
Q 3634 1759 3634 1313 
Q 3634 634 3220 271 
Q 2806 -91 2034 -91 
Q 1263 -91 848 271 
Q 434 634 434 1313 
Q 434 1759 690 2068 
Q 947 2378 1403 2484 
z
M 1172 3481 
Q 1172 3119 1398 2916 
Q 1625 2713 2034 2713 
Q 2441 2713 2670 2916 
Q 2900 3119 2900 3481 
Q 2900 3844 2670 4047 
Q 2441 4250 2034 4250 
Q 1625 4250 1398 4047 
Q 1172 3844 1172 3481 
z
" transform="scale(0.015625)"/>
      </defs>
      <use xlink:href="#DejaVuSans-38"/>
      <use xlink:href="#DejaVuSans-30" x="63.623047"/>
     </g>
    </g>
   </g>
  </g>
  <g id="axis3d_2">
   <g id="line2d_11">
    <path d="M 475.543438 296.052569 
L 310.925749 377.772928 
" style="fill: none; stroke: #000000; stroke-width: 0.8; stroke-linecap: square"/>
   </g>
   <g id="text_11">
    <!-- Inoculation time (h) -->
    <g transform="translate(378.791876 389.398253) rotate(-26.400958) scale(0.1 -0.1)">
     <defs>
      <path id="DejaVuSans-49" d="M 628 4666 
L 1259 4666 
L 1259 0 
L 628 0 
L 628 4666 
z
" transform="scale(0.015625)"/>
      <path id="DejaVuSans-75" d="M 544 1381 
L 544 3500 
L 1119 3500 
L 1119 1403 
Q 1119 906 1312 657 
Q 1506 409 1894 409 
Q 2359 409 2629 706 
Q 2900 1003 2900 1516 
L 2900 3500 
L 3475 3500 
L 3475 0 
L 2900 0 
L 2900 538 
Q 2691 219 2414 64 
Q 2138 -91 1772 -91 
Q 1169 -91 856 284 
Q 544 659 544 1381 
z
M 1991 3584 
L 1991 3584 
z
" transform="scale(0.015625)"/>
      <path id="DejaVuSans-6d" d="M 3328 2828 
Q 3544 3216 3844 3400 
Q 4144 3584 4550 3584 
Q 5097 3584 5394 3201 
Q 5691 2819 5691 2113 
L 5691 0 
L 5113 0 
L 5113 2094 
Q 5113 2597 4934 2840 
Q 4756 3084 4391 3084 
Q 3944 3084 3684 2787 
Q 3425 2491 3425 1978 
L 3425 0 
L 2847 0 
L 2847 2094 
Q 2847 2600 2669 2842 
Q 2491 3084 2119 3084 
Q 1678 3084 1418 2786 
Q 1159 2488 1159 1978 
L 1159 0 
L 581 0 
L 581 3500 
L 1159 3500 
L 1159 2956 
Q 1356 3278 1631 3431 
Q 1906 3584 2284 3584 
Q 2666 3584 2933 3390 
Q 3200 3197 3328 2828 
z
" transform="scale(0.015625)"/>
      <path id="DejaVuSans-68" d="M 3513 2113 
L 3513 0 
L 2938 0 
L 2938 2094 
Q 2938 2591 2744 2837 
Q 2550 3084 2163 3084 
Q 1697 3084 1428 2787 
Q 1159 2491 1159 1978 
L 1159 0 
L 581 0 
L 581 4863 
L 1159 4863 
L 1159 2956 
Q 1366 3272 1645 3428 
Q 1925 3584 2291 3584 
Q 2894 3584 3203 3211 
Q 3513 2838 3513 2113 
z
" transform="scale(0.015625)"/>
     </defs>
     <use xlink:href="#DejaVuSans-49"/>
     <use xlink:href="#DejaVuSans-6e" x="29.492188"/>
     <use xlink:href="#DejaVuSans-6f" x="92.871094"/>
     <use xlink:href="#DejaVuSans-63" x="154.052734"/>
     <use xlink:href="#DejaVuSans-75" x="209.033203"/>
     <use xlink:href="#DejaVuSans-6c" x="272.412109"/>
     <use xlink:href="#DejaVuSans-61" x="300.195312"/>
     <use xlink:href="#DejaVuSans-74" x="361.474609"/>
     <use xlink:href="#DejaVuSans-69" x="400.683594"/>
     <use xlink:href="#DejaVuSans-6f" x="428.466797"/>
     <use xlink:href="#DejaVuSans-6e" x="489.648438"/>
     <use xlink:href="#DejaVuSans-20" x="553.027344"/>
     <use xlink:href="#DejaVuSans-74" x="584.814453"/>
     <use xlink:href="#DejaVuSans-69" x="624.023438"/>
     <use xlink:href="#DejaVuSans-6d" x="651.806641"/>
     <use xlink:href="#DejaVuSans-65" x="749.21875"/>
     <use xlink:href="#DejaVuSans-20" x="810.742188"/>
     <use xlink:href="#DejaVuSans-28" x="842.529297"/>
     <use xlink:href="#DejaVuSans-68" x="881.542969"/>
     <use xlink:href="#DejaVuSans-29" x="944.921875"/>
    </g>
   </g>
   <g id="Line3DCollection_2">
    <path d="M 250.067667 72.442397 
L 251.29787 248.801651 
L 449.11054 309.174524 
" style="fill: none; stroke: #b0b0b0; stroke-width: 0.8"/>
    <path d="M 219.537659 82.537901 
L 221.66237 261.190665 
L 420.434047 323.410256 
" style="fill: none; stroke: #b0b0b0; stroke-width: 0.8"/>
    <path d="M 188.072694 92.942571 
L 191.145752 273.948028 
L 390.842144 338.100421 
" style="fill: none; stroke: #b0b0b0; stroke-width: 0.8"/>
    <path d="M 155.629158 103.670831 
L 159.708125 287.090415 
L 360.290288 353.26713 
" style="fill: none; stroke: #b0b0b0; stroke-width: 0.8"/>
    <path d="M 122.160679 114.738013 
L 127.307156 300.635524 
L 328.730997 368.933956 
" style="fill: none; stroke: #b0b0b0; stroke-width: 0.8"/>
   </g>
   <g id="xtick_10">
    <g id="line2d_12">
     <path d="M 447.416044 308.65736 
L 452.505345 310.210626 
" style="fill: none; stroke: #000000; stroke-width: 0.8; stroke-linecap: square"/>
    </g>
    <g id="text_12">
     <!-- 30 -->
     <g transform="translate(453.92125 330.061845) scale(0.1 -0.1)">
      <defs>
       <path id="DejaVuSans-33" d="M 2597 2516 
Q 3050 2419 3304 2112 
Q 3559 1806 3559 1356 
Q 3559 666 3084 287 
Q 2609 -91 1734 -91 
Q 1441 -91 1130 -33 
Q 819 25 488 141 
L 488 750 
Q 750 597 1062 519 
Q 1375 441 1716 441 
Q 2309 441 2620 675 
Q 2931 909 2931 1356 
Q 2931 1769 2642 2001 
Q 2353 2234 1838 2234 
L 1294 2234 
L 1294 2753 
L 1863 2753 
Q 2328 2753 2575 2939 
Q 2822 3125 2822 3475 
Q 2822 3834 2567 4026 
Q 2313 4219 1838 4219 
Q 1578 4219 1281 4162 
Q 984 4106 628 3988 
L 628 4550 
Q 988 4650 1302 4700 
Q 1616 4750 1894 4750 
Q 2613 4750 3031 4423 
Q 3450 4097 3450 3541 
Q 3450 3153 3228 2886 
Q 3006 2619 2597 2516 
z
" transform="scale(0.015625)"/>
      </defs>
      <use xlink:href="#DejaVuSans-33"/>
      <use xlink:href="#DejaVuSans-30" x="63.623047"/>
     </g>
    </g>
   </g>
   <g id="xtick_11">
    <g id="line2d_13">
     <path d="M 418.729569 322.87672 
L 423.848942 324.479188 
" style="fill: none; stroke: #000000; stroke-width: 0.8; stroke-linecap: square"/>
    </g>
    <g id="text_13">
     <!-- 40 -->
     <g transform="translate(425.356184 344.538838) scale(0.1 -0.1)">
      <use xlink:href="#DejaVuSans-34"/>
      <use xlink:href="#DejaVuSans-30" x="63.623047"/>
     </g>
    </g>
   </g>
   <g id="xtick_12">
    <g id="line2d_14">
     <path d="M 389.127905 337.549722 
L 394.276691 339.203767 
" style="fill: none; stroke: #000000; stroke-width: 0.8; stroke-linecap: square"/>
    </g>
    <g id="text_14">
     <!-- 50 -->
     <g transform="translate(395.877183 359.479021) scale(0.1 -0.1)">
      <use xlink:href="#DejaVuSans-35"/>
      <use xlink:href="#DejaVuSans-30" x="63.623047"/>
     </g>
    </g>
   </g>
   <g id="xtick_13">
    <g id="line2d_15">
     <path d="M 358.566545 352.698428 
L 363.743974 354.406581 
" style="fill: none; stroke: #000000; stroke-width: 0.8; stroke-linecap: square"/>
    </g>
    <g id="text_15">
     <!-- 60 -->
     <g transform="translate(365.439669 374.904985) scale(0.1 -0.1)">
      <use xlink:href="#DejaVuSans-36"/>
      <use xlink:href="#DejaVuSans-30" x="63.623047"/>
     </g>
    </g>
   </g>
   <g id="xtick_14">
    <g id="line2d_16">
     <path d="M 326.998051 368.346351 
L 332.203226 370.111313 
" style="fill: none; stroke: #000000; stroke-width: 0.8; stroke-linecap: square"/>
    </g>
    <g id="text_16">
     <!-- 70 -->
     <g transform="translate(333.996122 390.840814) scale(0.1 -0.1)">
      <use xlink:href="#DejaVuSans-37"/>
      <use xlink:href="#DejaVuSans-30" x="63.623047"/>
     </g>
    </g>
   </g>
  </g>
  <g id="axis3d_3">
   <g id="line2d_17">
    <path d="M 475.543438 296.052569 
L 481.148126 110.992301 
" style="fill: none; stroke: #000000; stroke-width: 0.8; stroke-linecap: square"/>
   </g>
   <g id="text_17">
    <!-- Butanol (g/L) -->
    <g transform="translate(522.93486 236.087755) rotate(-88.265285) scale(0.1 -0.1)">
     <defs>
      <path id="DejaVuSans-42" d="M 1259 2228 
L 1259 519 
L 2272 519 
Q 2781 519 3026 730 
Q 3272 941 3272 1375 
Q 3272 1813 3026 2020 
Q 2781 2228 2272 2228 
L 1259 2228 
z
M 1259 4147 
L 1259 2741 
L 2194 2741 
Q 2656 2741 2882 2914 
Q 3109 3088 3109 3444 
Q 3109 3797 2882 3972 
Q 2656 4147 2194 4147 
L 1259 4147 
z
M 628 4666 
L 2241 4666 
Q 2963 4666 3353 4366 
Q 3744 4066 3744 3513 
Q 3744 3084 3544 2831 
Q 3344 2578 2956 2516 
Q 3422 2416 3680 2098 
Q 3938 1781 3938 1306 
Q 3938 681 3513 340 
Q 3088 0 2303 0 
L 628 0 
L 628 4666 
z
" transform="scale(0.015625)"/>
     </defs>
     <use xlink:href="#DejaVuSans-42"/>
     <use xlink:href="#DejaVuSans-75" x="68.603516"/>
     <use xlink:href="#DejaVuSans-74" x="131.982422"/>
     <use xlink:href="#DejaVuSans-61" x="171.191406"/>
     <use xlink:href="#DejaVuSans-6e" x="232.470703"/>
     <use xlink:href="#DejaVuSans-6f" x="295.849609"/>
     <use xlink:href="#DejaVuSans-6c" x="357.03125"/>
     <use xlink:href="#DejaVuSans-20" x="384.814453"/>
     <use xlink:href="#DejaVuSans-28" x="416.601562"/>
     <use xlink:href="#DejaVuSans-67" x="455.615234"/>
     <use xlink:href="#DejaVuSans-2f" x="519.091797"/>
     <use xlink:href="#DejaVuSans-4c" x="552.783203"/>
     <use xlink:href="#DejaVuSans-29" x="608.496094"/>
    </g>
   </g>
   <g id="Line3DCollection_3">
    <path d="M 475.911577 283.897053 
L 278.641635 225.892943 
L 108.681533 295.966725 
" style="fill: none; stroke: #b0b0b0; stroke-width: 0.8"/>
    <path d="M 476.560557 262.468487 
L 278.5921 205.687334 
L 108.014614 274.287028 
" style="fill: none; stroke: #b0b0b0; stroke-width: 0.8"/>
    <path d="M 477.214173 240.886862 
L 278.542234 185.346968 
L 107.342866 252.45034 
" style="fill: none; stroke: #b0b0b0; stroke-width: 0.8"/>
    <path d="M 477.872473 219.150532 
L 278.492034 164.870493 
L 106.666235 230.454951 
" style="fill: none; stroke: #b0b0b0; stroke-width: 0.8"/>
    <path d="M 478.53551 197.257827 
L 278.441498 144.256537 
L 105.984669 208.299123 
" style="fill: none; stroke: #b0b0b0; stroke-width: 0.8"/>
    <path d="M 479.203334 175.207054 
L 278.390621 123.503712 
L 105.298114 185.981096 
" style="fill: none; stroke: #b0b0b0; stroke-width: 0.8"/>
    <path d="M 479.875997 152.996495 
L 278.3394 102.610609 
L 104.606514 163.499081 
" style="fill: none; stroke: #b0b0b0; stroke-width: 0.8"/>
    <path d="M 480.553553 130.624407 
L 278.287832 81.575801 
L 103.909813 140.851265 
" style="fill: none; stroke: #b0b0b0; stroke-width: 0.8"/>
   </g>
   <g id="xtick_15">
    <g id="line2d_18">
     <path d="M 474.223124 283.40059 
L 479.294202 284.891661 
" style="fill: none; stroke: #000000; stroke-width: 0.8; stroke-linecap: square"/>
    </g>
    <g id="text_18">
     <!-- 2 -->
     <g transform="translate(492.206512 290.855371) scale(0.1 -0.1)">
      <defs>
       <path id="DejaVuSans-32" d="M 1228 531 
L 3431 531 
L 3431 0 
L 469 0 
L 469 531 
Q 828 903 1448 1529 
Q 2069 2156 2228 2338 
Q 2531 2678 2651 2914 
Q 2772 3150 2772 3378 
Q 2772 3750 2511 3984 
Q 2250 4219 1831 4219 
Q 1534 4219 1204 4116 
Q 875 4013 500 3803 
L 500 4441 
Q 881 4594 1212 4672 
Q 1544 4750 1819 4750 
Q 2544 4750 2975 4387 
Q 3406 4025 3406 3419 
Q 3406 3131 3298 2873 
Q 3191 2616 2906 2266 
Q 2828 2175 2409 1742 
Q 1991 1309 1228 531 
z
" transform="scale(0.015625)"/>
      </defs>
      <use xlink:href="#DejaVuSans-32"/>
     </g>
    </g>
   </g>
   <g id="xtick_16">
    <g id="line2d_19">
     <path d="M 474.865732 261.982379 
L 479.955969 263.442357 
" style="fill: none; stroke: #000000; stroke-width: 0.8; stroke-linecap: square"/>
    </g>
    <g id="text_19">
     <!-- 4 -->
     <g transform="translate(492.924277 269.440156) scale(0.1 -0.1)">
      <use xlink:href="#DejaVuSans-34"/>
     </g>
    </g>
   </g>
   <g id="xtick_17">
    <g id="line2d_20">
     <path d="M 475.512927 240.411269 
L 480.622468 241.839671 
" style="fill: none; stroke: #000000; stroke-width: 0.8; stroke-linecap: square"/>
    </g>
    <g id="text_20">
     <!-- 6 -->
     <g transform="translate(493.647166 247.872089) scale(0.1 -0.1)">
      <use xlink:href="#DejaVuSans-36"/>
     </g>
    </g>
   </g>
   <g id="xtick_18">
    <g id="line2d_21">
     <path d="M 476.164759 218.685618 
L 481.29375 220.081952 
" style="fill: none; stroke: #000000; stroke-width: 0.8; stroke-linecap: square"/>
    </g>
    <g id="text_21">
     <!-- 8 -->
     <g transform="translate(494.375233 226.149528) scale(0.1 -0.1)">
      <use xlink:href="#DejaVuSans-38"/>
     </g>
    </g>
   </g>
   <g id="xtick_19">
    <g id="line2d_22">
     <path d="M 476.821277 196.803758 
L 481.969867 198.167526 
" style="fill: none; stroke: #000000; stroke-width: 0.8; stroke-linecap: square"/>
    </g>
    <g id="text_22">
     <!-- 10 -->
     <g transform="translate(491.927284 204.270807) scale(0.1 -0.1)">
      <defs>
       <path id="DejaVuSans-31" d="M 794 531 
L 1825 531 
L 1825 4091 
L 703 3866 
L 703 4441 
L 1819 4666 
L 2450 4666 
L 2450 531 
L 3481 531 
L 3481 0 
L 794 0 
L 794 531 
z
" transform="scale(0.015625)"/>
      </defs>
      <use xlink:href="#DejaVuSans-31"/>
      <use xlink:href="#DejaVuSans-30" x="63.623047"/>
     </g>
    </g>
   </g>
   <g id="xtick_20">
    <g id="line2d_23">
     <path d="M 477.482533 174.763999 
L 482.650871 176.094693 
" style="fill: none; stroke: #000000; stroke-width: 0.8; stroke-linecap: square"/>
    </g>
    <g id="text_23">
     <!-- 12 -->
     <g transform="translate(492.665875 182.234235) scale(0.1 -0.1)">
      <use xlink:href="#DejaVuSans-31"/>
      <use xlink:href="#DejaVuSans-32" x="63.623047"/>
     </g>
    </g>
   </g>
   <g id="xtick_21">
    <g id="line2d_24">
     <path d="M 478.148578 152.564626 
L 483.336816 153.86173 
" style="fill: none; stroke: #000000; stroke-width: 0.8; stroke-linecap: square"/>
    </g>
    <g id="text_24">
     <!-- 14 -->
     <g transform="translate(493.409814 160.038099) scale(0.1 -0.1)">
      <use xlink:href="#DejaVuSans-31"/>
      <use xlink:href="#DejaVuSans-34" x="63.623047"/>
     </g>
    </g>
   </g>
   <g id="xtick_22">
    <g id="line2d_25">
     <path d="M 478.819464 130.203898 
L 484.027755 131.466887 
" style="fill: none; stroke: #000000; stroke-width: 0.8; stroke-linecap: square"/>
    </g>
    <g id="text_25">
     <!-- 16 -->
     <g transform="translate(494.15916 137.680659) scale(0.1 -0.1)">
      <use xlink:href="#DejaVuSans-31"/>
      <use xlink:href="#DejaVuSans-36" x="63.623047"/>
     </g>
    </g>
   </g>
  </g>
  <g id="axes_1">
   <g id="Path3DCollection_1">
    <defs>
     <path id="C0_0_b6683fd5c6" d="M 0 3.162278 
C 0.838646 3.162278 1.643056 2.82908 2.236068 2.236068 
C 2.82908 1.643056 3.162278 0.838646 3.162278 -0 
C 3.162278 -0.838646 2.82908 -1.643056 2.236068 -2.236068 
C 1.643056 -2.82908 0.838646 -3.162278 0 -3.162278 
C -0.838646 -3.162278 -1.643056 -2.82908 -2.236068 -2.236068 
C -2.82908 -1.643056 -3.162278 -0.838646 -3.162278 0 
C -3.162278 0.838646 -2.82908 1.643056 -2.236068 2.236068 
C -1.643056 2.82908 -0.838646 3.162278 0 3.162278 
z
"/>
    </defs>
    <g clip-path="url(#pb1c1a649ca)">
     <use xlink:href="#C0_0_b6683fd5c6" x="280.327112" y="191.494387" style="fill: #1f77b4; stroke: #1f77b4"/>
    </g>
    <g clip-path="url(#pb1c1a649ca)">
     <use xlink:href="#C0_0_b6683fd5c6" x="280.232386" y="147.68214" style="fill: #d62728; stroke: #d62728"/>
    </g>
    <g clip-path="url(#pb1c1a649ca)">
     <use xlink:href="#C0_0_b6683fd5c6" x="280.185003" y="125.767044" style="fill: #9467bd; stroke: #9467bd"/>
    </g>
    <g clip-path="url(#pb1c1a649ca)">
     <use xlink:href="#C0_0_b6683fd5c6" x="364.265997" y="240.090673" style="fill: #1f77b4; stroke: #1f77b4"/>
    </g>
    <g clip-path="url(#pb1c1a649ca)">
     <use xlink:href="#C0_0_b6683fd5c6" x="364.592114" y="212.121201" style="fill: #d62728; stroke: #d62728"/>
    </g>
    <g clip-path="url(#pb1c1a649ca)">
     <use xlink:href="#C0_0_b6683fd5c6" x="364.754977" y="198.153226" style="fill: #9467bd; stroke: #9467bd"/>
    </g>
    <g clip-path="url(#pb1c1a649ca)">
     <use xlink:href="#C0_0_b6683fd5c6" x="231.939421" y="107.150908" style="fill: #9467bd; stroke: #9467bd"/>
    </g>
    <g clip-path="url(#pb1c1a649ca)">
     <use xlink:href="#C0_0_b6683fd5c6" x="231.858383" y="98.997623" style="fill: #ff7f0e; stroke: #ff7f0e"/>
    </g>
    <g clip-path="url(#pb1c1a649ca)">
     <use xlink:href="#C0_0_b6683fd5c6" x="231.841409" y="97.289951" style="fill: #d62728; stroke: #d62728"/>
    </g>
    <g clip-path="url(#pb1c1a649ca)">
     <use xlink:href="#C0_0_b6683fd5c6" x="207.563819" y="158.108862" style="fill: #9467bd; stroke: #9467bd"/>
    </g>
    <g clip-path="url(#pb1c1a649ca)">
     <use xlink:href="#C0_0_b6683fd5c6" x="201.332985" y="164.505098" style="fill: #9467bd; stroke: #9467bd"/>
    </g>
    <g clip-path="url(#pb1c1a649ca)">
     <use xlink:href="#C0_0_b6683fd5c6" x="207.217292" y="133.333922" style="fill: #d62728; stroke: #d62728"/>
    </g>
    <g clip-path="url(#pb1c1a649ca)">
     <use xlink:href="#C0_0_b6683fd5c6" x="274.507595" y="148.583413" style="fill: #ff7f0e; stroke: #ff7f0e"/>
    </g>
    <g clip-path="url(#pb1c1a649ca)">
     <use xlink:href="#C0_0_b6683fd5c6" x="201.037028" y="144.795907" style="fill: #d62728; stroke: #d62728"/>
    </g>
    <g clip-path="url(#pb1c1a649ca)">
     <use xlink:href="#C0_0_b6683fd5c6" x="274.478374" y="139.13363" style="fill: #9467bd; stroke: #9467bd"/>
    </g>
    <g clip-path="url(#pb1c1a649ca)">
     <use xlink:href="#C0_0_b6683fd5c6" x="274.477026" y="138.697416" style="fill: #d62728; stroke: #d62728"/>
    </g>
    <g clip-path="url(#pb1c1a649ca)">
     <use xlink:href="#C0_0_b6683fd5c6" x="452.819651" y="285.364935" style="fill: #1f77b4; stroke: #1f77b4"/>
    </g>
    <g clip-path="url(#pb1c1a649ca)">
     <use xlink:href="#C0_0_b6683fd5c6" x="206.870659" y="108.551397" style="fill: #1f77b4; stroke: #1f77b4"/>
    </g>
    <g clip-path="url(#pb1c1a649ca)">
     <use xlink:href="#C0_0_b6683fd5c6" x="200.730273" y="124.367677" style="fill: #ff7f0e; stroke: #ff7f0e"/>
    </g>
    <g clip-path="url(#pb1c1a649ca)">
     <use xlink:href="#C0_0_b6683fd5c6" x="453.212519" y="270.51579" style="fill: #d62728; stroke: #d62728"/>
    </g>
    <g clip-path="url(#pb1c1a649ca)">
     <use xlink:href="#C0_0_b6683fd5c6" x="170.211112" y="220.711092" style="fill: #9467bd; stroke: #9467bd"/>
    </g>
    <g clip-path="url(#pb1c1a649ca)">
     <use xlink:href="#C0_0_b6683fd5c6" x="453.410767" y="263.022657" style="fill: #9467bd; stroke: #9467bd"/>
    </g>
    <g clip-path="url(#pb1c1a649ca)">
     <use xlink:href="#C0_0_b6683fd5c6" x="169.816432" y="201.23971" style="fill: #d62728; stroke: #d62728"/>
    </g>
    <g clip-path="url(#pb1c1a649ca)">
     <use xlink:href="#C0_0_b6683fd5c6" x="317.949261" y="196.60929" style="fill: #ff7f0e; stroke: #ff7f0e"/>
    </g>
    <g clip-path="url(#pb1c1a649ca)">
     <use xlink:href="#C0_0_b6683fd5c6" x="317.993144" y="185.624094" style="fill: #d62728; stroke: #d62728"/>
    </g>
    <g clip-path="url(#pb1c1a649ca)">
     <use xlink:href="#C0_0_b6683fd5c6" x="318.016071" y="179.884932" style="fill: #9467bd; stroke: #9467bd"/>
    </g>
    <g clip-path="url(#pb1c1a649ca)">
     <use xlink:href="#C0_0_b6683fd5c6" x="243.680927" y="178.662279" style="fill: #9467bd; stroke: #9467bd"/>
    </g>
    <g clip-path="url(#pb1c1a649ca)">
     <use xlink:href="#C0_0_b6683fd5c6" x="169.329334" y="177.208835" style="fill: #ff7f0e; stroke: #ff7f0e"/>
    </g>
    <g clip-path="url(#pb1c1a649ca)">
     <use xlink:href="#C0_0_b6683fd5c6" x="243.568337" y="164.828826" style="fill: #d62728; stroke: #d62728"/>
    </g>
    <g clip-path="url(#pb1c1a649ca)">
     <use xlink:href="#C0_0_b6683fd5c6" x="243.486569" y="154.78228" style="fill: #ff7f0e; stroke: #ff7f0e"/>
    </g>
    <g clip-path="url(#pb1c1a649ca)">
     <use xlink:href="#C0_0_b6683fd5c6" x="131.720073" y="271.691218" style="fill: #9467bd; stroke: #9467bd"/>
    </g>
    <g clip-path="url(#pb1c1a649ca)">
     <use xlink:href="#C0_0_b6683fd5c6" x="131.168648" y="251.131238" style="fill: #d62728; stroke: #d62728"/>
    </g>
    <g clip-path="url(#pb1c1a649ca)">
     <use xlink:href="#C0_0_b6683fd5c6" x="212.314005" y="227.123796" style="fill: #9467bd; stroke: #9467bd"/>
    </g>
    <g clip-path="url(#pb1c1a649ca)">
     <use xlink:href="#C0_0_b6683fd5c6" x="293.545946" y="204.821872" style="fill: #1f77b4; stroke: #1f77b4"/>
    </g>
    <g clip-path="url(#pb1c1a649ca)">
     <use xlink:href="#C0_0_b6683fd5c6" x="293.545946" y="197.622902" style="fill: #9467bd; stroke: #9467bd"/>
    </g>
    <g clip-path="url(#pb1c1a649ca)">
     <use xlink:href="#C0_0_b6683fd5c6" x="293.545946" y="191.392192" style="fill: #d62728; stroke: #d62728"/>
    </g>
    <g clip-path="url(#pb1c1a649ca)">
     <use xlink:href="#C0_0_b6683fd5c6" x="212.097254" y="210.905199" style="fill: #d62728; stroke: #d62728"/>
    </g>
    <g clip-path="url(#pb1c1a649ca)">
     <use xlink:href="#C0_0_b6683fd5c6" x="287.342401" y="201.839084" style="fill: #9467bd; stroke: #9467bd"/>
    </g>
    <g clip-path="url(#pb1c1a649ca)">
     <use xlink:href="#C0_0_b6683fd5c6" x="287.336262" y="195.799018" style="fill: #d62728; stroke: #d62728"/>
    </g>
    <g clip-path="url(#pb1c1a649ca)">
     <use xlink:href="#C0_0_b6683fd5c6" x="287.335793" y="195.337309" style="fill: #ff7f0e; stroke: #ff7f0e"/>
    </g>
    <g clip-path="url(#pb1c1a649ca)">
     <use xlink:href="#C0_0_b6683fd5c6" x="211.857769" y="192.985419" style="fill: #ff7f0e; stroke: #ff7f0e"/>
    </g>
    <g clip-path="url(#pb1c1a649ca)">
     <use xlink:href="#C0_0_b6683fd5c6" x="129.591877" y="192.341035" style="fill: #1f77b4; stroke: #1f77b4"/>
    </g>
    <g clip-path="url(#pb1c1a649ca)">
     <use xlink:href="#C0_0_b6683fd5c6" x="255.889407" y="239.806978" style="fill: #9467bd; stroke: #9467bd"/>
    </g>
    <g clip-path="url(#pb1c1a649ca)">
     <use xlink:href="#C0_0_b6683fd5c6" x="255.819512" y="228.548563" style="fill: #d62728; stroke: #d62728"/>
    </g>
    <g clip-path="url(#pb1c1a649ca)">
     <use xlink:href="#C0_0_b6683fd5c6" x="255.752503" y="217.754883" style="fill: #ff7f0e; stroke: #ff7f0e"/>
    </g>
    <g clip-path="url(#pb1c1a649ca)">
     <use xlink:href="#C0_0_b6683fd5c6" x="383.8391" y="292.935874" style="fill: #1f77b4; stroke: #1f77b4"/>
    </g>
    <g clip-path="url(#pb1c1a649ca)">
     <use xlink:href="#C0_0_b6683fd5c6" x="384.081306" y="276.807827" style="fill: #d62728; stroke: #d62728"/>
    </g>
    <g clip-path="url(#pb1c1a649ca)">
     <use xlink:href="#C0_0_b6683fd5c6" x="384.134226" y="273.283998" style="fill: #9467bd; stroke: #9467bd"/>
    </g>
    <g clip-path="url(#pb1c1a649ca)">
     <use xlink:href="#C0_0_b6683fd5c6" x="217.172631" y="287.476866" style="fill: #9467bd; stroke: #9467bd"/>
    </g>
    <g clip-path="url(#pb1c1a649ca)">
     <use xlink:href="#C0_0_b6683fd5c6" x="216.956509" y="270.447333" style="fill: #d62728; stroke: #d62728"/>
    </g>
    <g clip-path="url(#pb1c1a649ca)">
     <use xlink:href="#C0_0_b6683fd5c6" x="216.510553" y="235.307738" style="fill: #1f77b4; stroke: #1f77b4"/>
    </g>
    <g clip-path="url(#pb1c1a649ca)">
     <use xlink:href="#C0_0_b6683fd5c6" x="308.669994" y="321.173296" style="fill: #9467bd; stroke: #9467bd"/>
    </g>
    <g clip-path="url(#pb1c1a649ca)">
     <use xlink:href="#C0_0_b6683fd5c6" x="308.687843" y="314.110758" style="fill: #d62728; stroke: #d62728"/>
    </g>
    <g clip-path="url(#pb1c1a649ca)">
     <use xlink:href="#C0_0_b6683fd5c6" x="308.697525" y="310.279981" style="fill: #1f77b4; stroke: #1f77b4"/>
    </g>
   </g>
  </g>
  <g id="legend_1">
   <g id="patch_6">
    <path d="M 483.4625 96.06875 
L 569 96.06875 
Q 571 96.06875 571 94.06875 
L 571 7 
Q 571 5 569 5 
L 483.4625 5 
Q 481.4625 5 481.4625 7 
L 481.4625 94.06875 
Q 481.4625 96.06875 483.4625 96.06875 
z
" style="fill: #ffffff; opacity: 0.8; stroke: #cccccc; stroke-linejoin: miter"/>
   </g>
   <g id="text_26">
    <!-- Inoculation ratio -->
    <g transform="translate(485.4625 16.598438) scale(0.1 -0.1)">
     <use xlink:href="#DejaVuSans-49"/>
     <use xlink:href="#DejaVuSans-6e" x="29.492188"/>
     <use xlink:href="#DejaVuSans-6f" x="92.871094"/>
     <use xlink:href="#DejaVuSans-63" x="154.052734"/>
     <use xlink:href="#DejaVuSans-75" x="209.033203"/>
     <use xlink:href="#DejaVuSans-6c" x="272.412109"/>
     <use xlink:href="#DejaVuSans-61" x="300.195312"/>
     <use xlink:href="#DejaVuSans-74" x="361.474609"/>
     <use xlink:href="#DejaVuSans-69" x="400.683594"/>
     <use xlink:href="#DejaVuSans-6f" x="428.466797"/>
     <use xlink:href="#DejaVuSans-6e" x="489.648438"/>
     <use xlink:href="#DejaVuSans-20" x="553.027344"/>
     <use xlink:href="#DejaVuSans-72" x="584.814453"/>
     <use xlink:href="#DejaVuSans-61" x="625.927734"/>
     <use xlink:href="#DejaVuSans-74" x="687.207031"/>
     <use xlink:href="#DejaVuSans-69" x="726.416016"/>
     <use xlink:href="#DejaVuSans-6f" x="754.199219"/>
    </g>
   </g>
   <g id="line2d_26">
    <defs>
     <path id="m5c510a5774" d="M 0 3 
C 0.795609 3 1.55874 2.683901 2.12132 2.12132 
C 2.683901 1.55874 3 0.795609 3 0 
C 3 -0.795609 2.683901 -1.55874 2.12132 -2.12132 
C 1.55874 -2.683901 0.795609 -3 0 -3 
C -0.795609 -3 -1.55874 -2.683901 -2.12132 -2.12132 
C -2.683901 -1.55874 -3 -0.795609 -3 0 
C -3 0.795609 -2.683901 1.55874 -2.12132 2.12132 
C -1.55874 2.683901 -0.795609 3 0 3 
z
" style="stroke: #1f77b4"/>
    </defs>
    <g>
     <use xlink:href="#m5c510a5774" x="511.098437" y="27.776563" style="fill: #1f77b4; stroke: #1f77b4"/>
    </g>
   </g>
   <g id="text_27">
    <!-- 0.5 -->
    <g transform="translate(529.098438 31.276563) scale(0.1 -0.1)">
     <defs>
      <path id="DejaVuSans-2e" d="M 684 794 
L 1344 794 
L 1344 0 
L 684 0 
L 684 794 
z
" transform="scale(0.015625)"/>
     </defs>
     <use xlink:href="#DejaVuSans-30"/>
     <use xlink:href="#DejaVuSans-2e" x="63.623047"/>
     <use xlink:href="#DejaVuSans-35" x="95.410156"/>
    </g>
   </g>
   <g id="line2d_27">
    <defs>
     <path id="mac4902542f" d="M 0 3 
C 0.795609 3 1.55874 2.683901 2.12132 2.12132 
C 2.683901 1.55874 3 0.795609 3 0 
C 3 -0.795609 2.683901 -1.55874 2.12132 -2.12132 
C 1.55874 -2.683901 0.795609 -3 0 -3 
C -0.795609 -3 -1.55874 -2.683901 -2.12132 -2.12132 
C -2.683901 -1.55874 -3 -0.795609 -3 0 
C -3 0.795609 -2.683901 1.55874 -2.12132 2.12132 
C -1.55874 2.683901 -0.795609 3 0 3 
z
" style="stroke: #ff7f0e"/>
    </defs>
    <g>
     <use xlink:href="#mac4902542f" x="511.098437" y="42.454688" style="fill: #ff7f0e; stroke: #ff7f0e"/>
    </g>
   </g>
   <g id="text_28">
    <!-- 1.0 -->
    <g transform="translate(529.098438 45.954688) scale(0.1 -0.1)">
     <use xlink:href="#DejaVuSans-31"/>
     <use xlink:href="#DejaVuSans-2e" x="63.623047"/>
     <use xlink:href="#DejaVuSans-30" x="95.410156"/>
    </g>
   </g>
   <g id="line2d_28">
    <defs>
     <path id="m346dbf523b" d="M 0 3 
C 0.795609 3 1.55874 2.683901 2.12132 2.12132 
C 2.683901 1.55874 3 0.795609 3 0 
C 3 -0.795609 2.683901 -1.55874 2.12132 -2.12132 
C 1.55874 -2.683901 0.795609 -3 0 -3 
C -0.795609 -3 -1.55874 -2.683901 -2.12132 -2.12132 
C -2.683901 -1.55874 -3 -0.795609 -3 0 
C -3 0.795609 -2.683901 1.55874 -2.12132 2.12132 
C -1.55874 2.683901 -0.795609 3 0 3 
z
" style="stroke: #d62728"/>
    </defs>
    <g>
     <use xlink:href="#m346dbf523b" x="511.098437" y="57.132813" style="fill: #d62728; stroke: #d62728"/>
    </g>
   </g>
   <g id="text_29">
    <!-- 1.33 -->
    <g transform="translate(529.098438 60.632813) scale(0.1 -0.1)">
     <use xlink:href="#DejaVuSans-31"/>
     <use xlink:href="#DejaVuSans-2e" x="63.623047"/>
     <use xlink:href="#DejaVuSans-33" x="95.410156"/>
     <use xlink:href="#DejaVuSans-33" x="159.033203"/>
    </g>
   </g>
   <g id="line2d_29">
    <defs>
     <path id="ma79988c6b3" d="M 0 3 
C 0.795609 3 1.55874 2.683901 2.12132 2.12132 
C 2.683901 1.55874 3 0.795609 3 0 
C 3 -0.795609 2.683901 -1.55874 2.12132 -2.12132 
C 1.55874 -2.683901 0.795609 -3 0 -3 
C -0.795609 -3 -1.55874 -2.683901 -2.12132 -2.12132 
C -2.683901 -1.55874 -3 -0.795609 -3 0 
C -3 0.795609 -2.683901 1.55874 -2.12132 2.12132 
C -1.55874 2.683901 -0.795609 3 0 3 
z
" style="stroke: #9467bd"/>
    </defs>
    <g>
     <use xlink:href="#ma79988c6b3" x="511.098437" y="71.810938" style="fill: #9467bd; stroke: #9467bd"/>
    </g>
   </g>
   <g id="text_30">
    <!-- 0.75 -->
    <g transform="translate(529.098438 75.310938) scale(0.1 -0.1)">
     <use xlink:href="#DejaVuSans-30"/>
     <use xlink:href="#DejaVuSans-2e" x="63.623047"/>
     <use xlink:href="#DejaVuSans-37" x="95.410156"/>
     <use xlink:href="#DejaVuSans-35" x="159.033203"/>
    </g>
   </g>
   <g id="line2d_30">
    <g>
     <use xlink:href="#ma79988c6b3" x="511.098437" y="86.489063" style="fill: #9467bd; stroke: #9467bd"/>
    </g>
   </g>
   <g id="text_31">
    <!-- 1.25 -->
    <g transform="translate(529.098438 89.989063) scale(0.1 -0.1)">
     <use xlink:href="#DejaVuSans-31"/>
     <use xlink:href="#DejaVuSans-2e" x="63.623047"/>
     <use xlink:href="#DejaVuSans-32" x="95.410156"/>
     <use xlink:href="#DejaVuSans-35" x="159.033203"/>
    </g>
   </g>
  </g>
 </g>
 <defs>
  <clipPath id="pb1c1a649ca">
   <rect x="82.8" y="10.8" width="410.4" height="410.4"/>
  </clipPath>
 </defs>
</svg>
