<?xml version="1.0" encoding="utf-8" standalone="no"?>
<!DOCTYPE svg PUBLIC "-//W3C//DTD SVG 1.1//EN"
  "http://www.w3.org/Graphics/SVG/1.1/DTD/svg11.dtd">
<svg xmlns:xlink="http://www.w3.org/1999/xlink" width="1143.62pt" height="360pt" viewBox="0 0 1143.62 360" xmlns="http://www.w3.org/2000/svg" version="1.1">
 <metadata>
  <rdf:RDF xmlns:dc="http://purl.org/dc/elements/1.1/" xmlns:cc="http://creativecommons.org/ns#" xmlns:rdf="http://www.w3.org/1999/02/22-rdf-syntax-ns#">
   <cc:Work>
    <dc:type rdf:resource="http://purl.org/dc/dcmitype/StillImage"/>
    <dc:date>2024-03-07T15:16:41.017635</dc:date>
    <dc:format>image/svg+xml</dc:format>
    <dc:creator>
     <cc:Agent>
      <dc:title>Matplotlib v3.6.2, https://matplotlib.org/</dc:title>
     </cc:Agent>
    </dc:creator>
   </cc:Work>
  </rdf:RDF>
 </metadata>
 <defs>
  <style type="text/css">*{stroke-linejoin: round; stroke-linecap: butt}</style>
 </defs>
 <g id="figure_1">
  <g id="patch_1">
   <path d="M 0 360 
L 1143.62 360 
L 1143.62 0 
L 0 0 
z
" style="fill: #ffffff"/>
  </g>
  <g id="axes_1">
   <g id="patch_2">
    <path d="M 57.202178 317.93875 
L 384.825243 317.93875 
L 384.825243 24.72 
L 57.202178 24.72 
z
" style="fill: #ffffff"/>
   </g>
   <g id="patch_3">
    <path d="M 68.122947 317.93875 
L 97.244997 317.93875 
L 97.244997 190.843391 
L 68.122947 190.843391 
z
" clip-path="url(#p8895adec1c)" style="fill: #3274a1"/>
   </g>
   <g id="patch_4">
    <path d="M 177.330635 317.93875 
L 206.452685 317.93875 
L 206.452685 163.236233 
L 177.330635 163.236233 
z
" clip-path="url(#p8895adec1c)" style="fill: #3274a1"/>
   </g>
   <g id="patch_5">
    <path d="M 286.538324 317.93875 
L 315.660374 317.93875 
L 315.660374 153.178873 
L 286.538324 153.178873 
z
" clip-path="url(#p8895adec1c)" style="fill: #3274a1"/>
   </g>
   <g id="patch_6">
    <path d="M 97.244997 317.93875 
L 126.367047 317.93875 
L 126.367047 190.843391 
L 97.244997 190.843391 
z
" clip-path="url(#p8895adec1c)" style="fill: #e1812c"/>
   </g>
   <g id="patch_7">
    <path d="M 206.452685 317.93875 
L 235.574736 317.93875 
L 235.574736 163.236233 
L 206.452685 163.236233 
z
" clip-path="url(#p8895adec1c)" style="fill: #e1812c"/>
   </g>
   <g id="patch_8">
    <path d="M 315.660374 317.93875 
L 344.782424 317.93875 
L 344.782424 153.178873 
L 315.660374 153.178873 
z
" clip-path="url(#p8895adec1c)" style="fill: #e1812c"/>
   </g>
   <g id="patch_9">
    <path d="M 126.367047 317.93875 
L 155.489098 317.93875 
L 155.489098 190.843391 
L 126.367047 190.843391 
z
" clip-path="url(#p8895adec1c)" style="fill: #3a923a"/>
   </g>
   <g id="patch_10">
    <path d="M 235.574736 317.93875 
L 264.696786 317.93875 
L 264.696786 163.236233 
L 235.574736 163.236233 
z
" clip-path="url(#p8895adec1c)" style="fill: #3a923a"/>
   </g>
   <g id="patch_11">
    <path d="M 344.782424 317.93875 
L 373.904474 317.93875 
L 373.904474 153.178873 
L 344.782424 153.178873 
z
" clip-path="url(#p8895adec1c)" style="fill: #3a923a"/>
   </g>
   <g id="matplotlib.axis_1">
    <g id="xtick_1">
     <g id="line2d_1">
      <defs>
       <path id="m7e977ccac3" d="M 0 0 
L 0 3.5 
" style="stroke: #000000; stroke-width: 0.8"/>
      </defs>
      <g>
       <use xlink:href="#m7e977ccac3" x="111.806022" y="317.93875" style="stroke: #000000; stroke-width: 0.8"/>
      </g>
     </g>
     <g id="text_1">
      <!-- 24 -->
      <g transform="translate(105.443522 332.537188) scale(0.1 -0.1)">
       <defs>
        <path id="DejaVuSans-32" d="M 1228 531 
L 3431 531 
L 3431 0 
L 469 0 
L 469 531 
Q 828 903 1448 1529 
Q 2069 2156 2228 2338 
Q 2531 2678 2651 2914 
Q 2772 3150 2772 3378 
Q 2772 3750 2511 3984 
Q 2250 4219 1831 4219 
Q 1534 4219 1204 4116 
Q 875 4013 500 3803 
L 500 4441 
Q 881 4594 1212 4672 
Q 1544 4750 1819 4750 
Q 2544 4750 2975 4387 
Q 3406 4025 3406 3419 
Q 3406 3131 3298 2873 
Q 3191 2616 2906 2266 
Q 2828 2175 2409 1742 
Q 1991 1309 1228 531 
z
" transform="scale(0.015625)"/>
        <path id="DejaVuSans-34" d="M 2419 4116 
L 825 1625 
L 2419 1625 
L 2419 4116 
z
M 2253 4666 
L 3047 4666 
L 3047 1625 
L 3713 1625 
L 3713 1100 
L 3047 1100 
L 3047 0 
L 2419 0 
L 2419 1100 
L 313 1100 
L 313 1709 
L 2253 4666 
z
" transform="scale(0.015625)"/>
       </defs>
       <use xlink:href="#DejaVuSans-32"/>
       <use xlink:href="#DejaVuSans-34" x="63.623047"/>
      </g>
     </g>
    </g>
    <g id="xtick_2">
     <g id="line2d_2">
      <g>
       <use xlink:href="#m7e977ccac3" x="221.013711" y="317.93875" style="stroke: #000000; stroke-width: 0.8"/>
      </g>
     </g>
     <g id="text_2">
      <!-- 48 -->
      <g transform="translate(214.651211 332.537188) scale(0.1 -0.1)">
       <defs>
        <path id="DejaVuSans-38" d="M 2034 2216 
Q 1584 2216 1326 1975 
Q 1069 1734 1069 1313 
Q 1069 891 1326 650 
Q 1584 409 2034 409 
Q 2484 409 2743 651 
Q 3003 894 3003 1313 
Q 3003 1734 2745 1975 
Q 2488 2216 2034 2216 
z
M 1403 2484 
Q 997 2584 770 2862 
Q 544 3141 544 3541 
Q 544 4100 942 4425 
Q 1341 4750 2034 4750 
Q 2731 4750 3128 4425 
Q 3525 4100 3525 3541 
Q 3525 3141 3298 2862 
Q 3072 2584 2669 2484 
Q 3125 2378 3379 2068 
Q 3634 1759 3634 1313 
Q 3634 634 3220 271 
Q 2806 -91 2034 -91 
Q 1263 -91 848 271 
Q 434 634 434 1313 
Q 434 1759 690 2068 
Q 947 2378 1403 2484 
z
M 1172 3481 
Q 1172 3119 1398 2916 
Q 1625 2713 2034 2713 
Q 2441 2713 2670 2916 
Q 2900 3119 2900 3481 
Q 2900 3844 2670 4047 
Q 2441 4250 2034 4250 
Q 1625 4250 1398 4047 
Q 1172 3844 1172 3481 
z
" transform="scale(0.015625)"/>
       </defs>
       <use xlink:href="#DejaVuSans-34"/>
       <use xlink:href="#DejaVuSans-38" x="63.623047"/>
      </g>
     </g>
    </g>
    <g id="xtick_3">
     <g id="line2d_3">
      <g>
       <use xlink:href="#m7e977ccac3" x="330.221399" y="317.93875" style="stroke: #000000; stroke-width: 0.8"/>
      </g>
     </g>
     <g id="text_3">
      <!-- 72 -->
      <g transform="translate(323.858899 332.537188) scale(0.1 -0.1)">
       <defs>
        <path id="DejaVuSans-37" d="M 525 4666 
L 3525 4666 
L 3525 4397 
L 1831 0 
L 1172 0 
L 2766 4134 
L 525 4134 
L 525 4666 
z
" transform="scale(0.015625)"/>
       </defs>
       <use xlink:href="#DejaVuSans-37"/>
       <use xlink:href="#DejaVuSans-32" x="63.623047"/>
      </g>
     </g>
    </g>
    <g id="text_4">
     <!-- inoc_time -->
     <g transform="translate(196.851211 346.215312) scale(0.1 -0.1)">
      <defs>
       <path id="DejaVuSans-69" d="M 603 3500 
L 1178 3500 
L 1178 0 
L 603 0 
L 603 3500 
z
M 603 4863 
L 1178 4863 
L 1178 4134 
L 603 4134 
L 603 4863 
z
" transform="scale(0.015625)"/>
       <path id="DejaVuSans-6e" d="M 3513 2113 
L 3513 0 
L 2938 0 
L 2938 2094 
Q 2938 2591 2744 2837 
Q 2550 3084 2163 3084 
Q 1697 3084 1428 2787 
Q 1159 2491 1159 1978 
L 1159 0 
L 581 0 
L 581 3500 
L 1159 3500 
L 1159 2956 
Q 1366 3272 1645 3428 
Q 1925 3584 2291 3584 
Q 2894 3584 3203 3211 
Q 3513 2838 3513 2113 
z
" transform="scale(0.015625)"/>
       <path id="DejaVuSans-6f" d="M 1959 3097 
Q 1497 3097 1228 2736 
Q 959 2375 959 1747 
Q 959 1119 1226 758 
Q 1494 397 1959 397 
Q 2419 397 2687 759 
Q 2956 1122 2956 1747 
Q 2956 2369 2687 2733 
Q 2419 3097 1959 3097 
z
M 1959 3584 
Q 2709 3584 3137 3096 
Q 3566 2609 3566 1747 
Q 3566 888 3137 398 
Q 2709 -91 1959 -91 
Q 1206 -91 779 398 
Q 353 888 353 1747 
Q 353 2609 779 3096 
Q 1206 3584 1959 3584 
z
" transform="scale(0.015625)"/>
       <path id="DejaVuSans-63" d="M 3122 3366 
L 3122 2828 
Q 2878 2963 2633 3030 
Q 2388 3097 2138 3097 
Q 1578 3097 1268 2742 
Q 959 2388 959 1747 
Q 959 1106 1268 751 
Q 1578 397 2138 397 
Q 2388 397 2633 464 
Q 2878 531 3122 666 
L 3122 134 
Q 2881 22 2623 -34 
Q 2366 -91 2075 -91 
Q 1284 -91 818 406 
Q 353 903 353 1747 
Q 353 2603 823 3093 
Q 1294 3584 2113 3584 
Q 2378 3584 2631 3529 
Q 2884 3475 3122 3366 
z
" transform="scale(0.015625)"/>
       <path id="DejaVuSans-5f" d="M 3263 -1063 
L 3263 -1509 
L -63 -1509 
L -63 -1063 
L 3263 -1063 
z
" transform="scale(0.015625)"/>
       <path id="DejaVuSans-74" d="M 1172 4494 
L 1172 3500 
L 2356 3500 
L 2356 3053 
L 1172 3053 
L 1172 1153 
Q 1172 725 1289 603 
Q 1406 481 1766 481 
L 2356 481 
L 2356 0 
L 1766 0 
Q 1100 0 847 248 
Q 594 497 594 1153 
L 594 3053 
L 172 3053 
L 172 3500 
L 594 3500 
L 594 4494 
L 1172 4494 
z
" transform="scale(0.015625)"/>
       <path id="DejaVuSans-6d" d="M 3328 2828 
Q 3544 3216 3844 3400 
Q 4144 3584 4550 3584 
Q 5097 3584 5394 3201 
Q 5691 2819 5691 2113 
L 5691 0 
L 5113 0 
L 5113 2094 
Q 5113 2597 4934 2840 
Q 4756 3084 4391 3084 
Q 3944 3084 3684 2787 
Q 3425 2491 3425 1978 
L 3425 0 
L 2847 0 
L 2847 2094 
Q 2847 2600 2669 2842 
Q 2491 3084 2119 3084 
Q 1678 3084 1418 2786 
Q 1159 2488 1159 1978 
L 1159 0 
L 581 0 
L 581 3500 
L 1159 3500 
L 1159 2956 
Q 1356 3278 1631 3431 
Q 1906 3584 2284 3584 
Q 2666 3584 2933 3390 
Q 3200 3197 3328 2828 
z
" transform="scale(0.015625)"/>
       <path id="DejaVuSans-65" d="M 3597 1894 
L 3597 1613 
L 953 1613 
Q 991 1019 1311 708 
Q 1631 397 2203 397 
Q 2534 397 2845 478 
Q 3156 559 3463 722 
L 3463 178 
Q 3153 47 2828 -22 
Q 2503 -91 2169 -91 
Q 1331 -91 842 396 
Q 353 884 353 1716 
Q 353 2575 817 3079 
Q 1281 3584 2069 3584 
Q 2775 3584 3186 3129 
Q 3597 2675 3597 1894 
z
M 3022 2063 
Q 3016 2534 2758 2815 
Q 2500 3097 2075 3097 
Q 1594 3097 1305 2825 
Q 1016 2553 972 2059 
L 3022 2063 
z
" transform="scale(0.015625)"/>
      </defs>
      <use xlink:href="#DejaVuSans-69"/>
      <use xlink:href="#DejaVuSans-6e" x="27.783203"/>
      <use xlink:href="#DejaVuSans-6f" x="91.162109"/>
      <use xlink:href="#DejaVuSans-63" x="152.34375"/>
      <use xlink:href="#DejaVuSans-5f" x="207.324219"/>
      <use xlink:href="#DejaVuSans-74" x="257.324219"/>
      <use xlink:href="#DejaVuSans-69" x="296.533203"/>
      <use xlink:href="#DejaVuSans-6d" x="324.316406"/>
      <use xlink:href="#DejaVuSans-65" x="421.728516"/>
     </g>
    </g>
   </g>
   <g id="matplotlib.axis_2">
    <g id="ytick_1">
     <g id="line2d_4">
      <defs>
       <path id="m2cdb32ab0f" d="M 0 0 
L -3.5 0 
" style="stroke: #000000; stroke-width: 0.8"/>
      </defs>
      <g>
       <use xlink:href="#m2cdb32ab0f" x="57.202178" y="317.93875" style="stroke: #000000; stroke-width: 0.8"/>
      </g>
     </g>
     <g id="text_5">
      <!-- 0.00 -->
      <g transform="translate(27.936553 321.737969) scale(0.1 -0.1)">
       <defs>
        <path id="DejaVuSans-30" d="M 2034 4250 
Q 1547 4250 1301 3770 
Q 1056 3291 1056 2328 
Q 1056 1369 1301 889 
Q 1547 409 2034 409 
Q 2525 409 2770 889 
Q 3016 1369 3016 2328 
Q 3016 3291 2770 3770 
Q 2525 4250 2034 4250 
z
M 2034 4750 
Q 2819 4750 3233 4129 
Q 3647 3509 3647 2328 
Q 3647 1150 3233 529 
Q 2819 -91 2034 -91 
Q 1250 -91 836 529 
Q 422 1150 422 2328 
Q 422 3509 836 4129 
Q 1250 4750 2034 4750 
z
" transform="scale(0.015625)"/>
        <path id="DejaVuSans-2e" d="M 684 794 
L 1344 794 
L 1344 0 
L 684 0 
L 684 794 
z
" transform="scale(0.015625)"/>
       </defs>
       <use xlink:href="#DejaVuSans-30"/>
       <use xlink:href="#DejaVuSans-2e" x="63.623047"/>
       <use xlink:href="#DejaVuSans-30" x="95.410156"/>
       <use xlink:href="#DejaVuSans-30" x="159.033203"/>
      </g>
     </g>
    </g>
    <g id="ytick_2">
     <g id="line2d_5">
      <g>
       <use xlink:href="#m2cdb32ab0f" x="57.202178" y="278.046927" style="stroke: #000000; stroke-width: 0.8"/>
      </g>
     </g>
     <g id="text_6">
      <!-- 0.05 -->
      <g transform="translate(27.936553 281.846146) scale(0.1 -0.1)">
       <defs>
        <path id="DejaVuSans-35" d="M 691 4666 
L 3169 4666 
L 3169 4134 
L 1269 4134 
L 1269 2991 
Q 1406 3038 1543 3061 
Q 1681 3084 1819 3084 
Q 2600 3084 3056 2656 
Q 3513 2228 3513 1497 
Q 3513 744 3044 326 
Q 2575 -91 1722 -91 
Q 1428 -91 1123 -41 
Q 819 9 494 109 
L 494 744 
Q 775 591 1075 516 
Q 1375 441 1709 441 
Q 2250 441 2565 725 
Q 2881 1009 2881 1497 
Q 2881 1984 2565 2268 
Q 2250 2553 1709 2553 
Q 1456 2553 1204 2497 
Q 953 2441 691 2322 
L 691 4666 
z
" transform="scale(0.015625)"/>
       </defs>
       <use xlink:href="#DejaVuSans-30"/>
       <use xlink:href="#DejaVuSans-2e" x="63.623047"/>
       <use xlink:href="#DejaVuSans-30" x="95.410156"/>
       <use xlink:href="#DejaVuSans-35" x="159.033203"/>
      </g>
     </g>
    </g>
    <g id="ytick_3">
     <g id="line2d_6">
      <g>
       <use xlink:href="#m2cdb32ab0f" x="57.202178" y="238.155104" style="stroke: #000000; stroke-width: 0.8"/>
      </g>
     </g>
     <g id="text_7">
      <!-- 0.10 -->
      <g transform="translate(27.936553 241.954322) scale(0.1 -0.1)">
       <defs>
        <path id="DejaVuSans-31" d="M 794 531 
L 1825 531 
L 1825 4091 
L 703 3866 
L 703 4441 
L 1819 4666 
L 2450 4666 
L 2450 531 
L 3481 531 
L 3481 0 
L 794 0 
L 794 531 
z
" transform="scale(0.015625)"/>
       </defs>
       <use xlink:href="#DejaVuSans-30"/>
       <use xlink:href="#DejaVuSans-2e" x="63.623047"/>
       <use xlink:href="#DejaVuSans-31" x="95.410156"/>
       <use xlink:href="#DejaVuSans-30" x="159.033203"/>
      </g>
     </g>
    </g>
    <g id="ytick_4">
     <g id="line2d_7">
      <g>
       <use xlink:href="#m2cdb32ab0f" x="57.202178" y="198.263281" style="stroke: #000000; stroke-width: 0.8"/>
      </g>
     </g>
     <g id="text_8">
      <!-- 0.15 -->
      <g transform="translate(27.936553 202.062499) scale(0.1 -0.1)">
       <use xlink:href="#DejaVuSans-30"/>
       <use xlink:href="#DejaVuSans-2e" x="63.623047"/>
       <use xlink:href="#DejaVuSans-31" x="95.410156"/>
       <use xlink:href="#DejaVuSans-35" x="159.033203"/>
      </g>
     </g>
    </g>
    <g id="ytick_5">
     <g id="line2d_8">
      <g>
       <use xlink:href="#m2cdb32ab0f" x="57.202178" y="158.371457" style="stroke: #000000; stroke-width: 0.8"/>
      </g>
     </g>
     <g id="text_9">
      <!-- 0.20 -->
      <g transform="translate(27.936553 162.170676) scale(0.1 -0.1)">
       <use xlink:href="#DejaVuSans-30"/>
       <use xlink:href="#DejaVuSans-2e" x="63.623047"/>
       <use xlink:href="#DejaVuSans-32" x="95.410156"/>
       <use xlink:href="#DejaVuSans-30" x="159.033203"/>
      </g>
     </g>
    </g>
    <g id="ytick_6">
     <g id="line2d_9">
      <g>
       <use xlink:href="#m2cdb32ab0f" x="57.202178" y="118.479634" style="stroke: #000000; stroke-width: 0.8"/>
      </g>
     </g>
     <g id="text_10">
      <!-- 0.25 -->
      <g transform="translate(27.936553 122.278853) scale(0.1 -0.1)">
       <use xlink:href="#DejaVuSans-30"/>
       <use xlink:href="#DejaVuSans-2e" x="63.623047"/>
       <use xlink:href="#DejaVuSans-32" x="95.410156"/>
       <use xlink:href="#DejaVuSans-35" x="159.033203"/>
      </g>
     </g>
    </g>
    <g id="ytick_7">
     <g id="line2d_10">
      <g>
       <use xlink:href="#m2cdb32ab0f" x="57.202178" y="78.587811" style="stroke: #000000; stroke-width: 0.8"/>
      </g>
     </g>
     <g id="text_11">
      <!-- 0.30 -->
      <g transform="translate(27.936553 82.38703) scale(0.1 -0.1)">
       <defs>
        <path id="DejaVuSans-33" d="M 2597 2516 
Q 3050 2419 3304 2112 
Q 3559 1806 3559 1356 
Q 3559 666 3084 287 
Q 2609 -91 1734 -91 
Q 1441 -91 1130 -33 
Q 819 25 488 141 
L 488 750 
Q 750 597 1062 519 
Q 1375 441 1716 441 
Q 2309 441 2620 675 
Q 2931 909 2931 1356 
Q 2931 1769 2642 2001 
Q 2353 2234 1838 2234 
L 1294 2234 
L 1294 2753 
L 1863 2753 
Q 2328 2753 2575 2939 
Q 2822 3125 2822 3475 
Q 2822 3834 2567 4026 
Q 2313 4219 1838 4219 
Q 1578 4219 1281 4162 
Q 984 4106 628 3988 
L 628 4550 
Q 988 4650 1302 4700 
Q 1616 4750 1894 4750 
Q 2613 4750 3031 4423 
Q 3450 4097 3450 3541 
Q 3450 3153 3228 2886 
Q 3006 2619 2597 2516 
z
" transform="scale(0.015625)"/>
       </defs>
       <use xlink:href="#DejaVuSans-30"/>
       <use xlink:href="#DejaVuSans-2e" x="63.623047"/>
       <use xlink:href="#DejaVuSans-33" x="95.410156"/>
       <use xlink:href="#DejaVuSans-30" x="159.033203"/>
      </g>
     </g>
    </g>
    <g id="ytick_8">
     <g id="line2d_11">
      <g>
       <use xlink:href="#m2cdb32ab0f" x="57.202178" y="38.695988" style="stroke: #000000; stroke-width: 0.8"/>
      </g>
     </g>
     <g id="text_12">
      <!-- 0.35 -->
      <g transform="translate(27.936553 42.495207) scale(0.1 -0.1)">
       <use xlink:href="#DejaVuSans-30"/>
       <use xlink:href="#DejaVuSans-2e" x="63.623047"/>
       <use xlink:href="#DejaVuSans-33" x="95.410156"/>
       <use xlink:href="#DejaVuSans-35" x="159.033203"/>
      </g>
     </g>
    </g>
    <g id="text_13">
     <!-- butanol -->
     <g transform="translate(21.856866 190.31375) rotate(-90) scale(0.1 -0.1)">
      <defs>
       <path id="DejaVuSans-62" d="M 3116 1747 
Q 3116 2381 2855 2742 
Q 2594 3103 2138 3103 
Q 1681 3103 1420 2742 
Q 1159 2381 1159 1747 
Q 1159 1113 1420 752 
Q 1681 391 2138 391 
Q 2594 391 2855 752 
Q 3116 1113 3116 1747 
z
M 1159 2969 
Q 1341 3281 1617 3432 
Q 1894 3584 2278 3584 
Q 2916 3584 3314 3078 
Q 3713 2572 3713 1747 
Q 3713 922 3314 415 
Q 2916 -91 2278 -91 
Q 1894 -91 1617 61 
Q 1341 213 1159 525 
L 1159 0 
L 581 0 
L 581 4863 
L 1159 4863 
L 1159 2969 
z
" transform="scale(0.015625)"/>
       <path id="DejaVuSans-75" d="M 544 1381 
L 544 3500 
L 1119 3500 
L 1119 1403 
Q 1119 906 1312 657 
Q 1506 409 1894 409 
Q 2359 409 2629 706 
Q 2900 1003 2900 1516 
L 2900 3500 
L 3475 3500 
L 3475 0 
L 2900 0 
L 2900 538 
Q 2691 219 2414 64 
Q 2138 -91 1772 -91 
Q 1169 -91 856 284 
Q 544 659 544 1381 
z
M 1991 3584 
L 1991 3584 
z
" transform="scale(0.015625)"/>
       <path id="DejaVuSans-61" d="M 2194 1759 
Q 1497 1759 1228 1600 
Q 959 1441 959 1056 
Q 959 750 1161 570 
Q 1363 391 1709 391 
Q 2188 391 2477 730 
Q 2766 1069 2766 1631 
L 2766 1759 
L 2194 1759 
z
M 3341 1997 
L 3341 0 
L 2766 0 
L 2766 531 
Q 2569 213 2275 61 
Q 1981 -91 1556 -91 
Q 1019 -91 701 211 
Q 384 513 384 1019 
Q 384 1609 779 1909 
Q 1175 2209 1959 2209 
L 2766 2209 
L 2766 2266 
Q 2766 2663 2505 2880 
Q 2244 3097 1772 3097 
Q 1472 3097 1187 3025 
Q 903 2953 641 2809 
L 641 3341 
Q 956 3463 1253 3523 
Q 1550 3584 1831 3584 
Q 2591 3584 2966 3190 
Q 3341 2797 3341 1997 
z
" transform="scale(0.015625)"/>
       <path id="DejaVuSans-6c" d="M 603 4863 
L 1178 4863 
L 1178 0 
L 603 0 
L 603 4863 
z
" transform="scale(0.015625)"/>
      </defs>
      <use xlink:href="#DejaVuSans-62"/>
      <use xlink:href="#DejaVuSans-75" x="63.476562"/>
      <use xlink:href="#DejaVuSans-74" x="126.855469"/>
      <use xlink:href="#DejaVuSans-61" x="166.064453"/>
      <use xlink:href="#DejaVuSans-6e" x="227.34375"/>
      <use xlink:href="#DejaVuSans-6f" x="290.722656"/>
      <use xlink:href="#DejaVuSans-6c" x="351.904297"/>
     </g>
    </g>
   </g>
   <g id="line2d_12">
    <path clip-path="url(#p8895adec1c)" style="fill: none; stroke: #424242; stroke-width: 2.7; stroke-linecap: square"/>
   </g>
   <g id="line2d_13">
    <path clip-path="url(#p8895adec1c)" style="fill: none; stroke: #424242; stroke-width: 2.7; stroke-linecap: square"/>
   </g>
   <g id="line2d_14">
    <path clip-path="url(#p8895adec1c)" style="fill: none; stroke: #424242; stroke-width: 2.7; stroke-linecap: square"/>
   </g>
   <g id="line2d_15">
    <path clip-path="url(#p8895adec1c)" style="fill: none; stroke: #424242; stroke-width: 2.7; stroke-linecap: square"/>
   </g>
   <g id="line2d_16">
    <path clip-path="url(#p8895adec1c)" style="fill: none; stroke: #424242; stroke-width: 2.7; stroke-linecap: square"/>
   </g>
   <g id="line2d_17">
    <path clip-path="url(#p8895adec1c)" style="fill: none; stroke: #424242; stroke-width: 2.7; stroke-linecap: square"/>
   </g>
   <g id="line2d_18">
    <path clip-path="url(#p8895adec1c)" style="fill: none; stroke: #424242; stroke-width: 2.7; stroke-linecap: square"/>
   </g>
   <g id="line2d_19">
    <path clip-path="url(#p8895adec1c)" style="fill: none; stroke: #424242; stroke-width: 2.7; stroke-linecap: square"/>
   </g>
   <g id="line2d_20">
    <path clip-path="url(#p8895adec1c)" style="fill: none; stroke: #424242; stroke-width: 2.7; stroke-linecap: square"/>
   </g>
   <g id="patch_12">
    <path d="M 57.202178 317.93875 
L 57.202178 24.72 
" style="fill: none; stroke: #000000; stroke-width: 0.8; stroke-linejoin: miter; stroke-linecap: square"/>
   </g>
   <g id="patch_13">
    <path d="M 57.202178 317.93875 
L 384.825243 317.93875 
" style="fill: none; stroke: #000000; stroke-width: 0.8; stroke-linejoin: miter; stroke-linecap: square"/>
   </g>
   <g id="text_14">
    <!-- inoc_ratio = 0.5 -->
    <g transform="translate(181.299648 18.72) scale(0.1 -0.1)">
     <defs>
      <path id="DejaVuSans-72" d="M 2631 2963 
Q 2534 3019 2420 3045 
Q 2306 3072 2169 3072 
Q 1681 3072 1420 2755 
Q 1159 2438 1159 1844 
L 1159 0 
L 581 0 
L 581 3500 
L 1159 3500 
L 1159 2956 
Q 1341 3275 1631 3429 
Q 1922 3584 2338 3584 
Q 2397 3584 2469 3576 
Q 2541 3569 2628 3553 
L 2631 2963 
z
" transform="scale(0.015625)"/>
      <path id="DejaVuSans-20" transform="scale(0.015625)"/>
      <path id="DejaVuSans-3d" d="M 678 2906 
L 4684 2906 
L 4684 2381 
L 678 2381 
L 678 2906 
z
M 678 1631 
L 4684 1631 
L 4684 1100 
L 678 1100 
L 678 1631 
z
" transform="scale(0.015625)"/>
     </defs>
     <use xlink:href="#DejaVuSans-69"/>
     <use xlink:href="#DejaVuSans-6e" x="27.783203"/>
     <use xlink:href="#DejaVuSans-6f" x="91.162109"/>
     <use xlink:href="#DejaVuSans-63" x="152.34375"/>
     <use xlink:href="#DejaVuSans-5f" x="207.324219"/>
     <use xlink:href="#DejaVuSans-72" x="257.324219"/>
     <use xlink:href="#DejaVuSans-61" x="298.4375"/>
     <use xlink:href="#DejaVuSans-74" x="359.716797"/>
     <use xlink:href="#DejaVuSans-69" x="398.925781"/>
     <use xlink:href="#DejaVuSans-6f" x="426.708984"/>
     <use xlink:href="#DejaVuSans-20" x="487.890625"/>
     <use xlink:href="#DejaVuSans-3d" x="519.677734"/>
     <use xlink:href="#DejaVuSans-20" x="603.466797"/>
     <use xlink:href="#DejaVuSans-30" x="635.253906"/>
     <use xlink:href="#DejaVuSans-2e" x="698.876953"/>
     <use xlink:href="#DejaVuSans-35" x="730.664062"/>
    </g>
   </g>
  </g>
  <g id="axes_2">
   <g id="patch_14">
    <path d="M 399.071457 317.93875 
L 726.694521 317.93875 
L 726.694521 24.72 
L 399.071457 24.72 
z
" style="fill: #ffffff"/>
   </g>
   <g id="patch_15">
    <path d="M 409.992225 317.93875 
L 439.114276 317.93875 
L 439.114276 100.94688 
L 409.992225 100.94688 
z
" clip-path="url(#pf446f267da)" style="fill: #3274a1"/>
   </g>
   <g id="patch_16">
    <path d="M 519.199914 317.93875 
L 548.321964 317.93875 
L 548.321964 74.865886 
L 519.199914 74.865886 
z
" clip-path="url(#pf446f267da)" style="fill: #3274a1"/>
   </g>
   <g id="patch_17">
    <path d="M 628.407602 317.93875 
L 657.529652 317.93875 
L 657.529652 84.157007 
L 628.407602 84.157007 
z
" clip-path="url(#pf446f267da)" style="fill: #3274a1"/>
   </g>
   <g id="patch_18">
    <path d="M 439.114276 317.93875 
L 468.236326 317.93875 
L 468.236326 100.94688 
L 439.114276 100.94688 
z
" clip-path="url(#pf446f267da)" style="fill: #e1812c"/>
   </g>
   <g id="patch_19">
    <path d="M 548.321964 317.93875 
L 577.444014 317.93875 
L 577.444014 74.865886 
L 548.321964 74.865886 
z
" clip-path="url(#pf446f267da)" style="fill: #e1812c"/>
   </g>
   <g id="patch_20">
    <path d="M 657.529652 317.93875 
L 686.651702 317.93875 
L 686.651702 84.157007 
L 657.529652 84.157007 
z
" clip-path="url(#pf446f267da)" style="fill: #e1812c"/>
   </g>
   <g id="patch_21">
    <path d="M 468.236326 317.93875 
L 497.358376 317.93875 
L 497.358376 100.94688 
L 468.236326 100.94688 
z
" clip-path="url(#pf446f267da)" style="fill: #3a923a"/>
   </g>
   <g id="patch_22">
    <path d="M 577.444014 317.93875 
L 606.566064 317.93875 
L 606.566064 74.865886 
L 577.444014 74.865886 
z
" clip-path="url(#pf446f267da)" style="fill: #3a923a"/>
   </g>
   <g id="patch_23">
    <path d="M 686.651702 317.93875 
L 715.773753 317.93875 
L 715.773753 84.157007 
L 686.651702 84.157007 
z
" clip-path="url(#pf446f267da)" style="fill: #3a923a"/>
   </g>
   <g id="matplotlib.axis_3">
    <g id="xtick_4">
     <g id="line2d_21">
      <g>
       <use xlink:href="#m7e977ccac3" x="453.675301" y="317.93875" style="stroke: #000000; stroke-width: 0.8"/>
      </g>
     </g>
     <g id="text_15">
      <!-- 24 -->
      <g transform="translate(447.312801 332.537188) scale(0.1 -0.1)">
       <use xlink:href="#DejaVuSans-32"/>
       <use xlink:href="#DejaVuSans-34" x="63.623047"/>
      </g>
     </g>
    </g>
    <g id="xtick_5">
     <g id="line2d_22">
      <g>
       <use xlink:href="#m7e977ccac3" x="562.882989" y="317.93875" style="stroke: #000000; stroke-width: 0.8"/>
      </g>
     </g>
     <g id="text_16">
      <!-- 48 -->
      <g transform="translate(556.520489 332.537188) scale(0.1 -0.1)">
       <use xlink:href="#DejaVuSans-34"/>
       <use xlink:href="#DejaVuSans-38" x="63.623047"/>
      </g>
     </g>
    </g>
    <g id="xtick_6">
     <g id="line2d_23">
      <g>
       <use xlink:href="#m7e977ccac3" x="672.090677" y="317.93875" style="stroke: #000000; stroke-width: 0.8"/>
      </g>
     </g>
     <g id="text_17">
      <!-- 72 -->
      <g transform="translate(665.728177 332.537188) scale(0.1 -0.1)">
       <use xlink:href="#DejaVuSans-37"/>
       <use xlink:href="#DejaVuSans-32" x="63.623047"/>
      </g>
     </g>
    </g>
    <g id="text_18">
     <!-- inoc_time -->
     <g transform="translate(538.720489 346.215312) scale(0.1 -0.1)">
      <use xlink:href="#DejaVuSans-69"/>
      <use xlink:href="#DejaVuSans-6e" x="27.783203"/>
      <use xlink:href="#DejaVuSans-6f" x="91.162109"/>
      <use xlink:href="#DejaVuSans-63" x="152.34375"/>
      <use xlink:href="#DejaVuSans-5f" x="207.324219"/>
      <use xlink:href="#DejaVuSans-74" x="257.324219"/>
      <use xlink:href="#DejaVuSans-69" x="296.533203"/>
      <use xlink:href="#DejaVuSans-6d" x="324.316406"/>
      <use xlink:href="#DejaVuSans-65" x="421.728516"/>
     </g>
    </g>
   </g>
   <g id="matplotlib.axis_4">
    <g id="ytick_9">
     <g id="line2d_24">
      <g>
       <use xlink:href="#m2cdb32ab0f" x="399.071457" y="317.93875" style="stroke: #000000; stroke-width: 0.8"/>
      </g>
     </g>
    </g>
    <g id="ytick_10">
     <g id="line2d_25">
      <g>
       <use xlink:href="#m2cdb32ab0f" x="399.071457" y="278.046927" style="stroke: #000000; stroke-width: 0.8"/>
      </g>
     </g>
    </g>
    <g id="ytick_11">
     <g id="line2d_26">
      <g>
       <use xlink:href="#m2cdb32ab0f" x="399.071457" y="238.155104" style="stroke: #000000; stroke-width: 0.8"/>
      </g>
     </g>
    </g>
    <g id="ytick_12">
     <g id="line2d_27">
      <g>
       <use xlink:href="#m2cdb32ab0f" x="399.071457" y="198.263281" style="stroke: #000000; stroke-width: 0.8"/>
      </g>
     </g>
    </g>
    <g id="ytick_13">
     <g id="line2d_28">
      <g>
       <use xlink:href="#m2cdb32ab0f" x="399.071457" y="158.371457" style="stroke: #000000; stroke-width: 0.8"/>
      </g>
     </g>
    </g>
    <g id="ytick_14">
     <g id="line2d_29">
      <g>
       <use xlink:href="#m2cdb32ab0f" x="399.071457" y="118.479634" style="stroke: #000000; stroke-width: 0.8"/>
      </g>
     </g>
    </g>
    <g id="ytick_15">
     <g id="line2d_30">
      <g>
       <use xlink:href="#m2cdb32ab0f" x="399.071457" y="78.587811" style="stroke: #000000; stroke-width: 0.8"/>
      </g>
     </g>
    </g>
    <g id="ytick_16">
     <g id="line2d_31">
      <g>
       <use xlink:href="#m2cdb32ab0f" x="399.071457" y="38.695988" style="stroke: #000000; stroke-width: 0.8"/>
      </g>
     </g>
    </g>
   </g>
   <g id="line2d_32">
    <path clip-path="url(#pf446f267da)" style="fill: none; stroke: #424242; stroke-width: 2.7; stroke-linecap: square"/>
   </g>
   <g id="line2d_33">
    <path clip-path="url(#pf446f267da)" style="fill: none; stroke: #424242; stroke-width: 2.7; stroke-linecap: square"/>
   </g>
   <g id="line2d_34">
    <path clip-path="url(#pf446f267da)" style="fill: none; stroke: #424242; stroke-width: 2.7; stroke-linecap: square"/>
   </g>
   <g id="line2d_35">
    <path clip-path="url(#pf446f267da)" style="fill: none; stroke: #424242; stroke-width: 2.7; stroke-linecap: square"/>
   </g>
   <g id="line2d_36">
    <path clip-path="url(#pf446f267da)" style="fill: none; stroke: #424242; stroke-width: 2.7; stroke-linecap: square"/>
   </g>
   <g id="line2d_37">
    <path clip-path="url(#pf446f267da)" style="fill: none; stroke: #424242; stroke-width: 2.7; stroke-linecap: square"/>
   </g>
   <g id="line2d_38">
    <path clip-path="url(#pf446f267da)" style="fill: none; stroke: #424242; stroke-width: 2.7; stroke-linecap: square"/>
   </g>
   <g id="line2d_39">
    <path clip-path="url(#pf446f267da)" style="fill: none; stroke: #424242; stroke-width: 2.7; stroke-linecap: square"/>
   </g>
   <g id="line2d_40">
    <path clip-path="url(#pf446f267da)" style="fill: none; stroke: #424242; stroke-width: 2.7; stroke-linecap: square"/>
   </g>
   <g id="patch_24">
    <path d="M 399.071457 317.93875 
L 399.071457 24.72 
" style="fill: none; stroke: #000000; stroke-width: 0.8; stroke-linejoin: miter; stroke-linecap: square"/>
   </g>
   <g id="patch_25">
    <path d="M 399.071457 317.93875 
L 726.694521 317.93875 
" style="fill: none; stroke: #000000; stroke-width: 0.8; stroke-linejoin: miter; stroke-linecap: square"/>
   </g>
   <g id="text_19">
    <!-- inoc_ratio = 1.0 -->
    <g transform="translate(523.168927 18.72) scale(0.1 -0.1)">
     <use xlink:href="#DejaVuSans-69"/>
     <use xlink:href="#DejaVuSans-6e" x="27.783203"/>
     <use xlink:href="#DejaVuSans-6f" x="91.162109"/>
     <use xlink:href="#DejaVuSans-63" x="152.34375"/>
     <use xlink:href="#DejaVuSans-5f" x="207.324219"/>
     <use xlink:href="#DejaVuSans-72" x="257.324219"/>
     <use xlink:href="#DejaVuSans-61" x="298.4375"/>
     <use xlink:href="#DejaVuSans-74" x="359.716797"/>
     <use xlink:href="#DejaVuSans-69" x="398.925781"/>
     <use xlink:href="#DejaVuSans-6f" x="426.708984"/>
     <use xlink:href="#DejaVuSans-20" x="487.890625"/>
     <use xlink:href="#DejaVuSans-3d" x="519.677734"/>
     <use xlink:href="#DejaVuSans-20" x="603.466797"/>
     <use xlink:href="#DejaVuSans-31" x="635.253906"/>
     <use xlink:href="#DejaVuSans-2e" x="698.876953"/>
     <use xlink:href="#DejaVuSans-30" x="730.664062"/>
    </g>
   </g>
  </g>
  <g id="axes_3">
   <g id="patch_26">
    <path d="M 740.940735 317.93875 
L 1068.5638 317.93875 
L 1068.5638 24.72 
L 740.940735 24.72 
z
" style="fill: #ffffff"/>
   </g>
   <g id="patch_27">
    <path d="M 751.861504 317.93875 
L 780.983554 317.93875 
L 780.983554 54.852823 
L 751.861504 54.852823 
z
" clip-path="url(#p03ca6174db)" style="fill: #3274a1"/>
   </g>
   <g id="patch_28">
    <path d="M 861.069192 317.93875 
L 890.191242 317.93875 
L 890.191242 38.682798 
L 861.069192 38.682798 
z
" clip-path="url(#p03ca6174db)" style="fill: #3274a1"/>
   </g>
   <g id="patch_29">
    <path d="M 970.276881 317.93875 
L 999.398931 317.93875 
L 999.398931 65.93981 
L 970.276881 65.93981 
z
" clip-path="url(#p03ca6174db)" style="fill: #3274a1"/>
   </g>
   <g id="patch_30">
    <path d="M 780.983554 317.93875 
L 810.105604 317.93875 
L 810.105604 54.852823 
L 780.983554 54.852823 
z
" clip-path="url(#p03ca6174db)" style="fill: #e1812c"/>
   </g>
   <g id="patch_31">
    <path d="M 890.191242 317.93875 
L 919.313293 317.93875 
L 919.313293 38.682798 
L 890.191242 38.682798 
z
" clip-path="url(#p03ca6174db)" style="fill: #e1812c"/>
   </g>
   <g id="patch_32">
    <path d="M 999.398931 317.93875 
L 1028.520981 317.93875 
L 1028.520981 65.93981 
L 999.398931 65.93981 
z
" clip-path="url(#p03ca6174db)" style="fill: #e1812c"/>
   </g>
   <g id="patch_33">
    <path d="M 810.105604 317.93875 
L 839.227655 317.93875 
L 839.227655 54.852823 
L 810.105604 54.852823 
z
" clip-path="url(#p03ca6174db)" style="fill: #3a923a"/>
   </g>
   <g id="patch_34">
    <path d="M 919.313293 317.93875 
L 948.435343 317.93875 
L 948.435343 38.682798 
L 919.313293 38.682798 
z
" clip-path="url(#p03ca6174db)" style="fill: #3a923a"/>
   </g>
   <g id="patch_35">
    <path d="M 1028.520981 317.93875 
L 1057.643031 317.93875 
L 1057.643031 65.93981 
L 1028.520981 65.93981 
z
" clip-path="url(#p03ca6174db)" style="fill: #3a923a"/>
   </g>
   <g id="matplotlib.axis_5">
    <g id="xtick_7">
     <g id="line2d_41">
      <g>
       <use xlink:href="#m7e977ccac3" x="795.544579" y="317.93875" style="stroke: #000000; stroke-width: 0.8"/>
      </g>
     </g>
     <g id="text_20">
      <!-- 24 -->
      <g transform="translate(789.182079 332.537188) scale(0.1 -0.1)">
       <use xlink:href="#DejaVuSans-32"/>
       <use xlink:href="#DejaVuSans-34" x="63.623047"/>
      </g>
     </g>
    </g>
    <g id="xtick_8">
     <g id="line2d_42">
      <g>
       <use xlink:href="#m7e977ccac3" x="904.752268" y="317.93875" style="stroke: #000000; stroke-width: 0.8"/>
      </g>
     </g>
     <g id="text_21">
      <!-- 48 -->
      <g transform="translate(898.389768 332.537188) scale(0.1 -0.1)">
       <use xlink:href="#DejaVuSans-34"/>
       <use xlink:href="#DejaVuSans-38" x="63.623047"/>
      </g>
     </g>
    </g>
    <g id="xtick_9">
     <g id="line2d_43">
      <g>
       <use xlink:href="#m7e977ccac3" x="1013.959956" y="317.93875" style="stroke: #000000; stroke-width: 0.8"/>
      </g>
     </g>
     <g id="text_22">
      <!-- 72 -->
      <g transform="translate(1007.597456 332.537188) scale(0.1 -0.1)">
       <use xlink:href="#DejaVuSans-37"/>
       <use xlink:href="#DejaVuSans-32" x="63.623047"/>
      </g>
     </g>
    </g>
    <g id="text_23">
     <!-- inoc_time -->
     <g transform="translate(880.589768 346.215312) scale(0.1 -0.1)">
      <use xlink:href="#DejaVuSans-69"/>
      <use xlink:href="#DejaVuSans-6e" x="27.783203"/>
      <use xlink:href="#DejaVuSans-6f" x="91.162109"/>
      <use xlink:href="#DejaVuSans-63" x="152.34375"/>
      <use xlink:href="#DejaVuSans-5f" x="207.324219"/>
      <use xlink:href="#DejaVuSans-74" x="257.324219"/>
      <use xlink:href="#DejaVuSans-69" x="296.533203"/>
      <use xlink:href="#DejaVuSans-6d" x="324.316406"/>
      <use xlink:href="#DejaVuSans-65" x="421.728516"/>
     </g>
    </g>
   </g>
   <g id="matplotlib.axis_6">
    <g id="ytick_17">
     <g id="line2d_44">
      <g>
       <use xlink:href="#m2cdb32ab0f" x="740.940735" y="317.93875" style="stroke: #000000; stroke-width: 0.8"/>
      </g>
     </g>
    </g>
    <g id="ytick_18">
     <g id="line2d_45">
      <g>
       <use xlink:href="#m2cdb32ab0f" x="740.940735" y="278.046927" style="stroke: #000000; stroke-width: 0.8"/>
      </g>
     </g>
    </g>
    <g id="ytick_19">
     <g id="line2d_46">
      <g>
       <use xlink:href="#m2cdb32ab0f" x="740.940735" y="238.155104" style="stroke: #000000; stroke-width: 0.8"/>
      </g>
     </g>
    </g>
    <g id="ytick_20">
     <g id="line2d_47">
      <g>
       <use xlink:href="#m2cdb32ab0f" x="740.940735" y="198.263281" style="stroke: #000000; stroke-width: 0.8"/>
      </g>
     </g>
    </g>
    <g id="ytick_21">
     <g id="line2d_48">
      <g>
       <use xlink:href="#m2cdb32ab0f" x="740.940735" y="158.371457" style="stroke: #000000; stroke-width: 0.8"/>
      </g>
     </g>
    </g>
    <g id="ytick_22">
     <g id="line2d_49">
      <g>
       <use xlink:href="#m2cdb32ab0f" x="740.940735" y="118.479634" style="stroke: #000000; stroke-width: 0.8"/>
      </g>
     </g>
    </g>
    <g id="ytick_23">
     <g id="line2d_50">
      <g>
       <use xlink:href="#m2cdb32ab0f" x="740.940735" y="78.587811" style="stroke: #000000; stroke-width: 0.8"/>
      </g>
     </g>
    </g>
    <g id="ytick_24">
     <g id="line2d_51">
      <g>
       <use xlink:href="#m2cdb32ab0f" x="740.940735" y="38.695988" style="stroke: #000000; stroke-width: 0.8"/>
      </g>
     </g>
    </g>
   </g>
   <g id="line2d_52">
    <path clip-path="url(#p03ca6174db)" style="fill: none; stroke: #424242; stroke-width: 2.7; stroke-linecap: square"/>
   </g>
   <g id="line2d_53">
    <path clip-path="url(#p03ca6174db)" style="fill: none; stroke: #424242; stroke-width: 2.7; stroke-linecap: square"/>
   </g>
   <g id="line2d_54">
    <path clip-path="url(#p03ca6174db)" style="fill: none; stroke: #424242; stroke-width: 2.7; stroke-linecap: square"/>
   </g>
   <g id="line2d_55">
    <path clip-path="url(#p03ca6174db)" style="fill: none; stroke: #424242; stroke-width: 2.7; stroke-linecap: square"/>
   </g>
   <g id="line2d_56">
    <path clip-path="url(#p03ca6174db)" style="fill: none; stroke: #424242; stroke-width: 2.7; stroke-linecap: square"/>
   </g>
   <g id="line2d_57">
    <path clip-path="url(#p03ca6174db)" style="fill: none; stroke: #424242; stroke-width: 2.7; stroke-linecap: square"/>
   </g>
   <g id="line2d_58">
    <path clip-path="url(#p03ca6174db)" style="fill: none; stroke: #424242; stroke-width: 2.7; stroke-linecap: square"/>
   </g>
   <g id="line2d_59">
    <path clip-path="url(#p03ca6174db)" style="fill: none; stroke: #424242; stroke-width: 2.7; stroke-linecap: square"/>
   </g>
   <g id="line2d_60">
    <path clip-path="url(#p03ca6174db)" style="fill: none; stroke: #424242; stroke-width: 2.7; stroke-linecap: square"/>
   </g>
   <g id="patch_36">
    <path d="M 740.940735 317.93875 
L 740.940735 24.72 
" style="fill: none; stroke: #000000; stroke-width: 0.8; stroke-linejoin: miter; stroke-linecap: square"/>
   </g>
   <g id="patch_37">
    <path d="M 740.940735 317.93875 
L 1068.5638 317.93875 
" style="fill: none; stroke: #000000; stroke-width: 0.8; stroke-linejoin: miter; stroke-linecap: square"/>
   </g>
   <g id="text_24">
    <!-- inoc_ratio = 1.33 -->
    <g transform="translate(861.856955 18.72) scale(0.1 -0.1)">
     <use xlink:href="#DejaVuSans-69"/>
     <use xlink:href="#DejaVuSans-6e" x="27.783203"/>
     <use xlink:href="#DejaVuSans-6f" x="91.162109"/>
     <use xlink:href="#DejaVuSans-63" x="152.34375"/>
     <use xlink:href="#DejaVuSans-5f" x="207.324219"/>
     <use xlink:href="#DejaVuSans-72" x="257.324219"/>
     <use xlink:href="#DejaVuSans-61" x="298.4375"/>
     <use xlink:href="#DejaVuSans-74" x="359.716797"/>
     <use xlink:href="#DejaVuSans-69" x="398.925781"/>
     <use xlink:href="#DejaVuSans-6f" x="426.708984"/>
     <use xlink:href="#DejaVuSans-20" x="487.890625"/>
     <use xlink:href="#DejaVuSans-3d" x="519.677734"/>
     <use xlink:href="#DejaVuSans-20" x="603.466797"/>
     <use xlink:href="#DejaVuSans-31" x="635.253906"/>
     <use xlink:href="#DejaVuSans-2e" x="698.876953"/>
     <use xlink:href="#DejaVuSans-33" x="730.664062"/>
     <use xlink:href="#DejaVuSans-33" x="794.287109"/>
    </g>
   </g>
  </g>
  <g id="legend_1">
   <g id="text_25">
    <!-- xylan_conc -->
    <g transform="translate(1079.085625 160.603125) scale(0.1 -0.1)">
     <defs>
      <path id="DejaVuSans-78" d="M 3513 3500 
L 2247 1797 
L 3578 0 
L 2900 0 
L 1881 1375 
L 863 0 
L 184 0 
L 1544 1831 
L 300 3500 
L 978 3500 
L 1906 2253 
L 2834 3500 
L 3513 3500 
z
" transform="scale(0.015625)"/>
      <path id="DejaVuSans-79" d="M 2059 -325 
Q 1816 -950 1584 -1140 
Q 1353 -1331 966 -1331 
L 506 -1331 
L 506 -850 
L 844 -850 
Q 1081 -850 1212 -737 
Q 1344 -625 1503 -206 
L 1606 56 
L 191 3500 
L 800 3500 
L 1894 763 
L 2988 3500 
L 3597 3500 
L 2059 -325 
z
" transform="scale(0.015625)"/>
     </defs>
     <use xlink:href="#DejaVuSans-78"/>
     <use xlink:href="#DejaVuSans-79" x="59.179688"/>
     <use xlink:href="#DejaVuSans-6c" x="118.359375"/>
     <use xlink:href="#DejaVuSans-61" x="146.142578"/>
     <use xlink:href="#DejaVuSans-6e" x="207.421875"/>
     <use xlink:href="#DejaVuSans-5f" x="270.800781"/>
     <use xlink:href="#DejaVuSans-63" x="320.800781"/>
     <use xlink:href="#DejaVuSans-6f" x="375.78125"/>
     <use xlink:href="#DejaVuSans-6e" x="436.962891"/>
     <use xlink:href="#DejaVuSans-63" x="500.341797"/>
    </g>
   </g>
   <g id="patch_38">
    <path d="M 1086.490313 175.559375 
L 1106.490313 175.559375 
L 1106.490313 168.559375 
L 1086.490313 168.559375 
z
" style="fill: #3274a1"/>
   </g>
   <g id="text_26">
    <!-- 40 -->
    <g transform="translate(1114.490313 175.559375) scale(0.1 -0.1)">
     <use xlink:href="#DejaVuSans-34"/>
     <use xlink:href="#DejaVuSans-30" x="63.623047"/>
    </g>
   </g>
   <g id="patch_39">
    <path d="M 1086.490313 190.2375 
L 1106.490313 190.2375 
L 1106.490313 183.2375 
L 1086.490313 183.2375 
z
" style="fill: #e1812c"/>
   </g>
   <g id="text_27">
    <!-- 60 -->
    <g transform="translate(1114.490313 190.2375) scale(0.1 -0.1)">
     <defs>
      <path id="DejaVuSans-36" d="M 2113 2584 
Q 1688 2584 1439 2293 
Q 1191 2003 1191 1497 
Q 1191 994 1439 701 
Q 1688 409 2113 409 
Q 2538 409 2786 701 
Q 3034 994 3034 1497 
Q 3034 2003 2786 2293 
Q 2538 2584 2113 2584 
z
M 3366 4563 
L 3366 3988 
Q 3128 4100 2886 4159 
Q 2644 4219 2406 4219 
Q 1781 4219 1451 3797 
Q 1122 3375 1075 2522 
Q 1259 2794 1537 2939 
Q 1816 3084 2150 3084 
Q 2853 3084 3261 2657 
Q 3669 2231 3669 1497 
Q 3669 778 3244 343 
Q 2819 -91 2113 -91 
Q 1303 -91 875 529 
Q 447 1150 447 2328 
Q 447 3434 972 4092 
Q 1497 4750 2381 4750 
Q 2619 4750 2861 4703 
Q 3103 4656 3366 4563 
z
" transform="scale(0.015625)"/>
     </defs>
     <use xlink:href="#DejaVuSans-36"/>
     <use xlink:href="#DejaVuSans-30" x="63.623047"/>
    </g>
   </g>
   <g id="patch_40">
    <path d="M 1086.490313 204.915625 
L 1106.490313 204.915625 
L 1106.490313 197.915625 
L 1086.490313 197.915625 
z
" style="fill: #3a923a"/>
   </g>
   <g id="text_28">
    <!-- 80 -->
    <g transform="translate(1114.490313 204.915625) scale(0.1 -0.1)">
     <use xlink:href="#DejaVuSans-38"/>
     <use xlink:href="#DejaVuSans-30" x="63.623047"/>
    </g>
   </g>
  </g>
 </g>
 <defs>
  <clipPath id="p8895adec1c">
   <rect x="57.202178" y="24.72" width="327.623065" height="293.21875"/>
  </clipPath>
  <clipPath id="pf446f267da">
   <rect x="399.071457" y="24.72" width="327.623065" height="293.21875"/>
  </clipPath>
  <clipPath id="p03ca6174db">
   <rect x="740.940735" y="24.72" width="327.623065" height="293.21875"/>
  </clipPath>
 </defs>
</svg>
