<?xml version="1.0" encoding="utf-8" standalone="no"?>
<!DOCTYPE svg PUBLIC "-//W3C//DTD SVG 1.1//EN"
  "http://www.w3.org/Graphics/SVG/1.1/DTD/svg11.dtd">
<svg xmlns:xlink="http://www.w3.org/1999/xlink" width="720pt" height="432pt" viewBox="0 0 720 432" xmlns="http://www.w3.org/2000/svg" version="1.1">
 <metadata>
  <rdf:RDF xmlns:dc="http://purl.org/dc/elements/1.1/" xmlns:cc="http://creativecommons.org/ns#" xmlns:rdf="http://www.w3.org/1999/02/22-rdf-syntax-ns#">
   <cc:Work>
    <dc:type rdf:resource="http://purl.org/dc/dcmitype/StillImage"/>
    <dc:date>2024-03-14T14:08:49.272884</dc:date>
    <dc:format>image/svg+xml</dc:format>
    <dc:creator>
     <cc:Agent>
      <dc:title>Matplotlib v3.6.2, https://matplotlib.org/</dc:title>
     </cc:Agent>
    </dc:creator>
   </cc:Work>
  </rdf:RDF>
 </metadata>
 <defs>
  <style type="text/css">*{stroke-linejoin: round; stroke-linecap: butt}</style>
 </defs>
 <g id="figure_1">
  <g id="patch_1">
   <path d="M 0 432 
L 720 432 
L 720 0 
L 0 0 
z
" style="fill: #ffffff"/>
  </g>
  <g id="axes_1">
   <g id="patch_2">
    <path d="M 38.27 179.44 
L 230.1 179.44 
L 230.1 26.88 
L 38.27 26.88 
z
" style="fill: #ffffff"/>
   </g>
   <g id="PolyCollection_1">
    <defs>
     <path id="m83388e6b35" d="M 46.989545 -398.185455 
L 46.989545 -259.494545 
L 56.168014 -259.494545 
L 65.346483 -259.494545 
L 74.524952 -259.494545 
L 83.703421 -259.494545 
L 92.88189 -259.494545 
L 102.060359 -259.494545 
L 111.238828 -259.494545 
L 120.417297 -259.494545 
L 129.595766 -259.494545 
L 138.774234 -259.494545 
L 147.952703 -259.494545 
L 157.131172 -259.494545 
L 166.309641 -260.278034 
L 175.48811 -266.37849 
L 184.666579 -275.329545 
L 193.845048 -284.2806 
L 203.023517 -293.231655 
L 212.201986 -302.18271 
L 221.380455 -311.909586 
L 221.380455 -311.909586 
L 221.380455 -311.909586 
L 212.201986 -319.560379 
L 203.023517 -326.540301 
L 193.845048 -333.520223 
L 184.666579 -340.500145 
L 175.48811 -347.480067 
L 166.309641 -353.135014 
L 157.131172 -357.449294 
L 147.952703 -360.961049 
L 138.774234 -364.345086 
L 129.595766 -367.729123 
L 120.417297 -371.113159 
L 111.238828 -374.497196 
L 102.060359 -377.881233 
L 92.88189 -381.26527 
L 83.703421 -384.649307 
L 74.524952 -388.033344 
L 65.346483 -391.417381 
L 56.168014 -394.801418 
L 46.989545 -398.185455 
z
" style="stroke: #0000ff; stroke-opacity: 0.2"/>
    </defs>
    <g clip-path="url(#p17b1b1f90d)">
     <use xlink:href="#m83388e6b35" x="0" y="432" style="fill: #0000ff; fill-opacity: 0.2; stroke: #0000ff; stroke-opacity: 0.2"/>
    </g>
   </g>
   <g id="matplotlib.axis_1">
    <g id="xtick_1">
     <g id="line2d_1">
      <defs>
       <path id="m288b779a58" d="M 0 0 
L 0 3.5 
" style="stroke: #000000; stroke-width: 0.8"/>
      </defs>
      <g>
       <use xlink:href="#m288b779a58" x="46.989545" y="179.44" style="stroke: #000000; stroke-width: 0.8"/>
      </g>
     </g>
     <g id="text_1">
      <!-- 0.00 -->
      <g transform="translate(35.856733 194.038437) scale(0.1 -0.1)">
       <defs>
        <path id="DejaVuSans-30" d="M 2034 4250 
Q 1547 4250 1301 3770 
Q 1056 3291 1056 2328 
Q 1056 1369 1301 889 
Q 1547 409 2034 409 
Q 2525 409 2770 889 
Q 3016 1369 3016 2328 
Q 3016 3291 2770 3770 
Q 2525 4250 2034 4250 
z
M 2034 4750 
Q 2819 4750 3233 4129 
Q 3647 3509 3647 2328 
Q 3647 1150 3233 529 
Q 2819 -91 2034 -91 
Q 1250 -91 836 529 
Q 422 1150 422 2328 
Q 422 3509 836 4129 
Q 1250 4750 2034 4750 
z
" transform="scale(0.015625)"/>
        <path id="DejaVuSans-2e" d="M 684 794 
L 1344 794 
L 1344 0 
L 684 0 
L 684 794 
z
" transform="scale(0.015625)"/>
       </defs>
       <use xlink:href="#DejaVuSans-30"/>
       <use xlink:href="#DejaVuSans-2e" x="63.623047"/>
       <use xlink:href="#DejaVuSans-30" x="95.410156"/>
       <use xlink:href="#DejaVuSans-30" x="159.033203"/>
      </g>
     </g>
    </g>
    <g id="xtick_2">
     <g id="line2d_2">
      <g>
       <use xlink:href="#m288b779a58" x="83.754696" y="179.44" style="stroke: #000000; stroke-width: 0.8"/>
      </g>
     </g>
     <g id="text_2">
      <!-- 0.02 -->
      <g transform="translate(72.621884 194.038437) scale(0.1 -0.1)">
       <defs>
        <path id="DejaVuSans-32" d="M 1228 531 
L 3431 531 
L 3431 0 
L 469 0 
L 469 531 
Q 828 903 1448 1529 
Q 2069 2156 2228 2338 
Q 2531 2678 2651 2914 
Q 2772 3150 2772 3378 
Q 2772 3750 2511 3984 
Q 2250 4219 1831 4219 
Q 1534 4219 1204 4116 
Q 875 4013 500 3803 
L 500 4441 
Q 881 4594 1212 4672 
Q 1544 4750 1819 4750 
Q 2544 4750 2975 4387 
Q 3406 4025 3406 3419 
Q 3406 3131 3298 2873 
Q 3191 2616 2906 2266 
Q 2828 2175 2409 1742 
Q 1991 1309 1228 531 
z
" transform="scale(0.015625)"/>
       </defs>
       <use xlink:href="#DejaVuSans-30"/>
       <use xlink:href="#DejaVuSans-2e" x="63.623047"/>
       <use xlink:href="#DejaVuSans-30" x="95.410156"/>
       <use xlink:href="#DejaVuSans-32" x="159.033203"/>
      </g>
     </g>
    </g>
    <g id="xtick_3">
     <g id="line2d_3">
      <g>
       <use xlink:href="#m288b779a58" x="120.519847" y="179.44" style="stroke: #000000; stroke-width: 0.8"/>
      </g>
     </g>
     <g id="text_3">
      <!-- 0.04 -->
      <g transform="translate(109.387034 194.038437) scale(0.1 -0.1)">
       <defs>
        <path id="DejaVuSans-34" d="M 2419 4116 
L 825 1625 
L 2419 1625 
L 2419 4116 
z
M 2253 4666 
L 3047 4666 
L 3047 1625 
L 3713 1625 
L 3713 1100 
L 3047 1100 
L 3047 0 
L 2419 0 
L 2419 1100 
L 313 1100 
L 313 1709 
L 2253 4666 
z
" transform="scale(0.015625)"/>
       </defs>
       <use xlink:href="#DejaVuSans-30"/>
       <use xlink:href="#DejaVuSans-2e" x="63.623047"/>
       <use xlink:href="#DejaVuSans-30" x="95.410156"/>
       <use xlink:href="#DejaVuSans-34" x="159.033203"/>
      </g>
     </g>
    </g>
    <g id="xtick_4">
     <g id="line2d_4">
      <g>
       <use xlink:href="#m288b779a58" x="157.284998" y="179.44" style="stroke: #000000; stroke-width: 0.8"/>
      </g>
     </g>
     <g id="text_4">
      <!-- 0.06 -->
      <g transform="translate(146.152185 194.038437) scale(0.1 -0.1)">
       <defs>
        <path id="DejaVuSans-36" d="M 2113 2584 
Q 1688 2584 1439 2293 
Q 1191 2003 1191 1497 
Q 1191 994 1439 701 
Q 1688 409 2113 409 
Q 2538 409 2786 701 
Q 3034 994 3034 1497 
Q 3034 2003 2786 2293 
Q 2538 2584 2113 2584 
z
M 3366 4563 
L 3366 3988 
Q 3128 4100 2886 4159 
Q 2644 4219 2406 4219 
Q 1781 4219 1451 3797 
Q 1122 3375 1075 2522 
Q 1259 2794 1537 2939 
Q 1816 3084 2150 3084 
Q 2853 3084 3261 2657 
Q 3669 2231 3669 1497 
Q 3669 778 3244 343 
Q 2819 -91 2113 -91 
Q 1303 -91 875 529 
Q 447 1150 447 2328 
Q 447 3434 972 4092 
Q 1497 4750 2381 4750 
Q 2619 4750 2861 4703 
Q 3103 4656 3366 4563 
z
" transform="scale(0.015625)"/>
       </defs>
       <use xlink:href="#DejaVuSans-30"/>
       <use xlink:href="#DejaVuSans-2e" x="63.623047"/>
       <use xlink:href="#DejaVuSans-30" x="95.410156"/>
       <use xlink:href="#DejaVuSans-36" x="159.033203"/>
      </g>
     </g>
    </g>
    <g id="xtick_5">
     <g id="line2d_5">
      <g>
       <use xlink:href="#m288b779a58" x="194.050148" y="179.44" style="stroke: #000000; stroke-width: 0.8"/>
      </g>
     </g>
     <g id="text_5">
      <!-- 0.08 -->
      <g transform="translate(182.917336 194.038437) scale(0.1 -0.1)">
       <defs>
        <path id="DejaVuSans-38" d="M 2034 2216 
Q 1584 2216 1326 1975 
Q 1069 1734 1069 1313 
Q 1069 891 1326 650 
Q 1584 409 2034 409 
Q 2484 409 2743 651 
Q 3003 894 3003 1313 
Q 3003 1734 2745 1975 
Q 2488 2216 2034 2216 
z
M 1403 2484 
Q 997 2584 770 2862 
Q 544 3141 544 3541 
Q 544 4100 942 4425 
Q 1341 4750 2034 4750 
Q 2731 4750 3128 4425 
Q 3525 4100 3525 3541 
Q 3525 3141 3298 2862 
Q 3072 2584 2669 2484 
Q 3125 2378 3379 2068 
Q 3634 1759 3634 1313 
Q 3634 634 3220 271 
Q 2806 -91 2034 -91 
Q 1263 -91 848 271 
Q 434 634 434 1313 
Q 434 1759 690 2068 
Q 947 2378 1403 2484 
z
M 1172 3481 
Q 1172 3119 1398 2916 
Q 1625 2713 2034 2713 
Q 2441 2713 2670 2916 
Q 2900 3119 2900 3481 
Q 2900 3844 2670 4047 
Q 2441 4250 2034 4250 
Q 1625 4250 1398 4047 
Q 1172 3844 1172 3481 
z
" transform="scale(0.015625)"/>
       </defs>
       <use xlink:href="#DejaVuSans-30"/>
       <use xlink:href="#DejaVuSans-2e" x="63.623047"/>
       <use xlink:href="#DejaVuSans-30" x="95.410156"/>
       <use xlink:href="#DejaVuSans-38" x="159.033203"/>
      </g>
     </g>
    </g>
    <g id="text_6">
     <!-- Growth rate (gDW/h) -->
     <g transform="translate(82.033438 207.716562) scale(0.1 -0.1)">
      <defs>
       <path id="DejaVuSans-47" d="M 3809 666 
L 3809 1919 
L 2778 1919 
L 2778 2438 
L 4434 2438 
L 4434 434 
Q 4069 175 3628 42 
Q 3188 -91 2688 -91 
Q 1594 -91 976 548 
Q 359 1188 359 2328 
Q 359 3472 976 4111 
Q 1594 4750 2688 4750 
Q 3144 4750 3555 4637 
Q 3966 4525 4313 4306 
L 4313 3634 
Q 3963 3931 3569 4081 
Q 3175 4231 2741 4231 
Q 1884 4231 1454 3753 
Q 1025 3275 1025 2328 
Q 1025 1384 1454 906 
Q 1884 428 2741 428 
Q 3075 428 3337 486 
Q 3600 544 3809 666 
z
" transform="scale(0.015625)"/>
       <path id="DejaVuSans-72" d="M 2631 2963 
Q 2534 3019 2420 3045 
Q 2306 3072 2169 3072 
Q 1681 3072 1420 2755 
Q 1159 2438 1159 1844 
L 1159 0 
L 581 0 
L 581 3500 
L 1159 3500 
L 1159 2956 
Q 1341 3275 1631 3429 
Q 1922 3584 2338 3584 
Q 2397 3584 2469 3576 
Q 2541 3569 2628 3553 
L 2631 2963 
z
" transform="scale(0.015625)"/>
       <path id="DejaVuSans-6f" d="M 1959 3097 
Q 1497 3097 1228 2736 
Q 959 2375 959 1747 
Q 959 1119 1226 758 
Q 1494 397 1959 397 
Q 2419 397 2687 759 
Q 2956 1122 2956 1747 
Q 2956 2369 2687 2733 
Q 2419 3097 1959 3097 
z
M 1959 3584 
Q 2709 3584 3137 3096 
Q 3566 2609 3566 1747 
Q 3566 888 3137 398 
Q 2709 -91 1959 -91 
Q 1206 -91 779 398 
Q 353 888 353 1747 
Q 353 2609 779 3096 
Q 1206 3584 1959 3584 
z
" transform="scale(0.015625)"/>
       <path id="DejaVuSans-77" d="M 269 3500 
L 844 3500 
L 1563 769 
L 2278 3500 
L 2956 3500 
L 3675 769 
L 4391 3500 
L 4966 3500 
L 4050 0 
L 3372 0 
L 2619 2869 
L 1863 0 
L 1184 0 
L 269 3500 
z
" transform="scale(0.015625)"/>
       <path id="DejaVuSans-74" d="M 1172 4494 
L 1172 3500 
L 2356 3500 
L 2356 3053 
L 1172 3053 
L 1172 1153 
Q 1172 725 1289 603 
Q 1406 481 1766 481 
L 2356 481 
L 2356 0 
L 1766 0 
Q 1100 0 847 248 
Q 594 497 594 1153 
L 594 3053 
L 172 3053 
L 172 3500 
L 594 3500 
L 594 4494 
L 1172 4494 
z
" transform="scale(0.015625)"/>
       <path id="DejaVuSans-68" d="M 3513 2113 
L 3513 0 
L 2938 0 
L 2938 2094 
Q 2938 2591 2744 2837 
Q 2550 3084 2163 3084 
Q 1697 3084 1428 2787 
Q 1159 2491 1159 1978 
L 1159 0 
L 581 0 
L 581 4863 
L 1159 4863 
L 1159 2956 
Q 1366 3272 1645 3428 
Q 1925 3584 2291 3584 
Q 2894 3584 3203 3211 
Q 3513 2838 3513 2113 
z
" transform="scale(0.015625)"/>
       <path id="DejaVuSans-20" transform="scale(0.015625)"/>
       <path id="DejaVuSans-61" d="M 2194 1759 
Q 1497 1759 1228 1600 
Q 959 1441 959 1056 
Q 959 750 1161 570 
Q 1363 391 1709 391 
Q 2188 391 2477 730 
Q 2766 1069 2766 1631 
L 2766 1759 
L 2194 1759 
z
M 3341 1997 
L 3341 0 
L 2766 0 
L 2766 531 
Q 2569 213 2275 61 
Q 1981 -91 1556 -91 
Q 1019 -91 701 211 
Q 384 513 384 1019 
Q 384 1609 779 1909 
Q 1175 2209 1959 2209 
L 2766 2209 
L 2766 2266 
Q 2766 2663 2505 2880 
Q 2244 3097 1772 3097 
Q 1472 3097 1187 3025 
Q 903 2953 641 2809 
L 641 3341 
Q 956 3463 1253 3523 
Q 1550 3584 1831 3584 
Q 2591 3584 2966 3190 
Q 3341 2797 3341 1997 
z
" transform="scale(0.015625)"/>
       <path id="DejaVuSans-65" d="M 3597 1894 
L 3597 1613 
L 953 1613 
Q 991 1019 1311 708 
Q 1631 397 2203 397 
Q 2534 397 2845 478 
Q 3156 559 3463 722 
L 3463 178 
Q 3153 47 2828 -22 
Q 2503 -91 2169 -91 
Q 1331 -91 842 396 
Q 353 884 353 1716 
Q 353 2575 817 3079 
Q 1281 3584 2069 3584 
Q 2775 3584 3186 3129 
Q 3597 2675 3597 1894 
z
M 3022 2063 
Q 3016 2534 2758 2815 
Q 2500 3097 2075 3097 
Q 1594 3097 1305 2825 
Q 1016 2553 972 2059 
L 3022 2063 
z
" transform="scale(0.015625)"/>
       <path id="DejaVuSans-28" d="M 1984 4856 
Q 1566 4138 1362 3434 
Q 1159 2731 1159 2009 
Q 1159 1288 1364 580 
Q 1569 -128 1984 -844 
L 1484 -844 
Q 1016 -109 783 600 
Q 550 1309 550 2009 
Q 550 2706 781 3412 
Q 1013 4119 1484 4856 
L 1984 4856 
z
" transform="scale(0.015625)"/>
       <path id="DejaVuSans-67" d="M 2906 1791 
Q 2906 2416 2648 2759 
Q 2391 3103 1925 3103 
Q 1463 3103 1205 2759 
Q 947 2416 947 1791 
Q 947 1169 1205 825 
Q 1463 481 1925 481 
Q 2391 481 2648 825 
Q 2906 1169 2906 1791 
z
M 3481 434 
Q 3481 -459 3084 -895 
Q 2688 -1331 1869 -1331 
Q 1566 -1331 1297 -1286 
Q 1028 -1241 775 -1147 
L 775 -588 
Q 1028 -725 1275 -790 
Q 1522 -856 1778 -856 
Q 2344 -856 2625 -561 
Q 2906 -266 2906 331 
L 2906 616 
Q 2728 306 2450 153 
Q 2172 0 1784 0 
Q 1141 0 747 490 
Q 353 981 353 1791 
Q 353 2603 747 3093 
Q 1141 3584 1784 3584 
Q 2172 3584 2450 3431 
Q 2728 3278 2906 2969 
L 2906 3500 
L 3481 3500 
L 3481 434 
z
" transform="scale(0.015625)"/>
       <path id="DejaVuSans-44" d="M 1259 4147 
L 1259 519 
L 2022 519 
Q 2988 519 3436 956 
Q 3884 1394 3884 2338 
Q 3884 3275 3436 3711 
Q 2988 4147 2022 4147 
L 1259 4147 
z
M 628 4666 
L 1925 4666 
Q 3281 4666 3915 4102 
Q 4550 3538 4550 2338 
Q 4550 1131 3912 565 
Q 3275 0 1925 0 
L 628 0 
L 628 4666 
z
" transform="scale(0.015625)"/>
       <path id="DejaVuSans-57" d="M 213 4666 
L 850 4666 
L 1831 722 
L 2809 4666 
L 3519 4666 
L 4500 722 
L 5478 4666 
L 6119 4666 
L 4947 0 
L 4153 0 
L 3169 4050 
L 2175 0 
L 1381 0 
L 213 4666 
z
" transform="scale(0.015625)"/>
       <path id="DejaVuSans-2f" d="M 1625 4666 
L 2156 4666 
L 531 -594 
L 0 -594 
L 1625 4666 
z
" transform="scale(0.015625)"/>
       <path id="DejaVuSans-29" d="M 513 4856 
L 1013 4856 
Q 1481 4119 1714 3412 
Q 1947 2706 1947 2009 
Q 1947 1309 1714 600 
Q 1481 -109 1013 -844 
L 513 -844 
Q 928 -128 1133 580 
Q 1338 1288 1338 2009 
Q 1338 2731 1133 3434 
Q 928 4138 513 4856 
z
" transform="scale(0.015625)"/>
      </defs>
      <use xlink:href="#DejaVuSans-47"/>
      <use xlink:href="#DejaVuSans-72" x="77.490234"/>
      <use xlink:href="#DejaVuSans-6f" x="116.353516"/>
      <use xlink:href="#DejaVuSans-77" x="177.535156"/>
      <use xlink:href="#DejaVuSans-74" x="259.322266"/>
      <use xlink:href="#DejaVuSans-68" x="298.53125"/>
      <use xlink:href="#DejaVuSans-20" x="361.910156"/>
      <use xlink:href="#DejaVuSans-72" x="393.697266"/>
      <use xlink:href="#DejaVuSans-61" x="434.810547"/>
      <use xlink:href="#DejaVuSans-74" x="496.089844"/>
      <use xlink:href="#DejaVuSans-65" x="535.298828"/>
      <use xlink:href="#DejaVuSans-20" x="596.822266"/>
      <use xlink:href="#DejaVuSans-28" x="628.609375"/>
      <use xlink:href="#DejaVuSans-67" x="667.623047"/>
      <use xlink:href="#DejaVuSans-44" x="731.099609"/>
      <use xlink:href="#DejaVuSans-57" x="808.101562"/>
      <use xlink:href="#DejaVuSans-2f" x="906.978516"/>
      <use xlink:href="#DejaVuSans-68" x="940.669922"/>
      <use xlink:href="#DejaVuSans-29" x="1004.048828"/>
     </g>
    </g>
   </g>
   <g id="matplotlib.axis_2">
    <g id="ytick_1">
     <g id="line2d_6">
      <defs>
       <path id="mf8adb14a5d" d="M 0 0 
L -3.5 0 
" style="stroke: #000000; stroke-width: 0.8"/>
      </defs>
      <g>
       <use xlink:href="#mf8adb14a5d" x="38.27" y="172.505455" style="stroke: #000000; stroke-width: 0.8"/>
      </g>
     </g>
     <g id="text_7">
      <!-- 0 -->
      <g transform="translate(24.9075 176.304673) scale(0.1 -0.1)">
       <use xlink:href="#DejaVuSans-30"/>
      </g>
     </g>
    </g>
    <g id="ytick_2">
     <g id="line2d_7">
      <g>
       <use xlink:href="#mf8adb14a5d" x="38.27" y="146.944845" style="stroke: #000000; stroke-width: 0.8"/>
      </g>
     </g>
     <g id="text_8">
      <!-- 1 -->
      <g transform="translate(24.9075 150.744064) scale(0.1 -0.1)">
       <defs>
        <path id="DejaVuSans-31" d="M 794 531 
L 1825 531 
L 1825 4091 
L 703 3866 
L 703 4441 
L 1819 4666 
L 2450 4666 
L 2450 531 
L 3481 531 
L 3481 0 
L 794 0 
L 794 531 
z
" transform="scale(0.015625)"/>
       </defs>
       <use xlink:href="#DejaVuSans-31"/>
      </g>
     </g>
    </g>
    <g id="ytick_3">
     <g id="line2d_8">
      <g>
       <use xlink:href="#mf8adb14a5d" x="38.27" y="121.384235" style="stroke: #000000; stroke-width: 0.8"/>
      </g>
     </g>
     <g id="text_9">
      <!-- 2 -->
      <g transform="translate(24.9075 125.183454) scale(0.1 -0.1)">
       <use xlink:href="#DejaVuSans-32"/>
      </g>
     </g>
    </g>
    <g id="ytick_4">
     <g id="line2d_9">
      <g>
       <use xlink:href="#mf8adb14a5d" x="38.27" y="95.823626" style="stroke: #000000; stroke-width: 0.8"/>
      </g>
     </g>
     <g id="text_10">
      <!-- 3 -->
      <g transform="translate(24.9075 99.622844) scale(0.1 -0.1)">
       <defs>
        <path id="DejaVuSans-33" d="M 2597 2516 
Q 3050 2419 3304 2112 
Q 3559 1806 3559 1356 
Q 3559 666 3084 287 
Q 2609 -91 1734 -91 
Q 1441 -91 1130 -33 
Q 819 25 488 141 
L 488 750 
Q 750 597 1062 519 
Q 1375 441 1716 441 
Q 2309 441 2620 675 
Q 2931 909 2931 1356 
Q 2931 1769 2642 2001 
Q 2353 2234 1838 2234 
L 1294 2234 
L 1294 2753 
L 1863 2753 
Q 2328 2753 2575 2939 
Q 2822 3125 2822 3475 
Q 2822 3834 2567 4026 
Q 2313 4219 1838 4219 
Q 1578 4219 1281 4162 
Q 984 4106 628 3988 
L 628 4550 
Q 988 4650 1302 4700 
Q 1616 4750 1894 4750 
Q 2613 4750 3031 4423 
Q 3450 4097 3450 3541 
Q 3450 3153 3228 2886 
Q 3006 2619 2597 2516 
z
" transform="scale(0.015625)"/>
       </defs>
       <use xlink:href="#DejaVuSans-33"/>
      </g>
     </g>
    </g>
    <g id="ytick_5">
     <g id="line2d_10">
      <g>
       <use xlink:href="#mf8adb14a5d" x="38.27" y="70.263016" style="stroke: #000000; stroke-width: 0.8"/>
      </g>
     </g>
     <g id="text_11">
      <!-- 4 -->
      <g transform="translate(24.9075 74.062235) scale(0.1 -0.1)">
       <use xlink:href="#DejaVuSans-34"/>
      </g>
     </g>
    </g>
    <g id="ytick_6">
     <g id="line2d_11">
      <g>
       <use xlink:href="#mf8adb14a5d" x="38.27" y="44.702406" style="stroke: #000000; stroke-width: 0.8"/>
      </g>
     </g>
     <g id="text_12">
      <!-- 5 -->
      <g transform="translate(24.9075 48.501625) scale(0.1 -0.1)">
       <defs>
        <path id="DejaVuSans-35" d="M 691 4666 
L 3169 4666 
L 3169 4134 
L 1269 4134 
L 1269 2991 
Q 1406 3038 1543 3061 
Q 1681 3084 1819 3084 
Q 2600 3084 3056 2656 
Q 3513 2228 3513 1497 
Q 3513 744 3044 326 
Q 2575 -91 1722 -91 
Q 1428 -91 1123 -41 
Q 819 9 494 109 
L 494 744 
Q 775 591 1075 516 
Q 1375 441 1709 441 
Q 2250 441 2565 725 
Q 2881 1009 2881 1497 
Q 2881 1984 2565 2268 
Q 2250 2553 1709 2553 
Q 1456 2553 1204 2497 
Q 953 2441 691 2322 
L 691 4666 
z
" transform="scale(0.015625)"/>
       </defs>
       <use xlink:href="#DejaVuSans-35"/>
      </g>
     </g>
    </g>
    <g id="text_13">
     <!-- Flux (mmol/h/gDW) -->
     <g transform="translate(18.827813 151.738125) rotate(-90) scale(0.1 -0.1)">
      <defs>
       <path id="DejaVuSans-46" d="M 628 4666 
L 3309 4666 
L 3309 4134 
L 1259 4134 
L 1259 2759 
L 3109 2759 
L 3109 2228 
L 1259 2228 
L 1259 0 
L 628 0 
L 628 4666 
z
" transform="scale(0.015625)"/>
       <path id="DejaVuSans-6c" d="M 603 4863 
L 1178 4863 
L 1178 0 
L 603 0 
L 603 4863 
z
" transform="scale(0.015625)"/>
       <path id="DejaVuSans-75" d="M 544 1381 
L 544 3500 
L 1119 3500 
L 1119 1403 
Q 1119 906 1312 657 
Q 1506 409 1894 409 
Q 2359 409 2629 706 
Q 2900 1003 2900 1516 
L 2900 3500 
L 3475 3500 
L 3475 0 
L 2900 0 
L 2900 538 
Q 2691 219 2414 64 
Q 2138 -91 1772 -91 
Q 1169 -91 856 284 
Q 544 659 544 1381 
z
M 1991 3584 
L 1991 3584 
z
" transform="scale(0.015625)"/>
       <path id="DejaVuSans-78" d="M 3513 3500 
L 2247 1797 
L 3578 0 
L 2900 0 
L 1881 1375 
L 863 0 
L 184 0 
L 1544 1831 
L 300 3500 
L 978 3500 
L 1906 2253 
L 2834 3500 
L 3513 3500 
z
" transform="scale(0.015625)"/>
       <path id="DejaVuSans-6d" d="M 3328 2828 
Q 3544 3216 3844 3400 
Q 4144 3584 4550 3584 
Q 5097 3584 5394 3201 
Q 5691 2819 5691 2113 
L 5691 0 
L 5113 0 
L 5113 2094 
Q 5113 2597 4934 2840 
Q 4756 3084 4391 3084 
Q 3944 3084 3684 2787 
Q 3425 2491 3425 1978 
L 3425 0 
L 2847 0 
L 2847 2094 
Q 2847 2600 2669 2842 
Q 2491 3084 2119 3084 
Q 1678 3084 1418 2786 
Q 1159 2488 1159 1978 
L 1159 0 
L 581 0 
L 581 3500 
L 1159 3500 
L 1159 2956 
Q 1356 3278 1631 3431 
Q 1906 3584 2284 3584 
Q 2666 3584 2933 3390 
Q 3200 3197 3328 2828 
z
" transform="scale(0.015625)"/>
      </defs>
      <use xlink:href="#DejaVuSans-46"/>
      <use xlink:href="#DejaVuSans-6c" x="57.519531"/>
      <use xlink:href="#DejaVuSans-75" x="85.302734"/>
      <use xlink:href="#DejaVuSans-78" x="148.681641"/>
      <use xlink:href="#DejaVuSans-20" x="207.861328"/>
      <use xlink:href="#DejaVuSans-28" x="239.648438"/>
      <use xlink:href="#DejaVuSans-6d" x="278.662109"/>
      <use xlink:href="#DejaVuSans-6d" x="376.074219"/>
      <use xlink:href="#DejaVuSans-6f" x="473.486328"/>
      <use xlink:href="#DejaVuSans-6c" x="534.667969"/>
      <use xlink:href="#DejaVuSans-2f" x="562.451172"/>
      <use xlink:href="#DejaVuSans-68" x="596.142578"/>
      <use xlink:href="#DejaVuSans-2f" x="659.521484"/>
      <use xlink:href="#DejaVuSans-67" x="693.212891"/>
      <use xlink:href="#DejaVuSans-44" x="756.689453"/>
      <use xlink:href="#DejaVuSans-57" x="833.691406"/>
      <use xlink:href="#DejaVuSans-29" x="932.568359"/>
     </g>
    </g>
   </g>
   <g id="line2d_12">
    <path d="M 46.989545 33.814545 
L 56.168014 37.198582 
L 65.346483 40.582619 
L 74.524952 43.966656 
L 83.703421 47.350693 
L 92.88189 50.73473 
L 102.060359 54.118767 
L 111.238828 57.502804 
L 120.417297 60.886841 
L 129.595766 64.270877 
L 138.774234 67.654914 
L 147.952703 71.038951 
L 157.131172 74.550706 
L 166.309641 78.864986 
L 175.48811 84.519933 
L 184.666579 91.499855 
L 193.845048 98.479777 
L 203.023517 105.459699 
L 212.201986 112.439621 
L 221.380455 120.090414 
" clip-path="url(#p17b1b1f90d)" style="fill: none; stroke: #0000ff; stroke-width: 1.5; stroke-linecap: square"/>
   </g>
   <g id="line2d_13">
    <path d="M 46.989545 172.505455 
L 56.168014 172.505455 
L 65.346483 172.505455 
L 74.524952 172.505455 
L 83.703421 172.505455 
L 92.88189 172.505455 
L 102.060359 172.505455 
L 111.238828 172.505455 
L 120.417297 172.505455 
L 129.595766 172.505455 
L 138.774234 172.505455 
L 147.952703 172.505455 
L 157.131172 172.505455 
L 166.309641 171.721966 
L 175.48811 165.62151 
L 184.666579 156.670455 
L 193.845048 147.7194 
L 203.023517 138.768345 
L 212.201986 129.81729 
L 221.380455 120.090414 
" clip-path="url(#p17b1b1f90d)" style="fill: none; stroke: #0000ff; stroke-width: 1.5; stroke-linecap: square"/>
   </g>
   <g id="patch_3">
    <path d="M 38.27 179.44 
L 38.27 26.88 
" style="fill: none; stroke: #000000; stroke-width: 0.8; stroke-linejoin: miter; stroke-linecap: square"/>
   </g>
   <g id="patch_4">
    <path d="M 230.1 179.44 
L 230.1 26.88 
" style="fill: none; stroke: #000000; stroke-width: 0.8; stroke-linejoin: miter; stroke-linecap: square"/>
   </g>
   <g id="patch_5">
    <path d="M 38.27 179.44 
L 230.1 179.44 
" style="fill: none; stroke: #000000; stroke-width: 0.8; stroke-linejoin: miter; stroke-linecap: square"/>
   </g>
   <g id="patch_6">
    <path d="M 38.27 26.88 
L 230.1 26.88 
" style="fill: none; stroke: #000000; stroke-width: 0.8; stroke-linejoin: miter; stroke-linecap: square"/>
   </g>
   <g id="text_14">
    <!-- Acetate exchange -->
    <g transform="translate(80.099688 20.88) scale(0.12 -0.12)">
     <defs>
      <path id="DejaVuSans-41" d="M 2188 4044 
L 1331 1722 
L 3047 1722 
L 2188 4044 
z
M 1831 4666 
L 2547 4666 
L 4325 0 
L 3669 0 
L 3244 1197 
L 1141 1197 
L 716 0 
L 50 0 
L 1831 4666 
z
" transform="scale(0.015625)"/>
      <path id="DejaVuSans-63" d="M 3122 3366 
L 3122 2828 
Q 2878 2963 2633 3030 
Q 2388 3097 2138 3097 
Q 1578 3097 1268 2742 
Q 959 2388 959 1747 
Q 959 1106 1268 751 
Q 1578 397 2138 397 
Q 2388 397 2633 464 
Q 2878 531 3122 666 
L 3122 134 
Q 2881 22 2623 -34 
Q 2366 -91 2075 -91 
Q 1284 -91 818 406 
Q 353 903 353 1747 
Q 353 2603 823 3093 
Q 1294 3584 2113 3584 
Q 2378 3584 2631 3529 
Q 2884 3475 3122 3366 
z
" transform="scale(0.015625)"/>
      <path id="DejaVuSans-6e" d="M 3513 2113 
L 3513 0 
L 2938 0 
L 2938 2094 
Q 2938 2591 2744 2837 
Q 2550 3084 2163 3084 
Q 1697 3084 1428 2787 
Q 1159 2491 1159 1978 
L 1159 0 
L 581 0 
L 581 3500 
L 1159 3500 
L 1159 2956 
Q 1366 3272 1645 3428 
Q 1925 3584 2291 3584 
Q 2894 3584 3203 3211 
Q 3513 2838 3513 2113 
z
" transform="scale(0.015625)"/>
     </defs>
     <use xlink:href="#DejaVuSans-41"/>
     <use xlink:href="#DejaVuSans-63" x="66.658203"/>
     <use xlink:href="#DejaVuSans-65" x="121.638672"/>
     <use xlink:href="#DejaVuSans-74" x="183.162109"/>
     <use xlink:href="#DejaVuSans-61" x="222.371094"/>
     <use xlink:href="#DejaVuSans-74" x="283.650391"/>
     <use xlink:href="#DejaVuSans-65" x="322.859375"/>
     <use xlink:href="#DejaVuSans-20" x="384.382812"/>
     <use xlink:href="#DejaVuSans-65" x="416.169922"/>
     <use xlink:href="#DejaVuSans-78" x="475.943359"/>
     <use xlink:href="#DejaVuSans-63" x="533.373047"/>
     <use xlink:href="#DejaVuSans-68" x="588.353516"/>
     <use xlink:href="#DejaVuSans-61" x="651.732422"/>
     <use xlink:href="#DejaVuSans-6e" x="713.011719"/>
     <use xlink:href="#DejaVuSans-67" x="776.390625"/>
     <use xlink:href="#DejaVuSans-65" x="839.867188"/>
    </g>
   </g>
  </g>
  <g id="axes_2">
   <g id="patch_7">
    <path d="M 277.82 179.44 
L 469.65 179.44 
L 469.65 26.88 
L 277.82 26.88 
z
" style="fill: #ffffff"/>
   </g>
   <g id="PolyCollection_2">
    <defs>
     <path id="m17248e3388" d="M 286.539545 -398.185455 
L 286.539545 -259.494545 
L 295.718014 -259.494545 
L 304.896483 -259.494545 
L 314.074952 -259.494545 
L 323.253421 -259.494545 
L 332.43189 -259.494545 
L 341.610359 -259.494545 
L 350.788828 -259.494545 
L 359.967297 -259.494545 
L 369.145766 -259.494545 
L 378.324234 -259.494545 
L 387.502703 -259.494545 
L 396.681172 -259.494545 
L 405.859641 -261.165478 
L 415.03811 -267.200858 
L 424.216579 -277.221222 
L 433.395048 -287.241585 
L 442.573517 -297.261949 
L 451.751986 -307.282312 
L 460.930455 -318.171178 
L 460.930455 -318.171178 
L 460.930455 -318.171178 
L 451.751986 -325.577789 
L 442.573517 -331.228658 
L 433.395048 -336.879526 
L 424.216579 -342.530395 
L 415.03811 -348.181263 
L 405.859641 -353.832132 
L 396.681172 -359.483 
L 387.502703 -365.133869 
L 378.324234 -370.761285 
L 369.145766 -376.356582 
L 359.967297 -380.10393 
L 350.788828 -382.438391 
L 341.610359 -384.687971 
L 332.43189 -386.937552 
L 323.253421 -389.187132 
L 314.074952 -391.436713 
L 304.896483 -393.686293 
L 295.718014 -395.935874 
L 286.539545 -398.185455 
z
" style="stroke: #008000; stroke-opacity: 0.2"/>
    </defs>
    <g clip-path="url(#p11a8c65bb2)">
     <use xlink:href="#m17248e3388" x="0" y="432" style="fill: #008000; fill-opacity: 0.2; stroke: #008000; stroke-opacity: 0.2"/>
    </g>
   </g>
   <g id="matplotlib.axis_3">
    <g id="xtick_6">
     <g id="line2d_14">
      <g>
       <use xlink:href="#m288b779a58" x="286.539545" y="179.44" style="stroke: #000000; stroke-width: 0.8"/>
      </g>
     </g>
     <g id="text_15">
      <!-- 0.00 -->
      <g transform="translate(275.406733 194.038437) scale(0.1 -0.1)">
       <use xlink:href="#DejaVuSans-30"/>
       <use xlink:href="#DejaVuSans-2e" x="63.623047"/>
       <use xlink:href="#DejaVuSans-30" x="95.410156"/>
       <use xlink:href="#DejaVuSans-30" x="159.033203"/>
      </g>
     </g>
    </g>
    <g id="xtick_7">
     <g id="line2d_15">
      <g>
       <use xlink:href="#m288b779a58" x="323.304696" y="179.44" style="stroke: #000000; stroke-width: 0.8"/>
      </g>
     </g>
     <g id="text_16">
      <!-- 0.02 -->
      <g transform="translate(312.171884 194.038437) scale(0.1 -0.1)">
       <use xlink:href="#DejaVuSans-30"/>
       <use xlink:href="#DejaVuSans-2e" x="63.623047"/>
       <use xlink:href="#DejaVuSans-30" x="95.410156"/>
       <use xlink:href="#DejaVuSans-32" x="159.033203"/>
      </g>
     </g>
    </g>
    <g id="xtick_8">
     <g id="line2d_16">
      <g>
       <use xlink:href="#m288b779a58" x="360.069847" y="179.44" style="stroke: #000000; stroke-width: 0.8"/>
      </g>
     </g>
     <g id="text_17">
      <!-- 0.04 -->
      <g transform="translate(348.937034 194.038437) scale(0.1 -0.1)">
       <use xlink:href="#DejaVuSans-30"/>
       <use xlink:href="#DejaVuSans-2e" x="63.623047"/>
       <use xlink:href="#DejaVuSans-30" x="95.410156"/>
       <use xlink:href="#DejaVuSans-34" x="159.033203"/>
      </g>
     </g>
    </g>
    <g id="xtick_9">
     <g id="line2d_17">
      <g>
       <use xlink:href="#m288b779a58" x="396.834998" y="179.44" style="stroke: #000000; stroke-width: 0.8"/>
      </g>
     </g>
     <g id="text_18">
      <!-- 0.06 -->
      <g transform="translate(385.702185 194.038437) scale(0.1 -0.1)">
       <use xlink:href="#DejaVuSans-30"/>
       <use xlink:href="#DejaVuSans-2e" x="63.623047"/>
       <use xlink:href="#DejaVuSans-30" x="95.410156"/>
       <use xlink:href="#DejaVuSans-36" x="159.033203"/>
      </g>
     </g>
    </g>
    <g id="xtick_10">
     <g id="line2d_18">
      <g>
       <use xlink:href="#m288b779a58" x="433.600148" y="179.44" style="stroke: #000000; stroke-width: 0.8"/>
      </g>
     </g>
     <g id="text_19">
      <!-- 0.08 -->
      <g transform="translate(422.467336 194.038437) scale(0.1 -0.1)">
       <use xlink:href="#DejaVuSans-30"/>
       <use xlink:href="#DejaVuSans-2e" x="63.623047"/>
       <use xlink:href="#DejaVuSans-30" x="95.410156"/>
       <use xlink:href="#DejaVuSans-38" x="159.033203"/>
      </g>
     </g>
    </g>
    <g id="text_20">
     <!-- Growth rate (gDW/h) -->
     <g transform="translate(321.583438 207.716562) scale(0.1 -0.1)">
      <use xlink:href="#DejaVuSans-47"/>
      <use xlink:href="#DejaVuSans-72" x="77.490234"/>
      <use xlink:href="#DejaVuSans-6f" x="116.353516"/>
      <use xlink:href="#DejaVuSans-77" x="177.535156"/>
      <use xlink:href="#DejaVuSans-74" x="259.322266"/>
      <use xlink:href="#DejaVuSans-68" x="298.53125"/>
      <use xlink:href="#DejaVuSans-20" x="361.910156"/>
      <use xlink:href="#DejaVuSans-72" x="393.697266"/>
      <use xlink:href="#DejaVuSans-61" x="434.810547"/>
      <use xlink:href="#DejaVuSans-74" x="496.089844"/>
      <use xlink:href="#DejaVuSans-65" x="535.298828"/>
      <use xlink:href="#DejaVuSans-20" x="596.822266"/>
      <use xlink:href="#DejaVuSans-28" x="628.609375"/>
      <use xlink:href="#DejaVuSans-67" x="667.623047"/>
      <use xlink:href="#DejaVuSans-44" x="731.099609"/>
      <use xlink:href="#DejaVuSans-57" x="808.101562"/>
      <use xlink:href="#DejaVuSans-2f" x="906.978516"/>
      <use xlink:href="#DejaVuSans-68" x="940.669922"/>
      <use xlink:href="#DejaVuSans-29" x="1004.048828"/>
     </g>
    </g>
   </g>
   <g id="matplotlib.axis_4">
    <g id="ytick_7">
     <g id="line2d_19">
      <g>
       <use xlink:href="#mf8adb14a5d" x="277.82" y="172.505455" style="stroke: #000000; stroke-width: 0.8"/>
      </g>
     </g>
     <g id="text_21">
      <!-- 0 -->
      <g transform="translate(264.4575 176.304673) scale(0.1 -0.1)">
       <use xlink:href="#DejaVuSans-30"/>
      </g>
     </g>
    </g>
    <g id="ytick_8">
     <g id="line2d_20">
      <g>
       <use xlink:href="#mf8adb14a5d" x="277.82" y="132.203871" style="stroke: #000000; stroke-width: 0.8"/>
      </g>
     </g>
     <g id="text_22">
      <!-- 1 -->
      <g transform="translate(264.4575 136.00309) scale(0.1 -0.1)">
       <use xlink:href="#DejaVuSans-31"/>
      </g>
     </g>
    </g>
    <g id="ytick_9">
     <g id="line2d_21">
      <g>
       <use xlink:href="#mf8adb14a5d" x="277.82" y="91.902287" style="stroke: #000000; stroke-width: 0.8"/>
      </g>
     </g>
     <g id="text_23">
      <!-- 2 -->
      <g transform="translate(264.4575 95.701506) scale(0.1 -0.1)">
       <use xlink:href="#DejaVuSans-32"/>
      </g>
     </g>
    </g>
    <g id="ytick_10">
     <g id="line2d_22">
      <g>
       <use xlink:href="#mf8adb14a5d" x="277.82" y="51.600704" style="stroke: #000000; stroke-width: 0.8"/>
      </g>
     </g>
     <g id="text_24">
      <!-- 3 -->
      <g transform="translate(264.4575 55.399922) scale(0.1 -0.1)">
       <use xlink:href="#DejaVuSans-33"/>
      </g>
     </g>
    </g>
    <g id="text_25">
     <!-- Flux (mmol/h/gDW) -->
     <g transform="translate(258.377812 151.738125) rotate(-90) scale(0.1 -0.1)">
      <use xlink:href="#DejaVuSans-46"/>
      <use xlink:href="#DejaVuSans-6c" x="57.519531"/>
      <use xlink:href="#DejaVuSans-75" x="85.302734"/>
      <use xlink:href="#DejaVuSans-78" x="148.681641"/>
      <use xlink:href="#DejaVuSans-20" x="207.861328"/>
      <use xlink:href="#DejaVuSans-28" x="239.648438"/>
      <use xlink:href="#DejaVuSans-6d" x="278.662109"/>
      <use xlink:href="#DejaVuSans-6d" x="376.074219"/>
      <use xlink:href="#DejaVuSans-6f" x="473.486328"/>
      <use xlink:href="#DejaVuSans-6c" x="534.667969"/>
      <use xlink:href="#DejaVuSans-2f" x="562.451172"/>
      <use xlink:href="#DejaVuSans-68" x="596.142578"/>
      <use xlink:href="#DejaVuSans-2f" x="659.521484"/>
      <use xlink:href="#DejaVuSans-67" x="693.212891"/>
      <use xlink:href="#DejaVuSans-44" x="756.689453"/>
      <use xlink:href="#DejaVuSans-57" x="833.691406"/>
      <use xlink:href="#DejaVuSans-29" x="932.568359"/>
     </g>
    </g>
   </g>
   <g id="line2d_23">
    <path d="M 286.539545 33.814545 
L 295.718014 36.064126 
L 304.896483 38.313707 
L 314.074952 40.563287 
L 323.253421 42.812868 
L 332.43189 45.062448 
L 341.610359 47.312029 
L 350.788828 49.561609 
L 359.967297 51.89607 
L 369.145766 55.643418 
L 378.324234 61.238715 
L 387.502703 66.866131 
L 396.681172 72.517 
L 405.859641 78.167868 
L 415.03811 83.818737 
L 424.216579 89.469605 
L 433.395048 95.120474 
L 442.573517 100.771342 
L 451.751986 106.422211 
L 460.930455 113.828822 
" clip-path="url(#p11a8c65bb2)" style="fill: none; stroke: #008000; stroke-width: 1.5; stroke-linecap: square"/>
   </g>
   <g id="line2d_24">
    <path d="M 286.539545 172.505455 
L 295.718014 172.505455 
L 304.896483 172.505455 
L 314.074952 172.505455 
L 323.253421 172.505455 
L 332.43189 172.505455 
L 341.610359 172.505455 
L 350.788828 172.505455 
L 359.967297 172.505455 
L 369.145766 172.505455 
L 378.324234 172.505455 
L 387.502703 172.505455 
L 396.681172 172.505455 
L 405.859641 170.834522 
L 415.03811 164.799142 
L 424.216579 154.778778 
L 433.395048 144.758415 
L 442.573517 134.738051 
L 451.751986 124.717688 
L 460.930455 113.828822 
" clip-path="url(#p11a8c65bb2)" style="fill: none; stroke: #008000; stroke-width: 1.5; stroke-linecap: square"/>
   </g>
   <g id="patch_8">
    <path d="M 277.82 179.44 
L 277.82 26.88 
" style="fill: none; stroke: #000000; stroke-width: 0.8; stroke-linejoin: miter; stroke-linecap: square"/>
   </g>
   <g id="patch_9">
    <path d="M 469.65 179.44 
L 469.65 26.88 
" style="fill: none; stroke: #000000; stroke-width: 0.8; stroke-linejoin: miter; stroke-linecap: square"/>
   </g>
   <g id="patch_10">
    <path d="M 277.82 179.44 
L 469.65 179.44 
" style="fill: none; stroke: #000000; stroke-width: 0.8; stroke-linejoin: miter; stroke-linecap: square"/>
   </g>
   <g id="patch_11">
    <path d="M 277.82 26.88 
L 469.65 26.88 
" style="fill: none; stroke: #000000; stroke-width: 0.8; stroke-linejoin: miter; stroke-linecap: square"/>
   </g>
   <g id="text_26">
    <!-- Butyrate exchange -->
    <g transform="translate(316.703125 20.88) scale(0.12 -0.12)">
     <defs>
      <path id="DejaVuSans-42" d="M 1259 2228 
L 1259 519 
L 2272 519 
Q 2781 519 3026 730 
Q 3272 941 3272 1375 
Q 3272 1813 3026 2020 
Q 2781 2228 2272 2228 
L 1259 2228 
z
M 1259 4147 
L 1259 2741 
L 2194 2741 
Q 2656 2741 2882 2914 
Q 3109 3088 3109 3444 
Q 3109 3797 2882 3972 
Q 2656 4147 2194 4147 
L 1259 4147 
z
M 628 4666 
L 2241 4666 
Q 2963 4666 3353 4366 
Q 3744 4066 3744 3513 
Q 3744 3084 3544 2831 
Q 3344 2578 2956 2516 
Q 3422 2416 3680 2098 
Q 3938 1781 3938 1306 
Q 3938 681 3513 340 
Q 3088 0 2303 0 
L 628 0 
L 628 4666 
z
" transform="scale(0.015625)"/>
      <path id="DejaVuSans-79" d="M 2059 -325 
Q 1816 -950 1584 -1140 
Q 1353 -1331 966 -1331 
L 506 -1331 
L 506 -850 
L 844 -850 
Q 1081 -850 1212 -737 
Q 1344 -625 1503 -206 
L 1606 56 
L 191 3500 
L 800 3500 
L 1894 763 
L 2988 3500 
L 3597 3500 
L 2059 -325 
z
" transform="scale(0.015625)"/>
     </defs>
     <use xlink:href="#DejaVuSans-42"/>
     <use xlink:href="#DejaVuSans-75" x="68.603516"/>
     <use xlink:href="#DejaVuSans-74" x="131.982422"/>
     <use xlink:href="#DejaVuSans-79" x="171.191406"/>
     <use xlink:href="#DejaVuSans-72" x="230.371094"/>
     <use xlink:href="#DejaVuSans-61" x="271.484375"/>
     <use xlink:href="#DejaVuSans-74" x="332.763672"/>
     <use xlink:href="#DejaVuSans-65" x="371.972656"/>
     <use xlink:href="#DejaVuSans-20" x="433.496094"/>
     <use xlink:href="#DejaVuSans-65" x="465.283203"/>
     <use xlink:href="#DejaVuSans-78" x="525.056641"/>
     <use xlink:href="#DejaVuSans-63" x="582.486328"/>
     <use xlink:href="#DejaVuSans-68" x="637.466797"/>
     <use xlink:href="#DejaVuSans-61" x="700.845703"/>
     <use xlink:href="#DejaVuSans-6e" x="762.125"/>
     <use xlink:href="#DejaVuSans-67" x="825.503906"/>
     <use xlink:href="#DejaVuSans-65" x="888.980469"/>
    </g>
   </g>
  </g>
  <g id="axes_3">
   <g id="patch_12">
    <path d="M 517.37 179.44 
L 709.2 179.44 
L 709.2 26.88 
L 517.37 26.88 
z
" style="fill: #ffffff"/>
   </g>
   <g id="PolyCollection_3">
    <defs>
     <path id="mb40035cf31" d="M 526.089545 -398.185455 
L 526.089545 -259.494545 
L 535.268014 -259.494545 
L 544.446483 -259.494545 
L 553.624952 -259.494545 
L 562.803421 -259.494545 
L 571.98189 -259.494545 
L 581.160359 -259.494545 
L 590.338828 -259.494545 
L 599.517297 -259.494545 
L 608.695766 -259.494545 
L 617.874234 -259.494545 
L 627.052703 -259.494545 
L 636.231172 -259.494545 
L 645.409641 -259.494545 
L 654.58811 -259.494545 
L 663.766579 -259.494545 
L 672.945048 -259.494545 
L 682.123517 -259.494545 
L 691.301986 -259.494545 
L 700.480455 -259.494545 
L 700.480455 -259.494545 
L 700.480455 -259.494545 
L 691.301986 -280.730473 
L 682.123517 -301.966401 
L 672.945048 -323.202329 
L 663.766579 -344.438257 
L 654.58811 -355.379479 
L 645.409641 -364.669311 
L 636.231172 -373.959142 
L 627.052703 -382.422204 
L 617.874234 -387.559253 
L 608.695766 -388.621873 
L 599.517297 -389.684493 
L 590.338828 -390.747113 
L 581.160359 -391.809733 
L 571.98189 -392.872354 
L 562.803421 -393.934974 
L 553.624952 -394.997594 
L 544.446483 -396.060214 
L 535.268014 -397.122834 
L 526.089545 -398.185455 
z
" style="stroke: #ff0000; stroke-opacity: 0.2"/>
    </defs>
    <g clip-path="url(#pfe972cbb81)">
     <use xlink:href="#mb40035cf31" x="0" y="432" style="fill: #ff0000; fill-opacity: 0.2; stroke: #ff0000; stroke-opacity: 0.2"/>
    </g>
   </g>
   <g id="matplotlib.axis_5">
    <g id="xtick_11">
     <g id="line2d_25">
      <g>
       <use xlink:href="#m288b779a58" x="526.089545" y="179.44" style="stroke: #000000; stroke-width: 0.8"/>
      </g>
     </g>
     <g id="text_27">
      <!-- 0.00 -->
      <g transform="translate(514.956733 194.038437) scale(0.1 -0.1)">
       <use xlink:href="#DejaVuSans-30"/>
       <use xlink:href="#DejaVuSans-2e" x="63.623047"/>
       <use xlink:href="#DejaVuSans-30" x="95.410156"/>
       <use xlink:href="#DejaVuSans-30" x="159.033203"/>
      </g>
     </g>
    </g>
    <g id="xtick_12">
     <g id="line2d_26">
      <g>
       <use xlink:href="#m288b779a58" x="562.854696" y="179.44" style="stroke: #000000; stroke-width: 0.8"/>
      </g>
     </g>
     <g id="text_28">
      <!-- 0.02 -->
      <g transform="translate(551.721884 194.038437) scale(0.1 -0.1)">
       <use xlink:href="#DejaVuSans-30"/>
       <use xlink:href="#DejaVuSans-2e" x="63.623047"/>
       <use xlink:href="#DejaVuSans-30" x="95.410156"/>
       <use xlink:href="#DejaVuSans-32" x="159.033203"/>
      </g>
     </g>
    </g>
    <g id="xtick_13">
     <g id="line2d_27">
      <g>
       <use xlink:href="#m288b779a58" x="599.619847" y="179.44" style="stroke: #000000; stroke-width: 0.8"/>
      </g>
     </g>
     <g id="text_29">
      <!-- 0.04 -->
      <g transform="translate(588.487034 194.038437) scale(0.1 -0.1)">
       <use xlink:href="#DejaVuSans-30"/>
       <use xlink:href="#DejaVuSans-2e" x="63.623047"/>
       <use xlink:href="#DejaVuSans-30" x="95.410156"/>
       <use xlink:href="#DejaVuSans-34" x="159.033203"/>
      </g>
     </g>
    </g>
    <g id="xtick_14">
     <g id="line2d_28">
      <g>
       <use xlink:href="#m288b779a58" x="636.384998" y="179.44" style="stroke: #000000; stroke-width: 0.8"/>
      </g>
     </g>
     <g id="text_30">
      <!-- 0.06 -->
      <g transform="translate(625.252185 194.038437) scale(0.1 -0.1)">
       <use xlink:href="#DejaVuSans-30"/>
       <use xlink:href="#DejaVuSans-2e" x="63.623047"/>
       <use xlink:href="#DejaVuSans-30" x="95.410156"/>
       <use xlink:href="#DejaVuSans-36" x="159.033203"/>
      </g>
     </g>
    </g>
    <g id="xtick_15">
     <g id="line2d_29">
      <g>
       <use xlink:href="#m288b779a58" x="673.150148" y="179.44" style="stroke: #000000; stroke-width: 0.8"/>
      </g>
     </g>
     <g id="text_31">
      <!-- 0.08 -->
      <g transform="translate(662.017336 194.038437) scale(0.1 -0.1)">
       <use xlink:href="#DejaVuSans-30"/>
       <use xlink:href="#DejaVuSans-2e" x="63.623047"/>
       <use xlink:href="#DejaVuSans-30" x="95.410156"/>
       <use xlink:href="#DejaVuSans-38" x="159.033203"/>
      </g>
     </g>
    </g>
    <g id="text_32">
     <!-- Growth rate (gDW/h) -->
     <g transform="translate(561.133438 207.716562) scale(0.1 -0.1)">
      <use xlink:href="#DejaVuSans-47"/>
      <use xlink:href="#DejaVuSans-72" x="77.490234"/>
      <use xlink:href="#DejaVuSans-6f" x="116.353516"/>
      <use xlink:href="#DejaVuSans-77" x="177.535156"/>
      <use xlink:href="#DejaVuSans-74" x="259.322266"/>
      <use xlink:href="#DejaVuSans-68" x="298.53125"/>
      <use xlink:href="#DejaVuSans-20" x="361.910156"/>
      <use xlink:href="#DejaVuSans-72" x="393.697266"/>
      <use xlink:href="#DejaVuSans-61" x="434.810547"/>
      <use xlink:href="#DejaVuSans-74" x="496.089844"/>
      <use xlink:href="#DejaVuSans-65" x="535.298828"/>
      <use xlink:href="#DejaVuSans-20" x="596.822266"/>
      <use xlink:href="#DejaVuSans-28" x="628.609375"/>
      <use xlink:href="#DejaVuSans-67" x="667.623047"/>
      <use xlink:href="#DejaVuSans-44" x="731.099609"/>
      <use xlink:href="#DejaVuSans-57" x="808.101562"/>
      <use xlink:href="#DejaVuSans-2f" x="906.978516"/>
      <use xlink:href="#DejaVuSans-68" x="940.669922"/>
      <use xlink:href="#DejaVuSans-29" x="1004.048828"/>
     </g>
    </g>
   </g>
   <g id="matplotlib.axis_6">
    <g id="ytick_11">
     <g id="line2d_30">
      <g>
       <use xlink:href="#mf8adb14a5d" x="517.37" y="172.505455" style="stroke: #000000; stroke-width: 0.8"/>
      </g>
     </g>
     <g id="text_33">
      <!-- 0.0 -->
      <g transform="translate(494.466875 176.304673) scale(0.1 -0.1)">
       <use xlink:href="#DejaVuSans-30"/>
       <use xlink:href="#DejaVuSans-2e" x="63.623047"/>
       <use xlink:href="#DejaVuSans-30" x="95.410156"/>
      </g>
     </g>
    </g>
    <g id="ytick_12">
     <g id="line2d_31">
      <g>
       <use xlink:href="#mf8adb14a5d" x="517.37" y="148.524318" style="stroke: #000000; stroke-width: 0.8"/>
      </g>
     </g>
     <g id="text_34">
      <!-- 0.5 -->
      <g transform="translate(494.466875 152.323536) scale(0.1 -0.1)">
       <use xlink:href="#DejaVuSans-30"/>
       <use xlink:href="#DejaVuSans-2e" x="63.623047"/>
       <use xlink:href="#DejaVuSans-35" x="95.410156"/>
      </g>
     </g>
    </g>
    <g id="ytick_13">
     <g id="line2d_32">
      <g>
       <use xlink:href="#mf8adb14a5d" x="517.37" y="124.543181" style="stroke: #000000; stroke-width: 0.8"/>
      </g>
     </g>
     <g id="text_35">
      <!-- 1.0 -->
      <g transform="translate(494.466875 128.342399) scale(0.1 -0.1)">
       <use xlink:href="#DejaVuSans-31"/>
       <use xlink:href="#DejaVuSans-2e" x="63.623047"/>
       <use xlink:href="#DejaVuSans-30" x="95.410156"/>
      </g>
     </g>
    </g>
    <g id="ytick_14">
     <g id="line2d_33">
      <g>
       <use xlink:href="#mf8adb14a5d" x="517.37" y="100.562043" style="stroke: #000000; stroke-width: 0.8"/>
      </g>
     </g>
     <g id="text_36">
      <!-- 1.5 -->
      <g transform="translate(494.466875 104.361262) scale(0.1 -0.1)">
       <use xlink:href="#DejaVuSans-31"/>
       <use xlink:href="#DejaVuSans-2e" x="63.623047"/>
       <use xlink:href="#DejaVuSans-35" x="95.410156"/>
      </g>
     </g>
    </g>
    <g id="ytick_15">
     <g id="line2d_34">
      <g>
       <use xlink:href="#mf8adb14a5d" x="517.37" y="76.580906" style="stroke: #000000; stroke-width: 0.8"/>
      </g>
     </g>
     <g id="text_37">
      <!-- 2.0 -->
      <g transform="translate(494.466875 80.380125) scale(0.1 -0.1)">
       <use xlink:href="#DejaVuSans-32"/>
       <use xlink:href="#DejaVuSans-2e" x="63.623047"/>
       <use xlink:href="#DejaVuSans-30" x="95.410156"/>
      </g>
     </g>
    </g>
    <g id="ytick_16">
     <g id="line2d_35">
      <g>
       <use xlink:href="#mf8adb14a5d" x="517.37" y="52.599769" style="stroke: #000000; stroke-width: 0.8"/>
      </g>
     </g>
     <g id="text_38">
      <!-- 2.5 -->
      <g transform="translate(494.466875 56.398988) scale(0.1 -0.1)">
       <use xlink:href="#DejaVuSans-32"/>
       <use xlink:href="#DejaVuSans-2e" x="63.623047"/>
       <use xlink:href="#DejaVuSans-35" x="95.410156"/>
      </g>
     </g>
    </g>
    <g id="ytick_17">
     <g id="line2d_36">
      <g>
       <use xlink:href="#mf8adb14a5d" x="517.37" y="28.618632" style="stroke: #000000; stroke-width: 0.8"/>
      </g>
     </g>
     <g id="text_39">
      <!-- 3.0 -->
      <g transform="translate(494.466875 32.417851) scale(0.1 -0.1)">
       <use xlink:href="#DejaVuSans-33"/>
       <use xlink:href="#DejaVuSans-2e" x="63.623047"/>
       <use xlink:href="#DejaVuSans-30" x="95.410156"/>
      </g>
     </g>
    </g>
    <g id="text_40">
     <!-- Flux (mmol/h/gDW) -->
     <g transform="translate(488.387187 151.738125) rotate(-90) scale(0.1 -0.1)">
      <use xlink:href="#DejaVuSans-46"/>
      <use xlink:href="#DejaVuSans-6c" x="57.519531"/>
      <use xlink:href="#DejaVuSans-75" x="85.302734"/>
      <use xlink:href="#DejaVuSans-78" x="148.681641"/>
      <use xlink:href="#DejaVuSans-20" x="207.861328"/>
      <use xlink:href="#DejaVuSans-28" x="239.648438"/>
      <use xlink:href="#DejaVuSans-6d" x="278.662109"/>
      <use xlink:href="#DejaVuSans-6d" x="376.074219"/>
      <use xlink:href="#DejaVuSans-6f" x="473.486328"/>
      <use xlink:href="#DejaVuSans-6c" x="534.667969"/>
      <use xlink:href="#DejaVuSans-2f" x="562.451172"/>
      <use xlink:href="#DejaVuSans-68" x="596.142578"/>
      <use xlink:href="#DejaVuSans-2f" x="659.521484"/>
      <use xlink:href="#DejaVuSans-67" x="693.212891"/>
      <use xlink:href="#DejaVuSans-44" x="756.689453"/>
      <use xlink:href="#DejaVuSans-57" x="833.691406"/>
      <use xlink:href="#DejaVuSans-29" x="932.568359"/>
     </g>
    </g>
   </g>
   <g id="line2d_37">
    <path d="M 526.089545 33.814545 
L 535.268014 34.877166 
L 544.446483 35.939786 
L 553.624952 37.002406 
L 562.803421 38.065026 
L 571.98189 39.127646 
L 581.160359 40.190267 
L 590.338828 41.252887 
L 599.517297 42.315507 
L 608.695766 43.378127 
L 617.874234 44.440747 
L 627.052703 49.577796 
L 636.231172 58.040858 
L 645.409641 67.330689 
L 654.58811 76.620521 
L 663.766579 87.561743 
L 672.945048 108.797671 
L 682.123517 130.033599 
L 691.301986 151.269527 
L 700.480455 172.505455 
" clip-path="url(#pfe972cbb81)" style="fill: none; stroke: #ff0000; stroke-width: 1.5; stroke-linecap: square"/>
   </g>
   <g id="line2d_38">
    <path d="M 526.089545 172.505455 
L 535.268014 172.505455 
L 544.446483 172.505455 
L 553.624952 172.505455 
L 562.803421 172.505455 
L 571.98189 172.505455 
L 581.160359 172.505455 
L 590.338828 172.505455 
L 599.517297 172.505455 
L 608.695766 172.505455 
L 617.874234 172.505455 
L 627.052703 172.505455 
L 636.231172 172.505455 
L 645.409641 172.505455 
L 654.58811 172.505455 
L 663.766579 172.505455 
L 672.945048 172.505455 
L 682.123517 172.505455 
L 691.301986 172.505455 
L 700.480455 172.505455 
" clip-path="url(#pfe972cbb81)" style="fill: none; stroke: #ff0000; stroke-width: 1.5; stroke-linecap: square"/>
   </g>
   <g id="patch_13">
    <path d="M 517.37 179.44 
L 517.37 26.88 
" style="fill: none; stroke: #000000; stroke-width: 0.8; stroke-linejoin: miter; stroke-linecap: square"/>
   </g>
   <g id="patch_14">
    <path d="M 709.2 179.44 
L 709.2 26.88 
" style="fill: none; stroke: #000000; stroke-width: 0.8; stroke-linejoin: miter; stroke-linecap: square"/>
   </g>
   <g id="patch_15">
    <path d="M 517.37 179.44 
L 709.2 179.44 
" style="fill: none; stroke: #000000; stroke-width: 0.8; stroke-linejoin: miter; stroke-linecap: square"/>
   </g>
   <g id="patch_16">
    <path d="M 517.37 26.88 
L 709.2 26.88 
" style="fill: none; stroke: #000000; stroke-width: 0.8; stroke-linejoin: miter; stroke-linecap: square"/>
   </g>
   <g id="text_41">
    <!-- Butanol exchange -->
    <g transform="translate(559.174375 20.88) scale(0.12 -0.12)">
     <use xlink:href="#DejaVuSans-42"/>
     <use xlink:href="#DejaVuSans-75" x="68.603516"/>
     <use xlink:href="#DejaVuSans-74" x="131.982422"/>
     <use xlink:href="#DejaVuSans-61" x="171.191406"/>
     <use xlink:href="#DejaVuSans-6e" x="232.470703"/>
     <use xlink:href="#DejaVuSans-6f" x="295.849609"/>
     <use xlink:href="#DejaVuSans-6c" x="357.03125"/>
     <use xlink:href="#DejaVuSans-20" x="384.814453"/>
     <use xlink:href="#DejaVuSans-65" x="416.601562"/>
     <use xlink:href="#DejaVuSans-78" x="476.375"/>
     <use xlink:href="#DejaVuSans-63" x="533.804688"/>
     <use xlink:href="#DejaVuSans-68" x="588.785156"/>
     <use xlink:href="#DejaVuSans-61" x="652.164062"/>
     <use xlink:href="#DejaVuSans-6e" x="713.443359"/>
     <use xlink:href="#DejaVuSans-67" x="776.822266"/>
     <use xlink:href="#DejaVuSans-65" x="840.298828"/>
    </g>
   </g>
  </g>
  <g id="axes_4">
   <g id="patch_17">
    <path d="M 38.27 390.04 
L 230.1 390.04 
L 230.1 237.48 
L 38.27 237.48 
z
" style="fill: #ffffff"/>
   </g>
   <g id="PolyCollection_4">
    <defs>
     <path id="mc44f4b9939" d="M 46.989545 -187.585455 
L 46.989545 -48.894545 
L 56.168014 -48.894545 
L 65.346483 -48.894545 
L 74.524952 -48.894545 
L 83.703421 -48.894545 
L 92.88189 -48.894545 
L 102.060359 -48.894545 
L 111.238828 -48.894545 
L 120.417297 -48.894545 
L 129.595766 -48.894545 
L 138.774234 -48.894545 
L 147.952703 -48.894545 
L 157.131172 -48.894545 
L 166.309641 -48.894545 
L 175.48811 -48.894545 
L 184.666579 -48.894545 
L 193.845048 -48.894545 
L 203.023517 -48.894545 
L 212.201986 -48.894545 
L 221.380455 -48.894545 
L 221.380455 -51.682522 
L 221.380455 -51.682522 
L 212.201986 -77.28121 
L 203.023517 -92.299297 
L 193.845048 -101.311771 
L 184.666579 -110.324246 
L 175.48811 -119.33672 
L 166.309641 -128.349195 
L 157.131172 -136.910214 
L 147.952703 -142.45711 
L 138.774234 -146.613989 
L 129.595766 -150.711135 
L 120.417297 -154.808282 
L 111.238828 -158.905428 
L 102.060359 -163.002575 
L 92.88189 -167.099722 
L 83.703421 -171.196868 
L 74.524952 -175.294015 
L 65.346483 -179.391161 
L 56.168014 -183.488308 
L 46.989545 -187.585455 
z
" style="stroke: #00bfbf; stroke-opacity: 0.2"/>
    </defs>
    <g clip-path="url(#pb8dbe5a7e2)">
     <use xlink:href="#mc44f4b9939" x="0" y="432" style="fill: #00bfbf; fill-opacity: 0.2; stroke: #00bfbf; stroke-opacity: 0.2"/>
    </g>
   </g>
   <g id="matplotlib.axis_7">
    <g id="xtick_16">
     <g id="line2d_39">
      <g>
       <use xlink:href="#m288b779a58" x="46.989545" y="390.04" style="stroke: #000000; stroke-width: 0.8"/>
      </g>
     </g>
     <g id="text_42">
      <!-- 0.00 -->
      <g transform="translate(35.856733 404.638437) scale(0.1 -0.1)">
       <use xlink:href="#DejaVuSans-30"/>
       <use xlink:href="#DejaVuSans-2e" x="63.623047"/>
       <use xlink:href="#DejaVuSans-30" x="95.410156"/>
       <use xlink:href="#DejaVuSans-30" x="159.033203"/>
      </g>
     </g>
    </g>
    <g id="xtick_17">
     <g id="line2d_40">
      <g>
       <use xlink:href="#m288b779a58" x="83.754696" y="390.04" style="stroke: #000000; stroke-width: 0.8"/>
      </g>
     </g>
     <g id="text_43">
      <!-- 0.02 -->
      <g transform="translate(72.621884 404.638437) scale(0.1 -0.1)">
       <use xlink:href="#DejaVuSans-30"/>
       <use xlink:href="#DejaVuSans-2e" x="63.623047"/>
       <use xlink:href="#DejaVuSans-30" x="95.410156"/>
       <use xlink:href="#DejaVuSans-32" x="159.033203"/>
      </g>
     </g>
    </g>
    <g id="xtick_18">
     <g id="line2d_41">
      <g>
       <use xlink:href="#m288b779a58" x="120.519847" y="390.04" style="stroke: #000000; stroke-width: 0.8"/>
      </g>
     </g>
     <g id="text_44">
      <!-- 0.04 -->
      <g transform="translate(109.387034 404.638437) scale(0.1 -0.1)">
       <use xlink:href="#DejaVuSans-30"/>
       <use xlink:href="#DejaVuSans-2e" x="63.623047"/>
       <use xlink:href="#DejaVuSans-30" x="95.410156"/>
       <use xlink:href="#DejaVuSans-34" x="159.033203"/>
      </g>
     </g>
    </g>
    <g id="xtick_19">
     <g id="line2d_42">
      <g>
       <use xlink:href="#m288b779a58" x="157.284998" y="390.04" style="stroke: #000000; stroke-width: 0.8"/>
      </g>
     </g>
     <g id="text_45">
      <!-- 0.06 -->
      <g transform="translate(146.152185 404.638437) scale(0.1 -0.1)">
       <use xlink:href="#DejaVuSans-30"/>
       <use xlink:href="#DejaVuSans-2e" x="63.623047"/>
       <use xlink:href="#DejaVuSans-30" x="95.410156"/>
       <use xlink:href="#DejaVuSans-36" x="159.033203"/>
      </g>
     </g>
    </g>
    <g id="xtick_20">
     <g id="line2d_43">
      <g>
       <use xlink:href="#m288b779a58" x="194.050148" y="390.04" style="stroke: #000000; stroke-width: 0.8"/>
      </g>
     </g>
     <g id="text_46">
      <!-- 0.08 -->
      <g transform="translate(182.917336 404.638437) scale(0.1 -0.1)">
       <use xlink:href="#DejaVuSans-30"/>
       <use xlink:href="#DejaVuSans-2e" x="63.623047"/>
       <use xlink:href="#DejaVuSans-30" x="95.410156"/>
       <use xlink:href="#DejaVuSans-38" x="159.033203"/>
      </g>
     </g>
    </g>
    <g id="text_47">
     <!-- Growth rate (gDW/h) -->
     <g transform="translate(82.033438 418.316562) scale(0.1 -0.1)">
      <use xlink:href="#DejaVuSans-47"/>
      <use xlink:href="#DejaVuSans-72" x="77.490234"/>
      <use xlink:href="#DejaVuSans-6f" x="116.353516"/>
      <use xlink:href="#DejaVuSans-77" x="177.535156"/>
      <use xlink:href="#DejaVuSans-74" x="259.322266"/>
      <use xlink:href="#DejaVuSans-68" x="298.53125"/>
      <use xlink:href="#DejaVuSans-20" x="361.910156"/>
      <use xlink:href="#DejaVuSans-72" x="393.697266"/>
      <use xlink:href="#DejaVuSans-61" x="434.810547"/>
      <use xlink:href="#DejaVuSans-74" x="496.089844"/>
      <use xlink:href="#DejaVuSans-65" x="535.298828"/>
      <use xlink:href="#DejaVuSans-20" x="596.822266"/>
      <use xlink:href="#DejaVuSans-28" x="628.609375"/>
      <use xlink:href="#DejaVuSans-67" x="667.623047"/>
      <use xlink:href="#DejaVuSans-44" x="731.099609"/>
      <use xlink:href="#DejaVuSans-57" x="808.101562"/>
      <use xlink:href="#DejaVuSans-2f" x="906.978516"/>
      <use xlink:href="#DejaVuSans-68" x="940.669922"/>
      <use xlink:href="#DejaVuSans-29" x="1004.048828"/>
     </g>
    </g>
   </g>
   <g id="matplotlib.axis_8">
    <g id="ytick_18">
     <g id="line2d_44">
      <g>
       <use xlink:href="#mf8adb14a5d" x="38.27" y="383.105455" style="stroke: #000000; stroke-width: 0.8"/>
      </g>
     </g>
     <g id="text_48">
      <!-- 0 -->
      <g transform="translate(24.9075 386.904673) scale(0.1 -0.1)">
       <use xlink:href="#DejaVuSans-30"/>
      </g>
     </g>
    </g>
    <g id="ytick_19">
     <g id="line2d_45">
      <g>
       <use xlink:href="#mf8adb14a5d" x="38.27" y="354.516009" style="stroke: #000000; stroke-width: 0.8"/>
      </g>
     </g>
     <g id="text_49">
      <!-- 1 -->
      <g transform="translate(24.9075 358.315228) scale(0.1 -0.1)">
       <use xlink:href="#DejaVuSans-31"/>
      </g>
     </g>
    </g>
    <g id="ytick_20">
     <g id="line2d_46">
      <g>
       <use xlink:href="#mf8adb14a5d" x="38.27" y="325.926564" style="stroke: #000000; stroke-width: 0.8"/>
      </g>
     </g>
     <g id="text_50">
      <!-- 2 -->
      <g transform="translate(24.9075 329.725783) scale(0.1 -0.1)">
       <use xlink:href="#DejaVuSans-32"/>
      </g>
     </g>
    </g>
    <g id="ytick_21">
     <g id="line2d_47">
      <g>
       <use xlink:href="#mf8adb14a5d" x="38.27" y="297.337118" style="stroke: #000000; stroke-width: 0.8"/>
      </g>
     </g>
     <g id="text_51">
      <!-- 3 -->
      <g transform="translate(24.9075 301.136337) scale(0.1 -0.1)">
       <use xlink:href="#DejaVuSans-33"/>
      </g>
     </g>
    </g>
    <g id="ytick_22">
     <g id="line2d_48">
      <g>
       <use xlink:href="#mf8adb14a5d" x="38.27" y="268.747673" style="stroke: #000000; stroke-width: 0.8"/>
      </g>
     </g>
     <g id="text_52">
      <!-- 4 -->
      <g transform="translate(24.9075 272.546892) scale(0.1 -0.1)">
       <use xlink:href="#DejaVuSans-34"/>
      </g>
     </g>
    </g>
    <g id="ytick_23">
     <g id="line2d_49">
      <g>
       <use xlink:href="#mf8adb14a5d" x="38.27" y="240.158228" style="stroke: #000000; stroke-width: 0.8"/>
      </g>
     </g>
     <g id="text_53">
      <!-- 5 -->
      <g transform="translate(24.9075 243.957447) scale(0.1 -0.1)">
       <use xlink:href="#DejaVuSans-35"/>
      </g>
     </g>
    </g>
    <g id="text_54">
     <!-- Flux (mmol/h/gDW) -->
     <g transform="translate(18.827813 362.338125) rotate(-90) scale(0.1 -0.1)">
      <use xlink:href="#DejaVuSans-46"/>
      <use xlink:href="#DejaVuSans-6c" x="57.519531"/>
      <use xlink:href="#DejaVuSans-75" x="85.302734"/>
      <use xlink:href="#DejaVuSans-78" x="148.681641"/>
      <use xlink:href="#DejaVuSans-20" x="207.861328"/>
      <use xlink:href="#DejaVuSans-28" x="239.648438"/>
      <use xlink:href="#DejaVuSans-6d" x="278.662109"/>
      <use xlink:href="#DejaVuSans-6d" x="376.074219"/>
      <use xlink:href="#DejaVuSans-6f" x="473.486328"/>
      <use xlink:href="#DejaVuSans-6c" x="534.667969"/>
      <use xlink:href="#DejaVuSans-2f" x="562.451172"/>
      <use xlink:href="#DejaVuSans-68" x="596.142578"/>
      <use xlink:href="#DejaVuSans-2f" x="659.521484"/>
      <use xlink:href="#DejaVuSans-67" x="693.212891"/>
      <use xlink:href="#DejaVuSans-44" x="756.689453"/>
      <use xlink:href="#DejaVuSans-57" x="833.691406"/>
      <use xlink:href="#DejaVuSans-29" x="932.568359"/>
     </g>
    </g>
   </g>
   <g id="line2d_50">
    <path d="M 46.989545 244.414545 
L 56.168014 248.511692 
L 65.346483 252.608839 
L 74.524952 256.705985 
L 83.703421 260.803132 
L 92.88189 264.900278 
L 102.060359 268.997425 
L 111.238828 273.094572 
L 120.417297 277.191718 
L 129.595766 281.288865 
L 138.774234 285.386011 
L 147.952703 289.54289 
L 157.131172 295.089786 
L 166.309641 303.650805 
L 175.48811 312.66328 
L 184.666579 321.675754 
L 193.845048 330.688229 
L 203.023517 339.700703 
L 212.201986 354.71879 
L 221.380455 380.317478 
" clip-path="url(#pb8dbe5a7e2)" style="fill: none; stroke: #00bfbf; stroke-width: 1.5; stroke-linecap: square"/>
   </g>
   <g id="line2d_51">
    <path d="M 46.989545 383.105455 
L 56.168014 383.105455 
L 65.346483 383.105455 
L 74.524952 383.105455 
L 83.703421 383.105455 
L 92.88189 383.105455 
L 102.060359 383.105455 
L 111.238828 383.105455 
L 120.417297 383.105455 
L 129.595766 383.105455 
L 138.774234 383.105455 
L 147.952703 383.105455 
L 157.131172 383.105455 
L 166.309641 383.105455 
L 175.48811 383.105455 
L 184.666579 383.105455 
L 193.845048 383.105455 
L 203.023517 383.105455 
L 212.201986 383.105455 
L 221.380455 383.105455 
" clip-path="url(#pb8dbe5a7e2)" style="fill: none; stroke: #00bfbf; stroke-width: 1.5; stroke-linecap: square"/>
   </g>
   <g id="patch_18">
    <path d="M 38.27 390.04 
L 38.27 237.48 
" style="fill: none; stroke: #000000; stroke-width: 0.8; stroke-linejoin: miter; stroke-linecap: square"/>
   </g>
   <g id="patch_19">
    <path d="M 230.1 390.04 
L 230.1 237.48 
" style="fill: none; stroke: #000000; stroke-width: 0.8; stroke-linejoin: miter; stroke-linecap: square"/>
   </g>
   <g id="patch_20">
    <path d="M 38.27 390.04 
L 230.1 390.04 
" style="fill: none; stroke: #000000; stroke-width: 0.8; stroke-linejoin: miter; stroke-linecap: square"/>
   </g>
   <g id="patch_21">
    <path d="M 38.27 237.48 
L 230.1 237.48 
" style="fill: none; stroke: #000000; stroke-width: 0.8; stroke-linejoin: miter; stroke-linecap: square"/>
   </g>
   <g id="text_55">
    <!-- Ethanol exchange -->
    <g transform="translate(80.399688 231.48) scale(0.12 -0.12)">
     <defs>
      <path id="DejaVuSans-45" d="M 628 4666 
L 3578 4666 
L 3578 4134 
L 1259 4134 
L 1259 2753 
L 3481 2753 
L 3481 2222 
L 1259 2222 
L 1259 531 
L 3634 531 
L 3634 0 
L 628 0 
L 628 4666 
z
" transform="scale(0.015625)"/>
     </defs>
     <use xlink:href="#DejaVuSans-45"/>
     <use xlink:href="#DejaVuSans-74" x="63.183594"/>
     <use xlink:href="#DejaVuSans-68" x="102.392578"/>
     <use xlink:href="#DejaVuSans-61" x="165.771484"/>
     <use xlink:href="#DejaVuSans-6e" x="227.050781"/>
     <use xlink:href="#DejaVuSans-6f" x="290.429688"/>
     <use xlink:href="#DejaVuSans-6c" x="351.611328"/>
     <use xlink:href="#DejaVuSans-20" x="379.394531"/>
     <use xlink:href="#DejaVuSans-65" x="411.181641"/>
     <use xlink:href="#DejaVuSans-78" x="470.955078"/>
     <use xlink:href="#DejaVuSans-63" x="528.384766"/>
     <use xlink:href="#DejaVuSans-68" x="583.365234"/>
     <use xlink:href="#DejaVuSans-61" x="646.744141"/>
     <use xlink:href="#DejaVuSans-6e" x="708.023438"/>
     <use xlink:href="#DejaVuSans-67" x="771.402344"/>
     <use xlink:href="#DejaVuSans-65" x="834.878906"/>
    </g>
   </g>
  </g>
  <g id="axes_5">
   <g id="patch_22">
    <path d="M 277.82 390.04 
L 469.65 390.04 
L 469.65 237.48 
L 277.82 237.48 
z
" style="fill: #ffffff"/>
   </g>
   <g id="PolyCollection_5">
    <defs>
     <path id="m84b4934c1e" d="M 286.539545 -187.585455 
L 286.539545 -48.894545 
L 295.718014 -48.894545 
L 304.896483 -48.894545 
L 314.074952 -48.894545 
L 323.253421 -48.894545 
L 332.43189 -48.894545 
L 341.610359 -48.894545 
L 350.788828 -48.894545 
L 359.967297 -48.894545 
L 369.145766 -52.885636 
L 378.324234 -62.46359 
L 387.502703 -72.041544 
L 396.681172 -81.619497 
L 405.859641 -91.286374 
L 415.03811 -104.251177 
L 424.216579 -118.144214 
L 433.395048 -132.037252 
L 442.573517 -145.930289 
L 451.751986 -159.823326 
L 460.930455 -173.716364 
L 460.930455 -173.716364 
L 460.930455 -173.716364 
L 451.751986 -176.729476 
L 442.573517 -179.742588 
L 433.395048 -182.7557 
L 424.216579 -185.768812 
L 415.03811 -187.585455 
L 405.859641 -187.585455 
L 396.681172 -187.585455 
L 387.502703 -187.585455 
L 378.324234 -187.585455 
L 369.145766 -187.585455 
L 359.967297 -187.585455 
L 350.788828 -187.585455 
L 341.610359 -187.585455 
L 332.43189 -187.585455 
L 323.253421 -187.585455 
L 314.074952 -187.585455 
L 304.896483 -187.585455 
L 295.718014 -187.585455 
L 286.539545 -187.585455 
z
" style="stroke: #bf00bf; stroke-opacity: 0.2"/>
    </defs>
    <g clip-path="url(#p0f7d9e16ad)">
     <use xlink:href="#m84b4934c1e" x="0" y="432" style="fill: #bf00bf; fill-opacity: 0.2; stroke: #bf00bf; stroke-opacity: 0.2"/>
    </g>
   </g>
   <g id="matplotlib.axis_9">
    <g id="xtick_21">
     <g id="line2d_52">
      <g>
       <use xlink:href="#m288b779a58" x="286.539545" y="390.04" style="stroke: #000000; stroke-width: 0.8"/>
      </g>
     </g>
     <g id="text_56">
      <!-- 0.00 -->
      <g transform="translate(275.406733 404.638437) scale(0.1 -0.1)">
       <use xlink:href="#DejaVuSans-30"/>
       <use xlink:href="#DejaVuSans-2e" x="63.623047"/>
       <use xlink:href="#DejaVuSans-30" x="95.410156"/>
       <use xlink:href="#DejaVuSans-30" x="159.033203"/>
      </g>
     </g>
    </g>
    <g id="xtick_22">
     <g id="line2d_53">
      <g>
       <use xlink:href="#m288b779a58" x="323.304696" y="390.04" style="stroke: #000000; stroke-width: 0.8"/>
      </g>
     </g>
     <g id="text_57">
      <!-- 0.02 -->
      <g transform="translate(312.171884 404.638437) scale(0.1 -0.1)">
       <use xlink:href="#DejaVuSans-30"/>
       <use xlink:href="#DejaVuSans-2e" x="63.623047"/>
       <use xlink:href="#DejaVuSans-30" x="95.410156"/>
       <use xlink:href="#DejaVuSans-32" x="159.033203"/>
      </g>
     </g>
    </g>
    <g id="xtick_23">
     <g id="line2d_54">
      <g>
       <use xlink:href="#m288b779a58" x="360.069847" y="390.04" style="stroke: #000000; stroke-width: 0.8"/>
      </g>
     </g>
     <g id="text_58">
      <!-- 0.04 -->
      <g transform="translate(348.937034 404.638437) scale(0.1 -0.1)">
       <use xlink:href="#DejaVuSans-30"/>
       <use xlink:href="#DejaVuSans-2e" x="63.623047"/>
       <use xlink:href="#DejaVuSans-30" x="95.410156"/>
       <use xlink:href="#DejaVuSans-34" x="159.033203"/>
      </g>
     </g>
    </g>
    <g id="xtick_24">
     <g id="line2d_55">
      <g>
       <use xlink:href="#m288b779a58" x="396.834998" y="390.04" style="stroke: #000000; stroke-width: 0.8"/>
      </g>
     </g>
     <g id="text_59">
      <!-- 0.06 -->
      <g transform="translate(385.702185 404.638437) scale(0.1 -0.1)">
       <use xlink:href="#DejaVuSans-30"/>
       <use xlink:href="#DejaVuSans-2e" x="63.623047"/>
       <use xlink:href="#DejaVuSans-30" x="95.410156"/>
       <use xlink:href="#DejaVuSans-36" x="159.033203"/>
      </g>
     </g>
    </g>
    <g id="xtick_25">
     <g id="line2d_56">
      <g>
       <use xlink:href="#m288b779a58" x="433.600148" y="390.04" style="stroke: #000000; stroke-width: 0.8"/>
      </g>
     </g>
     <g id="text_60">
      <!-- 0.08 -->
      <g transform="translate(422.467336 404.638437) scale(0.1 -0.1)">
       <use xlink:href="#DejaVuSans-30"/>
       <use xlink:href="#DejaVuSans-2e" x="63.623047"/>
       <use xlink:href="#DejaVuSans-30" x="95.410156"/>
       <use xlink:href="#DejaVuSans-38" x="159.033203"/>
      </g>
     </g>
    </g>
    <g id="text_61">
     <!-- Growth rate (gDW/h) -->
     <g transform="translate(321.583438 418.316562) scale(0.1 -0.1)">
      <use xlink:href="#DejaVuSans-47"/>
      <use xlink:href="#DejaVuSans-72" x="77.490234"/>
      <use xlink:href="#DejaVuSans-6f" x="116.353516"/>
      <use xlink:href="#DejaVuSans-77" x="177.535156"/>
      <use xlink:href="#DejaVuSans-74" x="259.322266"/>
      <use xlink:href="#DejaVuSans-68" x="298.53125"/>
      <use xlink:href="#DejaVuSans-20" x="361.910156"/>
      <use xlink:href="#DejaVuSans-72" x="393.697266"/>
      <use xlink:href="#DejaVuSans-61" x="434.810547"/>
      <use xlink:href="#DejaVuSans-74" x="496.089844"/>
      <use xlink:href="#DejaVuSans-65" x="535.298828"/>
      <use xlink:href="#DejaVuSans-20" x="596.822266"/>
      <use xlink:href="#DejaVuSans-28" x="628.609375"/>
      <use xlink:href="#DejaVuSans-67" x="667.623047"/>
      <use xlink:href="#DejaVuSans-44" x="731.099609"/>
      <use xlink:href="#DejaVuSans-57" x="808.101562"/>
      <use xlink:href="#DejaVuSans-2f" x="906.978516"/>
      <use xlink:href="#DejaVuSans-68" x="940.669922"/>
      <use xlink:href="#DejaVuSans-29" x="1004.048828"/>
     </g>
    </g>
   </g>
   <g id="matplotlib.axis_10">
    <g id="ytick_24">
     <g id="line2d_57">
      <g>
       <use xlink:href="#mf8adb14a5d" x="277.82" y="383.105455" style="stroke: #000000; stroke-width: 0.8"/>
      </g>
     </g>
     <g id="text_62">
      <!-- 0 -->
      <g transform="translate(264.4575 386.904673) scale(0.1 -0.1)">
       <use xlink:href="#DejaVuSans-30"/>
      </g>
     </g>
    </g>
    <g id="ytick_25">
     <g id="line2d_58">
      <g>
       <use xlink:href="#mf8adb14a5d" x="277.82" y="348.432727" style="stroke: #000000; stroke-width: 0.8"/>
      </g>
     </g>
     <g id="text_63">
      <!-- 2 -->
      <g transform="translate(264.4575 352.231946) scale(0.1 -0.1)">
       <use xlink:href="#DejaVuSans-32"/>
      </g>
     </g>
    </g>
    <g id="ytick_26">
     <g id="line2d_59">
      <g>
       <use xlink:href="#mf8adb14a5d" x="277.82" y="313.76" style="stroke: #000000; stroke-width: 0.8"/>
      </g>
     </g>
     <g id="text_64">
      <!-- 4 -->
      <g transform="translate(264.4575 317.559219) scale(0.1 -0.1)">
       <use xlink:href="#DejaVuSans-34"/>
      </g>
     </g>
    </g>
    <g id="ytick_27">
     <g id="line2d_60">
      <g>
       <use xlink:href="#mf8adb14a5d" x="277.82" y="279.087273" style="stroke: #000000; stroke-width: 0.8"/>
      </g>
     </g>
     <g id="text_65">
      <!-- 6 -->
      <g transform="translate(264.4575 282.886491) scale(0.1 -0.1)">
       <use xlink:href="#DejaVuSans-36"/>
      </g>
     </g>
    </g>
    <g id="ytick_28">
     <g id="line2d_61">
      <g>
       <use xlink:href="#mf8adb14a5d" x="277.82" y="244.414545" style="stroke: #000000; stroke-width: 0.8"/>
      </g>
     </g>
     <g id="text_66">
      <!-- 8 -->
      <g transform="translate(264.4575 248.213764) scale(0.1 -0.1)">
       <use xlink:href="#DejaVuSans-38"/>
      </g>
     </g>
    </g>
    <g id="text_67">
     <!-- Flux (mmol/h/gDW) -->
     <g transform="translate(258.377812 362.338125) rotate(-90) scale(0.1 -0.1)">
      <use xlink:href="#DejaVuSans-46"/>
      <use xlink:href="#DejaVuSans-6c" x="57.519531"/>
      <use xlink:href="#DejaVuSans-75" x="85.302734"/>
      <use xlink:href="#DejaVuSans-78" x="148.681641"/>
      <use xlink:href="#DejaVuSans-20" x="207.861328"/>
      <use xlink:href="#DejaVuSans-28" x="239.648438"/>
      <use xlink:href="#DejaVuSans-6d" x="278.662109"/>
      <use xlink:href="#DejaVuSans-6d" x="376.074219"/>
      <use xlink:href="#DejaVuSans-6f" x="473.486328"/>
      <use xlink:href="#DejaVuSans-6c" x="534.667969"/>
      <use xlink:href="#DejaVuSans-2f" x="562.451172"/>
      <use xlink:href="#DejaVuSans-68" x="596.142578"/>
      <use xlink:href="#DejaVuSans-2f" x="659.521484"/>
      <use xlink:href="#DejaVuSans-67" x="693.212891"/>
      <use xlink:href="#DejaVuSans-44" x="756.689453"/>
      <use xlink:href="#DejaVuSans-57" x="833.691406"/>
      <use xlink:href="#DejaVuSans-29" x="932.568359"/>
     </g>
    </g>
   </g>
   <g id="line2d_62">
    <path d="M 286.539545 244.414545 
L 295.718014 244.414545 
L 304.896483 244.414545 
L 314.074952 244.414545 
L 323.253421 244.414545 
L 332.43189 244.414545 
L 341.610359 244.414545 
L 350.788828 244.414545 
L 359.967297 244.414545 
L 369.145766 244.414545 
L 378.324234 244.414545 
L 387.502703 244.414545 
L 396.681172 244.414545 
L 405.859641 244.414545 
L 415.03811 244.414545 
L 424.216579 246.231188 
L 433.395048 249.2443 
L 442.573517 252.257412 
L 451.751986 255.270524 
L 460.930455 258.283636 
" clip-path="url(#p0f7d9e16ad)" style="fill: none; stroke: #bf00bf; stroke-width: 1.5; stroke-linecap: square"/>
   </g>
   <g id="line2d_63">
    <path d="M 286.539545 383.105455 
L 295.718014 383.105455 
L 304.896483 383.105455 
L 314.074952 383.105455 
L 323.253421 383.105455 
L 332.43189 383.105455 
L 341.610359 383.105455 
L 350.788828 383.105455 
L 359.967297 383.105455 
L 369.145766 379.114364 
L 378.324234 369.53641 
L 387.502703 359.958456 
L 396.681172 350.380503 
L 405.859641 340.713626 
L 415.03811 327.748823 
L 424.216579 313.855786 
L 433.395048 299.962748 
L 442.573517 286.069711 
L 451.751986 272.176674 
L 460.930455 258.283636 
" clip-path="url(#p0f7d9e16ad)" style="fill: none; stroke: #bf00bf; stroke-width: 1.5; stroke-linecap: square"/>
   </g>
   <g id="patch_23">
    <path d="M 277.82 390.04 
L 277.82 237.48 
" style="fill: none; stroke: #000000; stroke-width: 0.8; stroke-linejoin: miter; stroke-linecap: square"/>
   </g>
   <g id="patch_24">
    <path d="M 469.65 390.04 
L 469.65 237.48 
" style="fill: none; stroke: #000000; stroke-width: 0.8; stroke-linejoin: miter; stroke-linecap: square"/>
   </g>
   <g id="patch_25">
    <path d="M 277.82 390.04 
L 469.65 390.04 
" style="fill: none; stroke: #000000; stroke-width: 0.8; stroke-linejoin: miter; stroke-linecap: square"/>
   </g>
   <g id="patch_26">
    <path d="M 277.82 237.48 
L 469.65 237.48 
" style="fill: none; stroke: #000000; stroke-width: 0.8; stroke-linejoin: miter; stroke-linecap: square"/>
   </g>
   <g id="text_68">
    <!-- Xylose exchange -->
    <g transform="translate(322.89625 231.48) scale(0.12 -0.12)">
     <defs>
      <path id="DejaVuSans-58" d="M 403 4666 
L 1081 4666 
L 2241 2931 
L 3406 4666 
L 4084 4666 
L 2584 2425 
L 4184 0 
L 3506 0 
L 2194 1984 
L 872 0 
L 191 0 
L 1856 2491 
L 403 4666 
z
" transform="scale(0.015625)"/>
      <path id="DejaVuSans-73" d="M 2834 3397 
L 2834 2853 
Q 2591 2978 2328 3040 
Q 2066 3103 1784 3103 
Q 1356 3103 1142 2972 
Q 928 2841 928 2578 
Q 928 2378 1081 2264 
Q 1234 2150 1697 2047 
L 1894 2003 
Q 2506 1872 2764 1633 
Q 3022 1394 3022 966 
Q 3022 478 2636 193 
Q 2250 -91 1575 -91 
Q 1294 -91 989 -36 
Q 684 19 347 128 
L 347 722 
Q 666 556 975 473 
Q 1284 391 1588 391 
Q 1994 391 2212 530 
Q 2431 669 2431 922 
Q 2431 1156 2273 1281 
Q 2116 1406 1581 1522 
L 1381 1569 
Q 847 1681 609 1914 
Q 372 2147 372 2553 
Q 372 3047 722 3315 
Q 1072 3584 1716 3584 
Q 2034 3584 2315 3537 
Q 2597 3491 2834 3397 
z
" transform="scale(0.015625)"/>
     </defs>
     <use xlink:href="#DejaVuSans-58"/>
     <use xlink:href="#DejaVuSans-79" x="68.505859"/>
     <use xlink:href="#DejaVuSans-6c" x="127.685547"/>
     <use xlink:href="#DejaVuSans-6f" x="155.46875"/>
     <use xlink:href="#DejaVuSans-73" x="216.650391"/>
     <use xlink:href="#DejaVuSans-65" x="268.75"/>
     <use xlink:href="#DejaVuSans-20" x="330.273438"/>
     <use xlink:href="#DejaVuSans-65" x="362.060547"/>
     <use xlink:href="#DejaVuSans-78" x="421.833984"/>
     <use xlink:href="#DejaVuSans-63" x="479.263672"/>
     <use xlink:href="#DejaVuSans-68" x="534.244141"/>
     <use xlink:href="#DejaVuSans-61" x="597.623047"/>
     <use xlink:href="#DejaVuSans-6e" x="658.902344"/>
     <use xlink:href="#DejaVuSans-67" x="722.28125"/>
     <use xlink:href="#DejaVuSans-65" x="785.757812"/>
    </g>
   </g>
  </g>
  <g id="axes_6"/>
 </g>
 <defs>
  <clipPath id="p17b1b1f90d">
   <rect x="38.27" y="26.88" width="191.83" height="152.56"/>
  </clipPath>
  <clipPath id="p11a8c65bb2">
   <rect x="277.82" y="26.88" width="191.83" height="152.56"/>
  </clipPath>
  <clipPath id="pfe972cbb81">
   <rect x="517.37" y="26.88" width="191.83" height="152.56"/>
  </clipPath>
  <clipPath id="pb8dbe5a7e2">
   <rect x="38.27" y="237.48" width="191.83" height="152.56"/>
  </clipPath>
  <clipPath id="p0f7d9e16ad">
   <rect x="277.82" y="237.48" width="191.83" height="152.56"/>
  </clipPath>
 </defs>
</svg>
