<?xml version="1.0" encoding="utf-8" standalone="no"?>
<!DOCTYPE svg PUBLIC "-//W3C//DTD SVG 1.1//EN"
  "http://www.w3.org/Graphics/SVG/1.1/DTD/svg11.dtd">
<svg xmlns:xlink="http://www.w3.org/1999/xlink" width="720pt" height="432pt" viewBox="0 0 720 432" xmlns="http://www.w3.org/2000/svg" version="1.1">
 <metadata>
  <rdf:RDF xmlns:dc="http://purl.org/dc/elements/1.1/" xmlns:cc="http://creativecommons.org/ns#" xmlns:rdf="http://www.w3.org/1999/02/22-rdf-syntax-ns#">
   <cc:Work>
    <dc:type rdf:resource="http://purl.org/dc/dcmitype/StillImage"/>
    <dc:date>2024-03-05T09:24:44.704636</dc:date>
    <dc:format>image/svg+xml</dc:format>
    <dc:creator>
     <cc:Agent>
      <dc:title>Matplotlib v3.6.2, https://matplotlib.org/</dc:title>
     </cc:Agent>
    </dc:creator>
   </cc:Work>
  </rdf:RDF>
 </metadata>
 <defs>
  <style type="text/css">*{stroke-linejoin: round; stroke-linecap: butt}</style>
 </defs>
 <g id="figure_1">
  <g id="patch_1">
   <path d="M 0 432 
L 720 432 
L 720 0 
L 0 0 
z
" style="fill: #ffffff"/>
  </g>
  <g id="axes_1">
   <g id="patch_2">
    <path d="M 24.19 179.44 
L 232.2 179.44 
L 232.2 26.88 
L 24.19 26.88 
z
" style="fill: #ffffff"/>
   </g>
   <g id="PolyCollection_1">
    <defs>
     <path id="m91944c16c7" d="M 33.645 -398.185455 
L 33.645 -259.494545 
L 43.597632 -259.494545 
L 53.550263 -259.494545 
L 63.502895 -259.494545 
L 73.455526 -259.494545 
L 83.408158 -259.494545 
L 93.360789 -259.494545 
L 103.313421 -259.494545 
L 113.266053 -259.494545 
L 123.218684 -259.494545 
L 133.171316 -259.494545 
L 143.123947 -259.494545 
L 153.076579 -259.494545 
L 163.029211 -259.494545 
L 172.981842 -264.676165 
L 182.934474 -279.761929 
L 192.887105 -295.152864 
L 202.839737 -310.543799 
L 212.792368 -325.978575 
L 222.745 -341.439058 
L 222.745 -341.439058 
L 222.745 -341.439058 
L 212.792368 -350.890855 
L 202.839737 -356.507329 
L 192.887105 -359.803806 
L 182.934474 -363.077627 
L 172.981842 -365.789807 
L 163.029211 -368.321859 
L 153.076579 -370.802282 
L 143.123947 -373.282705 
L 133.171316 -375.763128 
L 123.218684 -378.171994 
L 113.266053 -380.513962 
L 103.313421 -382.85593 
L 93.360789 -385.070242 
L 83.408158 -387.256111 
L 73.455526 -389.44198 
L 63.502895 -391.627849 
L 53.550263 -393.813717 
L 43.597632 -395.999586 
L 33.645 -398.185455 
z
" style="stroke: #0000ff; stroke-opacity: 0.2"/>
    </defs>
    <g clip-path="url(#pddc7b516f3)">
     <use xlink:href="#m91944c16c7" x="0" y="432" style="fill: #0000ff; fill-opacity: 0.2; stroke: #0000ff; stroke-opacity: 0.2"/>
    </g>
   </g>
   <g id="matplotlib.axis_1">
    <g id="xtick_1">
     <g id="line2d_1">
      <defs>
       <path id="m564e13a18c" d="M 0 0 
L 0 3.5 
" style="stroke: #000000; stroke-width: 0.8"/>
      </defs>
      <g>
       <use xlink:href="#m564e13a18c" x="33.645" y="179.44" style="stroke: #000000; stroke-width: 0.8"/>
      </g>
     </g>
     <g id="text_1">
      <!-- 0.0 -->
      <g transform="translate(25.693438 194.038437) scale(0.1 -0.1)">
       <defs>
        <path id="DejaVuSans-30" d="M 2034 4250 
Q 1547 4250 1301 3770 
Q 1056 3291 1056 2328 
Q 1056 1369 1301 889 
Q 1547 409 2034 409 
Q 2525 409 2770 889 
Q 3016 1369 3016 2328 
Q 3016 3291 2770 3770 
Q 2525 4250 2034 4250 
z
M 2034 4750 
Q 2819 4750 3233 4129 
Q 3647 3509 3647 2328 
Q 3647 1150 3233 529 
Q 2819 -91 2034 -91 
Q 1250 -91 836 529 
Q 422 1150 422 2328 
Q 422 3509 836 4129 
Q 1250 4750 2034 4750 
z
" transform="scale(0.015625)"/>
        <path id="DejaVuSans-2e" d="M 684 794 
L 1344 794 
L 1344 0 
L 684 0 
L 684 794 
z
" transform="scale(0.015625)"/>
       </defs>
       <use xlink:href="#DejaVuSans-30"/>
       <use xlink:href="#DejaVuSans-2e" x="63.623047"/>
       <use xlink:href="#DejaVuSans-30" x="95.410156"/>
      </g>
     </g>
    </g>
    <g id="xtick_2">
     <g id="line2d_2">
      <g>
       <use xlink:href="#m564e13a18c" x="92.968449" y="179.44" style="stroke: #000000; stroke-width: 0.8"/>
      </g>
     </g>
     <g id="text_2">
      <!-- 0.1 -->
      <g transform="translate(85.016886 194.038437) scale(0.1 -0.1)">
       <defs>
        <path id="DejaVuSans-31" d="M 794 531 
L 1825 531 
L 1825 4091 
L 703 3866 
L 703 4441 
L 1819 4666 
L 2450 4666 
L 2450 531 
L 3481 531 
L 3481 0 
L 794 0 
L 794 531 
z
" transform="scale(0.015625)"/>
       </defs>
       <use xlink:href="#DejaVuSans-30"/>
       <use xlink:href="#DejaVuSans-2e" x="63.623047"/>
       <use xlink:href="#DejaVuSans-31" x="95.410156"/>
      </g>
     </g>
    </g>
    <g id="xtick_3">
     <g id="line2d_3">
      <g>
       <use xlink:href="#m564e13a18c" x="152.291898" y="179.44" style="stroke: #000000; stroke-width: 0.8"/>
      </g>
     </g>
     <g id="text_3">
      <!-- 0.2 -->
      <g transform="translate(144.340335 194.038437) scale(0.1 -0.1)">
       <defs>
        <path id="DejaVuSans-32" d="M 1228 531 
L 3431 531 
L 3431 0 
L 469 0 
L 469 531 
Q 828 903 1448 1529 
Q 2069 2156 2228 2338 
Q 2531 2678 2651 2914 
Q 2772 3150 2772 3378 
Q 2772 3750 2511 3984 
Q 2250 4219 1831 4219 
Q 1534 4219 1204 4116 
Q 875 4013 500 3803 
L 500 4441 
Q 881 4594 1212 4672 
Q 1544 4750 1819 4750 
Q 2544 4750 2975 4387 
Q 3406 4025 3406 3419 
Q 3406 3131 3298 2873 
Q 3191 2616 2906 2266 
Q 2828 2175 2409 1742 
Q 1991 1309 1228 531 
z
" transform="scale(0.015625)"/>
       </defs>
       <use xlink:href="#DejaVuSans-30"/>
       <use xlink:href="#DejaVuSans-2e" x="63.623047"/>
       <use xlink:href="#DejaVuSans-32" x="95.410156"/>
      </g>
     </g>
    </g>
    <g id="xtick_4">
     <g id="line2d_4">
      <g>
       <use xlink:href="#m564e13a18c" x="211.615346" y="179.44" style="stroke: #000000; stroke-width: 0.8"/>
      </g>
     </g>
     <g id="text_4">
      <!-- 0.3 -->
      <g transform="translate(203.663784 194.038437) scale(0.1 -0.1)">
       <defs>
        <path id="DejaVuSans-33" d="M 2597 2516 
Q 3050 2419 3304 2112 
Q 3559 1806 3559 1356 
Q 3559 666 3084 287 
Q 2609 -91 1734 -91 
Q 1441 -91 1130 -33 
Q 819 25 488 141 
L 488 750 
Q 750 597 1062 519 
Q 1375 441 1716 441 
Q 2309 441 2620 675 
Q 2931 909 2931 1356 
Q 2931 1769 2642 2001 
Q 2353 2234 1838 2234 
L 1294 2234 
L 1294 2753 
L 1863 2753 
Q 2328 2753 2575 2939 
Q 2822 3125 2822 3475 
Q 2822 3834 2567 4026 
Q 2313 4219 1838 4219 
Q 1578 4219 1281 4162 
Q 984 4106 628 3988 
L 628 4550 
Q 988 4650 1302 4700 
Q 1616 4750 1894 4750 
Q 2613 4750 3031 4423 
Q 3450 4097 3450 3541 
Q 3450 3153 3228 2886 
Q 3006 2619 2597 2516 
z
" transform="scale(0.015625)"/>
       </defs>
       <use xlink:href="#DejaVuSans-30"/>
       <use xlink:href="#DejaVuSans-2e" x="63.623047"/>
       <use xlink:href="#DejaVuSans-33" x="95.410156"/>
      </g>
     </g>
    </g>
    <g id="text_5">
     <!-- Growth -->
     <g transform="translate(110.100469 207.716562) scale(0.1 -0.1)">
      <defs>
       <path id="DejaVuSans-47" d="M 3809 666 
L 3809 1919 
L 2778 1919 
L 2778 2438 
L 4434 2438 
L 4434 434 
Q 4069 175 3628 42 
Q 3188 -91 2688 -91 
Q 1594 -91 976 548 
Q 359 1188 359 2328 
Q 359 3472 976 4111 
Q 1594 4750 2688 4750 
Q 3144 4750 3555 4637 
Q 3966 4525 4313 4306 
L 4313 3634 
Q 3963 3931 3569 4081 
Q 3175 4231 2741 4231 
Q 1884 4231 1454 3753 
Q 1025 3275 1025 2328 
Q 1025 1384 1454 906 
Q 1884 428 2741 428 
Q 3075 428 3337 486 
Q 3600 544 3809 666 
z
" transform="scale(0.015625)"/>
       <path id="DejaVuSans-72" d="M 2631 2963 
Q 2534 3019 2420 3045 
Q 2306 3072 2169 3072 
Q 1681 3072 1420 2755 
Q 1159 2438 1159 1844 
L 1159 0 
L 581 0 
L 581 3500 
L 1159 3500 
L 1159 2956 
Q 1341 3275 1631 3429 
Q 1922 3584 2338 3584 
Q 2397 3584 2469 3576 
Q 2541 3569 2628 3553 
L 2631 2963 
z
" transform="scale(0.015625)"/>
       <path id="DejaVuSans-6f" d="M 1959 3097 
Q 1497 3097 1228 2736 
Q 959 2375 959 1747 
Q 959 1119 1226 758 
Q 1494 397 1959 397 
Q 2419 397 2687 759 
Q 2956 1122 2956 1747 
Q 2956 2369 2687 2733 
Q 2419 3097 1959 3097 
z
M 1959 3584 
Q 2709 3584 3137 3096 
Q 3566 2609 3566 1747 
Q 3566 888 3137 398 
Q 2709 -91 1959 -91 
Q 1206 -91 779 398 
Q 353 888 353 1747 
Q 353 2609 779 3096 
Q 1206 3584 1959 3584 
z
" transform="scale(0.015625)"/>
       <path id="DejaVuSans-77" d="M 269 3500 
L 844 3500 
L 1563 769 
L 2278 3500 
L 2956 3500 
L 3675 769 
L 4391 3500 
L 4966 3500 
L 4050 0 
L 3372 0 
L 2619 2869 
L 1863 0 
L 1184 0 
L 269 3500 
z
" transform="scale(0.015625)"/>
       <path id="DejaVuSans-74" d="M 1172 4494 
L 1172 3500 
L 2356 3500 
L 2356 3053 
L 1172 3053 
L 1172 1153 
Q 1172 725 1289 603 
Q 1406 481 1766 481 
L 2356 481 
L 2356 0 
L 1766 0 
Q 1100 0 847 248 
Q 594 497 594 1153 
L 594 3053 
L 172 3053 
L 172 3500 
L 594 3500 
L 594 4494 
L 1172 4494 
z
" transform="scale(0.015625)"/>
       <path id="DejaVuSans-68" d="M 3513 2113 
L 3513 0 
L 2938 0 
L 2938 2094 
Q 2938 2591 2744 2837 
Q 2550 3084 2163 3084 
Q 1697 3084 1428 2787 
Q 1159 2491 1159 1978 
L 1159 0 
L 581 0 
L 581 4863 
L 1159 4863 
L 1159 2956 
Q 1366 3272 1645 3428 
Q 1925 3584 2291 3584 
Q 2894 3584 3203 3211 
Q 3513 2838 3513 2113 
z
" transform="scale(0.015625)"/>
      </defs>
      <use xlink:href="#DejaVuSans-47"/>
      <use xlink:href="#DejaVuSans-72" x="77.490234"/>
      <use xlink:href="#DejaVuSans-6f" x="116.353516"/>
      <use xlink:href="#DejaVuSans-77" x="177.535156"/>
      <use xlink:href="#DejaVuSans-74" x="259.322266"/>
      <use xlink:href="#DejaVuSans-68" x="298.53125"/>
     </g>
    </g>
   </g>
   <g id="matplotlib.axis_2">
    <g id="ytick_1">
     <g id="line2d_5">
      <defs>
       <path id="mc88a3c3882" d="M 0 0 
L -3.5 0 
" style="stroke: #000000; stroke-width: 0.8"/>
      </defs>
      <g>
       <use xlink:href="#mc88a3c3882" x="24.19" y="172.505455" style="stroke: #000000; stroke-width: 0.8"/>
      </g>
     </g>
     <g id="text_6">
      <!-- 0 -->
      <g transform="translate(10.8275 176.304673) scale(0.1 -0.1)">
       <use xlink:href="#DejaVuSans-30"/>
      </g>
     </g>
    </g>
    <g id="ytick_2">
     <g id="line2d_6">
      <g>
       <use xlink:href="#mc88a3c3882" x="24.19" y="140.607639" style="stroke: #000000; stroke-width: 0.8"/>
      </g>
     </g>
     <g id="text_7">
      <!-- 2 -->
      <g transform="translate(10.8275 144.406857) scale(0.1 -0.1)">
       <use xlink:href="#DejaVuSans-32"/>
      </g>
     </g>
    </g>
    <g id="ytick_3">
     <g id="line2d_7">
      <g>
       <use xlink:href="#mc88a3c3882" x="24.19" y="108.709823" style="stroke: #000000; stroke-width: 0.8"/>
      </g>
     </g>
     <g id="text_8">
      <!-- 4 -->
      <g transform="translate(10.8275 112.509041) scale(0.1 -0.1)">
       <defs>
        <path id="DejaVuSans-34" d="M 2419 4116 
L 825 1625 
L 2419 1625 
L 2419 4116 
z
M 2253 4666 
L 3047 4666 
L 3047 1625 
L 3713 1625 
L 3713 1100 
L 3047 1100 
L 3047 0 
L 2419 0 
L 2419 1100 
L 313 1100 
L 313 1709 
L 2253 4666 
z
" transform="scale(0.015625)"/>
       </defs>
       <use xlink:href="#DejaVuSans-34"/>
      </g>
     </g>
    </g>
    <g id="ytick_4">
     <g id="line2d_8">
      <g>
       <use xlink:href="#mc88a3c3882" x="24.19" y="76.812006" style="stroke: #000000; stroke-width: 0.8"/>
      </g>
     </g>
     <g id="text_9">
      <!-- 6 -->
      <g transform="translate(10.8275 80.611225) scale(0.1 -0.1)">
       <defs>
        <path id="DejaVuSans-36" d="M 2113 2584 
Q 1688 2584 1439 2293 
Q 1191 2003 1191 1497 
Q 1191 994 1439 701 
Q 1688 409 2113 409 
Q 2538 409 2786 701 
Q 3034 994 3034 1497 
Q 3034 2003 2786 2293 
Q 2538 2584 2113 2584 
z
M 3366 4563 
L 3366 3988 
Q 3128 4100 2886 4159 
Q 2644 4219 2406 4219 
Q 1781 4219 1451 3797 
Q 1122 3375 1075 2522 
Q 1259 2794 1537 2939 
Q 1816 3084 2150 3084 
Q 2853 3084 3261 2657 
Q 3669 2231 3669 1497 
Q 3669 778 3244 343 
Q 2819 -91 2113 -91 
Q 1303 -91 875 529 
Q 447 1150 447 2328 
Q 447 3434 972 4092 
Q 1497 4750 2381 4750 
Q 2619 4750 2861 4703 
Q 3103 4656 3366 4563 
z
" transform="scale(0.015625)"/>
       </defs>
       <use xlink:href="#DejaVuSans-36"/>
      </g>
     </g>
    </g>
    <g id="ytick_5">
     <g id="line2d_9">
      <g>
       <use xlink:href="#mc88a3c3882" x="24.19" y="44.91419" style="stroke: #000000; stroke-width: 0.8"/>
      </g>
     </g>
     <g id="text_10">
      <!-- 8 -->
      <g transform="translate(10.8275 48.713409) scale(0.1 -0.1)">
       <defs>
        <path id="DejaVuSans-38" d="M 2034 2216 
Q 1584 2216 1326 1975 
Q 1069 1734 1069 1313 
Q 1069 891 1326 650 
Q 1584 409 2034 409 
Q 2484 409 2743 651 
Q 3003 894 3003 1313 
Q 3003 1734 2745 1975 
Q 2488 2216 2034 2216 
z
M 1403 2484 
Q 997 2584 770 2862 
Q 544 3141 544 3541 
Q 544 4100 942 4425 
Q 1341 4750 2034 4750 
Q 2731 4750 3128 4425 
Q 3525 4100 3525 3541 
Q 3525 3141 3298 2862 
Q 3072 2584 2669 2484 
Q 3125 2378 3379 2068 
Q 3634 1759 3634 1313 
Q 3634 634 3220 271 
Q 2806 -91 2034 -91 
Q 1263 -91 848 271 
Q 434 634 434 1313 
Q 434 1759 690 2068 
Q 947 2378 1403 2484 
z
M 1172 3481 
Q 1172 3119 1398 2916 
Q 1625 2713 2034 2713 
Q 2441 2713 2670 2916 
Q 2900 3119 2900 3481 
Q 2900 3844 2670 4047 
Q 2441 4250 2034 4250 
Q 1625 4250 1398 4047 
Q 1172 3844 1172 3481 
z
" transform="scale(0.015625)"/>
       </defs>
       <use xlink:href="#DejaVuSans-38"/>
      </g>
     </g>
    </g>
   </g>
   <g id="line2d_10">
    <path d="M 33.645 33.814545 
L 43.597632 36.000414 
L 53.550263 38.186283 
L 63.502895 40.372151 
L 73.455526 42.55802 
L 83.408158 44.743889 
L 93.360789 46.929758 
L 103.313421 49.14407 
L 113.266053 51.486038 
L 123.218684 53.828006 
L 133.171316 56.236872 
L 143.123947 58.717295 
L 153.076579 61.197718 
L 163.029211 63.678141 
L 172.981842 66.210193 
L 182.934474 68.922373 
L 192.887105 72.196194 
L 202.839737 75.492671 
L 212.792368 81.109145 
L 222.745 90.560942 
" clip-path="url(#pddc7b516f3)" style="fill: none; stroke: #0000ff; stroke-width: 1.5; stroke-linecap: square"/>
   </g>
   <g id="line2d_11">
    <path d="M 33.645 172.505455 
L 43.597632 172.505455 
L 53.550263 172.505455 
L 63.502895 172.505455 
L 73.455526 172.505455 
L 83.408158 172.505455 
L 93.360789 172.505455 
L 103.313421 172.505455 
L 113.266053 172.505455 
L 123.218684 172.505455 
L 133.171316 172.505455 
L 143.123947 172.505455 
L 153.076579 172.505455 
L 163.029211 172.505455 
L 172.981842 167.323835 
L 182.934474 152.238071 
L 192.887105 136.847136 
L 202.839737 121.456201 
L 212.792368 106.021425 
L 222.745 90.560942 
" clip-path="url(#pddc7b516f3)" style="fill: none; stroke: #0000ff; stroke-width: 1.5; stroke-linecap: square"/>
   </g>
   <g id="patch_3">
    <path d="M 24.19 179.44 
L 24.19 26.88 
" style="fill: none; stroke: #000000; stroke-width: 0.8; stroke-linejoin: miter; stroke-linecap: square"/>
   </g>
   <g id="patch_4">
    <path d="M 232.2 179.44 
L 232.2 26.88 
" style="fill: none; stroke: #000000; stroke-width: 0.8; stroke-linejoin: miter; stroke-linecap: square"/>
   </g>
   <g id="patch_5">
    <path d="M 24.19 179.44 
L 232.2 179.44 
" style="fill: none; stroke: #000000; stroke-width: 0.8; stroke-linejoin: miter; stroke-linecap: square"/>
   </g>
   <g id="patch_6">
    <path d="M 24.19 26.88 
L 232.2 26.88 
" style="fill: none; stroke: #000000; stroke-width: 0.8; stroke-linejoin: miter; stroke-linecap: square"/>
   </g>
   <g id="text_11">
    <!-- EX_but_e -->
    <g transform="translate(100.638125 20.88) scale(0.12 -0.12)">
     <defs>
      <path id="DejaVuSans-45" d="M 628 4666 
L 3578 4666 
L 3578 4134 
L 1259 4134 
L 1259 2753 
L 3481 2753 
L 3481 2222 
L 1259 2222 
L 1259 531 
L 3634 531 
L 3634 0 
L 628 0 
L 628 4666 
z
" transform="scale(0.015625)"/>
      <path id="DejaVuSans-58" d="M 403 4666 
L 1081 4666 
L 2241 2931 
L 3406 4666 
L 4084 4666 
L 2584 2425 
L 4184 0 
L 3506 0 
L 2194 1984 
L 872 0 
L 191 0 
L 1856 2491 
L 403 4666 
z
" transform="scale(0.015625)"/>
      <path id="DejaVuSans-5f" d="M 3263 -1063 
L 3263 -1509 
L -63 -1509 
L -63 -1063 
L 3263 -1063 
z
" transform="scale(0.015625)"/>
      <path id="DejaVuSans-62" d="M 3116 1747 
Q 3116 2381 2855 2742 
Q 2594 3103 2138 3103 
Q 1681 3103 1420 2742 
Q 1159 2381 1159 1747 
Q 1159 1113 1420 752 
Q 1681 391 2138 391 
Q 2594 391 2855 752 
Q 3116 1113 3116 1747 
z
M 1159 2969 
Q 1341 3281 1617 3432 
Q 1894 3584 2278 3584 
Q 2916 3584 3314 3078 
Q 3713 2572 3713 1747 
Q 3713 922 3314 415 
Q 2916 -91 2278 -91 
Q 1894 -91 1617 61 
Q 1341 213 1159 525 
L 1159 0 
L 581 0 
L 581 4863 
L 1159 4863 
L 1159 2969 
z
" transform="scale(0.015625)"/>
      <path id="DejaVuSans-75" d="M 544 1381 
L 544 3500 
L 1119 3500 
L 1119 1403 
Q 1119 906 1312 657 
Q 1506 409 1894 409 
Q 2359 409 2629 706 
Q 2900 1003 2900 1516 
L 2900 3500 
L 3475 3500 
L 3475 0 
L 2900 0 
L 2900 538 
Q 2691 219 2414 64 
Q 2138 -91 1772 -91 
Q 1169 -91 856 284 
Q 544 659 544 1381 
z
M 1991 3584 
L 1991 3584 
z
" transform="scale(0.015625)"/>
      <path id="DejaVuSans-65" d="M 3597 1894 
L 3597 1613 
L 953 1613 
Q 991 1019 1311 708 
Q 1631 397 2203 397 
Q 2534 397 2845 478 
Q 3156 559 3463 722 
L 3463 178 
Q 3153 47 2828 -22 
Q 2503 -91 2169 -91 
Q 1331 -91 842 396 
Q 353 884 353 1716 
Q 353 2575 817 3079 
Q 1281 3584 2069 3584 
Q 2775 3584 3186 3129 
Q 3597 2675 3597 1894 
z
M 3022 2063 
Q 3016 2534 2758 2815 
Q 2500 3097 2075 3097 
Q 1594 3097 1305 2825 
Q 1016 2553 972 2059 
L 3022 2063 
z
" transform="scale(0.015625)"/>
     </defs>
     <use xlink:href="#DejaVuSans-45"/>
     <use xlink:href="#DejaVuSans-58" x="63.183594"/>
     <use xlink:href="#DejaVuSans-5f" x="131.689453"/>
     <use xlink:href="#DejaVuSans-62" x="181.689453"/>
     <use xlink:href="#DejaVuSans-75" x="245.166016"/>
     <use xlink:href="#DejaVuSans-74" x="308.544922"/>
     <use xlink:href="#DejaVuSans-5f" x="347.753906"/>
     <use xlink:href="#DejaVuSans-65" x="397.753906"/>
    </g>
   </g>
  </g>
  <g id="axes_2">
   <g id="patch_7">
    <path d="M 262.69 179.44 
L 470.7 179.44 
L 470.7 26.88 
L 262.69 26.88 
z
" style="fill: #ffffff"/>
   </g>
   <g id="PolyCollection_2">
    <defs>
     <path id="mb915752615" d="M 272.145 -398.185455 
L 272.145 -259.494545 
L 282.097632 -259.494545 
L 292.050263 -259.494545 
L 302.002895 -259.494545 
L 311.955526 -259.494545 
L 321.908158 -259.494545 
L 331.860789 -259.494545 
L 341.813421 -259.494545 
L 351.766053 -259.494545 
L 361.718684 -259.494545 
L 371.671316 -259.494545 
L 381.623947 -259.494545 
L 391.576579 -259.494545 
L 401.529211 -259.494545 
L 411.481842 -264.109958 
L 421.434474 -277.547268 
L 431.387105 -291.256402 
L 441.339737 -304.965537 
L 451.292368 -318.713721 
L 461.245 -332.484804 
L 461.245 -332.484804 
L 461.245 -332.484804 
L 451.292368 -340.903783 
L 441.339737 -346.019313 
L 431.387105 -349.312691 
L 421.434474 -352.574136 
L 411.481842 -355.827282 
L 401.529211 -359.062689 
L 391.576579 -362.265477 
L 381.623947 -365.468264 
L 371.671316 -368.671052 
L 361.718684 -371.809936 
L 351.766053 -374.874156 
L 341.813421 -377.911898 
L 331.860789 -380.838234 
L 321.908158 -383.742107 
L 311.955526 -386.645979 
L 302.002895 -389.549852 
L 292.050263 -392.453725 
L 282.097632 -395.357597 
L 272.145 -398.185455 
z
" style="stroke: #008000; stroke-opacity: 0.2"/>
    </defs>
    <g clip-path="url(#p1bbc1e6fa7)">
     <use xlink:href="#mb915752615" x="0" y="432" style="fill: #008000; fill-opacity: 0.2; stroke: #008000; stroke-opacity: 0.2"/>
    </g>
   </g>
   <g id="matplotlib.axis_3">
    <g id="xtick_5">
     <g id="line2d_12">
      <g>
       <use xlink:href="#m564e13a18c" x="272.145" y="179.44" style="stroke: #000000; stroke-width: 0.8"/>
      </g>
     </g>
     <g id="text_12">
      <!-- 0.0 -->
      <g transform="translate(264.193438 194.038437) scale(0.1 -0.1)">
       <use xlink:href="#DejaVuSans-30"/>
       <use xlink:href="#DejaVuSans-2e" x="63.623047"/>
       <use xlink:href="#DejaVuSans-30" x="95.410156"/>
      </g>
     </g>
    </g>
    <g id="xtick_6">
     <g id="line2d_13">
      <g>
       <use xlink:href="#m564e13a18c" x="331.468449" y="179.44" style="stroke: #000000; stroke-width: 0.8"/>
      </g>
     </g>
     <g id="text_13">
      <!-- 0.1 -->
      <g transform="translate(323.516886 194.038437) scale(0.1 -0.1)">
       <use xlink:href="#DejaVuSans-30"/>
       <use xlink:href="#DejaVuSans-2e" x="63.623047"/>
       <use xlink:href="#DejaVuSans-31" x="95.410156"/>
      </g>
     </g>
    </g>
    <g id="xtick_7">
     <g id="line2d_14">
      <g>
       <use xlink:href="#m564e13a18c" x="390.791898" y="179.44" style="stroke: #000000; stroke-width: 0.8"/>
      </g>
     </g>
     <g id="text_14">
      <!-- 0.2 -->
      <g transform="translate(382.840335 194.038437) scale(0.1 -0.1)">
       <use xlink:href="#DejaVuSans-30"/>
       <use xlink:href="#DejaVuSans-2e" x="63.623047"/>
       <use xlink:href="#DejaVuSans-32" x="95.410156"/>
      </g>
     </g>
    </g>
    <g id="xtick_8">
     <g id="line2d_15">
      <g>
       <use xlink:href="#m564e13a18c" x="450.115346" y="179.44" style="stroke: #000000; stroke-width: 0.8"/>
      </g>
     </g>
     <g id="text_15">
      <!-- 0.3 -->
      <g transform="translate(442.163784 194.038437) scale(0.1 -0.1)">
       <use xlink:href="#DejaVuSans-30"/>
       <use xlink:href="#DejaVuSans-2e" x="63.623047"/>
       <use xlink:href="#DejaVuSans-33" x="95.410156"/>
      </g>
     </g>
    </g>
    <g id="text_16">
     <!-- Growth -->
     <g transform="translate(348.600469 207.716562) scale(0.1 -0.1)">
      <use xlink:href="#DejaVuSans-47"/>
      <use xlink:href="#DejaVuSans-72" x="77.490234"/>
      <use xlink:href="#DejaVuSans-6f" x="116.353516"/>
      <use xlink:href="#DejaVuSans-77" x="177.535156"/>
      <use xlink:href="#DejaVuSans-74" x="259.322266"/>
      <use xlink:href="#DejaVuSans-68" x="298.53125"/>
     </g>
    </g>
   </g>
   <g id="matplotlib.axis_4">
    <g id="ytick_6">
     <g id="line2d_16">
      <g>
       <use xlink:href="#mc88a3c3882" x="262.69" y="172.505455" style="stroke: #000000; stroke-width: 0.8"/>
      </g>
     </g>
     <g id="text_17">
      <!-- 0 -->
      <g transform="translate(249.3275 176.304673) scale(0.1 -0.1)">
       <use xlink:href="#DejaVuSans-30"/>
      </g>
     </g>
    </g>
    <g id="ytick_7">
     <g id="line2d_17">
      <g>
       <use xlink:href="#mc88a3c3882" x="262.69" y="143.524936" style="stroke: #000000; stroke-width: 0.8"/>
      </g>
     </g>
     <g id="text_18">
      <!-- 2 -->
      <g transform="translate(249.3275 147.324155) scale(0.1 -0.1)">
       <use xlink:href="#DejaVuSans-32"/>
      </g>
     </g>
    </g>
    <g id="ytick_8">
     <g id="line2d_18">
      <g>
       <use xlink:href="#mc88a3c3882" x="262.69" y="114.544418" style="stroke: #000000; stroke-width: 0.8"/>
      </g>
     </g>
     <g id="text_19">
      <!-- 4 -->
      <g transform="translate(249.3275 118.343637) scale(0.1 -0.1)">
       <use xlink:href="#DejaVuSans-34"/>
      </g>
     </g>
    </g>
    <g id="ytick_9">
     <g id="line2d_19">
      <g>
       <use xlink:href="#mc88a3c3882" x="262.69" y="85.5639" style="stroke: #000000; stroke-width: 0.8"/>
      </g>
     </g>
     <g id="text_20">
      <!-- 6 -->
      <g transform="translate(249.3275 89.363119) scale(0.1 -0.1)">
       <use xlink:href="#DejaVuSans-36"/>
      </g>
     </g>
    </g>
    <g id="ytick_10">
     <g id="line2d_20">
      <g>
       <use xlink:href="#mc88a3c3882" x="262.69" y="56.583382" style="stroke: #000000; stroke-width: 0.8"/>
      </g>
     </g>
     <g id="text_21">
      <!-- 8 -->
      <g transform="translate(249.3275 60.382601) scale(0.1 -0.1)">
       <use xlink:href="#DejaVuSans-38"/>
      </g>
     </g>
    </g>
    <g id="ytick_11">
     <g id="line2d_21">
      <g>
       <use xlink:href="#mc88a3c3882" x="262.69" y="27.602864" style="stroke: #000000; stroke-width: 0.8"/>
      </g>
     </g>
     <g id="text_22">
      <!-- 10 -->
      <g transform="translate(242.965 31.402083) scale(0.1 -0.1)">
       <use xlink:href="#DejaVuSans-31"/>
       <use xlink:href="#DejaVuSans-30" x="63.623047"/>
      </g>
     </g>
    </g>
   </g>
   <g id="line2d_22">
    <path d="M 272.145 33.814545 
L 282.097632 36.642403 
L 292.050263 39.546275 
L 302.002895 42.450148 
L 311.955526 45.354021 
L 321.908158 48.257893 
L 331.860789 51.161766 
L 341.813421 54.088102 
L 351.766053 57.125844 
L 361.718684 60.190064 
L 371.671316 63.328948 
L 381.623947 66.531736 
L 391.576579 69.734523 
L 401.529211 72.937311 
L 411.481842 76.172718 
L 421.434474 79.425864 
L 431.387105 82.687309 
L 441.339737 85.980687 
L 451.292368 91.096217 
L 461.245 99.515196 
" clip-path="url(#p1bbc1e6fa7)" style="fill: none; stroke: #008000; stroke-width: 1.5; stroke-linecap: square"/>
   </g>
   <g id="line2d_23">
    <path d="M 272.145 172.505455 
L 282.097632 172.505455 
L 292.050263 172.505455 
L 302.002895 172.505455 
L 311.955526 172.505455 
L 321.908158 172.505455 
L 331.860789 172.505455 
L 341.813421 172.505455 
L 351.766053 172.505455 
L 361.718684 172.505455 
L 371.671316 172.505455 
L 381.623947 172.505455 
L 391.576579 172.505455 
L 401.529211 172.505455 
L 411.481842 167.890042 
L 421.434474 154.452732 
L 431.387105 140.743598 
L 441.339737 127.034463 
L 451.292368 113.286279 
L 461.245 99.515196 
" clip-path="url(#p1bbc1e6fa7)" style="fill: none; stroke: #008000; stroke-width: 1.5; stroke-linecap: square"/>
   </g>
   <g id="patch_8">
    <path d="M 262.69 179.44 
L 262.69 26.88 
" style="fill: none; stroke: #000000; stroke-width: 0.8; stroke-linejoin: miter; stroke-linecap: square"/>
   </g>
   <g id="patch_9">
    <path d="M 470.7 179.44 
L 470.7 26.88 
" style="fill: none; stroke: #000000; stroke-width: 0.8; stroke-linejoin: miter; stroke-linecap: square"/>
   </g>
   <g id="patch_10">
    <path d="M 262.69 179.44 
L 470.7 179.44 
" style="fill: none; stroke: #000000; stroke-width: 0.8; stroke-linejoin: miter; stroke-linecap: square"/>
   </g>
   <g id="patch_11">
    <path d="M 262.69 26.88 
L 470.7 26.88 
" style="fill: none; stroke: #000000; stroke-width: 0.8; stroke-linejoin: miter; stroke-linecap: square"/>
   </g>
   <g id="text_23">
    <!-- EX_ac_e -->
    <g transform="translate(342.125938 20.88) scale(0.12 -0.12)">
     <defs>
      <path id="DejaVuSans-61" d="M 2194 1759 
Q 1497 1759 1228 1600 
Q 959 1441 959 1056 
Q 959 750 1161 570 
Q 1363 391 1709 391 
Q 2188 391 2477 730 
Q 2766 1069 2766 1631 
L 2766 1759 
L 2194 1759 
z
M 3341 1997 
L 3341 0 
L 2766 0 
L 2766 531 
Q 2569 213 2275 61 
Q 1981 -91 1556 -91 
Q 1019 -91 701 211 
Q 384 513 384 1019 
Q 384 1609 779 1909 
Q 1175 2209 1959 2209 
L 2766 2209 
L 2766 2266 
Q 2766 2663 2505 2880 
Q 2244 3097 1772 3097 
Q 1472 3097 1187 3025 
Q 903 2953 641 2809 
L 641 3341 
Q 956 3463 1253 3523 
Q 1550 3584 1831 3584 
Q 2591 3584 2966 3190 
Q 3341 2797 3341 1997 
z
" transform="scale(0.015625)"/>
      <path id="DejaVuSans-63" d="M 3122 3366 
L 3122 2828 
Q 2878 2963 2633 3030 
Q 2388 3097 2138 3097 
Q 1578 3097 1268 2742 
Q 959 2388 959 1747 
Q 959 1106 1268 751 
Q 1578 397 2138 397 
Q 2388 397 2633 464 
Q 2878 531 3122 666 
L 3122 134 
Q 2881 22 2623 -34 
Q 2366 -91 2075 -91 
Q 1284 -91 818 406 
Q 353 903 353 1747 
Q 353 2603 823 3093 
Q 1294 3584 2113 3584 
Q 2378 3584 2631 3529 
Q 2884 3475 3122 3366 
z
" transform="scale(0.015625)"/>
     </defs>
     <use xlink:href="#DejaVuSans-45"/>
     <use xlink:href="#DejaVuSans-58" x="63.183594"/>
     <use xlink:href="#DejaVuSans-5f" x="131.689453"/>
     <use xlink:href="#DejaVuSans-61" x="181.689453"/>
     <use xlink:href="#DejaVuSans-63" x="242.96875"/>
     <use xlink:href="#DejaVuSans-5f" x="297.949219"/>
     <use xlink:href="#DejaVuSans-65" x="347.949219"/>
    </g>
   </g>
  </g>
  <g id="axes_3">
   <g id="patch_12">
    <path d="M 501.19 179.44 
L 709.2 179.44 
L 709.2 26.88 
L 501.19 26.88 
z
" style="fill: #ffffff"/>
   </g>
   <g id="PolyCollection_3">
    <defs>
     <path id="m095e963815" d="M 510.645 -398.185455 
L 510.645 -259.494545 
L 520.597632 -259.494545 
L 530.550263 -259.494545 
L 540.502895 -259.494545 
L 550.455526 -259.494545 
L 560.408158 -259.494545 
L 570.360789 -259.494545 
L 580.313421 -259.494545 
L 590.266053 -259.494545 
L 600.218684 -259.494545 
L 610.171316 -259.494545 
L 620.123947 -259.494545 
L 630.076579 -259.494545 
L 640.029211 -259.494545 
L 649.981842 -259.494545 
L 659.934474 -259.494545 
L 669.887105 -259.494545 
L 679.839737 -259.494545 
L 689.792368 -259.494545 
L 699.745 -259.494545 
L 699.745 -259.494545 
L 699.745 -259.494545 
L 689.792368 -281.103064 
L 679.839737 -302.636828 
L 669.887105 -324.043105 
L 659.934474 -345.394354 
L 649.981842 -366.438175 
L 640.029211 -379.80872 
L 630.076579 -381.502764 
L 620.123947 -383.107951 
L 610.171316 -384.713137 
L 600.218684 -386.258573 
L 590.266053 -387.748147 
L 580.313421 -389.237722 
L 570.360789 -390.549957 
L 560.408158 -391.822677 
L 550.455526 -393.095397 
L 540.502895 -394.368118 
L 530.550263 -395.640838 
L 520.597632 -396.913513 
L 510.645 -398.185455 
z
" style="stroke: #ff0000; stroke-opacity: 0.2"/>
    </defs>
    <g clip-path="url(#p1da11b840d)">
     <use xlink:href="#m095e963815" x="0" y="432" style="fill: #ff0000; fill-opacity: 0.2; stroke: #ff0000; stroke-opacity: 0.2"/>
    </g>
   </g>
   <g id="matplotlib.axis_5">
    <g id="xtick_9">
     <g id="line2d_24">
      <g>
       <use xlink:href="#m564e13a18c" x="510.645" y="179.44" style="stroke: #000000; stroke-width: 0.8"/>
      </g>
     </g>
     <g id="text_24">
      <!-- 0.0 -->
      <g transform="translate(502.693437 194.038437) scale(0.1 -0.1)">
       <use xlink:href="#DejaVuSans-30"/>
       <use xlink:href="#DejaVuSans-2e" x="63.623047"/>
       <use xlink:href="#DejaVuSans-30" x="95.410156"/>
      </g>
     </g>
    </g>
    <g id="xtick_10">
     <g id="line2d_25">
      <g>
       <use xlink:href="#m564e13a18c" x="569.968449" y="179.44" style="stroke: #000000; stroke-width: 0.8"/>
      </g>
     </g>
     <g id="text_25">
      <!-- 0.1 -->
      <g transform="translate(562.016886 194.038437) scale(0.1 -0.1)">
       <use xlink:href="#DejaVuSans-30"/>
       <use xlink:href="#DejaVuSans-2e" x="63.623047"/>
       <use xlink:href="#DejaVuSans-31" x="95.410156"/>
      </g>
     </g>
    </g>
    <g id="xtick_11">
     <g id="line2d_26">
      <g>
       <use xlink:href="#m564e13a18c" x="629.291898" y="179.44" style="stroke: #000000; stroke-width: 0.8"/>
      </g>
     </g>
     <g id="text_26">
      <!-- 0.2 -->
      <g transform="translate(621.340335 194.038437) scale(0.1 -0.1)">
       <use xlink:href="#DejaVuSans-30"/>
       <use xlink:href="#DejaVuSans-2e" x="63.623047"/>
       <use xlink:href="#DejaVuSans-32" x="95.410156"/>
      </g>
     </g>
    </g>
    <g id="xtick_12">
     <g id="line2d_27">
      <g>
       <use xlink:href="#m564e13a18c" x="688.615346" y="179.44" style="stroke: #000000; stroke-width: 0.8"/>
      </g>
     </g>
     <g id="text_27">
      <!-- 0.3 -->
      <g transform="translate(680.663784 194.038437) scale(0.1 -0.1)">
       <use xlink:href="#DejaVuSans-30"/>
       <use xlink:href="#DejaVuSans-2e" x="63.623047"/>
       <use xlink:href="#DejaVuSans-33" x="95.410156"/>
      </g>
     </g>
    </g>
    <g id="text_28">
     <!-- Growth -->
     <g transform="translate(587.100469 207.716562) scale(0.1 -0.1)">
      <use xlink:href="#DejaVuSans-47"/>
      <use xlink:href="#DejaVuSans-72" x="77.490234"/>
      <use xlink:href="#DejaVuSans-6f" x="116.353516"/>
      <use xlink:href="#DejaVuSans-77" x="177.535156"/>
      <use xlink:href="#DejaVuSans-74" x="259.322266"/>
      <use xlink:href="#DejaVuSans-68" x="298.53125"/>
     </g>
    </g>
   </g>
   <g id="matplotlib.axis_6">
    <g id="ytick_12">
     <g id="line2d_28">
      <g>
       <use xlink:href="#mc88a3c3882" x="501.19" y="172.505455" style="stroke: #000000; stroke-width: 0.8"/>
      </g>
     </g>
     <g id="text_29">
      <!-- 0 -->
      <g transform="translate(487.8275 176.304673) scale(0.1 -0.1)">
       <use xlink:href="#DejaVuSans-30"/>
      </g>
     </g>
    </g>
    <g id="ytick_13">
     <g id="line2d_29">
      <g>
       <use xlink:href="#mc88a3c3882" x="501.19" y="133.538076" style="stroke: #000000; stroke-width: 0.8"/>
      </g>
     </g>
     <g id="text_30">
      <!-- 5 -->
      <g transform="translate(487.8275 137.337294) scale(0.1 -0.1)">
       <defs>
        <path id="DejaVuSans-35" d="M 691 4666 
L 3169 4666 
L 3169 4134 
L 1269 4134 
L 1269 2991 
Q 1406 3038 1543 3061 
Q 1681 3084 1819 3084 
Q 2600 3084 3056 2656 
Q 3513 2228 3513 1497 
Q 3513 744 3044 326 
Q 2575 -91 1722 -91 
Q 1428 -91 1123 -41 
Q 819 9 494 109 
L 494 744 
Q 775 591 1075 516 
Q 1375 441 1709 441 
Q 2250 441 2565 725 
Q 2881 1009 2881 1497 
Q 2881 1984 2565 2268 
Q 2250 2553 1709 2553 
Q 1456 2553 1204 2497 
Q 953 2441 691 2322 
L 691 4666 
z
" transform="scale(0.015625)"/>
       </defs>
       <use xlink:href="#DejaVuSans-35"/>
      </g>
     </g>
    </g>
    <g id="ytick_14">
     <g id="line2d_30">
      <g>
       <use xlink:href="#mc88a3c3882" x="501.19" y="94.570697" style="stroke: #000000; stroke-width: 0.8"/>
      </g>
     </g>
     <g id="text_31">
      <!-- 10 -->
      <g transform="translate(481.465 98.369916) scale(0.1 -0.1)">
       <use xlink:href="#DejaVuSans-31"/>
       <use xlink:href="#DejaVuSans-30" x="63.623047"/>
      </g>
     </g>
    </g>
    <g id="ytick_15">
     <g id="line2d_31">
      <g>
       <use xlink:href="#mc88a3c3882" x="501.19" y="55.603318" style="stroke: #000000; stroke-width: 0.8"/>
      </g>
     </g>
     <g id="text_32">
      <!-- 15 -->
      <g transform="translate(481.465 59.402537) scale(0.1 -0.1)">
       <use xlink:href="#DejaVuSans-31"/>
       <use xlink:href="#DejaVuSans-35" x="63.623047"/>
      </g>
     </g>
    </g>
   </g>
   <g id="line2d_32">
    <path d="M 510.645 33.814545 
L 520.597632 35.086487 
L 530.550263 36.359162 
L 540.502895 37.631882 
L 550.455526 38.904603 
L 560.408158 40.177323 
L 570.360789 41.450043 
L 580.313421 42.762278 
L 590.266053 44.251853 
L 600.218684 45.741427 
L 610.171316 47.286863 
L 620.123947 48.892049 
L 630.076579 50.497236 
L 640.029211 52.19128 
L 649.981842 65.561825 
L 659.934474 86.605646 
L 669.887105 107.956895 
L 679.839737 129.363172 
L 689.792368 150.896936 
L 699.745 172.505455 
" clip-path="url(#p1da11b840d)" style="fill: none; stroke: #ff0000; stroke-width: 1.5; stroke-linecap: square"/>
   </g>
   <g id="line2d_33">
    <path d="M 510.645 172.505455 
L 520.597632 172.505455 
L 530.550263 172.505455 
L 540.502895 172.505455 
L 550.455526 172.505455 
L 560.408158 172.505455 
L 570.360789 172.505455 
L 580.313421 172.505455 
L 590.266053 172.505455 
L 600.218684 172.505455 
L 610.171316 172.505455 
L 620.123947 172.505455 
L 630.076579 172.505455 
L 640.029211 172.505455 
L 649.981842 172.505455 
L 659.934474 172.505455 
L 669.887105 172.505455 
L 679.839737 172.505455 
L 689.792368 172.505455 
L 699.745 172.505455 
" clip-path="url(#p1da11b840d)" style="fill: none; stroke: #ff0000; stroke-width: 1.5; stroke-linecap: square"/>
   </g>
   <g id="patch_13">
    <path d="M 501.19 179.44 
L 501.19 26.88 
" style="fill: none; stroke: #000000; stroke-width: 0.8; stroke-linejoin: miter; stroke-linecap: square"/>
   </g>
   <g id="patch_14">
    <path d="M 709.2 179.44 
L 709.2 26.88 
" style="fill: none; stroke: #000000; stroke-width: 0.8; stroke-linejoin: miter; stroke-linecap: square"/>
   </g>
   <g id="patch_15">
    <path d="M 501.19 179.44 
L 709.2 179.44 
" style="fill: none; stroke: #000000; stroke-width: 0.8; stroke-linejoin: miter; stroke-linecap: square"/>
   </g>
   <g id="patch_16">
    <path d="M 501.19 26.88 
L 709.2 26.88 
" style="fill: none; stroke: #000000; stroke-width: 0.8; stroke-linejoin: miter; stroke-linecap: square"/>
   </g>
   <g id="text_33">
    <!-- EX_etoh_e -->
    <g transform="translate(574.084062 20.88) scale(0.12 -0.12)">
     <use xlink:href="#DejaVuSans-45"/>
     <use xlink:href="#DejaVuSans-58" x="63.183594"/>
     <use xlink:href="#DejaVuSans-5f" x="131.689453"/>
     <use xlink:href="#DejaVuSans-65" x="181.689453"/>
     <use xlink:href="#DejaVuSans-74" x="243.212891"/>
     <use xlink:href="#DejaVuSans-6f" x="282.421875"/>
     <use xlink:href="#DejaVuSans-68" x="343.603516"/>
     <use xlink:href="#DejaVuSans-5f" x="406.982422"/>
     <use xlink:href="#DejaVuSans-65" x="456.982422"/>
    </g>
   </g>
  </g>
  <g id="axes_4">
   <g id="patch_17">
    <path d="M 24.19 390.04 
L 232.2 390.04 
L 232.2 237.48 
L 24.19 237.48 
z
" style="fill: #ffffff"/>
   </g>
   <g id="PolyCollection_4">
    <defs>
     <path id="m5e11853500" d="M 33.645 -187.585455 
L 33.645 -48.894545 
L 43.597632 -48.894545 
L 53.550263 -48.894545 
L 63.502895 -48.894545 
L 73.455526 -48.894545 
L 83.408158 -48.894545 
L 93.360789 -48.894545 
L 103.313421 -48.894545 
L 113.266053 -48.894545 
L 123.218684 -48.894545 
L 133.171316 -48.894545 
L 143.123947 -48.894545 
L 153.076579 -48.894545 
L 163.029211 -48.894545 
L 172.981842 -48.894545 
L 182.934474 -48.894545 
L 192.887105 -48.894545 
L 202.839737 -48.894545 
L 212.792368 -48.894545 
L 222.745 -48.894545 
L 222.745 -48.894545 
L 222.745 -48.894545 
L 212.792368 -70.451336 
L 202.839737 -91.933551 
L 192.887105 -113.288585 
L 182.934474 -134.588722 
L 172.981842 -155.582168 
L 163.029211 -169.23728 
L 153.076579 -170.946579 
L 143.123947 -172.567684 
L 133.171316 -174.161144 
L 123.218684 -175.688556 
L 113.266053 -177.154221 
L 103.313421 -178.619886 
L 93.360789 -179.930327 
L 83.408158 -181.206182 
L 73.455526 -182.482036 
L 63.502895 -183.757891 
L 53.550263 -185.033745 
L 43.597632 -186.3096 
L 33.645 -187.585455 
z
" style="stroke: #00bfbf; stroke-opacity: 0.2"/>
    </defs>
    <g clip-path="url(#pb5b7102ab6)">
     <use xlink:href="#m5e11853500" x="0" y="432" style="fill: #00bfbf; fill-opacity: 0.2; stroke: #00bfbf; stroke-opacity: 0.2"/>
    </g>
   </g>
   <g id="matplotlib.axis_7">
    <g id="xtick_13">
     <g id="line2d_34">
      <g>
       <use xlink:href="#m564e13a18c" x="33.645" y="390.04" style="stroke: #000000; stroke-width: 0.8"/>
      </g>
     </g>
     <g id="text_34">
      <!-- 0.0 -->
      <g transform="translate(25.693438 404.638437) scale(0.1 -0.1)">
       <use xlink:href="#DejaVuSans-30"/>
       <use xlink:href="#DejaVuSans-2e" x="63.623047"/>
       <use xlink:href="#DejaVuSans-30" x="95.410156"/>
      </g>
     </g>
    </g>
    <g id="xtick_14">
     <g id="line2d_35">
      <g>
       <use xlink:href="#m564e13a18c" x="92.968449" y="390.04" style="stroke: #000000; stroke-width: 0.8"/>
      </g>
     </g>
     <g id="text_35">
      <!-- 0.1 -->
      <g transform="translate(85.016886 404.638437) scale(0.1 -0.1)">
       <use xlink:href="#DejaVuSans-30"/>
       <use xlink:href="#DejaVuSans-2e" x="63.623047"/>
       <use xlink:href="#DejaVuSans-31" x="95.410156"/>
      </g>
     </g>
    </g>
    <g id="xtick_15">
     <g id="line2d_36">
      <g>
       <use xlink:href="#m564e13a18c" x="152.291898" y="390.04" style="stroke: #000000; stroke-width: 0.8"/>
      </g>
     </g>
     <g id="text_36">
      <!-- 0.2 -->
      <g transform="translate(144.340335 404.638437) scale(0.1 -0.1)">
       <use xlink:href="#DejaVuSans-30"/>
       <use xlink:href="#DejaVuSans-2e" x="63.623047"/>
       <use xlink:href="#DejaVuSans-32" x="95.410156"/>
      </g>
     </g>
    </g>
    <g id="xtick_16">
     <g id="line2d_37">
      <g>
       <use xlink:href="#m564e13a18c" x="211.615346" y="390.04" style="stroke: #000000; stroke-width: 0.8"/>
      </g>
     </g>
     <g id="text_37">
      <!-- 0.3 -->
      <g transform="translate(203.663784 404.638437) scale(0.1 -0.1)">
       <use xlink:href="#DejaVuSans-30"/>
       <use xlink:href="#DejaVuSans-2e" x="63.623047"/>
       <use xlink:href="#DejaVuSans-33" x="95.410156"/>
      </g>
     </g>
    </g>
    <g id="text_38">
     <!-- Growth -->
     <g transform="translate(110.100469 418.316562) scale(0.1 -0.1)">
      <use xlink:href="#DejaVuSans-47"/>
      <use xlink:href="#DejaVuSans-72" x="77.490234"/>
      <use xlink:href="#DejaVuSans-6f" x="116.353516"/>
      <use xlink:href="#DejaVuSans-77" x="177.535156"/>
      <use xlink:href="#DejaVuSans-74" x="259.322266"/>
      <use xlink:href="#DejaVuSans-68" x="298.53125"/>
     </g>
    </g>
   </g>
   <g id="matplotlib.axis_8">
    <g id="ytick_16">
     <g id="line2d_38">
      <g>
       <use xlink:href="#mc88a3c3882" x="24.19" y="383.105455" style="stroke: #000000; stroke-width: 0.8"/>
      </g>
     </g>
     <g id="text_39">
      <!-- 0 -->
      <g transform="translate(10.8275 386.904673) scale(0.1 -0.1)">
       <use xlink:href="#DejaVuSans-30"/>
      </g>
     </g>
    </g>
    <g id="ytick_17">
     <g id="line2d_39">
      <g>
       <use xlink:href="#mc88a3c3882" x="24.19" y="352.006177" style="stroke: #000000; stroke-width: 0.8"/>
      </g>
     </g>
     <g id="text_40">
      <!-- 2 -->
      <g transform="translate(10.8275 355.805396) scale(0.1 -0.1)">
       <use xlink:href="#DejaVuSans-32"/>
      </g>
     </g>
    </g>
    <g id="ytick_18">
     <g id="line2d_40">
      <g>
       <use xlink:href="#mc88a3c3882" x="24.19" y="320.9069" style="stroke: #000000; stroke-width: 0.8"/>
      </g>
     </g>
     <g id="text_41">
      <!-- 4 -->
      <g transform="translate(10.8275 324.706119) scale(0.1 -0.1)">
       <use xlink:href="#DejaVuSans-34"/>
      </g>
     </g>
    </g>
    <g id="ytick_19">
     <g id="line2d_41">
      <g>
       <use xlink:href="#mc88a3c3882" x="24.19" y="289.807623" style="stroke: #000000; stroke-width: 0.8"/>
      </g>
     </g>
     <g id="text_42">
      <!-- 6 -->
      <g transform="translate(10.8275 293.606841) scale(0.1 -0.1)">
       <use xlink:href="#DejaVuSans-36"/>
      </g>
     </g>
    </g>
    <g id="ytick_20">
     <g id="line2d_42">
      <g>
       <use xlink:href="#mc88a3c3882" x="24.19" y="258.708345" style="stroke: #000000; stroke-width: 0.8"/>
      </g>
     </g>
     <g id="text_43">
      <!-- 8 -->
      <g transform="translate(10.8275 262.507564) scale(0.1 -0.1)">
       <use xlink:href="#DejaVuSans-38"/>
      </g>
     </g>
    </g>
   </g>
   <g id="line2d_43">
    <path d="M 33.645 244.414545 
L 43.597632 245.6904 
L 53.550263 246.966255 
L 63.502895 248.242109 
L 73.455526 249.517964 
L 83.408158 250.793818 
L 93.360789 252.069673 
L 103.313421 253.380114 
L 113.266053 254.845779 
L 123.218684 256.311444 
L 133.171316 257.838856 
L 143.123947 259.432316 
L 153.076579 261.053421 
L 163.029211 262.76272 
L 172.981842 276.417832 
L 182.934474 297.411278 
L 192.887105 318.711415 
L 202.839737 340.066449 
L 212.792368 361.548664 
L 222.745 383.105455 
" clip-path="url(#pb5b7102ab6)" style="fill: none; stroke: #00bfbf; stroke-width: 1.5; stroke-linecap: square"/>
   </g>
   <g id="line2d_44">
    <path d="M 33.645 383.105455 
L 43.597632 383.105455 
L 53.550263 383.105455 
L 63.502895 383.105455 
L 73.455526 383.105455 
L 83.408158 383.105455 
L 93.360789 383.105455 
L 103.313421 383.105455 
L 113.266053 383.105455 
L 123.218684 383.105455 
L 133.171316 383.105455 
L 143.123947 383.105455 
L 153.076579 383.105455 
L 163.029211 383.105455 
L 172.981842 383.105455 
L 182.934474 383.105455 
L 192.887105 383.105455 
L 202.839737 383.105455 
L 212.792368 383.105455 
L 222.745 383.105455 
" clip-path="url(#pb5b7102ab6)" style="fill: none; stroke: #00bfbf; stroke-width: 1.5; stroke-linecap: square"/>
   </g>
   <g id="patch_18">
    <path d="M 24.19 390.04 
L 24.19 237.48 
" style="fill: none; stroke: #000000; stroke-width: 0.8; stroke-linejoin: miter; stroke-linecap: square"/>
   </g>
   <g id="patch_19">
    <path d="M 232.2 390.04 
L 232.2 237.48 
" style="fill: none; stroke: #000000; stroke-width: 0.8; stroke-linejoin: miter; stroke-linecap: square"/>
   </g>
   <g id="patch_20">
    <path d="M 24.19 390.04 
L 232.2 390.04 
" style="fill: none; stroke: #000000; stroke-width: 0.8; stroke-linejoin: miter; stroke-linecap: square"/>
   </g>
   <g id="patch_21">
    <path d="M 24.19 237.48 
L 232.2 237.48 
" style="fill: none; stroke: #000000; stroke-width: 0.8; stroke-linejoin: miter; stroke-linecap: square"/>
   </g>
   <g id="text_44">
    <!-- EX_btoh_e -->
    <g transform="translate(96.966875 231.48) scale(0.12 -0.12)">
     <use xlink:href="#DejaVuSans-45"/>
     <use xlink:href="#DejaVuSans-58" x="63.183594"/>
     <use xlink:href="#DejaVuSans-5f" x="131.689453"/>
     <use xlink:href="#DejaVuSans-62" x="181.689453"/>
     <use xlink:href="#DejaVuSans-74" x="245.166016"/>
     <use xlink:href="#DejaVuSans-6f" x="284.375"/>
     <use xlink:href="#DejaVuSans-68" x="345.556641"/>
     <use xlink:href="#DejaVuSans-5f" x="408.935547"/>
     <use xlink:href="#DejaVuSans-65" x="458.935547"/>
    </g>
   </g>
  </g>
  <g id="axes_5">
   <g id="patch_22">
    <path d="M 262.69 390.04 
L 470.7 390.04 
L 470.7 237.48 
L 262.69 237.48 
z
" style="fill: #ffffff"/>
   </g>
   <g id="PolyCollection_5">
    <defs>
     <path id="m813743e0cc" d="M 272.145 -187.585455 
L 272.145 -48.894545 
L 282.097632 -48.894566 
L 292.050263 -48.894586 
L 302.002895 -48.894606 
L 311.955526 -48.894627 
L 321.908158 -48.894647 
L 331.860789 -48.894667 
L 341.813421 -48.894687 
L 351.766053 -48.894708 
L 361.718684 -48.894728 
L 371.671316 -48.894748 
L 381.623947 -48.894768 
L 391.576579 -48.894789 
L 401.529211 -48.894809 
L 411.481842 -48.894829 
L 421.434474 -48.89485 
L 431.387105 -48.89487 
L 441.339737 -48.89489 
L 451.292368 -48.89491 
L 461.245 -48.894931 
L 461.245 -48.894931 
L 461.245 -48.894931 
L 451.292368 -65.626237 
L 441.339737 -82.299662 
L 431.387105 -94.997262 
L 421.434474 -102.615185 
L 411.481842 -109.879449 
L 401.529211 -117.08211 
L 391.576579 -124.165085 
L 381.623947 -131.248061 
L 371.671316 -138.330817 
L 361.718684 -145.300243 
L 351.766053 -152.022509 
L 341.813421 -158.715087 
L 331.860789 -164.951721 
L 321.908158 -169.687409 
L 311.955526 -173.278472 
L 302.002895 -176.855218 
L 292.050263 -180.431963 
L 282.097632 -184.008709 
L 272.145 -187.585455 
z
" style="stroke: #bf00bf; stroke-opacity: 0.2"/>
    </defs>
    <g clip-path="url(#p5a8b15287f)">
     <use xlink:href="#m813743e0cc" x="0" y="432" style="fill: #bf00bf; fill-opacity: 0.2; stroke: #bf00bf; stroke-opacity: 0.2"/>
    </g>
   </g>
   <g id="matplotlib.axis_9">
    <g id="xtick_17">
     <g id="line2d_45">
      <g>
       <use xlink:href="#m564e13a18c" x="272.145" y="390.04" style="stroke: #000000; stroke-width: 0.8"/>
      </g>
     </g>
     <g id="text_45">
      <!-- 0.0 -->
      <g transform="translate(264.193438 404.638437) scale(0.1 -0.1)">
       <use xlink:href="#DejaVuSans-30"/>
       <use xlink:href="#DejaVuSans-2e" x="63.623047"/>
       <use xlink:href="#DejaVuSans-30" x="95.410156"/>
      </g>
     </g>
    </g>
    <g id="xtick_18">
     <g id="line2d_46">
      <g>
       <use xlink:href="#m564e13a18c" x="331.468449" y="390.04" style="stroke: #000000; stroke-width: 0.8"/>
      </g>
     </g>
     <g id="text_46">
      <!-- 0.1 -->
      <g transform="translate(323.516886 404.638437) scale(0.1 -0.1)">
       <use xlink:href="#DejaVuSans-30"/>
       <use xlink:href="#DejaVuSans-2e" x="63.623047"/>
       <use xlink:href="#DejaVuSans-31" x="95.410156"/>
      </g>
     </g>
    </g>
    <g id="xtick_19">
     <g id="line2d_47">
      <g>
       <use xlink:href="#m564e13a18c" x="390.791898" y="390.04" style="stroke: #000000; stroke-width: 0.8"/>
      </g>
     </g>
     <g id="text_47">
      <!-- 0.2 -->
      <g transform="translate(382.840335 404.638437) scale(0.1 -0.1)">
       <use xlink:href="#DejaVuSans-30"/>
       <use xlink:href="#DejaVuSans-2e" x="63.623047"/>
       <use xlink:href="#DejaVuSans-32" x="95.410156"/>
      </g>
     </g>
    </g>
    <g id="xtick_20">
     <g id="line2d_48">
      <g>
       <use xlink:href="#m564e13a18c" x="450.115346" y="390.04" style="stroke: #000000; stroke-width: 0.8"/>
      </g>
     </g>
     <g id="text_48">
      <!-- 0.3 -->
      <g transform="translate(442.163784 404.638437) scale(0.1 -0.1)">
       <use xlink:href="#DejaVuSans-30"/>
       <use xlink:href="#DejaVuSans-2e" x="63.623047"/>
       <use xlink:href="#DejaVuSans-33" x="95.410156"/>
      </g>
     </g>
    </g>
    <g id="text_49">
     <!-- Growth -->
     <g transform="translate(348.600469 418.316562) scale(0.1 -0.1)">
      <use xlink:href="#DejaVuSans-47"/>
      <use xlink:href="#DejaVuSans-72" x="77.490234"/>
      <use xlink:href="#DejaVuSans-6f" x="116.353516"/>
      <use xlink:href="#DejaVuSans-77" x="177.535156"/>
      <use xlink:href="#DejaVuSans-74" x="259.322266"/>
      <use xlink:href="#DejaVuSans-68" x="298.53125"/>
     </g>
    </g>
   </g>
   <g id="matplotlib.axis_10">
    <g id="ytick_21">
     <g id="line2d_49">
      <g>
       <use xlink:href="#mc88a3c3882" x="262.69" y="383.105455" style="stroke: #000000; stroke-width: 0.8"/>
      </g>
     </g>
     <g id="text_50">
      <!-- 0 -->
      <g transform="translate(249.3275 386.904673) scale(0.1 -0.1)">
       <use xlink:href="#DejaVuSans-30"/>
      </g>
     </g>
    </g>
    <g id="ytick_22">
     <g id="line2d_50">
      <g>
       <use xlink:href="#mc88a3c3882" x="262.69" y="358.937843" style="stroke: #000000; stroke-width: 0.8"/>
      </g>
     </g>
     <g id="text_51">
      <!-- 2 -->
      <g transform="translate(249.3275 362.737061) scale(0.1 -0.1)">
       <use xlink:href="#DejaVuSans-32"/>
      </g>
     </g>
    </g>
    <g id="ytick_23">
     <g id="line2d_51">
      <g>
       <use xlink:href="#mc88a3c3882" x="262.69" y="334.77023" style="stroke: #000000; stroke-width: 0.8"/>
      </g>
     </g>
     <g id="text_52">
      <!-- 4 -->
      <g transform="translate(249.3275 338.569449) scale(0.1 -0.1)">
       <use xlink:href="#DejaVuSans-34"/>
      </g>
     </g>
    </g>
    <g id="ytick_24">
     <g id="line2d_52">
      <g>
       <use xlink:href="#mc88a3c3882" x="262.69" y="310.602618" style="stroke: #000000; stroke-width: 0.8"/>
      </g>
     </g>
     <g id="text_53">
      <!-- 6 -->
      <g transform="translate(249.3275 314.401837) scale(0.1 -0.1)">
       <use xlink:href="#DejaVuSans-36"/>
      </g>
     </g>
    </g>
    <g id="ytick_25">
     <g id="line2d_53">
      <g>
       <use xlink:href="#mc88a3c3882" x="262.69" y="286.435006" style="stroke: #000000; stroke-width: 0.8"/>
      </g>
     </g>
     <g id="text_54">
      <!-- 8 -->
      <g transform="translate(249.3275 290.234225) scale(0.1 -0.1)">
       <use xlink:href="#DejaVuSans-38"/>
      </g>
     </g>
    </g>
    <g id="ytick_26">
     <g id="line2d_54">
      <g>
       <use xlink:href="#mc88a3c3882" x="262.69" y="262.267394" style="stroke: #000000; stroke-width: 0.8"/>
      </g>
     </g>
     <g id="text_55">
      <!-- 10 -->
      <g transform="translate(242.965 266.066613) scale(0.1 -0.1)">
       <use xlink:href="#DejaVuSans-31"/>
       <use xlink:href="#DejaVuSans-30" x="63.623047"/>
      </g>
     </g>
    </g>
    <g id="ytick_27">
     <g id="line2d_55">
      <g>
       <use xlink:href="#mc88a3c3882" x="262.69" y="238.099782" style="stroke: #000000; stroke-width: 0.8"/>
      </g>
     </g>
     <g id="text_56">
      <!-- 12 -->
      <g transform="translate(242.965 241.899001) scale(0.1 -0.1)">
       <use xlink:href="#DejaVuSans-31"/>
       <use xlink:href="#DejaVuSans-32" x="63.623047"/>
      </g>
     </g>
    </g>
   </g>
   <g id="line2d_56">
    <path d="M 272.145 244.414545 
L 282.097632 247.991291 
L 292.050263 251.568037 
L 302.002895 255.144782 
L 311.955526 258.721528 
L 321.908158 262.312591 
L 331.860789 267.048279 
L 341.813421 273.284913 
L 351.766053 279.977491 
L 361.718684 286.699757 
L 371.671316 293.669183 
L 381.623947 300.751939 
L 391.576579 307.834915 
L 401.529211 314.91789 
L 411.481842 322.120551 
L 421.434474 329.384815 
L 431.387105 337.002738 
L 441.339737 349.700338 
L 451.292368 366.373763 
L 461.245 383.105069 
" clip-path="url(#p5a8b15287f)" style="fill: none; stroke: #bf00bf; stroke-width: 1.5; stroke-linecap: square"/>
   </g>
   <g id="line2d_57">
    <path d="M 272.145 383.105455 
L 282.097632 383.105434 
L 292.050263 383.105414 
L 302.002895 383.105394 
L 311.955526 383.105373 
L 321.908158 383.105353 
L 331.860789 383.105333 
L 341.813421 383.105313 
L 351.766053 383.105292 
L 361.718684 383.105272 
L 371.671316 383.105252 
L 381.623947 383.105232 
L 391.576579 383.105211 
L 401.529211 383.105191 
L 411.481842 383.105171 
L 421.434474 383.10515 
L 431.387105 383.10513 
L 441.339737 383.10511 
L 451.292368 383.10509 
L 461.245 383.105069 
" clip-path="url(#p5a8b15287f)" style="fill: none; stroke: #bf00bf; stroke-width: 1.5; stroke-linecap: square"/>
   </g>
   <g id="patch_23">
    <path d="M 262.69 390.04 
L 262.69 237.48 
" style="fill: none; stroke: #000000; stroke-width: 0.8; stroke-linejoin: miter; stroke-linecap: square"/>
   </g>
   <g id="patch_24">
    <path d="M 470.7 390.04 
L 470.7 237.48 
" style="fill: none; stroke: #000000; stroke-width: 0.8; stroke-linejoin: miter; stroke-linecap: square"/>
   </g>
   <g id="patch_25">
    <path d="M 262.69 390.04 
L 470.7 390.04 
" style="fill: none; stroke: #000000; stroke-width: 0.8; stroke-linejoin: miter; stroke-linecap: square"/>
   </g>
   <g id="patch_26">
    <path d="M 262.69 237.48 
L 470.7 237.48 
" style="fill: none; stroke: #000000; stroke-width: 0.8; stroke-linejoin: miter; stroke-linecap: square"/>
   </g>
   <g id="text_57">
    <!-- EX_acetone_e -->
    <g transform="translate(324.91625 231.48) scale(0.12 -0.12)">
     <defs>
      <path id="DejaVuSans-6e" d="M 3513 2113 
L 3513 0 
L 2938 0 
L 2938 2094 
Q 2938 2591 2744 2837 
Q 2550 3084 2163 3084 
Q 1697 3084 1428 2787 
Q 1159 2491 1159 1978 
L 1159 0 
L 581 0 
L 581 3500 
L 1159 3500 
L 1159 2956 
Q 1366 3272 1645 3428 
Q 1925 3584 2291 3584 
Q 2894 3584 3203 3211 
Q 3513 2838 3513 2113 
z
" transform="scale(0.015625)"/>
     </defs>
     <use xlink:href="#DejaVuSans-45"/>
     <use xlink:href="#DejaVuSans-58" x="63.183594"/>
     <use xlink:href="#DejaVuSans-5f" x="131.689453"/>
     <use xlink:href="#DejaVuSans-61" x="181.689453"/>
     <use xlink:href="#DejaVuSans-63" x="242.96875"/>
     <use xlink:href="#DejaVuSans-65" x="297.949219"/>
     <use xlink:href="#DejaVuSans-74" x="359.472656"/>
     <use xlink:href="#DejaVuSans-6f" x="398.681641"/>
     <use xlink:href="#DejaVuSans-6e" x="459.863281"/>
     <use xlink:href="#DejaVuSans-65" x="523.242188"/>
     <use xlink:href="#DejaVuSans-5f" x="584.765625"/>
     <use xlink:href="#DejaVuSans-65" x="634.765625"/>
    </g>
   </g>
  </g>
  <g id="axes_6">
   <g id="patch_27">
    <path d="M 501.19 390.04 
L 709.2 390.04 
L 709.2 237.48 
L 501.19 237.48 
z
" style="fill: #ffffff"/>
   </g>
   <g id="PolyCollection_6">
    <defs>
     <path id="m232e9bed63" d="M 510.645 -187.585455 
L 510.645 -48.894545 
L 520.597632 -48.894545 
L 530.550263 -48.894545 
L 540.502895 -48.894545 
L 550.455526 -48.894545 
L 560.408158 -48.894545 
L 570.360789 -48.894545 
L 580.313421 -48.894545 
L 590.266053 -48.894545 
L 600.218684 -48.894545 
L 610.171316 -48.894545 
L 620.123947 -48.894545 
L 630.076579 -48.894545 
L 640.029211 -48.894545 
L 649.981842 -50.658097 
L 659.934474 -60.135117 
L 669.887105 -69.991442 
L 679.839737 -82.834519 
L 689.792368 -98.309574 
L 699.745 -115.900304 
L 699.745 -115.900304 
L 699.745 -115.900304 
L 689.792368 -126.592946 
L 679.839737 -137.087474 
L 669.887105 -145.237312 
L 659.934474 -148.606785 
L 649.981842 -151.299533 
L 640.029211 -153.988232 
L 630.076579 -156.671414 
L 620.123947 -159.354596 
L 610.171316 -162.018338 
L 600.218684 -164.660559 
L 590.266053 -167.30278 
L 580.313421 -169.945001 
L 570.360789 -172.495852 
L 560.408158 -175.026345 
L 550.455526 -177.539374 
L 540.502895 -180.050894 
L 530.550263 -182.562414 
L 520.597632 -185.073934 
L 510.645 -187.585455 
z
" style="stroke: #bfbf00; stroke-opacity: 0.2"/>
    </defs>
    <g clip-path="url(#p69bfc42999)">
     <use xlink:href="#m232e9bed63" x="0" y="432" style="fill: #bfbf00; fill-opacity: 0.2; stroke: #bfbf00; stroke-opacity: 0.2"/>
    </g>
   </g>
   <g id="matplotlib.axis_11">
    <g id="xtick_21">
     <g id="line2d_58">
      <g>
       <use xlink:href="#m564e13a18c" x="510.645" y="390.04" style="stroke: #000000; stroke-width: 0.8"/>
      </g>
     </g>
     <g id="text_58">
      <!-- 0.0 -->
      <g transform="translate(502.693437 404.638437) scale(0.1 -0.1)">
       <use xlink:href="#DejaVuSans-30"/>
       <use xlink:href="#DejaVuSans-2e" x="63.623047"/>
       <use xlink:href="#DejaVuSans-30" x="95.410156"/>
      </g>
     </g>
    </g>
    <g id="xtick_22">
     <g id="line2d_59">
      <g>
       <use xlink:href="#m564e13a18c" x="569.968449" y="390.04" style="stroke: #000000; stroke-width: 0.8"/>
      </g>
     </g>
     <g id="text_59">
      <!-- 0.1 -->
      <g transform="translate(562.016886 404.638437) scale(0.1 -0.1)">
       <use xlink:href="#DejaVuSans-30"/>
       <use xlink:href="#DejaVuSans-2e" x="63.623047"/>
       <use xlink:href="#DejaVuSans-31" x="95.410156"/>
      </g>
     </g>
    </g>
    <g id="xtick_23">
     <g id="line2d_60">
      <g>
       <use xlink:href="#m564e13a18c" x="629.291898" y="390.04" style="stroke: #000000; stroke-width: 0.8"/>
      </g>
     </g>
     <g id="text_60">
      <!-- 0.2 -->
      <g transform="translate(621.340335 404.638437) scale(0.1 -0.1)">
       <use xlink:href="#DejaVuSans-30"/>
       <use xlink:href="#DejaVuSans-2e" x="63.623047"/>
       <use xlink:href="#DejaVuSans-32" x="95.410156"/>
      </g>
     </g>
    </g>
    <g id="xtick_24">
     <g id="line2d_61">
      <g>
       <use xlink:href="#m564e13a18c" x="688.615346" y="390.04" style="stroke: #000000; stroke-width: 0.8"/>
      </g>
     </g>
     <g id="text_61">
      <!-- 0.3 -->
      <g transform="translate(680.663784 404.638437) scale(0.1 -0.1)">
       <use xlink:href="#DejaVuSans-30"/>
       <use xlink:href="#DejaVuSans-2e" x="63.623047"/>
       <use xlink:href="#DejaVuSans-33" x="95.410156"/>
      </g>
     </g>
    </g>
    <g id="text_62">
     <!-- Growth -->
     <g transform="translate(587.100469 418.316562) scale(0.1 -0.1)">
      <use xlink:href="#DejaVuSans-47"/>
      <use xlink:href="#DejaVuSans-72" x="77.490234"/>
      <use xlink:href="#DejaVuSans-6f" x="116.353516"/>
      <use xlink:href="#DejaVuSans-77" x="177.535156"/>
      <use xlink:href="#DejaVuSans-74" x="259.322266"/>
      <use xlink:href="#DejaVuSans-68" x="298.53125"/>
     </g>
    </g>
   </g>
   <g id="matplotlib.axis_12">
    <g id="ytick_28">
     <g id="line2d_62">
      <g>
       <use xlink:href="#mc88a3c3882" x="501.19" y="383.105455" style="stroke: #000000; stroke-width: 0.8"/>
      </g>
     </g>
     <g id="text_63">
      <!-- 0 -->
      <g transform="translate(487.8275 386.904673) scale(0.1 -0.1)">
       <use xlink:href="#DejaVuSans-30"/>
      </g>
     </g>
    </g>
    <g id="ytick_29">
     <g id="line2d_63">
      <g>
       <use xlink:href="#mc88a3c3882" x="501.19" y="354.354049" style="stroke: #000000; stroke-width: 0.8"/>
      </g>
     </g>
     <g id="text_64">
      <!-- 5 -->
      <g transform="translate(487.8275 358.153268) scale(0.1 -0.1)">
       <use xlink:href="#DejaVuSans-35"/>
      </g>
     </g>
    </g>
    <g id="ytick_30">
     <g id="line2d_64">
      <g>
       <use xlink:href="#mc88a3c3882" x="501.19" y="325.602644" style="stroke: #000000; stroke-width: 0.8"/>
      </g>
     </g>
     <g id="text_65">
      <!-- 10 -->
      <g transform="translate(481.465 329.401862) scale(0.1 -0.1)">
       <use xlink:href="#DejaVuSans-31"/>
       <use xlink:href="#DejaVuSans-30" x="63.623047"/>
      </g>
     </g>
    </g>
    <g id="ytick_31">
     <g id="line2d_65">
      <g>
       <use xlink:href="#mc88a3c3882" x="501.19" y="296.851238" style="stroke: #000000; stroke-width: 0.8"/>
      </g>
     </g>
     <g id="text_66">
      <!-- 15 -->
      <g transform="translate(481.465 300.650457) scale(0.1 -0.1)">
       <use xlink:href="#DejaVuSans-31"/>
       <use xlink:href="#DejaVuSans-35" x="63.623047"/>
      </g>
     </g>
    </g>
    <g id="ytick_32">
     <g id="line2d_66">
      <g>
       <use xlink:href="#mc88a3c3882" x="501.19" y="268.099833" style="stroke: #000000; stroke-width: 0.8"/>
      </g>
     </g>
     <g id="text_67">
      <!-- 20 -->
      <g transform="translate(481.465 271.899052) scale(0.1 -0.1)">
       <use xlink:href="#DejaVuSans-32"/>
       <use xlink:href="#DejaVuSans-30" x="63.623047"/>
      </g>
     </g>
    </g>
    <g id="ytick_33">
     <g id="line2d_67">
      <g>
       <use xlink:href="#mc88a3c3882" x="501.19" y="239.348428" style="stroke: #000000; stroke-width: 0.8"/>
      </g>
     </g>
     <g id="text_68">
      <!-- 25 -->
      <g transform="translate(481.465 243.147646) scale(0.1 -0.1)">
       <use xlink:href="#DejaVuSans-32"/>
       <use xlink:href="#DejaVuSans-35" x="63.623047"/>
      </g>
     </g>
    </g>
   </g>
   <g id="line2d_68">
    <path d="M 510.645 244.414545 
L 520.597632 246.926066 
L 530.550263 249.437586 
L 540.502895 251.949106 
L 550.455526 254.460626 
L 560.408158 256.973655 
L 570.360789 259.504148 
L 580.313421 262.054999 
L 590.266053 264.69722 
L 600.218684 267.339441 
L 610.171316 269.981662 
L 620.123947 272.645404 
L 630.076579 275.328586 
L 640.029211 278.011768 
L 649.981842 280.700467 
L 659.934474 283.393215 
L 669.887105 286.762688 
L 679.839737 294.912526 
L 689.792368 305.407054 
L 699.745 316.099696 
" clip-path="url(#p69bfc42999)" style="fill: none; stroke: #bfbf00; stroke-width: 1.5; stroke-linecap: square"/>
   </g>
   <g id="line2d_69">
    <path d="M 510.645 383.105455 
L 520.597632 383.105455 
L 530.550263 383.105455 
L 540.502895 383.105455 
L 550.455526 383.105455 
L 560.408158 383.105455 
L 570.360789 383.105455 
L 580.313421 383.105455 
L 590.266053 383.105455 
L 600.218684 383.105455 
L 610.171316 383.105455 
L 620.123947 383.105455 
L 630.076579 383.105455 
L 640.029211 383.105455 
L 649.981842 381.341903 
L 659.934474 371.864883 
L 669.887105 362.008558 
L 679.839737 349.165481 
L 689.792368 333.690426 
L 699.745 316.099696 
" clip-path="url(#p69bfc42999)" style="fill: none; stroke: #bfbf00; stroke-width: 1.5; stroke-linecap: square"/>
   </g>
   <g id="patch_28">
    <path d="M 501.19 390.04 
L 501.19 237.48 
" style="fill: none; stroke: #000000; stroke-width: 0.8; stroke-linejoin: miter; stroke-linecap: square"/>
   </g>
   <g id="patch_29">
    <path d="M 709.2 390.04 
L 709.2 237.48 
" style="fill: none; stroke: #000000; stroke-width: 0.8; stroke-linejoin: miter; stroke-linecap: square"/>
   </g>
   <g id="patch_30">
    <path d="M 501.19 390.04 
L 709.2 390.04 
" style="fill: none; stroke: #000000; stroke-width: 0.8; stroke-linejoin: miter; stroke-linecap: square"/>
   </g>
   <g id="patch_31">
    <path d="M 501.19 237.48 
L 709.2 237.48 
" style="fill: none; stroke: #000000; stroke-width: 0.8; stroke-linejoin: miter; stroke-linecap: square"/>
   </g>
   <g id="text_69">
    <!-- EX_h2_e -->
    <g transform="translate(579.981875 231.48) scale(0.12 -0.12)">
     <use xlink:href="#DejaVuSans-45"/>
     <use xlink:href="#DejaVuSans-58" x="63.183594"/>
     <use xlink:href="#DejaVuSans-5f" x="131.689453"/>
     <use xlink:href="#DejaVuSans-68" x="181.689453"/>
     <use xlink:href="#DejaVuSans-32" x="245.068359"/>
     <use xlink:href="#DejaVuSans-5f" x="308.691406"/>
     <use xlink:href="#DejaVuSans-65" x="358.691406"/>
    </g>
   </g>
  </g>
 </g>
 <defs>
  <clipPath id="pddc7b516f3">
   <rect x="24.19" y="26.88" width="208.01" height="152.56"/>
  </clipPath>
  <clipPath id="p1bbc1e6fa7">
   <rect x="262.69" y="26.88" width="208.01" height="152.56"/>
  </clipPath>
  <clipPath id="p1da11b840d">
   <rect x="501.19" y="26.88" width="208.01" height="152.56"/>
  </clipPath>
  <clipPath id="pb5b7102ab6">
   <rect x="24.19" y="237.48" width="208.01" height="152.56"/>
  </clipPath>
  <clipPath id="p5a8b15287f">
   <rect x="262.69" y="237.48" width="208.01" height="152.56"/>
  </clipPath>
  <clipPath id="p69bfc42999">
   <rect x="501.19" y="237.48" width="208.01" height="152.56"/>
  </clipPath>
 </defs>
</svg>
