<?xml version="1.0" encoding="utf-8" standalone="no"?>
<!DOCTYPE svg PUBLIC "-//W3C//DTD SVG 1.1//EN"
  "http://www.w3.org/Graphics/SVG/1.1/DTD/svg11.dtd">
<svg xmlns:xlink="http://www.w3.org/1999/xlink" width="720pt" height="432pt" viewBox="0 0 720 432" xmlns="http://www.w3.org/2000/svg" version="1.1">
 <metadata>
  <rdf:RDF xmlns:dc="http://purl.org/dc/elements/1.1/" xmlns:cc="http://creativecommons.org/ns#" xmlns:rdf="http://www.w3.org/1999/02/22-rdf-syntax-ns#">
   <cc:Work>
    <dc:type rdf:resource="http://purl.org/dc/dcmitype/StillImage"/>
    <dc:date>2024-03-14T14:13:20.796626</dc:date>
    <dc:format>image/svg+xml</dc:format>
    <dc:creator>
     <cc:Agent>
      <dc:title>Matplotlib v3.6.2, https://matplotlib.org/</dc:title>
     </cc:Agent>
    </dc:creator>
   </cc:Work>
  </rdf:RDF>
 </metadata>
 <defs>
  <style type="text/css">*{stroke-linejoin: round; stroke-linecap: butt}</style>
 </defs>
 <g id="figure_1">
  <g id="patch_1">
   <path d="M 0 432 
L 720 432 
L 720 0 
L 0 0 
z
" style="fill: #ffffff"/>
  </g>
  <g id="axes_1">
   <g id="patch_2">
    <path d="M 54.02 179.44 
L 241.32 179.44 
L 241.32 26.88 
L 54.02 26.88 
z
" style="fill: #ffffff"/>
   </g>
   <g id="PolyCollection_1">
    <defs>
     <path id="m3c8ffe957d" d="M 62.533636 -398.185455 
L 62.533636 -259.494545 
L 71.495359 -259.494545 
L 80.457081 -259.494545 
L 89.418804 -259.494545 
L 98.380526 -259.494545 
L 107.342249 -259.494545 
L 116.303971 -259.494545 
L 125.265694 -261.60463 
L 134.227416 -270.812949 
L 143.189139 -280.248341 
L 152.150861 -289.795328 
L 161.112584 -299.363545 
L 170.074306 -308.982437 
L 179.036029 -318.682081 
L 187.997751 -328.498292 
L 196.959474 -338.43908 
L 205.921196 -348.383729 
L 214.882919 -358.636825 
L 223.844641 -377.871358 
L 232.806364 -398.185455 
L 232.806364 -398.185455 
L 232.806364 -398.185455 
L 223.844641 -398.185455 
L 214.882919 -398.185455 
L 205.921196 -398.185455 
L 196.959474 -398.185455 
L 187.997751 -398.185455 
L 179.036029 -398.185455 
L 170.074306 -398.185455 
L 161.112584 -398.185455 
L 152.150861 -398.185455 
L 143.189139 -398.185455 
L 134.227416 -398.185455 
L 125.265694 -398.185455 
L 116.303971 -398.185455 
L 107.342249 -398.185455 
L 98.380526 -398.185455 
L 89.418804 -398.185455 
L 80.457081 -398.185455 
L 71.495359 -398.185455 
L 62.533636 -398.185455 
z
" style="stroke: #0000ff; stroke-opacity: 0.2"/>
    </defs>
    <g clip-path="url(#p36fb2eea24)">
     <use xlink:href="#m3c8ffe957d" x="0" y="432" style="fill: #0000ff; fill-opacity: 0.2; stroke: #0000ff; stroke-opacity: 0.2"/>
    </g>
   </g>
   <g id="matplotlib.axis_1">
    <g id="xtick_1">
     <g id="line2d_1">
      <defs>
       <path id="m696c9b1c22" d="M 0 0 
L 0 3.5 
" style="stroke: #000000; stroke-width: 0.8"/>
      </defs>
      <g>
       <use xlink:href="#m696c9b1c22" x="62.533636" y="179.44" style="stroke: #000000; stroke-width: 0.8"/>
      </g>
     </g>
     <g id="text_1">
      <!-- 0.00 -->
      <g transform="translate(51.400824 194.038437) scale(0.1 -0.1)">
       <defs>
        <path id="DejaVuSans-30" d="M 2034 4250 
Q 1547 4250 1301 3770 
Q 1056 3291 1056 2328 
Q 1056 1369 1301 889 
Q 1547 409 2034 409 
Q 2525 409 2770 889 
Q 3016 1369 3016 2328 
Q 3016 3291 2770 3770 
Q 2525 4250 2034 4250 
z
M 2034 4750 
Q 2819 4750 3233 4129 
Q 3647 3509 3647 2328 
Q 3647 1150 3233 529 
Q 2819 -91 2034 -91 
Q 1250 -91 836 529 
Q 422 1150 422 2328 
Q 422 3509 836 4129 
Q 1250 4750 2034 4750 
z
" transform="scale(0.015625)"/>
        <path id="DejaVuSans-2e" d="M 684 794 
L 1344 794 
L 1344 0 
L 684 0 
L 684 794 
z
" transform="scale(0.015625)"/>
       </defs>
       <use xlink:href="#DejaVuSans-30"/>
       <use xlink:href="#DejaVuSans-2e" x="63.623047"/>
       <use xlink:href="#DejaVuSans-30" x="95.410156"/>
       <use xlink:href="#DejaVuSans-30" x="159.033203"/>
      </g>
     </g>
    </g>
    <g id="xtick_2">
     <g id="line2d_2">
      <g>
       <use xlink:href="#m696c9b1c22" x="95.088561" y="179.44" style="stroke: #000000; stroke-width: 0.8"/>
      </g>
     </g>
     <g id="text_2">
      <!-- 0.05 -->
      <g transform="translate(83.955749 194.038437) scale(0.1 -0.1)">
       <defs>
        <path id="DejaVuSans-35" d="M 691 4666 
L 3169 4666 
L 3169 4134 
L 1269 4134 
L 1269 2991 
Q 1406 3038 1543 3061 
Q 1681 3084 1819 3084 
Q 2600 3084 3056 2656 
Q 3513 2228 3513 1497 
Q 3513 744 3044 326 
Q 2575 -91 1722 -91 
Q 1428 -91 1123 -41 
Q 819 9 494 109 
L 494 744 
Q 775 591 1075 516 
Q 1375 441 1709 441 
Q 2250 441 2565 725 
Q 2881 1009 2881 1497 
Q 2881 1984 2565 2268 
Q 2250 2553 1709 2553 
Q 1456 2553 1204 2497 
Q 953 2441 691 2322 
L 691 4666 
z
" transform="scale(0.015625)"/>
       </defs>
       <use xlink:href="#DejaVuSans-30"/>
       <use xlink:href="#DejaVuSans-2e" x="63.623047"/>
       <use xlink:href="#DejaVuSans-30" x="95.410156"/>
       <use xlink:href="#DejaVuSans-35" x="159.033203"/>
      </g>
     </g>
    </g>
    <g id="xtick_3">
     <g id="line2d_3">
      <g>
       <use xlink:href="#m696c9b1c22" x="127.643486" y="179.44" style="stroke: #000000; stroke-width: 0.8"/>
      </g>
     </g>
     <g id="text_3">
      <!-- 0.10 -->
      <g transform="translate(116.510673 194.038437) scale(0.1 -0.1)">
       <defs>
        <path id="DejaVuSans-31" d="M 794 531 
L 1825 531 
L 1825 4091 
L 703 3866 
L 703 4441 
L 1819 4666 
L 2450 4666 
L 2450 531 
L 3481 531 
L 3481 0 
L 794 0 
L 794 531 
z
" transform="scale(0.015625)"/>
       </defs>
       <use xlink:href="#DejaVuSans-30"/>
       <use xlink:href="#DejaVuSans-2e" x="63.623047"/>
       <use xlink:href="#DejaVuSans-31" x="95.410156"/>
       <use xlink:href="#DejaVuSans-30" x="159.033203"/>
      </g>
     </g>
    </g>
    <g id="xtick_4">
     <g id="line2d_4">
      <g>
       <use xlink:href="#m696c9b1c22" x="160.19841" y="179.44" style="stroke: #000000; stroke-width: 0.8"/>
      </g>
     </g>
     <g id="text_4">
      <!-- 0.15 -->
      <g transform="translate(149.065598 194.038437) scale(0.1 -0.1)">
       <use xlink:href="#DejaVuSans-30"/>
       <use xlink:href="#DejaVuSans-2e" x="63.623047"/>
       <use xlink:href="#DejaVuSans-31" x="95.410156"/>
       <use xlink:href="#DejaVuSans-35" x="159.033203"/>
      </g>
     </g>
    </g>
    <g id="xtick_5">
     <g id="line2d_5">
      <g>
       <use xlink:href="#m696c9b1c22" x="192.753335" y="179.44" style="stroke: #000000; stroke-width: 0.8"/>
      </g>
     </g>
     <g id="text_5">
      <!-- 0.20 -->
      <g transform="translate(181.620523 194.038437) scale(0.1 -0.1)">
       <defs>
        <path id="DejaVuSans-32" d="M 1228 531 
L 3431 531 
L 3431 0 
L 469 0 
L 469 531 
Q 828 903 1448 1529 
Q 2069 2156 2228 2338 
Q 2531 2678 2651 2914 
Q 2772 3150 2772 3378 
Q 2772 3750 2511 3984 
Q 2250 4219 1831 4219 
Q 1534 4219 1204 4116 
Q 875 4013 500 3803 
L 500 4441 
Q 881 4594 1212 4672 
Q 1544 4750 1819 4750 
Q 2544 4750 2975 4387 
Q 3406 4025 3406 3419 
Q 3406 3131 3298 2873 
Q 3191 2616 2906 2266 
Q 2828 2175 2409 1742 
Q 1991 1309 1228 531 
z
" transform="scale(0.015625)"/>
       </defs>
       <use xlink:href="#DejaVuSans-30"/>
       <use xlink:href="#DejaVuSans-2e" x="63.623047"/>
       <use xlink:href="#DejaVuSans-32" x="95.410156"/>
       <use xlink:href="#DejaVuSans-30" x="159.033203"/>
      </g>
     </g>
    </g>
    <g id="xtick_6">
     <g id="line2d_6">
      <g>
       <use xlink:href="#m696c9b1c22" x="225.30826" y="179.44" style="stroke: #000000; stroke-width: 0.8"/>
      </g>
     </g>
     <g id="text_6">
      <!-- 0.25 -->
      <g transform="translate(214.175447 194.038437) scale(0.1 -0.1)">
       <use xlink:href="#DejaVuSans-30"/>
       <use xlink:href="#DejaVuSans-2e" x="63.623047"/>
       <use xlink:href="#DejaVuSans-32" x="95.410156"/>
       <use xlink:href="#DejaVuSans-35" x="159.033203"/>
      </g>
     </g>
    </g>
    <g id="text_7">
     <!-- Growth rate (gDW/h) -->
     <g transform="translate(95.518438 207.716562) scale(0.1 -0.1)">
      <defs>
       <path id="DejaVuSans-47" d="M 3809 666 
L 3809 1919 
L 2778 1919 
L 2778 2438 
L 4434 2438 
L 4434 434 
Q 4069 175 3628 42 
Q 3188 -91 2688 -91 
Q 1594 -91 976 548 
Q 359 1188 359 2328 
Q 359 3472 976 4111 
Q 1594 4750 2688 4750 
Q 3144 4750 3555 4637 
Q 3966 4525 4313 4306 
L 4313 3634 
Q 3963 3931 3569 4081 
Q 3175 4231 2741 4231 
Q 1884 4231 1454 3753 
Q 1025 3275 1025 2328 
Q 1025 1384 1454 906 
Q 1884 428 2741 428 
Q 3075 428 3337 486 
Q 3600 544 3809 666 
z
" transform="scale(0.015625)"/>
       <path id="DejaVuSans-72" d="M 2631 2963 
Q 2534 3019 2420 3045 
Q 2306 3072 2169 3072 
Q 1681 3072 1420 2755 
Q 1159 2438 1159 1844 
L 1159 0 
L 581 0 
L 581 3500 
L 1159 3500 
L 1159 2956 
Q 1341 3275 1631 3429 
Q 1922 3584 2338 3584 
Q 2397 3584 2469 3576 
Q 2541 3569 2628 3553 
L 2631 2963 
z
" transform="scale(0.015625)"/>
       <path id="DejaVuSans-6f" d="M 1959 3097 
Q 1497 3097 1228 2736 
Q 959 2375 959 1747 
Q 959 1119 1226 758 
Q 1494 397 1959 397 
Q 2419 397 2687 759 
Q 2956 1122 2956 1747 
Q 2956 2369 2687 2733 
Q 2419 3097 1959 3097 
z
M 1959 3584 
Q 2709 3584 3137 3096 
Q 3566 2609 3566 1747 
Q 3566 888 3137 398 
Q 2709 -91 1959 -91 
Q 1206 -91 779 398 
Q 353 888 353 1747 
Q 353 2609 779 3096 
Q 1206 3584 1959 3584 
z
" transform="scale(0.015625)"/>
       <path id="DejaVuSans-77" d="M 269 3500 
L 844 3500 
L 1563 769 
L 2278 3500 
L 2956 3500 
L 3675 769 
L 4391 3500 
L 4966 3500 
L 4050 0 
L 3372 0 
L 2619 2869 
L 1863 0 
L 1184 0 
L 269 3500 
z
" transform="scale(0.015625)"/>
       <path id="DejaVuSans-74" d="M 1172 4494 
L 1172 3500 
L 2356 3500 
L 2356 3053 
L 1172 3053 
L 1172 1153 
Q 1172 725 1289 603 
Q 1406 481 1766 481 
L 2356 481 
L 2356 0 
L 1766 0 
Q 1100 0 847 248 
Q 594 497 594 1153 
L 594 3053 
L 172 3053 
L 172 3500 
L 594 3500 
L 594 4494 
L 1172 4494 
z
" transform="scale(0.015625)"/>
       <path id="DejaVuSans-68" d="M 3513 2113 
L 3513 0 
L 2938 0 
L 2938 2094 
Q 2938 2591 2744 2837 
Q 2550 3084 2163 3084 
Q 1697 3084 1428 2787 
Q 1159 2491 1159 1978 
L 1159 0 
L 581 0 
L 581 4863 
L 1159 4863 
L 1159 2956 
Q 1366 3272 1645 3428 
Q 1925 3584 2291 3584 
Q 2894 3584 3203 3211 
Q 3513 2838 3513 2113 
z
" transform="scale(0.015625)"/>
       <path id="DejaVuSans-20" transform="scale(0.015625)"/>
       <path id="DejaVuSans-61" d="M 2194 1759 
Q 1497 1759 1228 1600 
Q 959 1441 959 1056 
Q 959 750 1161 570 
Q 1363 391 1709 391 
Q 2188 391 2477 730 
Q 2766 1069 2766 1631 
L 2766 1759 
L 2194 1759 
z
M 3341 1997 
L 3341 0 
L 2766 0 
L 2766 531 
Q 2569 213 2275 61 
Q 1981 -91 1556 -91 
Q 1019 -91 701 211 
Q 384 513 384 1019 
Q 384 1609 779 1909 
Q 1175 2209 1959 2209 
L 2766 2209 
L 2766 2266 
Q 2766 2663 2505 2880 
Q 2244 3097 1772 3097 
Q 1472 3097 1187 3025 
Q 903 2953 641 2809 
L 641 3341 
Q 956 3463 1253 3523 
Q 1550 3584 1831 3584 
Q 2591 3584 2966 3190 
Q 3341 2797 3341 1997 
z
" transform="scale(0.015625)"/>
       <path id="DejaVuSans-65" d="M 3597 1894 
L 3597 1613 
L 953 1613 
Q 991 1019 1311 708 
Q 1631 397 2203 397 
Q 2534 397 2845 478 
Q 3156 559 3463 722 
L 3463 178 
Q 3153 47 2828 -22 
Q 2503 -91 2169 -91 
Q 1331 -91 842 396 
Q 353 884 353 1716 
Q 353 2575 817 3079 
Q 1281 3584 2069 3584 
Q 2775 3584 3186 3129 
Q 3597 2675 3597 1894 
z
M 3022 2063 
Q 3016 2534 2758 2815 
Q 2500 3097 2075 3097 
Q 1594 3097 1305 2825 
Q 1016 2553 972 2059 
L 3022 2063 
z
" transform="scale(0.015625)"/>
       <path id="DejaVuSans-28" d="M 1984 4856 
Q 1566 4138 1362 3434 
Q 1159 2731 1159 2009 
Q 1159 1288 1364 580 
Q 1569 -128 1984 -844 
L 1484 -844 
Q 1016 -109 783 600 
Q 550 1309 550 2009 
Q 550 2706 781 3412 
Q 1013 4119 1484 4856 
L 1984 4856 
z
" transform="scale(0.015625)"/>
       <path id="DejaVuSans-67" d="M 2906 1791 
Q 2906 2416 2648 2759 
Q 2391 3103 1925 3103 
Q 1463 3103 1205 2759 
Q 947 2416 947 1791 
Q 947 1169 1205 825 
Q 1463 481 1925 481 
Q 2391 481 2648 825 
Q 2906 1169 2906 1791 
z
M 3481 434 
Q 3481 -459 3084 -895 
Q 2688 -1331 1869 -1331 
Q 1566 -1331 1297 -1286 
Q 1028 -1241 775 -1147 
L 775 -588 
Q 1028 -725 1275 -790 
Q 1522 -856 1778 -856 
Q 2344 -856 2625 -561 
Q 2906 -266 2906 331 
L 2906 616 
Q 2728 306 2450 153 
Q 2172 0 1784 0 
Q 1141 0 747 490 
Q 353 981 353 1791 
Q 353 2603 747 3093 
Q 1141 3584 1784 3584 
Q 2172 3584 2450 3431 
Q 2728 3278 2906 2969 
L 2906 3500 
L 3481 3500 
L 3481 434 
z
" transform="scale(0.015625)"/>
       <path id="DejaVuSans-44" d="M 1259 4147 
L 1259 519 
L 2022 519 
Q 2988 519 3436 956 
Q 3884 1394 3884 2338 
Q 3884 3275 3436 3711 
Q 2988 4147 2022 4147 
L 1259 4147 
z
M 628 4666 
L 1925 4666 
Q 3281 4666 3915 4102 
Q 4550 3538 4550 2338 
Q 4550 1131 3912 565 
Q 3275 0 1925 0 
L 628 0 
L 628 4666 
z
" transform="scale(0.015625)"/>
       <path id="DejaVuSans-57" d="M 213 4666 
L 850 4666 
L 1831 722 
L 2809 4666 
L 3519 4666 
L 4500 722 
L 5478 4666 
L 6119 4666 
L 4947 0 
L 4153 0 
L 3169 4050 
L 2175 0 
L 1381 0 
L 213 4666 
z
" transform="scale(0.015625)"/>
       <path id="DejaVuSans-2f" d="M 1625 4666 
L 2156 4666 
L 531 -594 
L 0 -594 
L 1625 4666 
z
" transform="scale(0.015625)"/>
       <path id="DejaVuSans-29" d="M 513 4856 
L 1013 4856 
Q 1481 4119 1714 3412 
Q 1947 2706 1947 2009 
Q 1947 1309 1714 600 
Q 1481 -109 1013 -844 
L 513 -844 
Q 928 -128 1133 580 
Q 1338 1288 1338 2009 
Q 1338 2731 1133 3434 
Q 928 4138 513 4856 
z
" transform="scale(0.015625)"/>
      </defs>
      <use xlink:href="#DejaVuSans-47"/>
      <use xlink:href="#DejaVuSans-72" x="77.490234"/>
      <use xlink:href="#DejaVuSans-6f" x="116.353516"/>
      <use xlink:href="#DejaVuSans-77" x="177.535156"/>
      <use xlink:href="#DejaVuSans-74" x="259.322266"/>
      <use xlink:href="#DejaVuSans-68" x="298.53125"/>
      <use xlink:href="#DejaVuSans-20" x="361.910156"/>
      <use xlink:href="#DejaVuSans-72" x="393.697266"/>
      <use xlink:href="#DejaVuSans-61" x="434.810547"/>
      <use xlink:href="#DejaVuSans-74" x="496.089844"/>
      <use xlink:href="#DejaVuSans-65" x="535.298828"/>
      <use xlink:href="#DejaVuSans-20" x="596.822266"/>
      <use xlink:href="#DejaVuSans-28" x="628.609375"/>
      <use xlink:href="#DejaVuSans-67" x="667.623047"/>
      <use xlink:href="#DejaVuSans-44" x="731.099609"/>
      <use xlink:href="#DejaVuSans-57" x="808.101562"/>
      <use xlink:href="#DejaVuSans-2f" x="906.978516"/>
      <use xlink:href="#DejaVuSans-68" x="940.669922"/>
      <use xlink:href="#DejaVuSans-29" x="1004.048828"/>
     </g>
    </g>
   </g>
   <g id="matplotlib.axis_2">
    <g id="ytick_1">
     <g id="line2d_7">
      <defs>
       <path id="m7d2e97615d" d="M 0 0 
L -3.5 0 
" style="stroke: #000000; stroke-width: 0.8"/>
      </defs>
      <g>
       <use xlink:href="#m7d2e97615d" x="54.02" y="172.505455" style="stroke: #000000; stroke-width: 0.8"/>
      </g>
     </g>
     <g id="text_8">
      <!-- −10 -->
      <g transform="translate(25.915313 176.304673) scale(0.1 -0.1)">
       <defs>
        <path id="DejaVuSans-2212" d="M 678 2272 
L 4684 2272 
L 4684 1741 
L 678 1741 
L 678 2272 
z
" transform="scale(0.015625)"/>
       </defs>
       <use xlink:href="#DejaVuSans-2212"/>
       <use xlink:href="#DejaVuSans-31" x="83.789062"/>
       <use xlink:href="#DejaVuSans-30" x="147.412109"/>
      </g>
     </g>
    </g>
    <g id="ytick_2">
     <g id="line2d_8">
      <g>
       <use xlink:href="#m7d2e97615d" x="54.02" y="144.767273" style="stroke: #000000; stroke-width: 0.8"/>
      </g>
     </g>
     <g id="text_9">
      <!-- −8 -->
      <g transform="translate(32.277813 148.566491) scale(0.1 -0.1)">
       <defs>
        <path id="DejaVuSans-38" d="M 2034 2216 
Q 1584 2216 1326 1975 
Q 1069 1734 1069 1313 
Q 1069 891 1326 650 
Q 1584 409 2034 409 
Q 2484 409 2743 651 
Q 3003 894 3003 1313 
Q 3003 1734 2745 1975 
Q 2488 2216 2034 2216 
z
M 1403 2484 
Q 997 2584 770 2862 
Q 544 3141 544 3541 
Q 544 4100 942 4425 
Q 1341 4750 2034 4750 
Q 2731 4750 3128 4425 
Q 3525 4100 3525 3541 
Q 3525 3141 3298 2862 
Q 3072 2584 2669 2484 
Q 3125 2378 3379 2068 
Q 3634 1759 3634 1313 
Q 3634 634 3220 271 
Q 2806 -91 2034 -91 
Q 1263 -91 848 271 
Q 434 634 434 1313 
Q 434 1759 690 2068 
Q 947 2378 1403 2484 
z
M 1172 3481 
Q 1172 3119 1398 2916 
Q 1625 2713 2034 2713 
Q 2441 2713 2670 2916 
Q 2900 3119 2900 3481 
Q 2900 3844 2670 4047 
Q 2441 4250 2034 4250 
Q 1625 4250 1398 4047 
Q 1172 3844 1172 3481 
z
" transform="scale(0.015625)"/>
       </defs>
       <use xlink:href="#DejaVuSans-2212"/>
       <use xlink:href="#DejaVuSans-38" x="83.789062"/>
      </g>
     </g>
    </g>
    <g id="ytick_3">
     <g id="line2d_9">
      <g>
       <use xlink:href="#m7d2e97615d" x="54.02" y="117.029091" style="stroke: #000000; stroke-width: 0.8"/>
      </g>
     </g>
     <g id="text_10">
      <!-- −6 -->
      <g transform="translate(32.277813 120.82831) scale(0.1 -0.1)">
       <defs>
        <path id="DejaVuSans-36" d="M 2113 2584 
Q 1688 2584 1439 2293 
Q 1191 2003 1191 1497 
Q 1191 994 1439 701 
Q 1688 409 2113 409 
Q 2538 409 2786 701 
Q 3034 994 3034 1497 
Q 3034 2003 2786 2293 
Q 2538 2584 2113 2584 
z
M 3366 4563 
L 3366 3988 
Q 3128 4100 2886 4159 
Q 2644 4219 2406 4219 
Q 1781 4219 1451 3797 
Q 1122 3375 1075 2522 
Q 1259 2794 1537 2939 
Q 1816 3084 2150 3084 
Q 2853 3084 3261 2657 
Q 3669 2231 3669 1497 
Q 3669 778 3244 343 
Q 2819 -91 2113 -91 
Q 1303 -91 875 529 
Q 447 1150 447 2328 
Q 447 3434 972 4092 
Q 1497 4750 2381 4750 
Q 2619 4750 2861 4703 
Q 3103 4656 3366 4563 
z
" transform="scale(0.015625)"/>
       </defs>
       <use xlink:href="#DejaVuSans-2212"/>
       <use xlink:href="#DejaVuSans-36" x="83.789062"/>
      </g>
     </g>
    </g>
    <g id="ytick_4">
     <g id="line2d_10">
      <g>
       <use xlink:href="#m7d2e97615d" x="54.02" y="89.290909" style="stroke: #000000; stroke-width: 0.8"/>
      </g>
     </g>
     <g id="text_11">
      <!-- −4 -->
      <g transform="translate(32.277813 93.090128) scale(0.1 -0.1)">
       <defs>
        <path id="DejaVuSans-34" d="M 2419 4116 
L 825 1625 
L 2419 1625 
L 2419 4116 
z
M 2253 4666 
L 3047 4666 
L 3047 1625 
L 3713 1625 
L 3713 1100 
L 3047 1100 
L 3047 0 
L 2419 0 
L 2419 1100 
L 313 1100 
L 313 1709 
L 2253 4666 
z
" transform="scale(0.015625)"/>
       </defs>
       <use xlink:href="#DejaVuSans-2212"/>
       <use xlink:href="#DejaVuSans-34" x="83.789062"/>
      </g>
     </g>
    </g>
    <g id="ytick_5">
     <g id="line2d_11">
      <g>
       <use xlink:href="#m7d2e97615d" x="54.02" y="61.552727" style="stroke: #000000; stroke-width: 0.8"/>
      </g>
     </g>
     <g id="text_12">
      <!-- −2 -->
      <g transform="translate(32.277813 65.351946) scale(0.1 -0.1)">
       <use xlink:href="#DejaVuSans-2212"/>
       <use xlink:href="#DejaVuSans-32" x="83.789062"/>
      </g>
     </g>
    </g>
    <g id="ytick_6">
     <g id="line2d_12">
      <g>
       <use xlink:href="#m7d2e97615d" x="54.02" y="33.814545" style="stroke: #000000; stroke-width: 0.8"/>
      </g>
     </g>
     <g id="text_13">
      <!-- 0 -->
      <g transform="translate(40.6575 37.613764) scale(0.1 -0.1)">
       <use xlink:href="#DejaVuSans-30"/>
      </g>
     </g>
    </g>
    <g id="text_14">
     <!-- Flux (mmol/h/gDW) -->
     <g transform="translate(19.835625 151.738125) rotate(-90) scale(0.1 -0.1)">
      <defs>
       <path id="DejaVuSans-46" d="M 628 4666 
L 3309 4666 
L 3309 4134 
L 1259 4134 
L 1259 2759 
L 3109 2759 
L 3109 2228 
L 1259 2228 
L 1259 0 
L 628 0 
L 628 4666 
z
" transform="scale(0.015625)"/>
       <path id="DejaVuSans-6c" d="M 603 4863 
L 1178 4863 
L 1178 0 
L 603 0 
L 603 4863 
z
" transform="scale(0.015625)"/>
       <path id="DejaVuSans-75" d="M 544 1381 
L 544 3500 
L 1119 3500 
L 1119 1403 
Q 1119 906 1312 657 
Q 1506 409 1894 409 
Q 2359 409 2629 706 
Q 2900 1003 2900 1516 
L 2900 3500 
L 3475 3500 
L 3475 0 
L 2900 0 
L 2900 538 
Q 2691 219 2414 64 
Q 2138 -91 1772 -91 
Q 1169 -91 856 284 
Q 544 659 544 1381 
z
M 1991 3584 
L 1991 3584 
z
" transform="scale(0.015625)"/>
       <path id="DejaVuSans-78" d="M 3513 3500 
L 2247 1797 
L 3578 0 
L 2900 0 
L 1881 1375 
L 863 0 
L 184 0 
L 1544 1831 
L 300 3500 
L 978 3500 
L 1906 2253 
L 2834 3500 
L 3513 3500 
z
" transform="scale(0.015625)"/>
       <path id="DejaVuSans-6d" d="M 3328 2828 
Q 3544 3216 3844 3400 
Q 4144 3584 4550 3584 
Q 5097 3584 5394 3201 
Q 5691 2819 5691 2113 
L 5691 0 
L 5113 0 
L 5113 2094 
Q 5113 2597 4934 2840 
Q 4756 3084 4391 3084 
Q 3944 3084 3684 2787 
Q 3425 2491 3425 1978 
L 3425 0 
L 2847 0 
L 2847 2094 
Q 2847 2600 2669 2842 
Q 2491 3084 2119 3084 
Q 1678 3084 1418 2786 
Q 1159 2488 1159 1978 
L 1159 0 
L 581 0 
L 581 3500 
L 1159 3500 
L 1159 2956 
Q 1356 3278 1631 3431 
Q 1906 3584 2284 3584 
Q 2666 3584 2933 3390 
Q 3200 3197 3328 2828 
z
" transform="scale(0.015625)"/>
      </defs>
      <use xlink:href="#DejaVuSans-46"/>
      <use xlink:href="#DejaVuSans-6c" x="57.519531"/>
      <use xlink:href="#DejaVuSans-75" x="85.302734"/>
      <use xlink:href="#DejaVuSans-78" x="148.681641"/>
      <use xlink:href="#DejaVuSans-20" x="207.861328"/>
      <use xlink:href="#DejaVuSans-28" x="239.648438"/>
      <use xlink:href="#DejaVuSans-6d" x="278.662109"/>
      <use xlink:href="#DejaVuSans-6d" x="376.074219"/>
      <use xlink:href="#DejaVuSans-6f" x="473.486328"/>
      <use xlink:href="#DejaVuSans-6c" x="534.667969"/>
      <use xlink:href="#DejaVuSans-2f" x="562.451172"/>
      <use xlink:href="#DejaVuSans-68" x="596.142578"/>
      <use xlink:href="#DejaVuSans-2f" x="659.521484"/>
      <use xlink:href="#DejaVuSans-67" x="693.212891"/>
      <use xlink:href="#DejaVuSans-44" x="756.689453"/>
      <use xlink:href="#DejaVuSans-57" x="833.691406"/>
      <use xlink:href="#DejaVuSans-29" x="932.568359"/>
     </g>
    </g>
   </g>
   <g id="line2d_13">
    <path d="M 62.533636 33.814545 
L 71.495359 33.814545 
L 80.457081 33.814545 
L 89.418804 33.814545 
L 98.380526 33.814545 
L 107.342249 33.814545 
L 116.303971 33.814545 
L 125.265694 33.814545 
L 134.227416 33.814545 
L 143.189139 33.814545 
L 152.150861 33.814545 
L 161.112584 33.814545 
L 170.074306 33.814545 
L 179.036029 33.814545 
L 187.997751 33.814545 
L 196.959474 33.814545 
L 205.921196 33.814545 
L 214.882919 33.814545 
L 223.844641 33.814545 
L 232.806364 33.814545 
" clip-path="url(#p36fb2eea24)" style="fill: none; stroke: #0000ff; stroke-width: 1.5; stroke-linecap: square"/>
   </g>
   <g id="line2d_14">
    <path d="M 62.533636 172.505455 
L 71.495359 172.505455 
L 80.457081 172.505455 
L 89.418804 172.505455 
L 98.380526 172.505455 
L 107.342249 172.505455 
L 116.303971 172.505455 
L 125.265694 170.39537 
L 134.227416 161.187051 
L 143.189139 151.751659 
L 152.150861 142.204672 
L 161.112584 132.636455 
L 170.074306 123.017563 
L 179.036029 113.317919 
L 187.997751 103.501708 
L 196.959474 93.56092 
L 205.921196 83.616271 
L 214.882919 73.363175 
L 223.844641 54.128642 
L 232.806364 33.814545 
" clip-path="url(#p36fb2eea24)" style="fill: none; stroke: #0000ff; stroke-width: 1.5; stroke-linecap: square"/>
   </g>
   <g id="patch_3">
    <path d="M 54.02 179.44 
L 54.02 26.88 
" style="fill: none; stroke: #000000; stroke-width: 0.8; stroke-linejoin: miter; stroke-linecap: square"/>
   </g>
   <g id="patch_4">
    <path d="M 241.32 179.44 
L 241.32 26.88 
" style="fill: none; stroke: #000000; stroke-width: 0.8; stroke-linejoin: miter; stroke-linecap: square"/>
   </g>
   <g id="patch_5">
    <path d="M 54.02 179.44 
L 241.32 179.44 
" style="fill: none; stroke: #000000; stroke-width: 0.8; stroke-linejoin: miter; stroke-linecap: square"/>
   </g>
   <g id="patch_6">
    <path d="M 54.02 26.88 
L 241.32 26.88 
" style="fill: none; stroke: #000000; stroke-width: 0.8; stroke-linejoin: miter; stroke-linecap: square"/>
   </g>
   <g id="text_15">
    <!-- Butyrate exchange -->
    <g transform="translate(90.638125 20.88) scale(0.12 -0.12)">
     <defs>
      <path id="DejaVuSans-42" d="M 1259 2228 
L 1259 519 
L 2272 519 
Q 2781 519 3026 730 
Q 3272 941 3272 1375 
Q 3272 1813 3026 2020 
Q 2781 2228 2272 2228 
L 1259 2228 
z
M 1259 4147 
L 1259 2741 
L 2194 2741 
Q 2656 2741 2882 2914 
Q 3109 3088 3109 3444 
Q 3109 3797 2882 3972 
Q 2656 4147 2194 4147 
L 1259 4147 
z
M 628 4666 
L 2241 4666 
Q 2963 4666 3353 4366 
Q 3744 4066 3744 3513 
Q 3744 3084 3544 2831 
Q 3344 2578 2956 2516 
Q 3422 2416 3680 2098 
Q 3938 1781 3938 1306 
Q 3938 681 3513 340 
Q 3088 0 2303 0 
L 628 0 
L 628 4666 
z
" transform="scale(0.015625)"/>
      <path id="DejaVuSans-79" d="M 2059 -325 
Q 1816 -950 1584 -1140 
Q 1353 -1331 966 -1331 
L 506 -1331 
L 506 -850 
L 844 -850 
Q 1081 -850 1212 -737 
Q 1344 -625 1503 -206 
L 1606 56 
L 191 3500 
L 800 3500 
L 1894 763 
L 2988 3500 
L 3597 3500 
L 2059 -325 
z
" transform="scale(0.015625)"/>
      <path id="DejaVuSans-63" d="M 3122 3366 
L 3122 2828 
Q 2878 2963 2633 3030 
Q 2388 3097 2138 3097 
Q 1578 3097 1268 2742 
Q 959 2388 959 1747 
Q 959 1106 1268 751 
Q 1578 397 2138 397 
Q 2388 397 2633 464 
Q 2878 531 3122 666 
L 3122 134 
Q 2881 22 2623 -34 
Q 2366 -91 2075 -91 
Q 1284 -91 818 406 
Q 353 903 353 1747 
Q 353 2603 823 3093 
Q 1294 3584 2113 3584 
Q 2378 3584 2631 3529 
Q 2884 3475 3122 3366 
z
" transform="scale(0.015625)"/>
      <path id="DejaVuSans-6e" d="M 3513 2113 
L 3513 0 
L 2938 0 
L 2938 2094 
Q 2938 2591 2744 2837 
Q 2550 3084 2163 3084 
Q 1697 3084 1428 2787 
Q 1159 2491 1159 1978 
L 1159 0 
L 581 0 
L 581 3500 
L 1159 3500 
L 1159 2956 
Q 1366 3272 1645 3428 
Q 1925 3584 2291 3584 
Q 2894 3584 3203 3211 
Q 3513 2838 3513 2113 
z
" transform="scale(0.015625)"/>
     </defs>
     <use xlink:href="#DejaVuSans-42"/>
     <use xlink:href="#DejaVuSans-75" x="68.603516"/>
     <use xlink:href="#DejaVuSans-74" x="131.982422"/>
     <use xlink:href="#DejaVuSans-79" x="171.191406"/>
     <use xlink:href="#DejaVuSans-72" x="230.371094"/>
     <use xlink:href="#DejaVuSans-61" x="271.484375"/>
     <use xlink:href="#DejaVuSans-74" x="332.763672"/>
     <use xlink:href="#DejaVuSans-65" x="371.972656"/>
     <use xlink:href="#DejaVuSans-20" x="433.496094"/>
     <use xlink:href="#DejaVuSans-65" x="465.283203"/>
     <use xlink:href="#DejaVuSans-78" x="525.056641"/>
     <use xlink:href="#DejaVuSans-63" x="582.486328"/>
     <use xlink:href="#DejaVuSans-68" x="637.466797"/>
     <use xlink:href="#DejaVuSans-61" x="700.845703"/>
     <use xlink:href="#DejaVuSans-6e" x="762.125"/>
     <use xlink:href="#DejaVuSans-67" x="825.503906"/>
     <use xlink:href="#DejaVuSans-65" x="888.980469"/>
    </g>
   </g>
  </g>
  <g id="axes_2">
   <g id="patch_7">
    <path d="M 287.96 179.44 
L 475.26 179.44 
L 475.26 26.88 
L 287.96 26.88 
z
" style="fill: #ffffff"/>
   </g>
   <g id="PolyCollection_2">
    <defs>
     <path id="mf4ad7af74f" d="M 296.473636 -398.185455 
L 296.473636 -259.494545 
L 305.435359 -261.361329 
L 314.397081 -263.228113 
L 323.358804 -265.094967 
L 332.320526 -266.961774 
L 341.282249 -268.828581 
L 350.243971 -270.695388 
L 359.205694 -272.563826 
L 368.167416 -274.705098 
L 377.129139 -279.796925 
L 386.090861 -285.190673 
L 395.052584 -290.595364 
L 404.014306 -296.050825 
L 412.976029 -301.591421 
L 421.937751 -307.241064 
L 430.899474 -312.95492 
L 439.861196 -318.670766 
L 448.822919 -324.561525 
L 457.784641 -359.652289 
L 466.746364 -398.185455 
L 466.746364 -398.185455 
L 466.746364 -398.185455 
L 457.784641 -398.185455 
L 448.822919 -398.185455 
L 439.861196 -398.185455 
L 430.899474 -398.185455 
L 421.937751 -398.185455 
L 412.976029 -398.185455 
L 404.014306 -398.185455 
L 395.052584 -398.185455 
L 386.090861 -398.185455 
L 377.129139 -398.185455 
L 368.167416 -398.185455 
L 359.205694 -398.185455 
L 350.243971 -398.185455 
L 341.282249 -398.185455 
L 332.320526 -398.185455 
L 323.358804 -398.185455 
L 314.397081 -398.185455 
L 305.435359 -398.185455 
L 296.473636 -398.185455 
z
" style="stroke: #008000; stroke-opacity: 0.2"/>
    </defs>
    <g clip-path="url(#p5e6ca380d1)">
     <use xlink:href="#mf4ad7af74f" x="0" y="432" style="fill: #008000; fill-opacity: 0.2; stroke: #008000; stroke-opacity: 0.2"/>
    </g>
   </g>
   <g id="matplotlib.axis_3">
    <g id="xtick_7">
     <g id="line2d_15">
      <g>
       <use xlink:href="#m696c9b1c22" x="296.473636" y="179.44" style="stroke: #000000; stroke-width: 0.8"/>
      </g>
     </g>
     <g id="text_16">
      <!-- 0.00 -->
      <g transform="translate(285.340824 194.038437) scale(0.1 -0.1)">
       <use xlink:href="#DejaVuSans-30"/>
       <use xlink:href="#DejaVuSans-2e" x="63.623047"/>
       <use xlink:href="#DejaVuSans-30" x="95.410156"/>
       <use xlink:href="#DejaVuSans-30" x="159.033203"/>
      </g>
     </g>
    </g>
    <g id="xtick_8">
     <g id="line2d_16">
      <g>
       <use xlink:href="#m696c9b1c22" x="329.028561" y="179.44" style="stroke: #000000; stroke-width: 0.8"/>
      </g>
     </g>
     <g id="text_17">
      <!-- 0.05 -->
      <g transform="translate(317.895749 194.038437) scale(0.1 -0.1)">
       <use xlink:href="#DejaVuSans-30"/>
       <use xlink:href="#DejaVuSans-2e" x="63.623047"/>
       <use xlink:href="#DejaVuSans-30" x="95.410156"/>
       <use xlink:href="#DejaVuSans-35" x="159.033203"/>
      </g>
     </g>
    </g>
    <g id="xtick_9">
     <g id="line2d_17">
      <g>
       <use xlink:href="#m696c9b1c22" x="361.583486" y="179.44" style="stroke: #000000; stroke-width: 0.8"/>
      </g>
     </g>
     <g id="text_18">
      <!-- 0.10 -->
      <g transform="translate(350.450673 194.038437) scale(0.1 -0.1)">
       <use xlink:href="#DejaVuSans-30"/>
       <use xlink:href="#DejaVuSans-2e" x="63.623047"/>
       <use xlink:href="#DejaVuSans-31" x="95.410156"/>
       <use xlink:href="#DejaVuSans-30" x="159.033203"/>
      </g>
     </g>
    </g>
    <g id="xtick_10">
     <g id="line2d_18">
      <g>
       <use xlink:href="#m696c9b1c22" x="394.13841" y="179.44" style="stroke: #000000; stroke-width: 0.8"/>
      </g>
     </g>
     <g id="text_19">
      <!-- 0.15 -->
      <g transform="translate(383.005598 194.038437) scale(0.1 -0.1)">
       <use xlink:href="#DejaVuSans-30"/>
       <use xlink:href="#DejaVuSans-2e" x="63.623047"/>
       <use xlink:href="#DejaVuSans-31" x="95.410156"/>
       <use xlink:href="#DejaVuSans-35" x="159.033203"/>
      </g>
     </g>
    </g>
    <g id="xtick_11">
     <g id="line2d_19">
      <g>
       <use xlink:href="#m696c9b1c22" x="426.693335" y="179.44" style="stroke: #000000; stroke-width: 0.8"/>
      </g>
     </g>
     <g id="text_20">
      <!-- 0.20 -->
      <g transform="translate(415.560523 194.038437) scale(0.1 -0.1)">
       <use xlink:href="#DejaVuSans-30"/>
       <use xlink:href="#DejaVuSans-2e" x="63.623047"/>
       <use xlink:href="#DejaVuSans-32" x="95.410156"/>
       <use xlink:href="#DejaVuSans-30" x="159.033203"/>
      </g>
     </g>
    </g>
    <g id="xtick_12">
     <g id="line2d_20">
      <g>
       <use xlink:href="#m696c9b1c22" x="459.24826" y="179.44" style="stroke: #000000; stroke-width: 0.8"/>
      </g>
     </g>
     <g id="text_21">
      <!-- 0.25 -->
      <g transform="translate(448.115447 194.038437) scale(0.1 -0.1)">
       <use xlink:href="#DejaVuSans-30"/>
       <use xlink:href="#DejaVuSans-2e" x="63.623047"/>
       <use xlink:href="#DejaVuSans-32" x="95.410156"/>
       <use xlink:href="#DejaVuSans-35" x="159.033203"/>
      </g>
     </g>
    </g>
    <g id="text_22">
     <!-- Growth rate (gDW/h) -->
     <g transform="translate(329.458437 207.716562) scale(0.1 -0.1)">
      <use xlink:href="#DejaVuSans-47"/>
      <use xlink:href="#DejaVuSans-72" x="77.490234"/>
      <use xlink:href="#DejaVuSans-6f" x="116.353516"/>
      <use xlink:href="#DejaVuSans-77" x="177.535156"/>
      <use xlink:href="#DejaVuSans-74" x="259.322266"/>
      <use xlink:href="#DejaVuSans-68" x="298.53125"/>
      <use xlink:href="#DejaVuSans-20" x="361.910156"/>
      <use xlink:href="#DejaVuSans-72" x="393.697266"/>
      <use xlink:href="#DejaVuSans-61" x="434.810547"/>
      <use xlink:href="#DejaVuSans-74" x="496.089844"/>
      <use xlink:href="#DejaVuSans-65" x="535.298828"/>
      <use xlink:href="#DejaVuSans-20" x="596.822266"/>
      <use xlink:href="#DejaVuSans-28" x="628.609375"/>
      <use xlink:href="#DejaVuSans-67" x="667.623047"/>
      <use xlink:href="#DejaVuSans-44" x="731.099609"/>
      <use xlink:href="#DejaVuSans-57" x="808.101562"/>
      <use xlink:href="#DejaVuSans-2f" x="906.978516"/>
      <use xlink:href="#DejaVuSans-68" x="940.669922"/>
      <use xlink:href="#DejaVuSans-29" x="1004.048828"/>
     </g>
    </g>
   </g>
   <g id="matplotlib.axis_4">
    <g id="ytick_7">
     <g id="line2d_21">
      <g>
       <use xlink:href="#m7d2e97615d" x="287.96" y="158.678617" style="stroke: #000000; stroke-width: 0.8"/>
      </g>
     </g>
     <g id="text_23">
      <!-- −4 -->
      <g transform="translate(266.217812 162.477836) scale(0.1 -0.1)">
       <use xlink:href="#DejaVuSans-2212"/>
       <use xlink:href="#DejaVuSans-34" x="83.789062"/>
      </g>
     </g>
    </g>
    <g id="ytick_8">
     <g id="line2d_22">
      <g>
       <use xlink:href="#m7d2e97615d" x="287.96" y="127.462599" style="stroke: #000000; stroke-width: 0.8"/>
      </g>
     </g>
     <g id="text_24">
      <!-- −3 -->
      <g transform="translate(266.217812 131.261818) scale(0.1 -0.1)">
       <defs>
        <path id="DejaVuSans-33" d="M 2597 2516 
Q 3050 2419 3304 2112 
Q 3559 1806 3559 1356 
Q 3559 666 3084 287 
Q 2609 -91 1734 -91 
Q 1441 -91 1130 -33 
Q 819 25 488 141 
L 488 750 
Q 750 597 1062 519 
Q 1375 441 1716 441 
Q 2309 441 2620 675 
Q 2931 909 2931 1356 
Q 2931 1769 2642 2001 
Q 2353 2234 1838 2234 
L 1294 2234 
L 1294 2753 
L 1863 2753 
Q 2328 2753 2575 2939 
Q 2822 3125 2822 3475 
Q 2822 3834 2567 4026 
Q 2313 4219 1838 4219 
Q 1578 4219 1281 4162 
Q 984 4106 628 3988 
L 628 4550 
Q 988 4650 1302 4700 
Q 1616 4750 1894 4750 
Q 2613 4750 3031 4423 
Q 3450 4097 3450 3541 
Q 3450 3153 3228 2886 
Q 3006 2619 2597 2516 
z
" transform="scale(0.015625)"/>
       </defs>
       <use xlink:href="#DejaVuSans-2212"/>
       <use xlink:href="#DejaVuSans-33" x="83.789062"/>
      </g>
     </g>
    </g>
    <g id="ytick_9">
     <g id="line2d_23">
      <g>
       <use xlink:href="#m7d2e97615d" x="287.96" y="96.246581" style="stroke: #000000; stroke-width: 0.8"/>
      </g>
     </g>
     <g id="text_25">
      <!-- −2 -->
      <g transform="translate(266.217812 100.0458) scale(0.1 -0.1)">
       <use xlink:href="#DejaVuSans-2212"/>
       <use xlink:href="#DejaVuSans-32" x="83.789062"/>
      </g>
     </g>
    </g>
    <g id="ytick_10">
     <g id="line2d_24">
      <g>
       <use xlink:href="#m7d2e97615d" x="287.96" y="65.030563" style="stroke: #000000; stroke-width: 0.8"/>
      </g>
     </g>
     <g id="text_26">
      <!-- −1 -->
      <g transform="translate(266.217812 68.829782) scale(0.1 -0.1)">
       <use xlink:href="#DejaVuSans-2212"/>
       <use xlink:href="#DejaVuSans-31" x="83.789062"/>
      </g>
     </g>
    </g>
    <g id="ytick_11">
     <g id="line2d_25">
      <g>
       <use xlink:href="#m7d2e97615d" x="287.96" y="33.814545" style="stroke: #000000; stroke-width: 0.8"/>
      </g>
     </g>
     <g id="text_27">
      <!-- 0 -->
      <g transform="translate(274.5975 37.613764) scale(0.1 -0.1)">
       <use xlink:href="#DejaVuSans-30"/>
      </g>
     </g>
    </g>
    <g id="text_28">
     <!-- Flux (mmol/h/gDW) -->
     <g transform="translate(260.138125 151.738125) rotate(-90) scale(0.1 -0.1)">
      <use xlink:href="#DejaVuSans-46"/>
      <use xlink:href="#DejaVuSans-6c" x="57.519531"/>
      <use xlink:href="#DejaVuSans-75" x="85.302734"/>
      <use xlink:href="#DejaVuSans-78" x="148.681641"/>
      <use xlink:href="#DejaVuSans-20" x="207.861328"/>
      <use xlink:href="#DejaVuSans-28" x="239.648438"/>
      <use xlink:href="#DejaVuSans-6d" x="278.662109"/>
      <use xlink:href="#DejaVuSans-6d" x="376.074219"/>
      <use xlink:href="#DejaVuSans-6f" x="473.486328"/>
      <use xlink:href="#DejaVuSans-6c" x="534.667969"/>
      <use xlink:href="#DejaVuSans-2f" x="562.451172"/>
      <use xlink:href="#DejaVuSans-68" x="596.142578"/>
      <use xlink:href="#DejaVuSans-2f" x="659.521484"/>
      <use xlink:href="#DejaVuSans-67" x="693.212891"/>
      <use xlink:href="#DejaVuSans-44" x="756.689453"/>
      <use xlink:href="#DejaVuSans-57" x="833.691406"/>
      <use xlink:href="#DejaVuSans-29" x="932.568359"/>
     </g>
    </g>
   </g>
   <g id="line2d_26">
    <path d="M 296.473636 33.814545 
L 305.435359 33.814545 
L 314.397081 33.814545 
L 323.358804 33.814545 
L 332.320526 33.814545 
L 341.282249 33.814545 
L 350.243971 33.814545 
L 359.205694 33.814545 
L 368.167416 33.814545 
L 377.129139 33.814545 
L 386.090861 33.814545 
L 395.052584 33.814545 
L 404.014306 33.814545 
L 412.976029 33.814545 
L 421.937751 33.814545 
L 430.899474 33.814545 
L 439.861196 33.814545 
L 448.822919 33.814545 
L 457.784641 33.814545 
L 466.746364 33.814545 
" clip-path="url(#p5e6ca380d1)" style="fill: none; stroke: #008000; stroke-width: 1.5; stroke-linecap: square"/>
   </g>
   <g id="line2d_27">
    <path d="M 296.473636 172.505455 
L 305.435359 170.638671 
L 314.397081 168.771887 
L 323.358804 166.905033 
L 332.320526 165.038226 
L 341.282249 163.171419 
L 350.243971 161.304612 
L 359.205694 159.436174 
L 368.167416 157.294902 
L 377.129139 152.203075 
L 386.090861 146.809327 
L 395.052584 141.404636 
L 404.014306 135.949175 
L 412.976029 130.408579 
L 421.937751 124.758936 
L 430.899474 119.04508 
L 439.861196 113.329234 
L 448.822919 107.438475 
L 457.784641 72.347711 
L 466.746364 33.814545 
" clip-path="url(#p5e6ca380d1)" style="fill: none; stroke: #008000; stroke-width: 1.5; stroke-linecap: square"/>
   </g>
   <g id="patch_8">
    <path d="M 287.96 179.44 
L 287.96 26.88 
" style="fill: none; stroke: #000000; stroke-width: 0.8; stroke-linejoin: miter; stroke-linecap: square"/>
   </g>
   <g id="patch_9">
    <path d="M 475.26 179.44 
L 475.26 26.88 
" style="fill: none; stroke: #000000; stroke-width: 0.8; stroke-linejoin: miter; stroke-linecap: square"/>
   </g>
   <g id="patch_10">
    <path d="M 287.96 179.44 
L 475.26 179.44 
" style="fill: none; stroke: #000000; stroke-width: 0.8; stroke-linejoin: miter; stroke-linecap: square"/>
   </g>
   <g id="patch_11">
    <path d="M 287.96 26.88 
L 475.26 26.88 
" style="fill: none; stroke: #000000; stroke-width: 0.8; stroke-linejoin: miter; stroke-linecap: square"/>
   </g>
   <g id="text_29">
    <!-- Acetate exchange -->
    <g transform="translate(327.524687 20.88) scale(0.12 -0.12)">
     <defs>
      <path id="DejaVuSans-41" d="M 2188 4044 
L 1331 1722 
L 3047 1722 
L 2188 4044 
z
M 1831 4666 
L 2547 4666 
L 4325 0 
L 3669 0 
L 3244 1197 
L 1141 1197 
L 716 0 
L 50 0 
L 1831 4666 
z
" transform="scale(0.015625)"/>
     </defs>
     <use xlink:href="#DejaVuSans-41"/>
     <use xlink:href="#DejaVuSans-63" x="66.658203"/>
     <use xlink:href="#DejaVuSans-65" x="121.638672"/>
     <use xlink:href="#DejaVuSans-74" x="183.162109"/>
     <use xlink:href="#DejaVuSans-61" x="222.371094"/>
     <use xlink:href="#DejaVuSans-74" x="283.650391"/>
     <use xlink:href="#DejaVuSans-65" x="322.859375"/>
     <use xlink:href="#DejaVuSans-20" x="384.382812"/>
     <use xlink:href="#DejaVuSans-65" x="416.169922"/>
     <use xlink:href="#DejaVuSans-78" x="475.943359"/>
     <use xlink:href="#DejaVuSans-63" x="533.373047"/>
     <use xlink:href="#DejaVuSans-68" x="588.353516"/>
     <use xlink:href="#DejaVuSans-61" x="651.732422"/>
     <use xlink:href="#DejaVuSans-6e" x="713.011719"/>
     <use xlink:href="#DejaVuSans-67" x="776.390625"/>
     <use xlink:href="#DejaVuSans-65" x="839.867188"/>
    </g>
   </g>
  </g>
  <g id="axes_3">
   <g id="patch_12">
    <path d="M 521.9 179.44 
L 709.2 179.44 
L 709.2 26.88 
L 521.9 26.88 
z
" style="fill: #ffffff"/>
   </g>
   <g id="PolyCollection_3">
    <defs>
     <path id="mace0539777" d="M 530.413636 -398.185455 
L 530.413636 -259.494545 
L 539.375359 -259.494545 
L 548.337081 -259.494545 
L 557.298804 -259.494545 
L 566.260526 -259.494545 
L 575.222249 -259.494545 
L 584.183971 -259.494545 
L 593.145694 -259.494545 
L 602.107416 -259.494545 
L 611.069139 -259.494545 
L 620.030861 -259.494545 
L 628.992584 -259.494545 
L 637.954306 -259.494545 
L 646.916029 -259.494545 
L 655.877751 -259.494545 
L 664.839474 -259.494545 
L 673.801196 -259.494545 
L 682.762919 -259.494545 
L 691.724641 -259.494545 
L 700.686364 -259.494545 
L 700.686364 -259.494545 
L 700.686364 -259.494545 
L 691.724641 -318.557868 
L 682.762919 -372.344705 
L 673.801196 -376.755025 
L 664.839474 -379.739321 
L 655.877751 -382.722855 
L 646.916029 -384.696599 
L 637.954306 -385.961315 
L 628.992584 -387.138479 
L 620.030861 -388.274406 
L 611.069139 -389.410333 
L 602.107416 -390.492205 
L 593.145694 -391.453862 
L 584.183971 -392.415518 
L 575.222249 -393.377174 
L 566.260526 -394.33883 
L 557.298804 -395.300486 
L 548.337081 -396.262142 
L 539.375359 -397.223798 
L 530.413636 -398.185455 
z
" style="stroke: #ff0000; stroke-opacity: 0.2"/>
    </defs>
    <g clip-path="url(#p6268dc31b3)">
     <use xlink:href="#mace0539777" x="0" y="432" style="fill: #ff0000; fill-opacity: 0.2; stroke: #ff0000; stroke-opacity: 0.2"/>
    </g>
   </g>
   <g id="matplotlib.axis_5">
    <g id="xtick_13">
     <g id="line2d_28">
      <g>
       <use xlink:href="#m696c9b1c22" x="530.413636" y="179.44" style="stroke: #000000; stroke-width: 0.8"/>
      </g>
     </g>
     <g id="text_30">
      <!-- 0.00 -->
      <g transform="translate(519.280824 194.038437) scale(0.1 -0.1)">
       <use xlink:href="#DejaVuSans-30"/>
       <use xlink:href="#DejaVuSans-2e" x="63.623047"/>
       <use xlink:href="#DejaVuSans-30" x="95.410156"/>
       <use xlink:href="#DejaVuSans-30" x="159.033203"/>
      </g>
     </g>
    </g>
    <g id="xtick_14">
     <g id="line2d_29">
      <g>
       <use xlink:href="#m696c9b1c22" x="562.968561" y="179.44" style="stroke: #000000; stroke-width: 0.8"/>
      </g>
     </g>
     <g id="text_31">
      <!-- 0.05 -->
      <g transform="translate(551.835749 194.038437) scale(0.1 -0.1)">
       <use xlink:href="#DejaVuSans-30"/>
       <use xlink:href="#DejaVuSans-2e" x="63.623047"/>
       <use xlink:href="#DejaVuSans-30" x="95.410156"/>
       <use xlink:href="#DejaVuSans-35" x="159.033203"/>
      </g>
     </g>
    </g>
    <g id="xtick_15">
     <g id="line2d_30">
      <g>
       <use xlink:href="#m696c9b1c22" x="595.523486" y="179.44" style="stroke: #000000; stroke-width: 0.8"/>
      </g>
     </g>
     <g id="text_32">
      <!-- 0.10 -->
      <g transform="translate(584.390673 194.038437) scale(0.1 -0.1)">
       <use xlink:href="#DejaVuSans-30"/>
       <use xlink:href="#DejaVuSans-2e" x="63.623047"/>
       <use xlink:href="#DejaVuSans-31" x="95.410156"/>
       <use xlink:href="#DejaVuSans-30" x="159.033203"/>
      </g>
     </g>
    </g>
    <g id="xtick_16">
     <g id="line2d_31">
      <g>
       <use xlink:href="#m696c9b1c22" x="628.07841" y="179.44" style="stroke: #000000; stroke-width: 0.8"/>
      </g>
     </g>
     <g id="text_33">
      <!-- 0.15 -->
      <g transform="translate(616.945598 194.038437) scale(0.1 -0.1)">
       <use xlink:href="#DejaVuSans-30"/>
       <use xlink:href="#DejaVuSans-2e" x="63.623047"/>
       <use xlink:href="#DejaVuSans-31" x="95.410156"/>
       <use xlink:href="#DejaVuSans-35" x="159.033203"/>
      </g>
     </g>
    </g>
    <g id="xtick_17">
     <g id="line2d_32">
      <g>
       <use xlink:href="#m696c9b1c22" x="660.633335" y="179.44" style="stroke: #000000; stroke-width: 0.8"/>
      </g>
     </g>
     <g id="text_34">
      <!-- 0.20 -->
      <g transform="translate(649.500523 194.038437) scale(0.1 -0.1)">
       <use xlink:href="#DejaVuSans-30"/>
       <use xlink:href="#DejaVuSans-2e" x="63.623047"/>
       <use xlink:href="#DejaVuSans-32" x="95.410156"/>
       <use xlink:href="#DejaVuSans-30" x="159.033203"/>
      </g>
     </g>
    </g>
    <g id="xtick_18">
     <g id="line2d_33">
      <g>
       <use xlink:href="#m696c9b1c22" x="693.18826" y="179.44" style="stroke: #000000; stroke-width: 0.8"/>
      </g>
     </g>
     <g id="text_35">
      <!-- 0.25 -->
      <g transform="translate(682.055447 194.038437) scale(0.1 -0.1)">
       <use xlink:href="#DejaVuSans-30"/>
       <use xlink:href="#DejaVuSans-2e" x="63.623047"/>
       <use xlink:href="#DejaVuSans-32" x="95.410156"/>
       <use xlink:href="#DejaVuSans-35" x="159.033203"/>
      </g>
     </g>
    </g>
    <g id="text_36">
     <!-- Growth rate (gDW/h) -->
     <g transform="translate(563.398437 207.716562) scale(0.1 -0.1)">
      <use xlink:href="#DejaVuSans-47"/>
      <use xlink:href="#DejaVuSans-72" x="77.490234"/>
      <use xlink:href="#DejaVuSans-6f" x="116.353516"/>
      <use xlink:href="#DejaVuSans-77" x="177.535156"/>
      <use xlink:href="#DejaVuSans-74" x="259.322266"/>
      <use xlink:href="#DejaVuSans-68" x="298.53125"/>
      <use xlink:href="#DejaVuSans-20" x="361.910156"/>
      <use xlink:href="#DejaVuSans-72" x="393.697266"/>
      <use xlink:href="#DejaVuSans-61" x="434.810547"/>
      <use xlink:href="#DejaVuSans-74" x="496.089844"/>
      <use xlink:href="#DejaVuSans-65" x="535.298828"/>
      <use xlink:href="#DejaVuSans-20" x="596.822266"/>
      <use xlink:href="#DejaVuSans-28" x="628.609375"/>
      <use xlink:href="#DejaVuSans-67" x="667.623047"/>
      <use xlink:href="#DejaVuSans-44" x="731.099609"/>
      <use xlink:href="#DejaVuSans-57" x="808.101562"/>
      <use xlink:href="#DejaVuSans-2f" x="906.978516"/>
      <use xlink:href="#DejaVuSans-68" x="940.669922"/>
      <use xlink:href="#DejaVuSans-29" x="1004.048828"/>
     </g>
    </g>
   </g>
   <g id="matplotlib.axis_6">
    <g id="ytick_12">
     <g id="line2d_34">
      <g>
       <use xlink:href="#m7d2e97615d" x="521.9" y="172.505455" style="stroke: #000000; stroke-width: 0.8"/>
      </g>
     </g>
     <g id="text_37">
      <!-- 0 -->
      <g transform="translate(508.5375 176.304673) scale(0.1 -0.1)">
       <use xlink:href="#DejaVuSans-30"/>
      </g>
     </g>
    </g>
    <g id="ytick_13">
     <g id="line2d_35">
      <g>
       <use xlink:href="#m7d2e97615d" x="521.9" y="134.889371" style="stroke: #000000; stroke-width: 0.8"/>
      </g>
     </g>
     <g id="text_38">
      <!-- 5 -->
      <g transform="translate(508.5375 138.68859) scale(0.1 -0.1)">
       <use xlink:href="#DejaVuSans-35"/>
      </g>
     </g>
    </g>
    <g id="ytick_14">
     <g id="line2d_36">
      <g>
       <use xlink:href="#m7d2e97615d" x="521.9" y="97.273287" style="stroke: #000000; stroke-width: 0.8"/>
      </g>
     </g>
     <g id="text_39">
      <!-- 10 -->
      <g transform="translate(502.175 101.072506) scale(0.1 -0.1)">
       <use xlink:href="#DejaVuSans-31"/>
       <use xlink:href="#DejaVuSans-30" x="63.623047"/>
      </g>
     </g>
    </g>
    <g id="ytick_15">
     <g id="line2d_37">
      <g>
       <use xlink:href="#m7d2e97615d" x="521.9" y="59.657204" style="stroke: #000000; stroke-width: 0.8"/>
      </g>
     </g>
     <g id="text_40">
      <!-- 15 -->
      <g transform="translate(502.175 63.456423) scale(0.1 -0.1)">
       <use xlink:href="#DejaVuSans-31"/>
       <use xlink:href="#DejaVuSans-35" x="63.623047"/>
      </g>
     </g>
    </g>
    <g id="text_41">
     <!-- Flux (mmol/h/gDW) -->
     <g transform="translate(496.095312 151.738125) rotate(-90) scale(0.1 -0.1)">
      <use xlink:href="#DejaVuSans-46"/>
      <use xlink:href="#DejaVuSans-6c" x="57.519531"/>
      <use xlink:href="#DejaVuSans-75" x="85.302734"/>
      <use xlink:href="#DejaVuSans-78" x="148.681641"/>
      <use xlink:href="#DejaVuSans-20" x="207.861328"/>
      <use xlink:href="#DejaVuSans-28" x="239.648438"/>
      <use xlink:href="#DejaVuSans-6d" x="278.662109"/>
      <use xlink:href="#DejaVuSans-6d" x="376.074219"/>
      <use xlink:href="#DejaVuSans-6f" x="473.486328"/>
      <use xlink:href="#DejaVuSans-6c" x="534.667969"/>
      <use xlink:href="#DejaVuSans-2f" x="562.451172"/>
      <use xlink:href="#DejaVuSans-68" x="596.142578"/>
      <use xlink:href="#DejaVuSans-2f" x="659.521484"/>
      <use xlink:href="#DejaVuSans-67" x="693.212891"/>
      <use xlink:href="#DejaVuSans-44" x="756.689453"/>
      <use xlink:href="#DejaVuSans-57" x="833.691406"/>
      <use xlink:href="#DejaVuSans-29" x="932.568359"/>
     </g>
    </g>
   </g>
   <g id="line2d_38">
    <path d="M 530.413636 33.814545 
L 539.375359 34.776202 
L 548.337081 35.737858 
L 557.298804 36.699514 
L 566.260526 37.66117 
L 575.222249 38.622826 
L 584.183971 39.584482 
L 593.145694 40.546138 
L 602.107416 41.507795 
L 611.069139 42.589667 
L 620.030861 43.725594 
L 628.992584 44.861521 
L 637.954306 46.038685 
L 646.916029 47.303401 
L 655.877751 49.277145 
L 664.839474 52.260679 
L 673.801196 55.244975 
L 682.762919 59.655295 
L 691.724641 113.442132 
L 700.686364 172.505455 
" clip-path="url(#p6268dc31b3)" style="fill: none; stroke: #ff0000; stroke-width: 1.5; stroke-linecap: square"/>
   </g>
   <g id="line2d_39">
    <path d="M 530.413636 172.505455 
L 539.375359 172.505455 
L 548.337081 172.505455 
L 557.298804 172.505455 
L 566.260526 172.505455 
L 575.222249 172.505455 
L 584.183971 172.505455 
L 593.145694 172.505455 
L 602.107416 172.505455 
L 611.069139 172.505455 
L 620.030861 172.505455 
L 628.992584 172.505455 
L 637.954306 172.505455 
L 646.916029 172.505455 
L 655.877751 172.505455 
L 664.839474 172.505455 
L 673.801196 172.505455 
L 682.762919 172.505455 
L 691.724641 172.505455 
L 700.686364 172.505455 
" clip-path="url(#p6268dc31b3)" style="fill: none; stroke: #ff0000; stroke-width: 1.5; stroke-linecap: square"/>
   </g>
   <g id="patch_13">
    <path d="M 521.9 179.44 
L 521.9 26.88 
" style="fill: none; stroke: #000000; stroke-width: 0.8; stroke-linejoin: miter; stroke-linecap: square"/>
   </g>
   <g id="patch_14">
    <path d="M 709.2 179.44 
L 709.2 26.88 
" style="fill: none; stroke: #000000; stroke-width: 0.8; stroke-linejoin: miter; stroke-linecap: square"/>
   </g>
   <g id="patch_15">
    <path d="M 521.9 179.44 
L 709.2 179.44 
" style="fill: none; stroke: #000000; stroke-width: 0.8; stroke-linejoin: miter; stroke-linecap: square"/>
   </g>
   <g id="patch_16">
    <path d="M 521.9 26.88 
L 709.2 26.88 
" style="fill: none; stroke: #000000; stroke-width: 0.8; stroke-linejoin: miter; stroke-linecap: square"/>
   </g>
   <g id="text_42">
    <!-- Ethanol exchange -->
    <g transform="translate(561.764687 20.88) scale(0.12 -0.12)">
     <defs>
      <path id="DejaVuSans-45" d="M 628 4666 
L 3578 4666 
L 3578 4134 
L 1259 4134 
L 1259 2753 
L 3481 2753 
L 3481 2222 
L 1259 2222 
L 1259 531 
L 3634 531 
L 3634 0 
L 628 0 
L 628 4666 
z
" transform="scale(0.015625)"/>
     </defs>
     <use xlink:href="#DejaVuSans-45"/>
     <use xlink:href="#DejaVuSans-74" x="63.183594"/>
     <use xlink:href="#DejaVuSans-68" x="102.392578"/>
     <use xlink:href="#DejaVuSans-61" x="165.771484"/>
     <use xlink:href="#DejaVuSans-6e" x="227.050781"/>
     <use xlink:href="#DejaVuSans-6f" x="290.429688"/>
     <use xlink:href="#DejaVuSans-6c" x="351.611328"/>
     <use xlink:href="#DejaVuSans-20" x="379.394531"/>
     <use xlink:href="#DejaVuSans-65" x="411.181641"/>
     <use xlink:href="#DejaVuSans-78" x="470.955078"/>
     <use xlink:href="#DejaVuSans-63" x="528.384766"/>
     <use xlink:href="#DejaVuSans-68" x="583.365234"/>
     <use xlink:href="#DejaVuSans-61" x="646.744141"/>
     <use xlink:href="#DejaVuSans-6e" x="708.023438"/>
     <use xlink:href="#DejaVuSans-67" x="771.402344"/>
     <use xlink:href="#DejaVuSans-65" x="834.878906"/>
    </g>
   </g>
  </g>
  <g id="axes_4">
   <g id="patch_17">
    <path d="M 54.02 390.04 
L 241.32 390.04 
L 241.32 237.48 
L 54.02 237.48 
z
" style="fill: #ffffff"/>
   </g>
   <g id="PolyCollection_4">
    <defs>
     <path id="m998fd78c06" d="M 62.533636 -187.585455 
L 62.533636 -48.894545 
L 71.495359 -48.931397 
L 80.457081 -48.968248 
L 89.418804 -49.005099 
L 98.380526 -49.041951 
L 107.342249 -49.078802 
L 116.303971 -49.115653 
L 125.265694 -49.152505 
L 134.227416 -49.189356 
L 143.189139 -49.226207 
L 152.150861 -49.263059 
L 161.112584 -49.29991 
L 170.074306 -49.336761 
L 179.036029 -49.373613 
L 187.997751 -49.410464 
L 196.959474 -49.447315 
L 205.921196 -49.484167 
L 214.882919 -49.521018 
L 223.844641 -74.457575 
L 232.806364 -102.426566 
L 232.806364 -102.426566 
L 232.806364 -102.426566 
L 223.844641 -113.633905 
L 214.882919 -124.373818 
L 205.921196 -130.326049 
L 196.959474 -136.100449 
L 187.997751 -141.872824 
L 179.036029 -147.579915 
L 170.074306 -153.176138 
L 161.112584 -158.685807 
L 152.150861 -164.143857 
L 143.189139 -169.590782 
L 134.227416 -174.937958 
L 125.265694 -180.224129 
L 116.303971 -182.521133 
L 107.342249 -183.428391 
L 98.380526 -184.259803 
L 89.418804 -185.091216 
L 80.457081 -185.922629 
L 71.495359 -186.754042 
L 62.533636 -187.585455 
z
" style="stroke: #00bfbf; stroke-opacity: 0.2"/>
    </defs>
    <g clip-path="url(#p22a96affb1)">
     <use xlink:href="#m998fd78c06" x="0" y="432" style="fill: #00bfbf; fill-opacity: 0.2; stroke: #00bfbf; stroke-opacity: 0.2"/>
    </g>
   </g>
   <g id="matplotlib.axis_7">
    <g id="xtick_19">
     <g id="line2d_40">
      <g>
       <use xlink:href="#m696c9b1c22" x="62.533636" y="390.04" style="stroke: #000000; stroke-width: 0.8"/>
      </g>
     </g>
     <g id="text_43">
      <!-- 0.00 -->
      <g transform="translate(51.400824 404.638437) scale(0.1 -0.1)">
       <use xlink:href="#DejaVuSans-30"/>
       <use xlink:href="#DejaVuSans-2e" x="63.623047"/>
       <use xlink:href="#DejaVuSans-30" x="95.410156"/>
       <use xlink:href="#DejaVuSans-30" x="159.033203"/>
      </g>
     </g>
    </g>
    <g id="xtick_20">
     <g id="line2d_41">
      <g>
       <use xlink:href="#m696c9b1c22" x="95.088561" y="390.04" style="stroke: #000000; stroke-width: 0.8"/>
      </g>
     </g>
     <g id="text_44">
      <!-- 0.05 -->
      <g transform="translate(83.955749 404.638437) scale(0.1 -0.1)">
       <use xlink:href="#DejaVuSans-30"/>
       <use xlink:href="#DejaVuSans-2e" x="63.623047"/>
       <use xlink:href="#DejaVuSans-30" x="95.410156"/>
       <use xlink:href="#DejaVuSans-35" x="159.033203"/>
      </g>
     </g>
    </g>
    <g id="xtick_21">
     <g id="line2d_42">
      <g>
       <use xlink:href="#m696c9b1c22" x="127.643486" y="390.04" style="stroke: #000000; stroke-width: 0.8"/>
      </g>
     </g>
     <g id="text_45">
      <!-- 0.10 -->
      <g transform="translate(116.510673 404.638437) scale(0.1 -0.1)">
       <use xlink:href="#DejaVuSans-30"/>
       <use xlink:href="#DejaVuSans-2e" x="63.623047"/>
       <use xlink:href="#DejaVuSans-31" x="95.410156"/>
       <use xlink:href="#DejaVuSans-30" x="159.033203"/>
      </g>
     </g>
    </g>
    <g id="xtick_22">
     <g id="line2d_43">
      <g>
       <use xlink:href="#m696c9b1c22" x="160.19841" y="390.04" style="stroke: #000000; stroke-width: 0.8"/>
      </g>
     </g>
     <g id="text_46">
      <!-- 0.15 -->
      <g transform="translate(149.065598 404.638437) scale(0.1 -0.1)">
       <use xlink:href="#DejaVuSans-30"/>
       <use xlink:href="#DejaVuSans-2e" x="63.623047"/>
       <use xlink:href="#DejaVuSans-31" x="95.410156"/>
       <use xlink:href="#DejaVuSans-35" x="159.033203"/>
      </g>
     </g>
    </g>
    <g id="xtick_23">
     <g id="line2d_44">
      <g>
       <use xlink:href="#m696c9b1c22" x="192.753335" y="390.04" style="stroke: #000000; stroke-width: 0.8"/>
      </g>
     </g>
     <g id="text_47">
      <!-- 0.20 -->
      <g transform="translate(181.620523 404.638437) scale(0.1 -0.1)">
       <use xlink:href="#DejaVuSans-30"/>
       <use xlink:href="#DejaVuSans-2e" x="63.623047"/>
       <use xlink:href="#DejaVuSans-32" x="95.410156"/>
       <use xlink:href="#DejaVuSans-30" x="159.033203"/>
      </g>
     </g>
    </g>
    <g id="xtick_24">
     <g id="line2d_45">
      <g>
       <use xlink:href="#m696c9b1c22" x="225.30826" y="390.04" style="stroke: #000000; stroke-width: 0.8"/>
      </g>
     </g>
     <g id="text_48">
      <!-- 0.25 -->
      <g transform="translate(214.175447 404.638437) scale(0.1 -0.1)">
       <use xlink:href="#DejaVuSans-30"/>
       <use xlink:href="#DejaVuSans-2e" x="63.623047"/>
       <use xlink:href="#DejaVuSans-32" x="95.410156"/>
       <use xlink:href="#DejaVuSans-35" x="159.033203"/>
      </g>
     </g>
    </g>
    <g id="text_49">
     <!-- Growth rate (gDW/h) -->
     <g transform="translate(95.518438 418.316562) scale(0.1 -0.1)">
      <use xlink:href="#DejaVuSans-47"/>
      <use xlink:href="#DejaVuSans-72" x="77.490234"/>
      <use xlink:href="#DejaVuSans-6f" x="116.353516"/>
      <use xlink:href="#DejaVuSans-77" x="177.535156"/>
      <use xlink:href="#DejaVuSans-74" x="259.322266"/>
      <use xlink:href="#DejaVuSans-68" x="298.53125"/>
      <use xlink:href="#DejaVuSans-20" x="361.910156"/>
      <use xlink:href="#DejaVuSans-72" x="393.697266"/>
      <use xlink:href="#DejaVuSans-61" x="434.810547"/>
      <use xlink:href="#DejaVuSans-74" x="496.089844"/>
      <use xlink:href="#DejaVuSans-65" x="535.298828"/>
      <use xlink:href="#DejaVuSans-20" x="596.822266"/>
      <use xlink:href="#DejaVuSans-28" x="628.609375"/>
      <use xlink:href="#DejaVuSans-67" x="667.623047"/>
      <use xlink:href="#DejaVuSans-44" x="731.099609"/>
      <use xlink:href="#DejaVuSans-57" x="808.101562"/>
      <use xlink:href="#DejaVuSans-2f" x="906.978516"/>
      <use xlink:href="#DejaVuSans-68" x="940.669922"/>
      <use xlink:href="#DejaVuSans-29" x="1004.048828"/>
     </g>
    </g>
   </g>
   <g id="matplotlib.axis_8">
    <g id="ytick_16">
     <g id="line2d_46">
      <g>
       <use xlink:href="#m7d2e97615d" x="54.02" y="383.105455" style="stroke: #000000; stroke-width: 0.8"/>
      </g>
     </g>
     <g id="text_50">
      <!-- 0.0 -->
      <g transform="translate(31.116875 386.904673) scale(0.1 -0.1)">
       <use xlink:href="#DejaVuSans-30"/>
       <use xlink:href="#DejaVuSans-2e" x="63.623047"/>
       <use xlink:href="#DejaVuSans-30" x="95.410156"/>
      </g>
     </g>
    </g>
    <g id="ytick_17">
     <g id="line2d_47">
      <g>
       <use xlink:href="#m7d2e97615d" x="54.02" y="358.154943" style="stroke: #000000; stroke-width: 0.8"/>
      </g>
     </g>
     <g id="text_51">
      <!-- 2.5 -->
      <g transform="translate(31.116875 361.954162) scale(0.1 -0.1)">
       <use xlink:href="#DejaVuSans-32"/>
       <use xlink:href="#DejaVuSans-2e" x="63.623047"/>
       <use xlink:href="#DejaVuSans-35" x="95.410156"/>
      </g>
     </g>
    </g>
    <g id="ytick_18">
     <g id="line2d_48">
      <g>
       <use xlink:href="#m7d2e97615d" x="54.02" y="333.204432" style="stroke: #000000; stroke-width: 0.8"/>
      </g>
     </g>
     <g id="text_52">
      <!-- 5.0 -->
      <g transform="translate(31.116875 337.003651) scale(0.1 -0.1)">
       <use xlink:href="#DejaVuSans-35"/>
       <use xlink:href="#DejaVuSans-2e" x="63.623047"/>
       <use xlink:href="#DejaVuSans-30" x="95.410156"/>
      </g>
     </g>
    </g>
    <g id="ytick_19">
     <g id="line2d_49">
      <g>
       <use xlink:href="#m7d2e97615d" x="54.02" y="308.253921" style="stroke: #000000; stroke-width: 0.8"/>
      </g>
     </g>
     <g id="text_53">
      <!-- 7.5 -->
      <g transform="translate(31.116875 312.05314) scale(0.1 -0.1)">
       <defs>
        <path id="DejaVuSans-37" d="M 525 4666 
L 3525 4666 
L 3525 4397 
L 1831 0 
L 1172 0 
L 2766 4134 
L 525 4134 
L 525 4666 
z
" transform="scale(0.015625)"/>
       </defs>
       <use xlink:href="#DejaVuSans-37"/>
       <use xlink:href="#DejaVuSans-2e" x="63.623047"/>
       <use xlink:href="#DejaVuSans-35" x="95.410156"/>
      </g>
     </g>
    </g>
    <g id="ytick_20">
     <g id="line2d_50">
      <g>
       <use xlink:href="#m7d2e97615d" x="54.02" y="283.30341" style="stroke: #000000; stroke-width: 0.8"/>
      </g>
     </g>
     <g id="text_54">
      <!-- 10.0 -->
      <g transform="translate(24.754375 287.102628) scale(0.1 -0.1)">
       <use xlink:href="#DejaVuSans-31"/>
       <use xlink:href="#DejaVuSans-30" x="63.623047"/>
       <use xlink:href="#DejaVuSans-2e" x="127.246094"/>
       <use xlink:href="#DejaVuSans-30" x="159.033203"/>
      </g>
     </g>
    </g>
    <g id="ytick_21">
     <g id="line2d_51">
      <g>
       <use xlink:href="#m7d2e97615d" x="54.02" y="258.352898" style="stroke: #000000; stroke-width: 0.8"/>
      </g>
     </g>
     <g id="text_55">
      <!-- 12.5 -->
      <g transform="translate(24.754375 262.152117) scale(0.1 -0.1)">
       <use xlink:href="#DejaVuSans-31"/>
       <use xlink:href="#DejaVuSans-32" x="63.623047"/>
       <use xlink:href="#DejaVuSans-2e" x="127.246094"/>
       <use xlink:href="#DejaVuSans-35" x="159.033203"/>
      </g>
     </g>
    </g>
    <g id="text_56">
     <!-- Flux (mmol/h/gDW) -->
     <g transform="translate(18.674688 362.338125) rotate(-90) scale(0.1 -0.1)">
      <use xlink:href="#DejaVuSans-46"/>
      <use xlink:href="#DejaVuSans-6c" x="57.519531"/>
      <use xlink:href="#DejaVuSans-75" x="85.302734"/>
      <use xlink:href="#DejaVuSans-78" x="148.681641"/>
      <use xlink:href="#DejaVuSans-20" x="207.861328"/>
      <use xlink:href="#DejaVuSans-28" x="239.648438"/>
      <use xlink:href="#DejaVuSans-6d" x="278.662109"/>
      <use xlink:href="#DejaVuSans-6d" x="376.074219"/>
      <use xlink:href="#DejaVuSans-6f" x="473.486328"/>
      <use xlink:href="#DejaVuSans-6c" x="534.667969"/>
      <use xlink:href="#DejaVuSans-2f" x="562.451172"/>
      <use xlink:href="#DejaVuSans-68" x="596.142578"/>
      <use xlink:href="#DejaVuSans-2f" x="659.521484"/>
      <use xlink:href="#DejaVuSans-67" x="693.212891"/>
      <use xlink:href="#DejaVuSans-44" x="756.689453"/>
      <use xlink:href="#DejaVuSans-57" x="833.691406"/>
      <use xlink:href="#DejaVuSans-29" x="932.568359"/>
     </g>
    </g>
   </g>
   <g id="line2d_52">
    <path d="M 62.533636 244.414545 
L 71.495359 245.245958 
L 80.457081 246.077371 
L 89.418804 246.908784 
L 98.380526 247.740197 
L 107.342249 248.571609 
L 116.303971 249.478867 
L 125.265694 251.775871 
L 134.227416 257.062042 
L 143.189139 262.409218 
L 152.150861 267.856143 
L 161.112584 273.314193 
L 170.074306 278.823862 
L 179.036029 284.420085 
L 187.997751 290.127176 
L 196.959474 295.899551 
L 205.921196 301.673951 
L 214.882919 307.626182 
L 223.844641 318.366095 
L 232.806364 329.573434 
" clip-path="url(#p22a96affb1)" style="fill: none; stroke: #00bfbf; stroke-width: 1.5; stroke-linecap: square"/>
   </g>
   <g id="line2d_53">
    <path d="M 62.533636 383.105455 
L 71.495359 383.068603 
L 80.457081 383.031752 
L 89.418804 382.994901 
L 98.380526 382.958049 
L 107.342249 382.921198 
L 116.303971 382.884347 
L 125.265694 382.847495 
L 134.227416 382.810644 
L 143.189139 382.773793 
L 152.150861 382.736941 
L 161.112584 382.70009 
L 170.074306 382.663239 
L 179.036029 382.626387 
L 187.997751 382.589536 
L 196.959474 382.552685 
L 205.921196 382.515833 
L 214.882919 382.478982 
L 223.844641 357.542425 
L 232.806364 329.573434 
" clip-path="url(#p22a96affb1)" style="fill: none; stroke: #00bfbf; stroke-width: 1.5; stroke-linecap: square"/>
   </g>
   <g id="patch_18">
    <path d="M 54.02 390.04 
L 54.02 237.48 
" style="fill: none; stroke: #000000; stroke-width: 0.8; stroke-linejoin: miter; stroke-linecap: square"/>
   </g>
   <g id="patch_19">
    <path d="M 241.32 390.04 
L 241.32 237.48 
" style="fill: none; stroke: #000000; stroke-width: 0.8; stroke-linejoin: miter; stroke-linecap: square"/>
   </g>
   <g id="patch_20">
    <path d="M 54.02 390.04 
L 241.32 390.04 
" style="fill: none; stroke: #000000; stroke-width: 0.8; stroke-linejoin: miter; stroke-linecap: square"/>
   </g>
   <g id="patch_21">
    <path d="M 54.02 237.48 
L 241.32 237.48 
" style="fill: none; stroke: #000000; stroke-width: 0.8; stroke-linejoin: miter; stroke-linecap: square"/>
   </g>
   <g id="text_57">
    <!-- Butanol exchange -->
    <g transform="translate(93.559375 231.48) scale(0.12 -0.12)">
     <use xlink:href="#DejaVuSans-42"/>
     <use xlink:href="#DejaVuSans-75" x="68.603516"/>
     <use xlink:href="#DejaVuSans-74" x="131.982422"/>
     <use xlink:href="#DejaVuSans-61" x="171.191406"/>
     <use xlink:href="#DejaVuSans-6e" x="232.470703"/>
     <use xlink:href="#DejaVuSans-6f" x="295.849609"/>
     <use xlink:href="#DejaVuSans-6c" x="357.03125"/>
     <use xlink:href="#DejaVuSans-20" x="384.814453"/>
     <use xlink:href="#DejaVuSans-65" x="416.601562"/>
     <use xlink:href="#DejaVuSans-78" x="476.375"/>
     <use xlink:href="#DejaVuSans-63" x="533.804688"/>
     <use xlink:href="#DejaVuSans-68" x="588.785156"/>
     <use xlink:href="#DejaVuSans-61" x="652.164062"/>
     <use xlink:href="#DejaVuSans-6e" x="713.443359"/>
     <use xlink:href="#DejaVuSans-67" x="776.822266"/>
     <use xlink:href="#DejaVuSans-65" x="840.298828"/>
    </g>
   </g>
  </g>
  <g id="axes_5">
   <g id="patch_22">
    <path d="M 287.96 390.04 
L 475.26 390.04 
L 475.26 237.48 
L 287.96 237.48 
z
" style="fill: #ffffff"/>
   </g>
   <g id="PolyCollection_5">
    <defs>
     <path id="m1027145a24" d="M 296.473636 -187.585455 
L 296.473636 -48.894545 
L 305.435359 -48.931397 
L 314.397081 -48.968248 
L 323.358804 -49.005099 
L 332.320526 -49.041951 
L 341.282249 -49.078802 
L 350.243971 -49.115653 
L 359.205694 -49.152505 
L 368.167416 -49.189356 
L 377.129139 -49.226207 
L 386.090861 -49.263059 
L 395.052584 -49.29991 
L 404.014306 -49.336761 
L 412.976029 -49.373613 
L 421.937751 -49.410464 
L 430.899474 -49.447315 
L 439.861196 -49.484167 
L 448.822919 -49.521018 
L 457.784641 -74.457575 
L 466.746364 -102.426566 
L 466.746364 -102.426566 
L 466.746364 -102.426566 
L 457.784641 -113.633905 
L 448.822919 -124.373818 
L 439.861196 -130.326049 
L 430.899474 -136.100449 
L 421.937751 -141.872824 
L 412.976029 -147.579915 
L 404.014306 -153.176138 
L 395.052584 -158.685807 
L 386.090861 -164.143857 
L 377.129139 -169.590782 
L 368.167416 -174.937958 
L 359.205694 -180.224129 
L 350.243971 -182.521133 
L 341.282249 -183.428391 
L 332.320526 -184.259803 
L 323.358804 -185.091216 
L 314.397081 -185.922629 
L 305.435359 -186.754042 
L 296.473636 -187.585455 
z
" style="stroke: #bf00bf; stroke-opacity: 0.2"/>
    </defs>
    <g clip-path="url(#p4748fe65e4)">
     <use xlink:href="#m1027145a24" x="0" y="432" style="fill: #bf00bf; fill-opacity: 0.2; stroke: #bf00bf; stroke-opacity: 0.2"/>
    </g>
   </g>
   <g id="matplotlib.axis_9">
    <g id="xtick_25">
     <g id="line2d_54">
      <g>
       <use xlink:href="#m696c9b1c22" x="296.473636" y="390.04" style="stroke: #000000; stroke-width: 0.8"/>
      </g>
     </g>
     <g id="text_58">
      <!-- 0.00 -->
      <g transform="translate(285.340824 404.638437) scale(0.1 -0.1)">
       <use xlink:href="#DejaVuSans-30"/>
       <use xlink:href="#DejaVuSans-2e" x="63.623047"/>
       <use xlink:href="#DejaVuSans-30" x="95.410156"/>
       <use xlink:href="#DejaVuSans-30" x="159.033203"/>
      </g>
     </g>
    </g>
    <g id="xtick_26">
     <g id="line2d_55">
      <g>
       <use xlink:href="#m696c9b1c22" x="329.028561" y="390.04" style="stroke: #000000; stroke-width: 0.8"/>
      </g>
     </g>
     <g id="text_59">
      <!-- 0.05 -->
      <g transform="translate(317.895749 404.638437) scale(0.1 -0.1)">
       <use xlink:href="#DejaVuSans-30"/>
       <use xlink:href="#DejaVuSans-2e" x="63.623047"/>
       <use xlink:href="#DejaVuSans-30" x="95.410156"/>
       <use xlink:href="#DejaVuSans-35" x="159.033203"/>
      </g>
     </g>
    </g>
    <g id="xtick_27">
     <g id="line2d_56">
      <g>
       <use xlink:href="#m696c9b1c22" x="361.583486" y="390.04" style="stroke: #000000; stroke-width: 0.8"/>
      </g>
     </g>
     <g id="text_60">
      <!-- 0.10 -->
      <g transform="translate(350.450673 404.638437) scale(0.1 -0.1)">
       <use xlink:href="#DejaVuSans-30"/>
       <use xlink:href="#DejaVuSans-2e" x="63.623047"/>
       <use xlink:href="#DejaVuSans-31" x="95.410156"/>
       <use xlink:href="#DejaVuSans-30" x="159.033203"/>
      </g>
     </g>
    </g>
    <g id="xtick_28">
     <g id="line2d_57">
      <g>
       <use xlink:href="#m696c9b1c22" x="394.13841" y="390.04" style="stroke: #000000; stroke-width: 0.8"/>
      </g>
     </g>
     <g id="text_61">
      <!-- 0.15 -->
      <g transform="translate(383.005598 404.638437) scale(0.1 -0.1)">
       <use xlink:href="#DejaVuSans-30"/>
       <use xlink:href="#DejaVuSans-2e" x="63.623047"/>
       <use xlink:href="#DejaVuSans-31" x="95.410156"/>
       <use xlink:href="#DejaVuSans-35" x="159.033203"/>
      </g>
     </g>
    </g>
    <g id="xtick_29">
     <g id="line2d_58">
      <g>
       <use xlink:href="#m696c9b1c22" x="426.693335" y="390.04" style="stroke: #000000; stroke-width: 0.8"/>
      </g>
     </g>
     <g id="text_62">
      <!-- 0.20 -->
      <g transform="translate(415.560523 404.638437) scale(0.1 -0.1)">
       <use xlink:href="#DejaVuSans-30"/>
       <use xlink:href="#DejaVuSans-2e" x="63.623047"/>
       <use xlink:href="#DejaVuSans-32" x="95.410156"/>
       <use xlink:href="#DejaVuSans-30" x="159.033203"/>
      </g>
     </g>
    </g>
    <g id="xtick_30">
     <g id="line2d_59">
      <g>
       <use xlink:href="#m696c9b1c22" x="459.24826" y="390.04" style="stroke: #000000; stroke-width: 0.8"/>
      </g>
     </g>
     <g id="text_63">
      <!-- 0.25 -->
      <g transform="translate(448.115447 404.638437) scale(0.1 -0.1)">
       <use xlink:href="#DejaVuSans-30"/>
       <use xlink:href="#DejaVuSans-2e" x="63.623047"/>
       <use xlink:href="#DejaVuSans-32" x="95.410156"/>
       <use xlink:href="#DejaVuSans-35" x="159.033203"/>
      </g>
     </g>
    </g>
    <g id="text_64">
     <!-- Growth rate (gDW/h) -->
     <g transform="translate(329.458437 418.316562) scale(0.1 -0.1)">
      <use xlink:href="#DejaVuSans-47"/>
      <use xlink:href="#DejaVuSans-72" x="77.490234"/>
      <use xlink:href="#DejaVuSans-6f" x="116.353516"/>
      <use xlink:href="#DejaVuSans-77" x="177.535156"/>
      <use xlink:href="#DejaVuSans-74" x="259.322266"/>
      <use xlink:href="#DejaVuSans-68" x="298.53125"/>
      <use xlink:href="#DejaVuSans-20" x="361.910156"/>
      <use xlink:href="#DejaVuSans-72" x="393.697266"/>
      <use xlink:href="#DejaVuSans-61" x="434.810547"/>
      <use xlink:href="#DejaVuSans-74" x="496.089844"/>
      <use xlink:href="#DejaVuSans-65" x="535.298828"/>
      <use xlink:href="#DejaVuSans-20" x="596.822266"/>
      <use xlink:href="#DejaVuSans-28" x="628.609375"/>
      <use xlink:href="#DejaVuSans-67" x="667.623047"/>
      <use xlink:href="#DejaVuSans-44" x="731.099609"/>
      <use xlink:href="#DejaVuSans-57" x="808.101562"/>
      <use xlink:href="#DejaVuSans-2f" x="906.978516"/>
      <use xlink:href="#DejaVuSans-68" x="940.669922"/>
      <use xlink:href="#DejaVuSans-29" x="1004.048828"/>
     </g>
    </g>
   </g>
   <g id="matplotlib.axis_10">
    <g id="ytick_22">
     <g id="line2d_60">
      <g>
       <use xlink:href="#m7d2e97615d" x="287.96" y="383.105455" style="stroke: #000000; stroke-width: 0.8"/>
      </g>
     </g>
     <g id="text_65">
      <!-- 0 -->
      <g transform="translate(274.5975 386.904673) scale(0.1 -0.1)">
       <use xlink:href="#DejaVuSans-30"/>
      </g>
     </g>
    </g>
    <g id="ytick_23">
     <g id="line2d_61">
      <g>
       <use xlink:href="#m7d2e97615d" x="287.96" y="356.358506" style="stroke: #000000; stroke-width: 0.8"/>
      </g>
     </g>
     <g id="text_66">
      <!-- 1 -->
      <g transform="translate(274.5975 360.157725) scale(0.1 -0.1)">
       <use xlink:href="#DejaVuSans-31"/>
      </g>
     </g>
    </g>
    <g id="ytick_24">
     <g id="line2d_62">
      <g>
       <use xlink:href="#m7d2e97615d" x="287.96" y="329.611558" style="stroke: #000000; stroke-width: 0.8"/>
      </g>
     </g>
     <g id="text_67">
      <!-- 2 -->
      <g transform="translate(274.5975 333.410777) scale(0.1 -0.1)">
       <use xlink:href="#DejaVuSans-32"/>
      </g>
     </g>
    </g>
    <g id="ytick_25">
     <g id="line2d_63">
      <g>
       <use xlink:href="#m7d2e97615d" x="287.96" y="302.86461" style="stroke: #000000; stroke-width: 0.8"/>
      </g>
     </g>
     <g id="text_68">
      <!-- 3 -->
      <g transform="translate(274.5975 306.663829) scale(0.1 -0.1)">
       <use xlink:href="#DejaVuSans-33"/>
      </g>
     </g>
    </g>
    <g id="ytick_26">
     <g id="line2d_64">
      <g>
       <use xlink:href="#m7d2e97615d" x="287.96" y="276.117662" style="stroke: #000000; stroke-width: 0.8"/>
      </g>
     </g>
     <g id="text_69">
      <!-- 4 -->
      <g transform="translate(274.5975 279.916881) scale(0.1 -0.1)">
       <use xlink:href="#DejaVuSans-34"/>
      </g>
     </g>
    </g>
    <g id="ytick_27">
     <g id="line2d_65">
      <g>
       <use xlink:href="#m7d2e97615d" x="287.96" y="249.370714" style="stroke: #000000; stroke-width: 0.8"/>
      </g>
     </g>
     <g id="text_70">
      <!-- 5 -->
      <g transform="translate(274.5975 253.169933) scale(0.1 -0.1)">
       <use xlink:href="#DejaVuSans-35"/>
      </g>
     </g>
    </g>
    <g id="text_71">
     <!-- Flux (mmol/h/gDW) -->
     <g transform="translate(268.517812 362.338125) rotate(-90) scale(0.1 -0.1)">
      <use xlink:href="#DejaVuSans-46"/>
      <use xlink:href="#DejaVuSans-6c" x="57.519531"/>
      <use xlink:href="#DejaVuSans-75" x="85.302734"/>
      <use xlink:href="#DejaVuSans-78" x="148.681641"/>
      <use xlink:href="#DejaVuSans-20" x="207.861328"/>
      <use xlink:href="#DejaVuSans-28" x="239.648438"/>
      <use xlink:href="#DejaVuSans-6d" x="278.662109"/>
      <use xlink:href="#DejaVuSans-6d" x="376.074219"/>
      <use xlink:href="#DejaVuSans-6f" x="473.486328"/>
      <use xlink:href="#DejaVuSans-6c" x="534.667969"/>
      <use xlink:href="#DejaVuSans-2f" x="562.451172"/>
      <use xlink:href="#DejaVuSans-68" x="596.142578"/>
      <use xlink:href="#DejaVuSans-2f" x="659.521484"/>
      <use xlink:href="#DejaVuSans-67" x="693.212891"/>
      <use xlink:href="#DejaVuSans-44" x="756.689453"/>
      <use xlink:href="#DejaVuSans-57" x="833.691406"/>
      <use xlink:href="#DejaVuSans-29" x="932.568359"/>
     </g>
    </g>
   </g>
   <g id="line2d_66">
    <path d="M 296.473636 244.414545 
L 305.435359 245.245958 
L 314.397081 246.077371 
L 323.358804 246.908784 
L 332.320526 247.740197 
L 341.282249 248.571609 
L 350.243971 249.478867 
L 359.205694 251.775871 
L 368.167416 257.062042 
L 377.129139 262.409218 
L 386.090861 267.856143 
L 395.052584 273.314193 
L 404.014306 278.823862 
L 412.976029 284.420085 
L 421.937751 290.127176 
L 430.899474 295.899551 
L 439.861196 301.673951 
L 448.822919 307.626182 
L 457.784641 318.366095 
L 466.746364 329.573434 
" clip-path="url(#p4748fe65e4)" style="fill: none; stroke: #bf00bf; stroke-width: 1.5; stroke-linecap: square"/>
   </g>
   <g id="line2d_67">
    <path d="M 296.473636 383.105455 
L 305.435359 383.068603 
L 314.397081 383.031752 
L 323.358804 382.994901 
L 332.320526 382.958049 
L 341.282249 382.921198 
L 350.243971 382.884347 
L 359.205694 382.847495 
L 368.167416 382.810644 
L 377.129139 382.773793 
L 386.090861 382.736941 
L 395.052584 382.70009 
L 404.014306 382.663239 
L 412.976029 382.626387 
L 421.937751 382.589536 
L 430.899474 382.552685 
L 439.861196 382.515833 
L 448.822919 382.478982 
L 457.784641 357.542425 
L 466.746364 329.573434 
" clip-path="url(#p4748fe65e4)" style="fill: none; stroke: #bf00bf; stroke-width: 1.5; stroke-linecap: square"/>
   </g>
   <g id="patch_23">
    <path d="M 287.96 390.04 
L 287.96 237.48 
" style="fill: none; stroke: #000000; stroke-width: 0.8; stroke-linejoin: miter; stroke-linecap: square"/>
   </g>
   <g id="patch_24">
    <path d="M 475.26 390.04 
L 475.26 237.48 
" style="fill: none; stroke: #000000; stroke-width: 0.8; stroke-linejoin: miter; stroke-linecap: square"/>
   </g>
   <g id="patch_25">
    <path d="M 287.96 390.04 
L 475.26 390.04 
" style="fill: none; stroke: #000000; stroke-width: 0.8; stroke-linejoin: miter; stroke-linecap: square"/>
   </g>
   <g id="patch_26">
    <path d="M 287.96 237.48 
L 475.26 237.48 
" style="fill: none; stroke: #000000; stroke-width: 0.8; stroke-linejoin: miter; stroke-linecap: square"/>
   </g>
   <g id="text_72">
    <!-- Acetone exchange -->
    <g transform="translate(326.08 231.48) scale(0.12 -0.12)">
     <use xlink:href="#DejaVuSans-41"/>
     <use xlink:href="#DejaVuSans-63" x="66.658203"/>
     <use xlink:href="#DejaVuSans-65" x="121.638672"/>
     <use xlink:href="#DejaVuSans-74" x="183.162109"/>
     <use xlink:href="#DejaVuSans-6f" x="222.371094"/>
     <use xlink:href="#DejaVuSans-6e" x="283.552734"/>
     <use xlink:href="#DejaVuSans-65" x="346.931641"/>
     <use xlink:href="#DejaVuSans-20" x="408.455078"/>
     <use xlink:href="#DejaVuSans-65" x="440.242188"/>
     <use xlink:href="#DejaVuSans-78" x="500.015625"/>
     <use xlink:href="#DejaVuSans-63" x="557.445312"/>
     <use xlink:href="#DejaVuSans-68" x="612.425781"/>
     <use xlink:href="#DejaVuSans-61" x="675.804688"/>
     <use xlink:href="#DejaVuSans-6e" x="737.083984"/>
     <use xlink:href="#DejaVuSans-67" x="800.462891"/>
     <use xlink:href="#DejaVuSans-65" x="863.939453"/>
    </g>
   </g>
  </g>
  <g id="axes_6"/>
 </g>
 <defs>
  <clipPath id="p36fb2eea24">
   <rect x="54.02" y="26.88" width="187.3" height="152.56"/>
  </clipPath>
  <clipPath id="p5e6ca380d1">
   <rect x="287.96" y="26.88" width="187.3" height="152.56"/>
  </clipPath>
  <clipPath id="p6268dc31b3">
   <rect x="521.9" y="26.88" width="187.3" height="152.56"/>
  </clipPath>
  <clipPath id="p22a96affb1">
   <rect x="54.02" y="237.48" width="187.3" height="152.56"/>
  </clipPath>
  <clipPath id="p4748fe65e4">
   <rect x="287.96" y="237.48" width="187.3" height="152.56"/>
  </clipPath>
 </defs>
</svg>
