<?xml version="1.0" encoding="utf-8" standalone="no"?>
<!DOCTYPE svg PUBLIC "-//W3C//DTD SVG 1.1//EN"
  "http://www.w3.org/Graphics/SVG/1.1/DTD/svg11.dtd">
<svg xmlns:xlink="http://www.w3.org/1999/xlink" width="720pt" height="432pt" viewBox="0 0 720 432" xmlns="http://www.w3.org/2000/svg" version="1.1">
 <metadata>
  <rdf:RDF xmlns:dc="http://purl.org/dc/elements/1.1/" xmlns:cc="http://creativecommons.org/ns#" xmlns:rdf="http://www.w3.org/1999/02/22-rdf-syntax-ns#">
   <cc:Work>
    <dc:type rdf:resource="http://purl.org/dc/dcmitype/StillImage"/>
    <dc:date>2024-03-14T14:12:13.796995</dc:date>
    <dc:format>image/svg+xml</dc:format>
    <dc:creator>
     <cc:Agent>
      <dc:title>Matplotlib v3.6.2, https://matplotlib.org/</dc:title>
     </cc:Agent>
    </dc:creator>
   </cc:Work>
  </rdf:RDF>
 </metadata>
 <defs>
  <style type="text/css">*{stroke-linejoin: round; stroke-linecap: butt}</style>
 </defs>
 <g id="figure_1">
  <g id="patch_1">
   <path d="M 0 432 
L 720 432 
L 720 0 
L 0 0 
z
" style="fill: #ffffff"/>
  </g>
  <g id="axes_1">
   <g id="patch_2">
    <path d="M 38.27 179.44 
L 232.2 179.44 
L 232.2 26.88 
L 38.27 26.88 
z
" style="fill: #ffffff"/>
   </g>
   <g id="PolyCollection_1">
    <defs>
     <path id="m1db517b915" d="M 47.085 -398.185455 
L 47.085 -259.494545 
L 56.363947 -259.494545 
L 65.642895 -259.494545 
L 74.921842 -259.494545 
L 84.200789 -259.494545 
L 93.479737 -259.494545 
L 102.758684 -259.494545 
L 112.037632 -259.494545 
L 121.316579 -259.494545 
L 130.595526 -259.494545 
L 139.874474 -259.494545 
L 149.153421 -259.494545 
L 158.432368 -259.494545 
L 167.711316 -259.494545 
L 176.990263 -264.676165 
L 186.269211 -279.761929 
L 195.548158 -295.152864 
L 204.827105 -310.543799 
L 214.106053 -325.978575 
L 223.385 -341.439058 
L 223.385 -341.439058 
L 223.385 -341.439058 
L 214.106053 -350.890855 
L 204.827105 -356.507329 
L 195.548158 -359.803806 
L 186.269211 -363.077627 
L 176.990263 -365.789807 
L 167.711316 -368.321859 
L 158.432368 -370.802282 
L 149.153421 -373.282705 
L 139.874474 -375.763128 
L 130.595526 -378.171994 
L 121.316579 -380.513962 
L 112.037632 -382.85593 
L 102.758684 -385.070242 
L 93.479737 -387.256111 
L 84.200789 -389.44198 
L 74.921842 -391.627849 
L 65.642895 -393.813717 
L 56.363947 -395.999586 
L 47.085 -398.185455 
z
" style="stroke: #0000ff; stroke-opacity: 0.2"/>
    </defs>
    <g clip-path="url(#p5368cc06a5)">
     <use xlink:href="#m1db517b915" x="0" y="432" style="fill: #0000ff; fill-opacity: 0.2; stroke: #0000ff; stroke-opacity: 0.2"/>
    </g>
   </g>
   <g id="matplotlib.axis_1">
    <g id="xtick_1">
     <g id="line2d_1">
      <defs>
       <path id="m6504d80f1a" d="M 0 0 
L 0 3.5 
" style="stroke: #000000; stroke-width: 0.8"/>
      </defs>
      <g>
       <use xlink:href="#m6504d80f1a" x="47.085" y="179.44" style="stroke: #000000; stroke-width: 0.8"/>
      </g>
     </g>
     <g id="text_1">
      <!-- 0.0 -->
      <g transform="translate(39.133437 194.038437) scale(0.1 -0.1)">
       <defs>
        <path id="DejaVuSans-30" d="M 2034 4250 
Q 1547 4250 1301 3770 
Q 1056 3291 1056 2328 
Q 1056 1369 1301 889 
Q 1547 409 2034 409 
Q 2525 409 2770 889 
Q 3016 1369 3016 2328 
Q 3016 3291 2770 3770 
Q 2525 4250 2034 4250 
z
M 2034 4750 
Q 2819 4750 3233 4129 
Q 3647 3509 3647 2328 
Q 3647 1150 3233 529 
Q 2819 -91 2034 -91 
Q 1250 -91 836 529 
Q 422 1150 422 2328 
Q 422 3509 836 4129 
Q 1250 4750 2034 4750 
z
" transform="scale(0.015625)"/>
        <path id="DejaVuSans-2e" d="M 684 794 
L 1344 794 
L 1344 0 
L 684 0 
L 684 794 
z
" transform="scale(0.015625)"/>
       </defs>
       <use xlink:href="#DejaVuSans-30"/>
       <use xlink:href="#DejaVuSans-2e" x="63.623047"/>
       <use xlink:href="#DejaVuSans-30" x="95.410156"/>
      </g>
     </g>
    </g>
    <g id="xtick_2">
     <g id="line2d_2">
      <g>
       <use xlink:href="#m6504d80f1a" x="102.392901" y="179.44" style="stroke: #000000; stroke-width: 0.8"/>
      </g>
     </g>
     <g id="text_2">
      <!-- 0.1 -->
      <g transform="translate(94.441338 194.038437) scale(0.1 -0.1)">
       <defs>
        <path id="DejaVuSans-31" d="M 794 531 
L 1825 531 
L 1825 4091 
L 703 3866 
L 703 4441 
L 1819 4666 
L 2450 4666 
L 2450 531 
L 3481 531 
L 3481 0 
L 794 0 
L 794 531 
z
" transform="scale(0.015625)"/>
       </defs>
       <use xlink:href="#DejaVuSans-30"/>
       <use xlink:href="#DejaVuSans-2e" x="63.623047"/>
       <use xlink:href="#DejaVuSans-31" x="95.410156"/>
      </g>
     </g>
    </g>
    <g id="xtick_3">
     <g id="line2d_3">
      <g>
       <use xlink:href="#m6504d80f1a" x="157.700801" y="179.44" style="stroke: #000000; stroke-width: 0.8"/>
      </g>
     </g>
     <g id="text_3">
      <!-- 0.2 -->
      <g transform="translate(149.749239 194.038437) scale(0.1 -0.1)">
       <defs>
        <path id="DejaVuSans-32" d="M 1228 531 
L 3431 531 
L 3431 0 
L 469 0 
L 469 531 
Q 828 903 1448 1529 
Q 2069 2156 2228 2338 
Q 2531 2678 2651 2914 
Q 2772 3150 2772 3378 
Q 2772 3750 2511 3984 
Q 2250 4219 1831 4219 
Q 1534 4219 1204 4116 
Q 875 4013 500 3803 
L 500 4441 
Q 881 4594 1212 4672 
Q 1544 4750 1819 4750 
Q 2544 4750 2975 4387 
Q 3406 4025 3406 3419 
Q 3406 3131 3298 2873 
Q 3191 2616 2906 2266 
Q 2828 2175 2409 1742 
Q 1991 1309 1228 531 
z
" transform="scale(0.015625)"/>
       </defs>
       <use xlink:href="#DejaVuSans-30"/>
       <use xlink:href="#DejaVuSans-2e" x="63.623047"/>
       <use xlink:href="#DejaVuSans-32" x="95.410156"/>
      </g>
     </g>
    </g>
    <g id="xtick_4">
     <g id="line2d_4">
      <g>
       <use xlink:href="#m6504d80f1a" x="213.008702" y="179.44" style="stroke: #000000; stroke-width: 0.8"/>
      </g>
     </g>
     <g id="text_4">
      <!-- 0.3 -->
      <g transform="translate(205.05714 194.038437) scale(0.1 -0.1)">
       <defs>
        <path id="DejaVuSans-33" d="M 2597 2516 
Q 3050 2419 3304 2112 
Q 3559 1806 3559 1356 
Q 3559 666 3084 287 
Q 2609 -91 1734 -91 
Q 1441 -91 1130 -33 
Q 819 25 488 141 
L 488 750 
Q 750 597 1062 519 
Q 1375 441 1716 441 
Q 2309 441 2620 675 
Q 2931 909 2931 1356 
Q 2931 1769 2642 2001 
Q 2353 2234 1838 2234 
L 1294 2234 
L 1294 2753 
L 1863 2753 
Q 2328 2753 2575 2939 
Q 2822 3125 2822 3475 
Q 2822 3834 2567 4026 
Q 2313 4219 1838 4219 
Q 1578 4219 1281 4162 
Q 984 4106 628 3988 
L 628 4550 
Q 988 4650 1302 4700 
Q 1616 4750 1894 4750 
Q 2613 4750 3031 4423 
Q 3450 4097 3450 3541 
Q 3450 3153 3228 2886 
Q 3006 2619 2597 2516 
z
" transform="scale(0.015625)"/>
       </defs>
       <use xlink:href="#DejaVuSans-30"/>
       <use xlink:href="#DejaVuSans-2e" x="63.623047"/>
       <use xlink:href="#DejaVuSans-33" x="95.410156"/>
      </g>
     </g>
    </g>
    <g id="text_5">
     <!-- Growth rate (gDW/h) -->
     <g transform="translate(83.083438 207.716562) scale(0.1 -0.1)">
      <defs>
       <path id="DejaVuSans-47" d="M 3809 666 
L 3809 1919 
L 2778 1919 
L 2778 2438 
L 4434 2438 
L 4434 434 
Q 4069 175 3628 42 
Q 3188 -91 2688 -91 
Q 1594 -91 976 548 
Q 359 1188 359 2328 
Q 359 3472 976 4111 
Q 1594 4750 2688 4750 
Q 3144 4750 3555 4637 
Q 3966 4525 4313 4306 
L 4313 3634 
Q 3963 3931 3569 4081 
Q 3175 4231 2741 4231 
Q 1884 4231 1454 3753 
Q 1025 3275 1025 2328 
Q 1025 1384 1454 906 
Q 1884 428 2741 428 
Q 3075 428 3337 486 
Q 3600 544 3809 666 
z
" transform="scale(0.015625)"/>
       <path id="DejaVuSans-72" d="M 2631 2963 
Q 2534 3019 2420 3045 
Q 2306 3072 2169 3072 
Q 1681 3072 1420 2755 
Q 1159 2438 1159 1844 
L 1159 0 
L 581 0 
L 581 3500 
L 1159 3500 
L 1159 2956 
Q 1341 3275 1631 3429 
Q 1922 3584 2338 3584 
Q 2397 3584 2469 3576 
Q 2541 3569 2628 3553 
L 2631 2963 
z
" transform="scale(0.015625)"/>
       <path id="DejaVuSans-6f" d="M 1959 3097 
Q 1497 3097 1228 2736 
Q 959 2375 959 1747 
Q 959 1119 1226 758 
Q 1494 397 1959 397 
Q 2419 397 2687 759 
Q 2956 1122 2956 1747 
Q 2956 2369 2687 2733 
Q 2419 3097 1959 3097 
z
M 1959 3584 
Q 2709 3584 3137 3096 
Q 3566 2609 3566 1747 
Q 3566 888 3137 398 
Q 2709 -91 1959 -91 
Q 1206 -91 779 398 
Q 353 888 353 1747 
Q 353 2609 779 3096 
Q 1206 3584 1959 3584 
z
" transform="scale(0.015625)"/>
       <path id="DejaVuSans-77" d="M 269 3500 
L 844 3500 
L 1563 769 
L 2278 3500 
L 2956 3500 
L 3675 769 
L 4391 3500 
L 4966 3500 
L 4050 0 
L 3372 0 
L 2619 2869 
L 1863 0 
L 1184 0 
L 269 3500 
z
" transform="scale(0.015625)"/>
       <path id="DejaVuSans-74" d="M 1172 4494 
L 1172 3500 
L 2356 3500 
L 2356 3053 
L 1172 3053 
L 1172 1153 
Q 1172 725 1289 603 
Q 1406 481 1766 481 
L 2356 481 
L 2356 0 
L 1766 0 
Q 1100 0 847 248 
Q 594 497 594 1153 
L 594 3053 
L 172 3053 
L 172 3500 
L 594 3500 
L 594 4494 
L 1172 4494 
z
" transform="scale(0.015625)"/>
       <path id="DejaVuSans-68" d="M 3513 2113 
L 3513 0 
L 2938 0 
L 2938 2094 
Q 2938 2591 2744 2837 
Q 2550 3084 2163 3084 
Q 1697 3084 1428 2787 
Q 1159 2491 1159 1978 
L 1159 0 
L 581 0 
L 581 4863 
L 1159 4863 
L 1159 2956 
Q 1366 3272 1645 3428 
Q 1925 3584 2291 3584 
Q 2894 3584 3203 3211 
Q 3513 2838 3513 2113 
z
" transform="scale(0.015625)"/>
       <path id="DejaVuSans-20" transform="scale(0.015625)"/>
       <path id="DejaVuSans-61" d="M 2194 1759 
Q 1497 1759 1228 1600 
Q 959 1441 959 1056 
Q 959 750 1161 570 
Q 1363 391 1709 391 
Q 2188 391 2477 730 
Q 2766 1069 2766 1631 
L 2766 1759 
L 2194 1759 
z
M 3341 1997 
L 3341 0 
L 2766 0 
L 2766 531 
Q 2569 213 2275 61 
Q 1981 -91 1556 -91 
Q 1019 -91 701 211 
Q 384 513 384 1019 
Q 384 1609 779 1909 
Q 1175 2209 1959 2209 
L 2766 2209 
L 2766 2266 
Q 2766 2663 2505 2880 
Q 2244 3097 1772 3097 
Q 1472 3097 1187 3025 
Q 903 2953 641 2809 
L 641 3341 
Q 956 3463 1253 3523 
Q 1550 3584 1831 3584 
Q 2591 3584 2966 3190 
Q 3341 2797 3341 1997 
z
" transform="scale(0.015625)"/>
       <path id="DejaVuSans-65" d="M 3597 1894 
L 3597 1613 
L 953 1613 
Q 991 1019 1311 708 
Q 1631 397 2203 397 
Q 2534 397 2845 478 
Q 3156 559 3463 722 
L 3463 178 
Q 3153 47 2828 -22 
Q 2503 -91 2169 -91 
Q 1331 -91 842 396 
Q 353 884 353 1716 
Q 353 2575 817 3079 
Q 1281 3584 2069 3584 
Q 2775 3584 3186 3129 
Q 3597 2675 3597 1894 
z
M 3022 2063 
Q 3016 2534 2758 2815 
Q 2500 3097 2075 3097 
Q 1594 3097 1305 2825 
Q 1016 2553 972 2059 
L 3022 2063 
z
" transform="scale(0.015625)"/>
       <path id="DejaVuSans-28" d="M 1984 4856 
Q 1566 4138 1362 3434 
Q 1159 2731 1159 2009 
Q 1159 1288 1364 580 
Q 1569 -128 1984 -844 
L 1484 -844 
Q 1016 -109 783 600 
Q 550 1309 550 2009 
Q 550 2706 781 3412 
Q 1013 4119 1484 4856 
L 1984 4856 
z
" transform="scale(0.015625)"/>
       <path id="DejaVuSans-67" d="M 2906 1791 
Q 2906 2416 2648 2759 
Q 2391 3103 1925 3103 
Q 1463 3103 1205 2759 
Q 947 2416 947 1791 
Q 947 1169 1205 825 
Q 1463 481 1925 481 
Q 2391 481 2648 825 
Q 2906 1169 2906 1791 
z
M 3481 434 
Q 3481 -459 3084 -895 
Q 2688 -1331 1869 -1331 
Q 1566 -1331 1297 -1286 
Q 1028 -1241 775 -1147 
L 775 -588 
Q 1028 -725 1275 -790 
Q 1522 -856 1778 -856 
Q 2344 -856 2625 -561 
Q 2906 -266 2906 331 
L 2906 616 
Q 2728 306 2450 153 
Q 2172 0 1784 0 
Q 1141 0 747 490 
Q 353 981 353 1791 
Q 353 2603 747 3093 
Q 1141 3584 1784 3584 
Q 2172 3584 2450 3431 
Q 2728 3278 2906 2969 
L 2906 3500 
L 3481 3500 
L 3481 434 
z
" transform="scale(0.015625)"/>
       <path id="DejaVuSans-44" d="M 1259 4147 
L 1259 519 
L 2022 519 
Q 2988 519 3436 956 
Q 3884 1394 3884 2338 
Q 3884 3275 3436 3711 
Q 2988 4147 2022 4147 
L 1259 4147 
z
M 628 4666 
L 1925 4666 
Q 3281 4666 3915 4102 
Q 4550 3538 4550 2338 
Q 4550 1131 3912 565 
Q 3275 0 1925 0 
L 628 0 
L 628 4666 
z
" transform="scale(0.015625)"/>
       <path id="DejaVuSans-57" d="M 213 4666 
L 850 4666 
L 1831 722 
L 2809 4666 
L 3519 4666 
L 4500 722 
L 5478 4666 
L 6119 4666 
L 4947 0 
L 4153 0 
L 3169 4050 
L 2175 0 
L 1381 0 
L 213 4666 
z
" transform="scale(0.015625)"/>
       <path id="DejaVuSans-2f" d="M 1625 4666 
L 2156 4666 
L 531 -594 
L 0 -594 
L 1625 4666 
z
" transform="scale(0.015625)"/>
       <path id="DejaVuSans-29" d="M 513 4856 
L 1013 4856 
Q 1481 4119 1714 3412 
Q 1947 2706 1947 2009 
Q 1947 1309 1714 600 
Q 1481 -109 1013 -844 
L 513 -844 
Q 928 -128 1133 580 
Q 1338 1288 1338 2009 
Q 1338 2731 1133 3434 
Q 928 4138 513 4856 
z
" transform="scale(0.015625)"/>
      </defs>
      <use xlink:href="#DejaVuSans-47"/>
      <use xlink:href="#DejaVuSans-72" x="77.490234"/>
      <use xlink:href="#DejaVuSans-6f" x="116.353516"/>
      <use xlink:href="#DejaVuSans-77" x="177.535156"/>
      <use xlink:href="#DejaVuSans-74" x="259.322266"/>
      <use xlink:href="#DejaVuSans-68" x="298.53125"/>
      <use xlink:href="#DejaVuSans-20" x="361.910156"/>
      <use xlink:href="#DejaVuSans-72" x="393.697266"/>
      <use xlink:href="#DejaVuSans-61" x="434.810547"/>
      <use xlink:href="#DejaVuSans-74" x="496.089844"/>
      <use xlink:href="#DejaVuSans-65" x="535.298828"/>
      <use xlink:href="#DejaVuSans-20" x="596.822266"/>
      <use xlink:href="#DejaVuSans-28" x="628.609375"/>
      <use xlink:href="#DejaVuSans-67" x="667.623047"/>
      <use xlink:href="#DejaVuSans-44" x="731.099609"/>
      <use xlink:href="#DejaVuSans-57" x="808.101562"/>
      <use xlink:href="#DejaVuSans-2f" x="906.978516"/>
      <use xlink:href="#DejaVuSans-68" x="940.669922"/>
      <use xlink:href="#DejaVuSans-29" x="1004.048828"/>
     </g>
    </g>
   </g>
   <g id="matplotlib.axis_2">
    <g id="ytick_1">
     <g id="line2d_5">
      <defs>
       <path id="ma57e99ff02" d="M 0 0 
L -3.5 0 
" style="stroke: #000000; stroke-width: 0.8"/>
      </defs>
      <g>
       <use xlink:href="#ma57e99ff02" x="38.27" y="172.505455" style="stroke: #000000; stroke-width: 0.8"/>
      </g>
     </g>
     <g id="text_6">
      <!-- 0 -->
      <g transform="translate(24.9075 176.304673) scale(0.1 -0.1)">
       <use xlink:href="#DejaVuSans-30"/>
      </g>
     </g>
    </g>
    <g id="ytick_2">
     <g id="line2d_6">
      <g>
       <use xlink:href="#ma57e99ff02" x="38.27" y="140.607639" style="stroke: #000000; stroke-width: 0.8"/>
      </g>
     </g>
     <g id="text_7">
      <!-- 2 -->
      <g transform="translate(24.9075 144.406857) scale(0.1 -0.1)">
       <use xlink:href="#DejaVuSans-32"/>
      </g>
     </g>
    </g>
    <g id="ytick_3">
     <g id="line2d_7">
      <g>
       <use xlink:href="#ma57e99ff02" x="38.27" y="108.709823" style="stroke: #000000; stroke-width: 0.8"/>
      </g>
     </g>
     <g id="text_8">
      <!-- 4 -->
      <g transform="translate(24.9075 112.509041) scale(0.1 -0.1)">
       <defs>
        <path id="DejaVuSans-34" d="M 2419 4116 
L 825 1625 
L 2419 1625 
L 2419 4116 
z
M 2253 4666 
L 3047 4666 
L 3047 1625 
L 3713 1625 
L 3713 1100 
L 3047 1100 
L 3047 0 
L 2419 0 
L 2419 1100 
L 313 1100 
L 313 1709 
L 2253 4666 
z
" transform="scale(0.015625)"/>
       </defs>
       <use xlink:href="#DejaVuSans-34"/>
      </g>
     </g>
    </g>
    <g id="ytick_4">
     <g id="line2d_8">
      <g>
       <use xlink:href="#ma57e99ff02" x="38.27" y="76.812006" style="stroke: #000000; stroke-width: 0.8"/>
      </g>
     </g>
     <g id="text_9">
      <!-- 6 -->
      <g transform="translate(24.9075 80.611225) scale(0.1 -0.1)">
       <defs>
        <path id="DejaVuSans-36" d="M 2113 2584 
Q 1688 2584 1439 2293 
Q 1191 2003 1191 1497 
Q 1191 994 1439 701 
Q 1688 409 2113 409 
Q 2538 409 2786 701 
Q 3034 994 3034 1497 
Q 3034 2003 2786 2293 
Q 2538 2584 2113 2584 
z
M 3366 4563 
L 3366 3988 
Q 3128 4100 2886 4159 
Q 2644 4219 2406 4219 
Q 1781 4219 1451 3797 
Q 1122 3375 1075 2522 
Q 1259 2794 1537 2939 
Q 1816 3084 2150 3084 
Q 2853 3084 3261 2657 
Q 3669 2231 3669 1497 
Q 3669 778 3244 343 
Q 2819 -91 2113 -91 
Q 1303 -91 875 529 
Q 447 1150 447 2328 
Q 447 3434 972 4092 
Q 1497 4750 2381 4750 
Q 2619 4750 2861 4703 
Q 3103 4656 3366 4563 
z
" transform="scale(0.015625)"/>
       </defs>
       <use xlink:href="#DejaVuSans-36"/>
      </g>
     </g>
    </g>
    <g id="ytick_5">
     <g id="line2d_9">
      <g>
       <use xlink:href="#ma57e99ff02" x="38.27" y="44.91419" style="stroke: #000000; stroke-width: 0.8"/>
      </g>
     </g>
     <g id="text_10">
      <!-- 8 -->
      <g transform="translate(24.9075 48.713409) scale(0.1 -0.1)">
       <defs>
        <path id="DejaVuSans-38" d="M 2034 2216 
Q 1584 2216 1326 1975 
Q 1069 1734 1069 1313 
Q 1069 891 1326 650 
Q 1584 409 2034 409 
Q 2484 409 2743 651 
Q 3003 894 3003 1313 
Q 3003 1734 2745 1975 
Q 2488 2216 2034 2216 
z
M 1403 2484 
Q 997 2584 770 2862 
Q 544 3141 544 3541 
Q 544 4100 942 4425 
Q 1341 4750 2034 4750 
Q 2731 4750 3128 4425 
Q 3525 4100 3525 3541 
Q 3525 3141 3298 2862 
Q 3072 2584 2669 2484 
Q 3125 2378 3379 2068 
Q 3634 1759 3634 1313 
Q 3634 634 3220 271 
Q 2806 -91 2034 -91 
Q 1263 -91 848 271 
Q 434 634 434 1313 
Q 434 1759 690 2068 
Q 947 2378 1403 2484 
z
M 1172 3481 
Q 1172 3119 1398 2916 
Q 1625 2713 2034 2713 
Q 2441 2713 2670 2916 
Q 2900 3119 2900 3481 
Q 2900 3844 2670 4047 
Q 2441 4250 2034 4250 
Q 1625 4250 1398 4047 
Q 1172 3844 1172 3481 
z
" transform="scale(0.015625)"/>
       </defs>
       <use xlink:href="#DejaVuSans-38"/>
      </g>
     </g>
    </g>
    <g id="text_11">
     <!-- Flux (mmol/h/gDW) -->
     <g transform="translate(18.827813 151.738125) rotate(-90) scale(0.1 -0.1)">
      <defs>
       <path id="DejaVuSans-46" d="M 628 4666 
L 3309 4666 
L 3309 4134 
L 1259 4134 
L 1259 2759 
L 3109 2759 
L 3109 2228 
L 1259 2228 
L 1259 0 
L 628 0 
L 628 4666 
z
" transform="scale(0.015625)"/>
       <path id="DejaVuSans-6c" d="M 603 4863 
L 1178 4863 
L 1178 0 
L 603 0 
L 603 4863 
z
" transform="scale(0.015625)"/>
       <path id="DejaVuSans-75" d="M 544 1381 
L 544 3500 
L 1119 3500 
L 1119 1403 
Q 1119 906 1312 657 
Q 1506 409 1894 409 
Q 2359 409 2629 706 
Q 2900 1003 2900 1516 
L 2900 3500 
L 3475 3500 
L 3475 0 
L 2900 0 
L 2900 538 
Q 2691 219 2414 64 
Q 2138 -91 1772 -91 
Q 1169 -91 856 284 
Q 544 659 544 1381 
z
M 1991 3584 
L 1991 3584 
z
" transform="scale(0.015625)"/>
       <path id="DejaVuSans-78" d="M 3513 3500 
L 2247 1797 
L 3578 0 
L 2900 0 
L 1881 1375 
L 863 0 
L 184 0 
L 1544 1831 
L 300 3500 
L 978 3500 
L 1906 2253 
L 2834 3500 
L 3513 3500 
z
" transform="scale(0.015625)"/>
       <path id="DejaVuSans-6d" d="M 3328 2828 
Q 3544 3216 3844 3400 
Q 4144 3584 4550 3584 
Q 5097 3584 5394 3201 
Q 5691 2819 5691 2113 
L 5691 0 
L 5113 0 
L 5113 2094 
Q 5113 2597 4934 2840 
Q 4756 3084 4391 3084 
Q 3944 3084 3684 2787 
Q 3425 2491 3425 1978 
L 3425 0 
L 2847 0 
L 2847 2094 
Q 2847 2600 2669 2842 
Q 2491 3084 2119 3084 
Q 1678 3084 1418 2786 
Q 1159 2488 1159 1978 
L 1159 0 
L 581 0 
L 581 3500 
L 1159 3500 
L 1159 2956 
Q 1356 3278 1631 3431 
Q 1906 3584 2284 3584 
Q 2666 3584 2933 3390 
Q 3200 3197 3328 2828 
z
" transform="scale(0.015625)"/>
      </defs>
      <use xlink:href="#DejaVuSans-46"/>
      <use xlink:href="#DejaVuSans-6c" x="57.519531"/>
      <use xlink:href="#DejaVuSans-75" x="85.302734"/>
      <use xlink:href="#DejaVuSans-78" x="148.681641"/>
      <use xlink:href="#DejaVuSans-20" x="207.861328"/>
      <use xlink:href="#DejaVuSans-28" x="239.648438"/>
      <use xlink:href="#DejaVuSans-6d" x="278.662109"/>
      <use xlink:href="#DejaVuSans-6d" x="376.074219"/>
      <use xlink:href="#DejaVuSans-6f" x="473.486328"/>
      <use xlink:href="#DejaVuSans-6c" x="534.667969"/>
      <use xlink:href="#DejaVuSans-2f" x="562.451172"/>
      <use xlink:href="#DejaVuSans-68" x="596.142578"/>
      <use xlink:href="#DejaVuSans-2f" x="659.521484"/>
      <use xlink:href="#DejaVuSans-67" x="693.212891"/>
      <use xlink:href="#DejaVuSans-44" x="756.689453"/>
      <use xlink:href="#DejaVuSans-57" x="833.691406"/>
      <use xlink:href="#DejaVuSans-29" x="932.568359"/>
     </g>
    </g>
   </g>
   <g id="line2d_10">
    <path d="M 47.085 33.814545 
L 56.363947 36.000414 
L 65.642895 38.186283 
L 74.921842 40.372151 
L 84.200789 42.55802 
L 93.479737 44.743889 
L 102.758684 46.929758 
L 112.037632 49.14407 
L 121.316579 51.486038 
L 130.595526 53.828006 
L 139.874474 56.236872 
L 149.153421 58.717295 
L 158.432368 61.197718 
L 167.711316 63.678141 
L 176.990263 66.210193 
L 186.269211 68.922373 
L 195.548158 72.196194 
L 204.827105 75.492671 
L 214.106053 81.109145 
L 223.385 90.560942 
" clip-path="url(#p5368cc06a5)" style="fill: none; stroke: #0000ff; stroke-width: 1.5; stroke-linecap: square"/>
   </g>
   <g id="line2d_11">
    <path d="M 47.085 172.505455 
L 56.363947 172.505455 
L 65.642895 172.505455 
L 74.921842 172.505455 
L 84.200789 172.505455 
L 93.479737 172.505455 
L 102.758684 172.505455 
L 112.037632 172.505455 
L 121.316579 172.505455 
L 130.595526 172.505455 
L 139.874474 172.505455 
L 149.153421 172.505455 
L 158.432368 172.505455 
L 167.711316 172.505455 
L 176.990263 167.323835 
L 186.269211 152.238071 
L 195.548158 136.847136 
L 204.827105 121.456201 
L 214.106053 106.021425 
L 223.385 90.560942 
" clip-path="url(#p5368cc06a5)" style="fill: none; stroke: #0000ff; stroke-width: 1.5; stroke-linecap: square"/>
   </g>
   <g id="patch_3">
    <path d="M 38.27 179.44 
L 38.27 26.88 
" style="fill: none; stroke: #000000; stroke-width: 0.8; stroke-linejoin: miter; stroke-linecap: square"/>
   </g>
   <g id="patch_4">
    <path d="M 232.2 179.44 
L 232.2 26.88 
" style="fill: none; stroke: #000000; stroke-width: 0.8; stroke-linejoin: miter; stroke-linecap: square"/>
   </g>
   <g id="patch_5">
    <path d="M 38.27 179.44 
L 232.2 179.44 
" style="fill: none; stroke: #000000; stroke-width: 0.8; stroke-linejoin: miter; stroke-linecap: square"/>
   </g>
   <g id="patch_6">
    <path d="M 38.27 26.88 
L 232.2 26.88 
" style="fill: none; stroke: #000000; stroke-width: 0.8; stroke-linejoin: miter; stroke-linecap: square"/>
   </g>
   <g id="text_12">
    <!-- Butyrate exchange -->
    <g transform="translate(78.203125 20.88) scale(0.12 -0.12)">
     <defs>
      <path id="DejaVuSans-42" d="M 1259 2228 
L 1259 519 
L 2272 519 
Q 2781 519 3026 730 
Q 3272 941 3272 1375 
Q 3272 1813 3026 2020 
Q 2781 2228 2272 2228 
L 1259 2228 
z
M 1259 4147 
L 1259 2741 
L 2194 2741 
Q 2656 2741 2882 2914 
Q 3109 3088 3109 3444 
Q 3109 3797 2882 3972 
Q 2656 4147 2194 4147 
L 1259 4147 
z
M 628 4666 
L 2241 4666 
Q 2963 4666 3353 4366 
Q 3744 4066 3744 3513 
Q 3744 3084 3544 2831 
Q 3344 2578 2956 2516 
Q 3422 2416 3680 2098 
Q 3938 1781 3938 1306 
Q 3938 681 3513 340 
Q 3088 0 2303 0 
L 628 0 
L 628 4666 
z
" transform="scale(0.015625)"/>
      <path id="DejaVuSans-79" d="M 2059 -325 
Q 1816 -950 1584 -1140 
Q 1353 -1331 966 -1331 
L 506 -1331 
L 506 -850 
L 844 -850 
Q 1081 -850 1212 -737 
Q 1344 -625 1503 -206 
L 1606 56 
L 191 3500 
L 800 3500 
L 1894 763 
L 2988 3500 
L 3597 3500 
L 2059 -325 
z
" transform="scale(0.015625)"/>
      <path id="DejaVuSans-63" d="M 3122 3366 
L 3122 2828 
Q 2878 2963 2633 3030 
Q 2388 3097 2138 3097 
Q 1578 3097 1268 2742 
Q 959 2388 959 1747 
Q 959 1106 1268 751 
Q 1578 397 2138 397 
Q 2388 397 2633 464 
Q 2878 531 3122 666 
L 3122 134 
Q 2881 22 2623 -34 
Q 2366 -91 2075 -91 
Q 1284 -91 818 406 
Q 353 903 353 1747 
Q 353 2603 823 3093 
Q 1294 3584 2113 3584 
Q 2378 3584 2631 3529 
Q 2884 3475 3122 3366 
z
" transform="scale(0.015625)"/>
      <path id="DejaVuSans-6e" d="M 3513 2113 
L 3513 0 
L 2938 0 
L 2938 2094 
Q 2938 2591 2744 2837 
Q 2550 3084 2163 3084 
Q 1697 3084 1428 2787 
Q 1159 2491 1159 1978 
L 1159 0 
L 581 0 
L 581 3500 
L 1159 3500 
L 1159 2956 
Q 1366 3272 1645 3428 
Q 1925 3584 2291 3584 
Q 2894 3584 3203 3211 
Q 3513 2838 3513 2113 
z
" transform="scale(0.015625)"/>
     </defs>
     <use xlink:href="#DejaVuSans-42"/>
     <use xlink:href="#DejaVuSans-75" x="68.603516"/>
     <use xlink:href="#DejaVuSans-74" x="131.982422"/>
     <use xlink:href="#DejaVuSans-79" x="171.191406"/>
     <use xlink:href="#DejaVuSans-72" x="230.371094"/>
     <use xlink:href="#DejaVuSans-61" x="271.484375"/>
     <use xlink:href="#DejaVuSans-74" x="332.763672"/>
     <use xlink:href="#DejaVuSans-65" x="371.972656"/>
     <use xlink:href="#DejaVuSans-20" x="433.496094"/>
     <use xlink:href="#DejaVuSans-65" x="465.283203"/>
     <use xlink:href="#DejaVuSans-78" x="525.056641"/>
     <use xlink:href="#DejaVuSans-63" x="582.486328"/>
     <use xlink:href="#DejaVuSans-68" x="637.466797"/>
     <use xlink:href="#DejaVuSans-61" x="700.845703"/>
     <use xlink:href="#DejaVuSans-6e" x="762.125"/>
     <use xlink:href="#DejaVuSans-67" x="825.503906"/>
     <use xlink:href="#DejaVuSans-65" x="888.980469"/>
    </g>
   </g>
  </g>
  <g id="axes_2">
   <g id="patch_7">
    <path d="M 276.77 179.44 
L 470.7 179.44 
L 470.7 26.88 
L 276.77 26.88 
z
" style="fill: #ffffff"/>
   </g>
   <g id="PolyCollection_2">
    <defs>
     <path id="m7cb997f80d" d="M 285.585 -398.185455 
L 285.585 -259.494545 
L 294.863947 -259.494545 
L 304.142895 -259.494545 
L 313.421842 -259.494545 
L 322.700789 -259.494545 
L 331.979737 -259.494545 
L 341.258684 -259.494545 
L 350.537632 -259.494545 
L 359.816579 -259.494545 
L 369.095526 -259.494545 
L 378.374474 -259.494545 
L 387.653421 -259.494545 
L 396.932368 -259.494545 
L 406.211316 -259.494545 
L 415.490263 -264.109958 
L 424.769211 -277.547268 
L 434.048158 -291.256402 
L 443.327105 -304.965537 
L 452.606053 -318.713721 
L 461.885 -332.484804 
L 461.885 -332.484804 
L 461.885 -332.484804 
L 452.606053 -340.903783 
L 443.327105 -346.019313 
L 434.048158 -349.312691 
L 424.769211 -352.574136 
L 415.490263 -355.827282 
L 406.211316 -359.062689 
L 396.932368 -362.265477 
L 387.653421 -365.468264 
L 378.374474 -368.671052 
L 369.095526 -371.809936 
L 359.816579 -374.874156 
L 350.537632 -377.911898 
L 341.258684 -380.838234 
L 331.979737 -383.742107 
L 322.700789 -386.645979 
L 313.421842 -389.549852 
L 304.142895 -392.453725 
L 294.863947 -395.357597 
L 285.585 -398.185455 
z
" style="stroke: #008000; stroke-opacity: 0.2"/>
    </defs>
    <g clip-path="url(#p07be42e18a)">
     <use xlink:href="#m7cb997f80d" x="0" y="432" style="fill: #008000; fill-opacity: 0.2; stroke: #008000; stroke-opacity: 0.2"/>
    </g>
   </g>
   <g id="matplotlib.axis_3">
    <g id="xtick_5">
     <g id="line2d_12">
      <g>
       <use xlink:href="#m6504d80f1a" x="285.585" y="179.44" style="stroke: #000000; stroke-width: 0.8"/>
      </g>
     </g>
     <g id="text_13">
      <!-- 0.0 -->
      <g transform="translate(277.633437 194.038437) scale(0.1 -0.1)">
       <use xlink:href="#DejaVuSans-30"/>
       <use xlink:href="#DejaVuSans-2e" x="63.623047"/>
       <use xlink:href="#DejaVuSans-30" x="95.410156"/>
      </g>
     </g>
    </g>
    <g id="xtick_6">
     <g id="line2d_13">
      <g>
       <use xlink:href="#m6504d80f1a" x="340.892901" y="179.44" style="stroke: #000000; stroke-width: 0.8"/>
      </g>
     </g>
     <g id="text_14">
      <!-- 0.1 -->
      <g transform="translate(332.941338 194.038437) scale(0.1 -0.1)">
       <use xlink:href="#DejaVuSans-30"/>
       <use xlink:href="#DejaVuSans-2e" x="63.623047"/>
       <use xlink:href="#DejaVuSans-31" x="95.410156"/>
      </g>
     </g>
    </g>
    <g id="xtick_7">
     <g id="line2d_14">
      <g>
       <use xlink:href="#m6504d80f1a" x="396.200801" y="179.44" style="stroke: #000000; stroke-width: 0.8"/>
      </g>
     </g>
     <g id="text_15">
      <!-- 0.2 -->
      <g transform="translate(388.249239 194.038437) scale(0.1 -0.1)">
       <use xlink:href="#DejaVuSans-30"/>
       <use xlink:href="#DejaVuSans-2e" x="63.623047"/>
       <use xlink:href="#DejaVuSans-32" x="95.410156"/>
      </g>
     </g>
    </g>
    <g id="xtick_8">
     <g id="line2d_15">
      <g>
       <use xlink:href="#m6504d80f1a" x="451.508702" y="179.44" style="stroke: #000000; stroke-width: 0.8"/>
      </g>
     </g>
     <g id="text_16">
      <!-- 0.3 -->
      <g transform="translate(443.55714 194.038437) scale(0.1 -0.1)">
       <use xlink:href="#DejaVuSans-30"/>
       <use xlink:href="#DejaVuSans-2e" x="63.623047"/>
       <use xlink:href="#DejaVuSans-33" x="95.410156"/>
      </g>
     </g>
    </g>
    <g id="text_17">
     <!-- Growth rate (gDW/h) -->
     <g transform="translate(321.583438 207.716562) scale(0.1 -0.1)">
      <use xlink:href="#DejaVuSans-47"/>
      <use xlink:href="#DejaVuSans-72" x="77.490234"/>
      <use xlink:href="#DejaVuSans-6f" x="116.353516"/>
      <use xlink:href="#DejaVuSans-77" x="177.535156"/>
      <use xlink:href="#DejaVuSans-74" x="259.322266"/>
      <use xlink:href="#DejaVuSans-68" x="298.53125"/>
      <use xlink:href="#DejaVuSans-20" x="361.910156"/>
      <use xlink:href="#DejaVuSans-72" x="393.697266"/>
      <use xlink:href="#DejaVuSans-61" x="434.810547"/>
      <use xlink:href="#DejaVuSans-74" x="496.089844"/>
      <use xlink:href="#DejaVuSans-65" x="535.298828"/>
      <use xlink:href="#DejaVuSans-20" x="596.822266"/>
      <use xlink:href="#DejaVuSans-28" x="628.609375"/>
      <use xlink:href="#DejaVuSans-67" x="667.623047"/>
      <use xlink:href="#DejaVuSans-44" x="731.099609"/>
      <use xlink:href="#DejaVuSans-57" x="808.101562"/>
      <use xlink:href="#DejaVuSans-2f" x="906.978516"/>
      <use xlink:href="#DejaVuSans-68" x="940.669922"/>
      <use xlink:href="#DejaVuSans-29" x="1004.048828"/>
     </g>
    </g>
   </g>
   <g id="matplotlib.axis_4">
    <g id="ytick_6">
     <g id="line2d_16">
      <g>
       <use xlink:href="#ma57e99ff02" x="276.77" y="172.505455" style="stroke: #000000; stroke-width: 0.8"/>
      </g>
     </g>
     <g id="text_18">
      <!-- 0 -->
      <g transform="translate(263.4075 176.304673) scale(0.1 -0.1)">
       <use xlink:href="#DejaVuSans-30"/>
      </g>
     </g>
    </g>
    <g id="ytick_7">
     <g id="line2d_17">
      <g>
       <use xlink:href="#ma57e99ff02" x="276.77" y="143.524936" style="stroke: #000000; stroke-width: 0.8"/>
      </g>
     </g>
     <g id="text_19">
      <!-- 2 -->
      <g transform="translate(263.4075 147.324155) scale(0.1 -0.1)">
       <use xlink:href="#DejaVuSans-32"/>
      </g>
     </g>
    </g>
    <g id="ytick_8">
     <g id="line2d_18">
      <g>
       <use xlink:href="#ma57e99ff02" x="276.77" y="114.544418" style="stroke: #000000; stroke-width: 0.8"/>
      </g>
     </g>
     <g id="text_20">
      <!-- 4 -->
      <g transform="translate(263.4075 118.343637) scale(0.1 -0.1)">
       <use xlink:href="#DejaVuSans-34"/>
      </g>
     </g>
    </g>
    <g id="ytick_9">
     <g id="line2d_19">
      <g>
       <use xlink:href="#ma57e99ff02" x="276.77" y="85.5639" style="stroke: #000000; stroke-width: 0.8"/>
      </g>
     </g>
     <g id="text_21">
      <!-- 6 -->
      <g transform="translate(263.4075 89.363119) scale(0.1 -0.1)">
       <use xlink:href="#DejaVuSans-36"/>
      </g>
     </g>
    </g>
    <g id="ytick_10">
     <g id="line2d_20">
      <g>
       <use xlink:href="#ma57e99ff02" x="276.77" y="56.583382" style="stroke: #000000; stroke-width: 0.8"/>
      </g>
     </g>
     <g id="text_22">
      <!-- 8 -->
      <g transform="translate(263.4075 60.382601) scale(0.1 -0.1)">
       <use xlink:href="#DejaVuSans-38"/>
      </g>
     </g>
    </g>
    <g id="ytick_11">
     <g id="line2d_21">
      <g>
       <use xlink:href="#ma57e99ff02" x="276.77" y="27.602864" style="stroke: #000000; stroke-width: 0.8"/>
      </g>
     </g>
     <g id="text_23">
      <!-- 10 -->
      <g transform="translate(257.045 31.402083) scale(0.1 -0.1)">
       <use xlink:href="#DejaVuSans-31"/>
       <use xlink:href="#DejaVuSans-30" x="63.623047"/>
      </g>
     </g>
    </g>
    <g id="text_24">
     <!-- Flux (mmol/h/gDW) -->
     <g transform="translate(250.965312 151.738125) rotate(-90) scale(0.1 -0.1)">
      <use xlink:href="#DejaVuSans-46"/>
      <use xlink:href="#DejaVuSans-6c" x="57.519531"/>
      <use xlink:href="#DejaVuSans-75" x="85.302734"/>
      <use xlink:href="#DejaVuSans-78" x="148.681641"/>
      <use xlink:href="#DejaVuSans-20" x="207.861328"/>
      <use xlink:href="#DejaVuSans-28" x="239.648438"/>
      <use xlink:href="#DejaVuSans-6d" x="278.662109"/>
      <use xlink:href="#DejaVuSans-6d" x="376.074219"/>
      <use xlink:href="#DejaVuSans-6f" x="473.486328"/>
      <use xlink:href="#DejaVuSans-6c" x="534.667969"/>
      <use xlink:href="#DejaVuSans-2f" x="562.451172"/>
      <use xlink:href="#DejaVuSans-68" x="596.142578"/>
      <use xlink:href="#DejaVuSans-2f" x="659.521484"/>
      <use xlink:href="#DejaVuSans-67" x="693.212891"/>
      <use xlink:href="#DejaVuSans-44" x="756.689453"/>
      <use xlink:href="#DejaVuSans-57" x="833.691406"/>
      <use xlink:href="#DejaVuSans-29" x="932.568359"/>
     </g>
    </g>
   </g>
   <g id="line2d_22">
    <path d="M 285.585 33.814545 
L 294.863947 36.642403 
L 304.142895 39.546275 
L 313.421842 42.450148 
L 322.700789 45.354021 
L 331.979737 48.257893 
L 341.258684 51.161766 
L 350.537632 54.088102 
L 359.816579 57.125844 
L 369.095526 60.190064 
L 378.374474 63.328948 
L 387.653421 66.531736 
L 396.932368 69.734523 
L 406.211316 72.937311 
L 415.490263 76.172718 
L 424.769211 79.425864 
L 434.048158 82.687309 
L 443.327105 85.980687 
L 452.606053 91.096217 
L 461.885 99.515196 
" clip-path="url(#p07be42e18a)" style="fill: none; stroke: #008000; stroke-width: 1.5; stroke-linecap: square"/>
   </g>
   <g id="line2d_23">
    <path d="M 285.585 172.505455 
L 294.863947 172.505455 
L 304.142895 172.505455 
L 313.421842 172.505455 
L 322.700789 172.505455 
L 331.979737 172.505455 
L 341.258684 172.505455 
L 350.537632 172.505455 
L 359.816579 172.505455 
L 369.095526 172.505455 
L 378.374474 172.505455 
L 387.653421 172.505455 
L 396.932368 172.505455 
L 406.211316 172.505455 
L 415.490263 167.890042 
L 424.769211 154.452732 
L 434.048158 140.743598 
L 443.327105 127.034463 
L 452.606053 113.286279 
L 461.885 99.515196 
" clip-path="url(#p07be42e18a)" style="fill: none; stroke: #008000; stroke-width: 1.5; stroke-linecap: square"/>
   </g>
   <g id="patch_8">
    <path d="M 276.77 179.44 
L 276.77 26.88 
" style="fill: none; stroke: #000000; stroke-width: 0.8; stroke-linejoin: miter; stroke-linecap: square"/>
   </g>
   <g id="patch_9">
    <path d="M 470.7 179.44 
L 470.7 26.88 
" style="fill: none; stroke: #000000; stroke-width: 0.8; stroke-linejoin: miter; stroke-linecap: square"/>
   </g>
   <g id="patch_10">
    <path d="M 276.77 179.44 
L 470.7 179.44 
" style="fill: none; stroke: #000000; stroke-width: 0.8; stroke-linejoin: miter; stroke-linecap: square"/>
   </g>
   <g id="patch_11">
    <path d="M 276.77 26.88 
L 470.7 26.88 
" style="fill: none; stroke: #000000; stroke-width: 0.8; stroke-linejoin: miter; stroke-linecap: square"/>
   </g>
   <g id="text_25">
    <!-- Acetate exchange -->
    <g transform="translate(319.649688 20.88) scale(0.12 -0.12)">
     <defs>
      <path id="DejaVuSans-41" d="M 2188 4044 
L 1331 1722 
L 3047 1722 
L 2188 4044 
z
M 1831 4666 
L 2547 4666 
L 4325 0 
L 3669 0 
L 3244 1197 
L 1141 1197 
L 716 0 
L 50 0 
L 1831 4666 
z
" transform="scale(0.015625)"/>
     </defs>
     <use xlink:href="#DejaVuSans-41"/>
     <use xlink:href="#DejaVuSans-63" x="66.658203"/>
     <use xlink:href="#DejaVuSans-65" x="121.638672"/>
     <use xlink:href="#DejaVuSans-74" x="183.162109"/>
     <use xlink:href="#DejaVuSans-61" x="222.371094"/>
     <use xlink:href="#DejaVuSans-74" x="283.650391"/>
     <use xlink:href="#DejaVuSans-65" x="322.859375"/>
     <use xlink:href="#DejaVuSans-20" x="384.382812"/>
     <use xlink:href="#DejaVuSans-65" x="416.169922"/>
     <use xlink:href="#DejaVuSans-78" x="475.943359"/>
     <use xlink:href="#DejaVuSans-63" x="533.373047"/>
     <use xlink:href="#DejaVuSans-68" x="588.353516"/>
     <use xlink:href="#DejaVuSans-61" x="651.732422"/>
     <use xlink:href="#DejaVuSans-6e" x="713.011719"/>
     <use xlink:href="#DejaVuSans-67" x="776.390625"/>
     <use xlink:href="#DejaVuSans-65" x="839.867188"/>
    </g>
   </g>
  </g>
  <g id="axes_3">
   <g id="patch_12">
    <path d="M 515.27 179.44 
L 709.2 179.44 
L 709.2 26.88 
L 515.27 26.88 
z
" style="fill: #ffffff"/>
   </g>
   <g id="PolyCollection_3">
    <defs>
     <path id="me7c2b89a4f" d="M 524.085 -398.185455 
L 524.085 -259.494545 
L 533.363947 -259.494545 
L 542.642895 -259.494545 
L 551.921842 -259.494545 
L 561.200789 -259.494545 
L 570.479737 -259.494545 
L 579.758684 -259.494545 
L 589.037632 -259.494545 
L 598.316579 -259.494545 
L 607.595526 -259.494545 
L 616.874474 -259.494545 
L 626.153421 -259.494545 
L 635.432368 -259.494545 
L 644.711316 -259.494545 
L 653.990263 -259.494545 
L 663.269211 -259.494545 
L 672.548158 -259.494545 
L 681.827105 -259.494545 
L 691.106053 -259.494545 
L 700.385 -259.494545 
L 700.385 -259.494545 
L 700.385 -259.494545 
L 691.106053 -281.103064 
L 681.827105 -302.636828 
L 672.548158 -324.043105 
L 663.269211 -345.394354 
L 653.990263 -366.438175 
L 644.711316 -379.80872 
L 635.432368 -381.502764 
L 626.153421 -383.107951 
L 616.874474 -384.713137 
L 607.595526 -386.258573 
L 598.316579 -387.748147 
L 589.037632 -389.237722 
L 579.758684 -390.549957 
L 570.479737 -391.822677 
L 561.200789 -393.095397 
L 551.921842 -394.368118 
L 542.642895 -395.640838 
L 533.363947 -396.913513 
L 524.085 -398.185455 
z
" style="stroke: #ff0000; stroke-opacity: 0.2"/>
    </defs>
    <g clip-path="url(#p7295843f56)">
     <use xlink:href="#me7c2b89a4f" x="0" y="432" style="fill: #ff0000; fill-opacity: 0.2; stroke: #ff0000; stroke-opacity: 0.2"/>
    </g>
   </g>
   <g id="matplotlib.axis_5">
    <g id="xtick_9">
     <g id="line2d_24">
      <g>
       <use xlink:href="#m6504d80f1a" x="524.085" y="179.44" style="stroke: #000000; stroke-width: 0.8"/>
      </g>
     </g>
     <g id="text_26">
      <!-- 0.0 -->
      <g transform="translate(516.133438 194.038437) scale(0.1 -0.1)">
       <use xlink:href="#DejaVuSans-30"/>
       <use xlink:href="#DejaVuSans-2e" x="63.623047"/>
       <use xlink:href="#DejaVuSans-30" x="95.410156"/>
      </g>
     </g>
    </g>
    <g id="xtick_10">
     <g id="line2d_25">
      <g>
       <use xlink:href="#m6504d80f1a" x="579.392901" y="179.44" style="stroke: #000000; stroke-width: 0.8"/>
      </g>
     </g>
     <g id="text_27">
      <!-- 0.1 -->
      <g transform="translate(571.441338 194.038437) scale(0.1 -0.1)">
       <use xlink:href="#DejaVuSans-30"/>
       <use xlink:href="#DejaVuSans-2e" x="63.623047"/>
       <use xlink:href="#DejaVuSans-31" x="95.410156"/>
      </g>
     </g>
    </g>
    <g id="xtick_11">
     <g id="line2d_26">
      <g>
       <use xlink:href="#m6504d80f1a" x="634.700801" y="179.44" style="stroke: #000000; stroke-width: 0.8"/>
      </g>
     </g>
     <g id="text_28">
      <!-- 0.2 -->
      <g transform="translate(626.749239 194.038437) scale(0.1 -0.1)">
       <use xlink:href="#DejaVuSans-30"/>
       <use xlink:href="#DejaVuSans-2e" x="63.623047"/>
       <use xlink:href="#DejaVuSans-32" x="95.410156"/>
      </g>
     </g>
    </g>
    <g id="xtick_12">
     <g id="line2d_27">
      <g>
       <use xlink:href="#m6504d80f1a" x="690.008702" y="179.44" style="stroke: #000000; stroke-width: 0.8"/>
      </g>
     </g>
     <g id="text_29">
      <!-- 0.3 -->
      <g transform="translate(682.05714 194.038437) scale(0.1 -0.1)">
       <use xlink:href="#DejaVuSans-30"/>
       <use xlink:href="#DejaVuSans-2e" x="63.623047"/>
       <use xlink:href="#DejaVuSans-33" x="95.410156"/>
      </g>
     </g>
    </g>
    <g id="text_30">
     <!-- Growth rate (gDW/h) -->
     <g transform="translate(560.083438 207.716562) scale(0.1 -0.1)">
      <use xlink:href="#DejaVuSans-47"/>
      <use xlink:href="#DejaVuSans-72" x="77.490234"/>
      <use xlink:href="#DejaVuSans-6f" x="116.353516"/>
      <use xlink:href="#DejaVuSans-77" x="177.535156"/>
      <use xlink:href="#DejaVuSans-74" x="259.322266"/>
      <use xlink:href="#DejaVuSans-68" x="298.53125"/>
      <use xlink:href="#DejaVuSans-20" x="361.910156"/>
      <use xlink:href="#DejaVuSans-72" x="393.697266"/>
      <use xlink:href="#DejaVuSans-61" x="434.810547"/>
      <use xlink:href="#DejaVuSans-74" x="496.089844"/>
      <use xlink:href="#DejaVuSans-65" x="535.298828"/>
      <use xlink:href="#DejaVuSans-20" x="596.822266"/>
      <use xlink:href="#DejaVuSans-28" x="628.609375"/>
      <use xlink:href="#DejaVuSans-67" x="667.623047"/>
      <use xlink:href="#DejaVuSans-44" x="731.099609"/>
      <use xlink:href="#DejaVuSans-57" x="808.101562"/>
      <use xlink:href="#DejaVuSans-2f" x="906.978516"/>
      <use xlink:href="#DejaVuSans-68" x="940.669922"/>
      <use xlink:href="#DejaVuSans-29" x="1004.048828"/>
     </g>
    </g>
   </g>
   <g id="matplotlib.axis_6">
    <g id="ytick_12">
     <g id="line2d_28">
      <g>
       <use xlink:href="#ma57e99ff02" x="515.27" y="172.505455" style="stroke: #000000; stroke-width: 0.8"/>
      </g>
     </g>
     <g id="text_31">
      <!-- 0 -->
      <g transform="translate(501.9075 176.304673) scale(0.1 -0.1)">
       <use xlink:href="#DejaVuSans-30"/>
      </g>
     </g>
    </g>
    <g id="ytick_13">
     <g id="line2d_29">
      <g>
       <use xlink:href="#ma57e99ff02" x="515.27" y="133.538076" style="stroke: #000000; stroke-width: 0.8"/>
      </g>
     </g>
     <g id="text_32">
      <!-- 5 -->
      <g transform="translate(501.9075 137.337294) scale(0.1 -0.1)">
       <defs>
        <path id="DejaVuSans-35" d="M 691 4666 
L 3169 4666 
L 3169 4134 
L 1269 4134 
L 1269 2991 
Q 1406 3038 1543 3061 
Q 1681 3084 1819 3084 
Q 2600 3084 3056 2656 
Q 3513 2228 3513 1497 
Q 3513 744 3044 326 
Q 2575 -91 1722 -91 
Q 1428 -91 1123 -41 
Q 819 9 494 109 
L 494 744 
Q 775 591 1075 516 
Q 1375 441 1709 441 
Q 2250 441 2565 725 
Q 2881 1009 2881 1497 
Q 2881 1984 2565 2268 
Q 2250 2553 1709 2553 
Q 1456 2553 1204 2497 
Q 953 2441 691 2322 
L 691 4666 
z
" transform="scale(0.015625)"/>
       </defs>
       <use xlink:href="#DejaVuSans-35"/>
      </g>
     </g>
    </g>
    <g id="ytick_14">
     <g id="line2d_30">
      <g>
       <use xlink:href="#ma57e99ff02" x="515.27" y="94.570697" style="stroke: #000000; stroke-width: 0.8"/>
      </g>
     </g>
     <g id="text_33">
      <!-- 10 -->
      <g transform="translate(495.545 98.369916) scale(0.1 -0.1)">
       <use xlink:href="#DejaVuSans-31"/>
       <use xlink:href="#DejaVuSans-30" x="63.623047"/>
      </g>
     </g>
    </g>
    <g id="ytick_15">
     <g id="line2d_31">
      <g>
       <use xlink:href="#ma57e99ff02" x="515.27" y="55.603318" style="stroke: #000000; stroke-width: 0.8"/>
      </g>
     </g>
     <g id="text_34">
      <!-- 15 -->
      <g transform="translate(495.545 59.402537) scale(0.1 -0.1)">
       <use xlink:href="#DejaVuSans-31"/>
       <use xlink:href="#DejaVuSans-35" x="63.623047"/>
      </g>
     </g>
    </g>
    <g id="text_35">
     <!-- Flux (mmol/h/gDW) -->
     <g transform="translate(489.465312 151.738125) rotate(-90) scale(0.1 -0.1)">
      <use xlink:href="#DejaVuSans-46"/>
      <use xlink:href="#DejaVuSans-6c" x="57.519531"/>
      <use xlink:href="#DejaVuSans-75" x="85.302734"/>
      <use xlink:href="#DejaVuSans-78" x="148.681641"/>
      <use xlink:href="#DejaVuSans-20" x="207.861328"/>
      <use xlink:href="#DejaVuSans-28" x="239.648438"/>
      <use xlink:href="#DejaVuSans-6d" x="278.662109"/>
      <use xlink:href="#DejaVuSans-6d" x="376.074219"/>
      <use xlink:href="#DejaVuSans-6f" x="473.486328"/>
      <use xlink:href="#DejaVuSans-6c" x="534.667969"/>
      <use xlink:href="#DejaVuSans-2f" x="562.451172"/>
      <use xlink:href="#DejaVuSans-68" x="596.142578"/>
      <use xlink:href="#DejaVuSans-2f" x="659.521484"/>
      <use xlink:href="#DejaVuSans-67" x="693.212891"/>
      <use xlink:href="#DejaVuSans-44" x="756.689453"/>
      <use xlink:href="#DejaVuSans-57" x="833.691406"/>
      <use xlink:href="#DejaVuSans-29" x="932.568359"/>
     </g>
    </g>
   </g>
   <g id="line2d_32">
    <path d="M 524.085 33.814545 
L 533.363947 35.086487 
L 542.642895 36.359162 
L 551.921842 37.631882 
L 561.200789 38.904603 
L 570.479737 40.177323 
L 579.758684 41.450043 
L 589.037632 42.762278 
L 598.316579 44.251853 
L 607.595526 45.741427 
L 616.874474 47.286863 
L 626.153421 48.892049 
L 635.432368 50.497236 
L 644.711316 52.19128 
L 653.990263 65.561825 
L 663.269211 86.605646 
L 672.548158 107.956895 
L 681.827105 129.363172 
L 691.106053 150.896936 
L 700.385 172.505455 
" clip-path="url(#p7295843f56)" style="fill: none; stroke: #ff0000; stroke-width: 1.5; stroke-linecap: square"/>
   </g>
   <g id="line2d_33">
    <path d="M 524.085 172.505455 
L 533.363947 172.505455 
L 542.642895 172.505455 
L 551.921842 172.505455 
L 561.200789 172.505455 
L 570.479737 172.505455 
L 579.758684 172.505455 
L 589.037632 172.505455 
L 598.316579 172.505455 
L 607.595526 172.505455 
L 616.874474 172.505455 
L 626.153421 172.505455 
L 635.432368 172.505455 
L 644.711316 172.505455 
L 653.990263 172.505455 
L 663.269211 172.505455 
L 672.548158 172.505455 
L 681.827105 172.505455 
L 691.106053 172.505455 
L 700.385 172.505455 
" clip-path="url(#p7295843f56)" style="fill: none; stroke: #ff0000; stroke-width: 1.5; stroke-linecap: square"/>
   </g>
   <g id="patch_13">
    <path d="M 515.27 179.44 
L 515.27 26.88 
" style="fill: none; stroke: #000000; stroke-width: 0.8; stroke-linejoin: miter; stroke-linecap: square"/>
   </g>
   <g id="patch_14">
    <path d="M 709.2 179.44 
L 709.2 26.88 
" style="fill: none; stroke: #000000; stroke-width: 0.8; stroke-linejoin: miter; stroke-linecap: square"/>
   </g>
   <g id="patch_15">
    <path d="M 515.27 179.44 
L 709.2 179.44 
" style="fill: none; stroke: #000000; stroke-width: 0.8; stroke-linejoin: miter; stroke-linecap: square"/>
   </g>
   <g id="patch_16">
    <path d="M 515.27 26.88 
L 709.2 26.88 
" style="fill: none; stroke: #000000; stroke-width: 0.8; stroke-linejoin: miter; stroke-linecap: square"/>
   </g>
   <g id="text_36">
    <!-- Ethanol exchange -->
    <g transform="translate(558.449687 20.88) scale(0.12 -0.12)">
     <defs>
      <path id="DejaVuSans-45" d="M 628 4666 
L 3578 4666 
L 3578 4134 
L 1259 4134 
L 1259 2753 
L 3481 2753 
L 3481 2222 
L 1259 2222 
L 1259 531 
L 3634 531 
L 3634 0 
L 628 0 
L 628 4666 
z
" transform="scale(0.015625)"/>
     </defs>
     <use xlink:href="#DejaVuSans-45"/>
     <use xlink:href="#DejaVuSans-74" x="63.183594"/>
     <use xlink:href="#DejaVuSans-68" x="102.392578"/>
     <use xlink:href="#DejaVuSans-61" x="165.771484"/>
     <use xlink:href="#DejaVuSans-6e" x="227.050781"/>
     <use xlink:href="#DejaVuSans-6f" x="290.429688"/>
     <use xlink:href="#DejaVuSans-6c" x="351.611328"/>
     <use xlink:href="#DejaVuSans-20" x="379.394531"/>
     <use xlink:href="#DejaVuSans-65" x="411.181641"/>
     <use xlink:href="#DejaVuSans-78" x="470.955078"/>
     <use xlink:href="#DejaVuSans-63" x="528.384766"/>
     <use xlink:href="#DejaVuSans-68" x="583.365234"/>
     <use xlink:href="#DejaVuSans-61" x="646.744141"/>
     <use xlink:href="#DejaVuSans-6e" x="708.023438"/>
     <use xlink:href="#DejaVuSans-67" x="771.402344"/>
     <use xlink:href="#DejaVuSans-65" x="834.878906"/>
    </g>
   </g>
  </g>
  <g id="axes_4">
   <g id="patch_17">
    <path d="M 38.27 390.04 
L 232.2 390.04 
L 232.2 237.48 
L 38.27 237.48 
z
" style="fill: #ffffff"/>
   </g>
   <g id="PolyCollection_4">
    <defs>
     <path id="m6def456322" d="M 47.085 -187.585455 
L 47.085 -48.894545 
L 56.363947 -48.894545 
L 65.642895 -48.894545 
L 74.921842 -48.894545 
L 84.200789 -48.894545 
L 93.479737 -48.894545 
L 102.758684 -48.894545 
L 112.037632 -48.894545 
L 121.316579 -48.894545 
L 130.595526 -48.894545 
L 139.874474 -48.894545 
L 149.153421 -48.894545 
L 158.432368 -48.894545 
L 167.711316 -48.894545 
L 176.990263 -48.894545 
L 186.269211 -48.894545 
L 195.548158 -48.894545 
L 204.827105 -48.894545 
L 214.106053 -48.894545 
L 223.385 -48.894545 
L 223.385 -48.894545 
L 223.385 -48.894545 
L 214.106053 -70.451336 
L 204.827105 -91.933551 
L 195.548158 -113.288585 
L 186.269211 -134.588722 
L 176.990263 -155.582168 
L 167.711316 -169.23728 
L 158.432368 -170.946579 
L 149.153421 -172.567684 
L 139.874474 -174.161144 
L 130.595526 -175.688556 
L 121.316579 -177.154221 
L 112.037632 -178.619886 
L 102.758684 -179.930327 
L 93.479737 -181.206182 
L 84.200789 -182.482036 
L 74.921842 -183.757891 
L 65.642895 -185.033745 
L 56.363947 -186.309617 
L 47.085 -187.585455 
z
" style="stroke: #00bfbf; stroke-opacity: 0.2"/>
    </defs>
    <g clip-path="url(#pf5d8f947bd)">
     <use xlink:href="#m6def456322" x="0" y="432" style="fill: #00bfbf; fill-opacity: 0.2; stroke: #00bfbf; stroke-opacity: 0.2"/>
    </g>
   </g>
   <g id="matplotlib.axis_7">
    <g id="xtick_13">
     <g id="line2d_34">
      <g>
       <use xlink:href="#m6504d80f1a" x="47.085" y="390.04" style="stroke: #000000; stroke-width: 0.8"/>
      </g>
     </g>
     <g id="text_37">
      <!-- 0.0 -->
      <g transform="translate(39.133437 404.638437) scale(0.1 -0.1)">
       <use xlink:href="#DejaVuSans-30"/>
       <use xlink:href="#DejaVuSans-2e" x="63.623047"/>
       <use xlink:href="#DejaVuSans-30" x="95.410156"/>
      </g>
     </g>
    </g>
    <g id="xtick_14">
     <g id="line2d_35">
      <g>
       <use xlink:href="#m6504d80f1a" x="102.392901" y="390.04" style="stroke: #000000; stroke-width: 0.8"/>
      </g>
     </g>
     <g id="text_38">
      <!-- 0.1 -->
      <g transform="translate(94.441338 404.638437) scale(0.1 -0.1)">
       <use xlink:href="#DejaVuSans-30"/>
       <use xlink:href="#DejaVuSans-2e" x="63.623047"/>
       <use xlink:href="#DejaVuSans-31" x="95.410156"/>
      </g>
     </g>
    </g>
    <g id="xtick_15">
     <g id="line2d_36">
      <g>
       <use xlink:href="#m6504d80f1a" x="157.700801" y="390.04" style="stroke: #000000; stroke-width: 0.8"/>
      </g>
     </g>
     <g id="text_39">
      <!-- 0.2 -->
      <g transform="translate(149.749239 404.638437) scale(0.1 -0.1)">
       <use xlink:href="#DejaVuSans-30"/>
       <use xlink:href="#DejaVuSans-2e" x="63.623047"/>
       <use xlink:href="#DejaVuSans-32" x="95.410156"/>
      </g>
     </g>
    </g>
    <g id="xtick_16">
     <g id="line2d_37">
      <g>
       <use xlink:href="#m6504d80f1a" x="213.008702" y="390.04" style="stroke: #000000; stroke-width: 0.8"/>
      </g>
     </g>
     <g id="text_40">
      <!-- 0.3 -->
      <g transform="translate(205.05714 404.638437) scale(0.1 -0.1)">
       <use xlink:href="#DejaVuSans-30"/>
       <use xlink:href="#DejaVuSans-2e" x="63.623047"/>
       <use xlink:href="#DejaVuSans-33" x="95.410156"/>
      </g>
     </g>
    </g>
    <g id="text_41">
     <!-- Growth rate (gDW/h) -->
     <g transform="translate(83.083438 418.316562) scale(0.1 -0.1)">
      <use xlink:href="#DejaVuSans-47"/>
      <use xlink:href="#DejaVuSans-72" x="77.490234"/>
      <use xlink:href="#DejaVuSans-6f" x="116.353516"/>
      <use xlink:href="#DejaVuSans-77" x="177.535156"/>
      <use xlink:href="#DejaVuSans-74" x="259.322266"/>
      <use xlink:href="#DejaVuSans-68" x="298.53125"/>
      <use xlink:href="#DejaVuSans-20" x="361.910156"/>
      <use xlink:href="#DejaVuSans-72" x="393.697266"/>
      <use xlink:href="#DejaVuSans-61" x="434.810547"/>
      <use xlink:href="#DejaVuSans-74" x="496.089844"/>
      <use xlink:href="#DejaVuSans-65" x="535.298828"/>
      <use xlink:href="#DejaVuSans-20" x="596.822266"/>
      <use xlink:href="#DejaVuSans-28" x="628.609375"/>
      <use xlink:href="#DejaVuSans-67" x="667.623047"/>
      <use xlink:href="#DejaVuSans-44" x="731.099609"/>
      <use xlink:href="#DejaVuSans-57" x="808.101562"/>
      <use xlink:href="#DejaVuSans-2f" x="906.978516"/>
      <use xlink:href="#DejaVuSans-68" x="940.669922"/>
      <use xlink:href="#DejaVuSans-29" x="1004.048828"/>
     </g>
    </g>
   </g>
   <g id="matplotlib.axis_8">
    <g id="ytick_16">
     <g id="line2d_38">
      <g>
       <use xlink:href="#ma57e99ff02" x="38.27" y="383.105455" style="stroke: #000000; stroke-width: 0.8"/>
      </g>
     </g>
     <g id="text_42">
      <!-- 0 -->
      <g transform="translate(24.9075 386.904673) scale(0.1 -0.1)">
       <use xlink:href="#DejaVuSans-30"/>
      </g>
     </g>
    </g>
    <g id="ytick_17">
     <g id="line2d_39">
      <g>
       <use xlink:href="#ma57e99ff02" x="38.27" y="352.006177" style="stroke: #000000; stroke-width: 0.8"/>
      </g>
     </g>
     <g id="text_43">
      <!-- 2 -->
      <g transform="translate(24.9075 355.805396) scale(0.1 -0.1)">
       <use xlink:href="#DejaVuSans-32"/>
      </g>
     </g>
    </g>
    <g id="ytick_18">
     <g id="line2d_40">
      <g>
       <use xlink:href="#ma57e99ff02" x="38.27" y="320.9069" style="stroke: #000000; stroke-width: 0.8"/>
      </g>
     </g>
     <g id="text_44">
      <!-- 4 -->
      <g transform="translate(24.9075 324.706119) scale(0.1 -0.1)">
       <use xlink:href="#DejaVuSans-34"/>
      </g>
     </g>
    </g>
    <g id="ytick_19">
     <g id="line2d_41">
      <g>
       <use xlink:href="#ma57e99ff02" x="38.27" y="289.807623" style="stroke: #000000; stroke-width: 0.8"/>
      </g>
     </g>
     <g id="text_45">
      <!-- 6 -->
      <g transform="translate(24.9075 293.606841) scale(0.1 -0.1)">
       <use xlink:href="#DejaVuSans-36"/>
      </g>
     </g>
    </g>
    <g id="ytick_20">
     <g id="line2d_42">
      <g>
       <use xlink:href="#ma57e99ff02" x="38.27" y="258.708345" style="stroke: #000000; stroke-width: 0.8"/>
      </g>
     </g>
     <g id="text_46">
      <!-- 8 -->
      <g transform="translate(24.9075 262.507564) scale(0.1 -0.1)">
       <use xlink:href="#DejaVuSans-38"/>
      </g>
     </g>
    </g>
    <g id="text_47">
     <!-- Flux (mmol/h/gDW) -->
     <g transform="translate(18.827813 362.338125) rotate(-90) scale(0.1 -0.1)">
      <use xlink:href="#DejaVuSans-46"/>
      <use xlink:href="#DejaVuSans-6c" x="57.519531"/>
      <use xlink:href="#DejaVuSans-75" x="85.302734"/>
      <use xlink:href="#DejaVuSans-78" x="148.681641"/>
      <use xlink:href="#DejaVuSans-20" x="207.861328"/>
      <use xlink:href="#DejaVuSans-28" x="239.648438"/>
      <use xlink:href="#DejaVuSans-6d" x="278.662109"/>
      <use xlink:href="#DejaVuSans-6d" x="376.074219"/>
      <use xlink:href="#DejaVuSans-6f" x="473.486328"/>
      <use xlink:href="#DejaVuSans-6c" x="534.667969"/>
      <use xlink:href="#DejaVuSans-2f" x="562.451172"/>
      <use xlink:href="#DejaVuSans-68" x="596.142578"/>
      <use xlink:href="#DejaVuSans-2f" x="659.521484"/>
      <use xlink:href="#DejaVuSans-67" x="693.212891"/>
      <use xlink:href="#DejaVuSans-44" x="756.689453"/>
      <use xlink:href="#DejaVuSans-57" x="833.691406"/>
      <use xlink:href="#DejaVuSans-29" x="932.568359"/>
     </g>
    </g>
   </g>
   <g id="line2d_43">
    <path d="M 47.085 244.414545 
L 56.363947 245.690383 
L 65.642895 246.966255 
L 74.921842 248.242109 
L 84.200789 249.517964 
L 93.479737 250.793818 
L 102.758684 252.069673 
L 112.037632 253.380114 
L 121.316579 254.845779 
L 130.595526 256.311444 
L 139.874474 257.838856 
L 149.153421 259.432316 
L 158.432368 261.053421 
L 167.711316 262.76272 
L 176.990263 276.417832 
L 186.269211 297.411278 
L 195.548158 318.711415 
L 204.827105 340.066449 
L 214.106053 361.548664 
L 223.385 383.105455 
" clip-path="url(#pf5d8f947bd)" style="fill: none; stroke: #00bfbf; stroke-width: 1.5; stroke-linecap: square"/>
   </g>
   <g id="line2d_44">
    <path d="M 47.085 383.105455 
L 56.363947 383.105455 
L 65.642895 383.105455 
L 74.921842 383.105455 
L 84.200789 383.105455 
L 93.479737 383.105455 
L 102.758684 383.105455 
L 112.037632 383.105455 
L 121.316579 383.105455 
L 130.595526 383.105455 
L 139.874474 383.105455 
L 149.153421 383.105455 
L 158.432368 383.105455 
L 167.711316 383.105455 
L 176.990263 383.105455 
L 186.269211 383.105455 
L 195.548158 383.105455 
L 204.827105 383.105455 
L 214.106053 383.105455 
L 223.385 383.105455 
" clip-path="url(#pf5d8f947bd)" style="fill: none; stroke: #00bfbf; stroke-width: 1.5; stroke-linecap: square"/>
   </g>
   <g id="patch_18">
    <path d="M 38.27 390.04 
L 38.27 237.48 
" style="fill: none; stroke: #000000; stroke-width: 0.8; stroke-linejoin: miter; stroke-linecap: square"/>
   </g>
   <g id="patch_19">
    <path d="M 232.2 390.04 
L 232.2 237.48 
" style="fill: none; stroke: #000000; stroke-width: 0.8; stroke-linejoin: miter; stroke-linecap: square"/>
   </g>
   <g id="patch_20">
    <path d="M 38.27 390.04 
L 232.2 390.04 
" style="fill: none; stroke: #000000; stroke-width: 0.8; stroke-linejoin: miter; stroke-linecap: square"/>
   </g>
   <g id="patch_21">
    <path d="M 38.27 237.48 
L 232.2 237.48 
" style="fill: none; stroke: #000000; stroke-width: 0.8; stroke-linejoin: miter; stroke-linecap: square"/>
   </g>
   <g id="text_48">
    <!-- Butanol exchange -->
    <g transform="translate(81.124375 231.48) scale(0.12 -0.12)">
     <use xlink:href="#DejaVuSans-42"/>
     <use xlink:href="#DejaVuSans-75" x="68.603516"/>
     <use xlink:href="#DejaVuSans-74" x="131.982422"/>
     <use xlink:href="#DejaVuSans-61" x="171.191406"/>
     <use xlink:href="#DejaVuSans-6e" x="232.470703"/>
     <use xlink:href="#DejaVuSans-6f" x="295.849609"/>
     <use xlink:href="#DejaVuSans-6c" x="357.03125"/>
     <use xlink:href="#DejaVuSans-20" x="384.814453"/>
     <use xlink:href="#DejaVuSans-65" x="416.601562"/>
     <use xlink:href="#DejaVuSans-78" x="476.375"/>
     <use xlink:href="#DejaVuSans-63" x="533.804688"/>
     <use xlink:href="#DejaVuSans-68" x="588.785156"/>
     <use xlink:href="#DejaVuSans-61" x="652.164062"/>
     <use xlink:href="#DejaVuSans-6e" x="713.443359"/>
     <use xlink:href="#DejaVuSans-67" x="776.822266"/>
     <use xlink:href="#DejaVuSans-65" x="840.298828"/>
    </g>
   </g>
  </g>
  <g id="axes_5">
   <g id="patch_22">
    <path d="M 276.77 390.04 
L 470.7 390.04 
L 470.7 237.48 
L 276.77 237.48 
z
" style="fill: #ffffff"/>
   </g>
   <g id="PolyCollection_5">
    <defs>
     <path id="m5e151bb254" d="M 285.585 -187.585455 
L 285.585 -48.894545 
L 294.863947 -48.894566 
L 304.142895 -48.894586 
L 313.421842 -48.894606 
L 322.700789 -48.894627 
L 331.979737 -48.894647 
L 341.258684 -48.894667 
L 350.537632 -48.894687 
L 359.816579 -48.894708 
L 369.095526 -48.894728 
L 378.374474 -48.894748 
L 387.653421 -48.894768 
L 396.932368 -48.894789 
L 406.211316 -48.894809 
L 415.490263 -48.894829 
L 424.769211 -48.89485 
L 434.048158 -48.89487 
L 443.327105 -48.89489 
L 452.606053 -48.89491 
L 461.885 -48.894931 
L 461.885 -48.894931 
L 461.885 -48.894931 
L 452.606053 -65.626237 
L 443.327105 -82.299662 
L 434.048158 -94.997262 
L 424.769211 -102.615185 
L 415.490263 -109.879449 
L 406.211316 -117.08211 
L 396.932368 -124.165085 
L 387.653421 -131.248061 
L 378.374474 -138.330817 
L 369.095526 -145.300243 
L 359.816579 -152.022509 
L 350.537632 -158.715087 
L 341.258684 -164.951721 
L 331.979737 -169.687409 
L 322.700789 -173.278472 
L 313.421842 -176.855218 
L 304.142895 -180.431963 
L 294.863947 -184.008709 
L 285.585 -187.585455 
z
" style="stroke: #bf00bf; stroke-opacity: 0.2"/>
    </defs>
    <g clip-path="url(#p786e8a0a53)">
     <use xlink:href="#m5e151bb254" x="0" y="432" style="fill: #bf00bf; fill-opacity: 0.2; stroke: #bf00bf; stroke-opacity: 0.2"/>
    </g>
   </g>
   <g id="matplotlib.axis_9">
    <g id="xtick_17">
     <g id="line2d_45">
      <g>
       <use xlink:href="#m6504d80f1a" x="285.585" y="390.04" style="stroke: #000000; stroke-width: 0.8"/>
      </g>
     </g>
     <g id="text_49">
      <!-- 0.0 -->
      <g transform="translate(277.633437 404.638437) scale(0.1 -0.1)">
       <use xlink:href="#DejaVuSans-30"/>
       <use xlink:href="#DejaVuSans-2e" x="63.623047"/>
       <use xlink:href="#DejaVuSans-30" x="95.410156"/>
      </g>
     </g>
    </g>
    <g id="xtick_18">
     <g id="line2d_46">
      <g>
       <use xlink:href="#m6504d80f1a" x="340.892901" y="390.04" style="stroke: #000000; stroke-width: 0.8"/>
      </g>
     </g>
     <g id="text_50">
      <!-- 0.1 -->
      <g transform="translate(332.941338 404.638437) scale(0.1 -0.1)">
       <use xlink:href="#DejaVuSans-30"/>
       <use xlink:href="#DejaVuSans-2e" x="63.623047"/>
       <use xlink:href="#DejaVuSans-31" x="95.410156"/>
      </g>
     </g>
    </g>
    <g id="xtick_19">
     <g id="line2d_47">
      <g>
       <use xlink:href="#m6504d80f1a" x="396.200801" y="390.04" style="stroke: #000000; stroke-width: 0.8"/>
      </g>
     </g>
     <g id="text_51">
      <!-- 0.2 -->
      <g transform="translate(388.249239 404.638437) scale(0.1 -0.1)">
       <use xlink:href="#DejaVuSans-30"/>
       <use xlink:href="#DejaVuSans-2e" x="63.623047"/>
       <use xlink:href="#DejaVuSans-32" x="95.410156"/>
      </g>
     </g>
    </g>
    <g id="xtick_20">
     <g id="line2d_48">
      <g>
       <use xlink:href="#m6504d80f1a" x="451.508702" y="390.04" style="stroke: #000000; stroke-width: 0.8"/>
      </g>
     </g>
     <g id="text_52">
      <!-- 0.3 -->
      <g transform="translate(443.55714 404.638437) scale(0.1 -0.1)">
       <use xlink:href="#DejaVuSans-30"/>
       <use xlink:href="#DejaVuSans-2e" x="63.623047"/>
       <use xlink:href="#DejaVuSans-33" x="95.410156"/>
      </g>
     </g>
    </g>
    <g id="text_53">
     <!-- Growth rate (gDW/h) -->
     <g transform="translate(321.583438 418.316562) scale(0.1 -0.1)">
      <use xlink:href="#DejaVuSans-47"/>
      <use xlink:href="#DejaVuSans-72" x="77.490234"/>
      <use xlink:href="#DejaVuSans-6f" x="116.353516"/>
      <use xlink:href="#DejaVuSans-77" x="177.535156"/>
      <use xlink:href="#DejaVuSans-74" x="259.322266"/>
      <use xlink:href="#DejaVuSans-68" x="298.53125"/>
      <use xlink:href="#DejaVuSans-20" x="361.910156"/>
      <use xlink:href="#DejaVuSans-72" x="393.697266"/>
      <use xlink:href="#DejaVuSans-61" x="434.810547"/>
      <use xlink:href="#DejaVuSans-74" x="496.089844"/>
      <use xlink:href="#DejaVuSans-65" x="535.298828"/>
      <use xlink:href="#DejaVuSans-20" x="596.822266"/>
      <use xlink:href="#DejaVuSans-28" x="628.609375"/>
      <use xlink:href="#DejaVuSans-67" x="667.623047"/>
      <use xlink:href="#DejaVuSans-44" x="731.099609"/>
      <use xlink:href="#DejaVuSans-57" x="808.101562"/>
      <use xlink:href="#DejaVuSans-2f" x="906.978516"/>
      <use xlink:href="#DejaVuSans-68" x="940.669922"/>
      <use xlink:href="#DejaVuSans-29" x="1004.048828"/>
     </g>
    </g>
   </g>
   <g id="matplotlib.axis_10">
    <g id="ytick_21">
     <g id="line2d_49">
      <g>
       <use xlink:href="#ma57e99ff02" x="276.77" y="383.105455" style="stroke: #000000; stroke-width: 0.8"/>
      </g>
     </g>
     <g id="text_54">
      <!-- 0 -->
      <g transform="translate(263.4075 386.904673) scale(0.1 -0.1)">
       <use xlink:href="#DejaVuSans-30"/>
      </g>
     </g>
    </g>
    <g id="ytick_22">
     <g id="line2d_50">
      <g>
       <use xlink:href="#ma57e99ff02" x="276.77" y="358.937843" style="stroke: #000000; stroke-width: 0.8"/>
      </g>
     </g>
     <g id="text_55">
      <!-- 2 -->
      <g transform="translate(263.4075 362.737061) scale(0.1 -0.1)">
       <use xlink:href="#DejaVuSans-32"/>
      </g>
     </g>
    </g>
    <g id="ytick_23">
     <g id="line2d_51">
      <g>
       <use xlink:href="#ma57e99ff02" x="276.77" y="334.77023" style="stroke: #000000; stroke-width: 0.8"/>
      </g>
     </g>
     <g id="text_56">
      <!-- 4 -->
      <g transform="translate(263.4075 338.569449) scale(0.1 -0.1)">
       <use xlink:href="#DejaVuSans-34"/>
      </g>
     </g>
    </g>
    <g id="ytick_24">
     <g id="line2d_52">
      <g>
       <use xlink:href="#ma57e99ff02" x="276.77" y="310.602618" style="stroke: #000000; stroke-width: 0.8"/>
      </g>
     </g>
     <g id="text_57">
      <!-- 6 -->
      <g transform="translate(263.4075 314.401837) scale(0.1 -0.1)">
       <use xlink:href="#DejaVuSans-36"/>
      </g>
     </g>
    </g>
    <g id="ytick_25">
     <g id="line2d_53">
      <g>
       <use xlink:href="#ma57e99ff02" x="276.77" y="286.435006" style="stroke: #000000; stroke-width: 0.8"/>
      </g>
     </g>
     <g id="text_58">
      <!-- 8 -->
      <g transform="translate(263.4075 290.234225) scale(0.1 -0.1)">
       <use xlink:href="#DejaVuSans-38"/>
      </g>
     </g>
    </g>
    <g id="ytick_26">
     <g id="line2d_54">
      <g>
       <use xlink:href="#ma57e99ff02" x="276.77" y="262.267394" style="stroke: #000000; stroke-width: 0.8"/>
      </g>
     </g>
     <g id="text_59">
      <!-- 10 -->
      <g transform="translate(257.045 266.066613) scale(0.1 -0.1)">
       <use xlink:href="#DejaVuSans-31"/>
       <use xlink:href="#DejaVuSans-30" x="63.623047"/>
      </g>
     </g>
    </g>
    <g id="ytick_27">
     <g id="line2d_55">
      <g>
       <use xlink:href="#ma57e99ff02" x="276.77" y="238.099782" style="stroke: #000000; stroke-width: 0.8"/>
      </g>
     </g>
     <g id="text_60">
      <!-- 12 -->
      <g transform="translate(257.045 241.899001) scale(0.1 -0.1)">
       <use xlink:href="#DejaVuSans-31"/>
       <use xlink:href="#DejaVuSans-32" x="63.623047"/>
      </g>
     </g>
    </g>
    <g id="text_61">
     <!-- Flux (mmol/h/gDW) -->
     <g transform="translate(250.965312 362.338125) rotate(-90) scale(0.1 -0.1)">
      <use xlink:href="#DejaVuSans-46"/>
      <use xlink:href="#DejaVuSans-6c" x="57.519531"/>
      <use xlink:href="#DejaVuSans-75" x="85.302734"/>
      <use xlink:href="#DejaVuSans-78" x="148.681641"/>
      <use xlink:href="#DejaVuSans-20" x="207.861328"/>
      <use xlink:href="#DejaVuSans-28" x="239.648438"/>
      <use xlink:href="#DejaVuSans-6d" x="278.662109"/>
      <use xlink:href="#DejaVuSans-6d" x="376.074219"/>
      <use xlink:href="#DejaVuSans-6f" x="473.486328"/>
      <use xlink:href="#DejaVuSans-6c" x="534.667969"/>
      <use xlink:href="#DejaVuSans-2f" x="562.451172"/>
      <use xlink:href="#DejaVuSans-68" x="596.142578"/>
      <use xlink:href="#DejaVuSans-2f" x="659.521484"/>
      <use xlink:href="#DejaVuSans-67" x="693.212891"/>
      <use xlink:href="#DejaVuSans-44" x="756.689453"/>
      <use xlink:href="#DejaVuSans-57" x="833.691406"/>
      <use xlink:href="#DejaVuSans-29" x="932.568359"/>
     </g>
    </g>
   </g>
   <g id="line2d_56">
    <path d="M 285.585 244.414545 
L 294.863947 247.991291 
L 304.142895 251.568037 
L 313.421842 255.144782 
L 322.700789 258.721528 
L 331.979737 262.312591 
L 341.258684 267.048279 
L 350.537632 273.284913 
L 359.816579 279.977491 
L 369.095526 286.699757 
L 378.374474 293.669183 
L 387.653421 300.751939 
L 396.932368 307.834915 
L 406.211316 314.91789 
L 415.490263 322.120551 
L 424.769211 329.384815 
L 434.048158 337.002738 
L 443.327105 349.700338 
L 452.606053 366.373763 
L 461.885 383.105069 
" clip-path="url(#p786e8a0a53)" style="fill: none; stroke: #bf00bf; stroke-width: 1.5; stroke-linecap: square"/>
   </g>
   <g id="line2d_57">
    <path d="M 285.585 383.105455 
L 294.863947 383.105434 
L 304.142895 383.105414 
L 313.421842 383.105394 
L 322.700789 383.105373 
L 331.979737 383.105353 
L 341.258684 383.105333 
L 350.537632 383.105313 
L 359.816579 383.105292 
L 369.095526 383.105272 
L 378.374474 383.105252 
L 387.653421 383.105232 
L 396.932368 383.105211 
L 406.211316 383.105191 
L 415.490263 383.105171 
L 424.769211 383.10515 
L 434.048158 383.10513 
L 443.327105 383.10511 
L 452.606053 383.10509 
L 461.885 383.105069 
" clip-path="url(#p786e8a0a53)" style="fill: none; stroke: #bf00bf; stroke-width: 1.5; stroke-linecap: square"/>
   </g>
   <g id="patch_23">
    <path d="M 276.77 390.04 
L 276.77 237.48 
" style="fill: none; stroke: #000000; stroke-width: 0.8; stroke-linejoin: miter; stroke-linecap: square"/>
   </g>
   <g id="patch_24">
    <path d="M 470.7 390.04 
L 470.7 237.48 
" style="fill: none; stroke: #000000; stroke-width: 0.8; stroke-linejoin: miter; stroke-linecap: square"/>
   </g>
   <g id="patch_25">
    <path d="M 276.77 390.04 
L 470.7 390.04 
" style="fill: none; stroke: #000000; stroke-width: 0.8; stroke-linejoin: miter; stroke-linecap: square"/>
   </g>
   <g id="patch_26">
    <path d="M 276.77 237.48 
L 470.7 237.48 
" style="fill: none; stroke: #000000; stroke-width: 0.8; stroke-linejoin: miter; stroke-linecap: square"/>
   </g>
   <g id="text_62">
    <!-- Acetone exchange -->
    <g transform="translate(318.205 231.48) scale(0.12 -0.12)">
     <use xlink:href="#DejaVuSans-41"/>
     <use xlink:href="#DejaVuSans-63" x="66.658203"/>
     <use xlink:href="#DejaVuSans-65" x="121.638672"/>
     <use xlink:href="#DejaVuSans-74" x="183.162109"/>
     <use xlink:href="#DejaVuSans-6f" x="222.371094"/>
     <use xlink:href="#DejaVuSans-6e" x="283.552734"/>
     <use xlink:href="#DejaVuSans-65" x="346.931641"/>
     <use xlink:href="#DejaVuSans-20" x="408.455078"/>
     <use xlink:href="#DejaVuSans-65" x="440.242188"/>
     <use xlink:href="#DejaVuSans-78" x="500.015625"/>
     <use xlink:href="#DejaVuSans-63" x="557.445312"/>
     <use xlink:href="#DejaVuSans-68" x="612.425781"/>
     <use xlink:href="#DejaVuSans-61" x="675.804688"/>
     <use xlink:href="#DejaVuSans-6e" x="737.083984"/>
     <use xlink:href="#DejaVuSans-67" x="800.462891"/>
     <use xlink:href="#DejaVuSans-65" x="863.939453"/>
    </g>
   </g>
  </g>
  <g id="axes_6"/>
 </g>
 <defs>
  <clipPath id="p5368cc06a5">
   <rect x="38.27" y="26.88" width="193.93" height="152.56"/>
  </clipPath>
  <clipPath id="p07be42e18a">
   <rect x="276.77" y="26.88" width="193.93" height="152.56"/>
  </clipPath>
  <clipPath id="p7295843f56">
   <rect x="515.27" y="26.88" width="193.93" height="152.56"/>
  </clipPath>
  <clipPath id="pf5d8f947bd">
   <rect x="38.27" y="237.48" width="193.93" height="152.56"/>
  </clipPath>
  <clipPath id="p786e8a0a53">
   <rect x="276.77" y="237.48" width="193.93" height="152.56"/>
  </clipPath>
 </defs>
</svg>
