<?xml version="1.0" encoding="utf-8" standalone="no"?>
<!DOCTYPE svg PUBLIC "-//W3C//DTD SVG 1.1//EN"
  "http://www.w3.org/Graphics/SVG/1.1/DTD/svg11.dtd">
<svg xmlns:xlink="http://www.w3.org/1999/xlink" width="460.8pt" height="345.6pt" viewBox="0 0 460.8 345.6" xmlns="http://www.w3.org/2000/svg" version="1.1">
 <metadata>
  <rdf:RDF xmlns:dc="http://purl.org/dc/elements/1.1/" xmlns:cc="http://creativecommons.org/ns#" xmlns:rdf="http://www.w3.org/1999/02/22-rdf-syntax-ns#">
   <cc:Work>
    <dc:type rdf:resource="http://purl.org/dc/dcmitype/StillImage"/>
    <dc:date>2024-02-15T15:26:35.218146</dc:date>
    <dc:format>image/svg+xml</dc:format>
    <dc:creator>
     <cc:Agent>
      <dc:title>Matplotlib v3.6.2, https://matplotlib.org/</dc:title>
     </cc:Agent>
    </dc:creator>
   </cc:Work>
  </rdf:RDF>
 </metadata>
 <defs>
  <style type="text/css">*{stroke-linejoin: round; stroke-linecap: butt}</style>
 </defs>
 <g id="figure_1">
  <g id="patch_1">
   <path d="M 0 345.6 
L 460.8 345.6 
L 460.8 0 
L 0 0 
z
" style="fill: #ffffff"/>
  </g>
  <g id="axes_1">
   <g id="patch_2">
    <path d="M 85.408961 199.741458 
L 450 199.741458 
L 450 10.8 
L 85.408961 10.8 
z
" style="fill: #ffffff"/>
   </g>
   <g id="patch_3">
    <path d="M 90.472725 199.741458 
L 100.600254 199.741458 
L 100.600254 19.797212 
L 90.472725 19.797212 
z
" clip-path="url(#p24ee57e8de)" style="fill: #92c6ff"/>
   </g>
   <g id="patch_4">
    <path d="M 110.727783 199.741458 
L 120.855312 199.741458 
L 120.855312 19.797212 
L 110.727783 19.797212 
z
" clip-path="url(#p24ee57e8de)" style="fill: #92c6ff"/>
   </g>
   <g id="patch_5">
    <path d="M 130.982841 199.741458 
L 141.11037 199.741458 
L 141.11037 61.322807 
L 130.982841 61.322807 
z
" clip-path="url(#p24ee57e8de)" style="fill: #92c6ff"/>
   </g>
   <g id="patch_6">
    <path d="M 151.237899 199.741458 
L 161.365427 199.741458 
L 161.365427 89.006538 
L 151.237899 89.006538 
z
" clip-path="url(#p24ee57e8de)" style="fill: #92c6ff"/>
   </g>
   <g id="patch_7">
    <path d="M 171.492956 199.741458 
L 181.620485 199.741458 
L 181.620485 89.006538 
L 171.492956 89.006538 
z
" clip-path="url(#p24ee57e8de)" style="fill: #92c6ff"/>
   </g>
   <g id="patch_8">
    <path d="M 191.748014 199.741458 
L 201.875543 199.741458 
L 201.875543 144.373998 
L 191.748014 144.373998 
z
" clip-path="url(#p24ee57e8de)" style="fill: #92c6ff"/>
   </g>
   <g id="patch_9">
    <path d="M 212.003072 199.741458 
L 222.130601 199.741458 
L 222.130601 158.215863 
L 212.003072 158.215863 
z
" clip-path="url(#p24ee57e8de)" style="fill: #92c6ff"/>
   </g>
   <g id="patch_10">
    <path d="M 232.258129 199.741458 
L 242.385658 199.741458 
L 242.385658 158.215863 
L 232.258129 158.215863 
z
" clip-path="url(#p24ee57e8de)" style="fill: #92c6ff"/>
   </g>
   <g id="patch_11">
    <path d="M 252.513187 199.741458 
L 262.640716 199.741458 
L 262.640716 158.215863 
L 252.513187 158.215863 
z
" clip-path="url(#p24ee57e8de)" style="fill: #92c6ff"/>
   </g>
   <g id="patch_12">
    <path d="M 272.768245 199.741458 
L 282.895774 199.741458 
L 282.895774 172.057728 
L 272.768245 172.057728 
z
" clip-path="url(#p24ee57e8de)" style="fill: #92c6ff"/>
   </g>
   <g id="patch_13">
    <path d="M 293.023303 199.741458 
L 303.150831 199.741458 
L 303.150831 172.057728 
L 293.023303 172.057728 
z
" clip-path="url(#p24ee57e8de)" style="fill: #92c6ff"/>
   </g>
   <g id="patch_14">
    <path d="M 313.27836 199.741458 
L 323.405889 199.741458 
L 323.405889 172.057728 
L 313.27836 172.057728 
z
" clip-path="url(#p24ee57e8de)" style="fill: #92c6ff"/>
   </g>
   <g id="patch_15">
    <path d="M 333.533418 199.741458 
L 343.660947 199.741458 
L 343.660947 172.057728 
L 333.533418 172.057728 
z
" clip-path="url(#p24ee57e8de)" style="fill: #92c6ff"/>
   </g>
   <g id="patch_16">
    <path d="M 353.788476 199.741458 
L 363.916005 199.741458 
L 363.916005 185.899593 
L 353.788476 185.899593 
z
" clip-path="url(#p24ee57e8de)" style="fill: #92c6ff"/>
   </g>
   <g id="patch_17">
    <path d="M 374.043534 199.741458 
L 384.171062 199.741458 
L 384.171062 185.899593 
L 374.043534 185.899593 
z
" clip-path="url(#p24ee57e8de)" style="fill: #92c6ff"/>
   </g>
   <g id="patch_18">
    <path d="M 394.298591 199.741458 
L 404.42612 199.741458 
L 404.42612 185.899593 
L 394.298591 185.899593 
z
" clip-path="url(#p24ee57e8de)" style="fill: #92c6ff"/>
   </g>
   <g id="patch_19">
    <path d="M 414.553649 199.741458 
L 424.681178 199.741458 
L 424.681178 185.899593 
L 414.553649 185.899593 
z
" clip-path="url(#p24ee57e8de)" style="fill: #92c6ff"/>
   </g>
   <g id="patch_20">
    <path d="M 434.808707 199.741458 
L 444.936236 199.741458 
L 444.936236 185.899593 
L 434.808707 185.899593 
z
" clip-path="url(#p24ee57e8de)" style="fill: #92c6ff"/>
   </g>
   <g id="matplotlib.axis_1">
    <g id="xtick_1">
     <g id="line2d_1">
      <defs>
       <path id="mdd41683c0a" d="M 0 0 
L 0 3.5 
" style="stroke: #000000; stroke-width: 0.8"/>
      </defs>
      <g>
       <use xlink:href="#mdd41683c0a" x="95.53649" y="199.741458" style="stroke: #000000; stroke-width: 0.8"/>
      </g>
     </g>
     <g id="text_1">
      <!-- Primary alcohols -->
      <g transform="translate(35.526326 270.653967) rotate(-45) scale(0.1 -0.1)">
       <defs>
        <path id="DejaVuSans-50" d="M 1259 4147 
L 1259 2394 
L 2053 2394 
Q 2494 2394 2734 2622 
Q 2975 2850 2975 3272 
Q 2975 3691 2734 3919 
Q 2494 4147 2053 4147 
L 1259 4147 
z
M 628 4666 
L 2053 4666 
Q 2838 4666 3239 4311 
Q 3641 3956 3641 3272 
Q 3641 2581 3239 2228 
Q 2838 1875 2053 1875 
L 1259 1875 
L 1259 0 
L 628 0 
L 628 4666 
z
" transform="scale(0.015625)"/>
        <path id="DejaVuSans-72" d="M 2631 2963 
Q 2534 3019 2420 3045 
Q 2306 3072 2169 3072 
Q 1681 3072 1420 2755 
Q 1159 2438 1159 1844 
L 1159 0 
L 581 0 
L 581 3500 
L 1159 3500 
L 1159 2956 
Q 1341 3275 1631 3429 
Q 1922 3584 2338 3584 
Q 2397 3584 2469 3576 
Q 2541 3569 2628 3553 
L 2631 2963 
z
" transform="scale(0.015625)"/>
        <path id="DejaVuSans-69" d="M 603 3500 
L 1178 3500 
L 1178 0 
L 603 0 
L 603 3500 
z
M 603 4863 
L 1178 4863 
L 1178 4134 
L 603 4134 
L 603 4863 
z
" transform="scale(0.015625)"/>
        <path id="DejaVuSans-6d" d="M 3328 2828 
Q 3544 3216 3844 3400 
Q 4144 3584 4550 3584 
Q 5097 3584 5394 3201 
Q 5691 2819 5691 2113 
L 5691 0 
L 5113 0 
L 5113 2094 
Q 5113 2597 4934 2840 
Q 4756 3084 4391 3084 
Q 3944 3084 3684 2787 
Q 3425 2491 3425 1978 
L 3425 0 
L 2847 0 
L 2847 2094 
Q 2847 2600 2669 2842 
Q 2491 3084 2119 3084 
Q 1678 3084 1418 2786 
Q 1159 2488 1159 1978 
L 1159 0 
L 581 0 
L 581 3500 
L 1159 3500 
L 1159 2956 
Q 1356 3278 1631 3431 
Q 1906 3584 2284 3584 
Q 2666 3584 2933 3390 
Q 3200 3197 3328 2828 
z
" transform="scale(0.015625)"/>
        <path id="DejaVuSans-61" d="M 2194 1759 
Q 1497 1759 1228 1600 
Q 959 1441 959 1056 
Q 959 750 1161 570 
Q 1363 391 1709 391 
Q 2188 391 2477 730 
Q 2766 1069 2766 1631 
L 2766 1759 
L 2194 1759 
z
M 3341 1997 
L 3341 0 
L 2766 0 
L 2766 531 
Q 2569 213 2275 61 
Q 1981 -91 1556 -91 
Q 1019 -91 701 211 
Q 384 513 384 1019 
Q 384 1609 779 1909 
Q 1175 2209 1959 2209 
L 2766 2209 
L 2766 2266 
Q 2766 2663 2505 2880 
Q 2244 3097 1772 3097 
Q 1472 3097 1187 3025 
Q 903 2953 641 2809 
L 641 3341 
Q 956 3463 1253 3523 
Q 1550 3584 1831 3584 
Q 2591 3584 2966 3190 
Q 3341 2797 3341 1997 
z
" transform="scale(0.015625)"/>
        <path id="DejaVuSans-79" d="M 2059 -325 
Q 1816 -950 1584 -1140 
Q 1353 -1331 966 -1331 
L 506 -1331 
L 506 -850 
L 844 -850 
Q 1081 -850 1212 -737 
Q 1344 -625 1503 -206 
L 1606 56 
L 191 3500 
L 800 3500 
L 1894 763 
L 2988 3500 
L 3597 3500 
L 2059 -325 
z
" transform="scale(0.015625)"/>
        <path id="DejaVuSans-20" transform="scale(0.015625)"/>
        <path id="DejaVuSans-6c" d="M 603 4863 
L 1178 4863 
L 1178 0 
L 603 0 
L 603 4863 
z
" transform="scale(0.015625)"/>
        <path id="DejaVuSans-63" d="M 3122 3366 
L 3122 2828 
Q 2878 2963 2633 3030 
Q 2388 3097 2138 3097 
Q 1578 3097 1268 2742 
Q 959 2388 959 1747 
Q 959 1106 1268 751 
Q 1578 397 2138 397 
Q 2388 397 2633 464 
Q 2878 531 3122 666 
L 3122 134 
Q 2881 22 2623 -34 
Q 2366 -91 2075 -91 
Q 1284 -91 818 406 
Q 353 903 353 1747 
Q 353 2603 823 3093 
Q 1294 3584 2113 3584 
Q 2378 3584 2631 3529 
Q 2884 3475 3122 3366 
z
" transform="scale(0.015625)"/>
        <path id="DejaVuSans-6f" d="M 1959 3097 
Q 1497 3097 1228 2736 
Q 959 2375 959 1747 
Q 959 1119 1226 758 
Q 1494 397 1959 397 
Q 2419 397 2687 759 
Q 2956 1122 2956 1747 
Q 2956 2369 2687 2733 
Q 2419 3097 1959 3097 
z
M 1959 3584 
Q 2709 3584 3137 3096 
Q 3566 2609 3566 1747 
Q 3566 888 3137 398 
Q 2709 -91 1959 -91 
Q 1206 -91 779 398 
Q 353 888 353 1747 
Q 353 2609 779 3096 
Q 1206 3584 1959 3584 
z
" transform="scale(0.015625)"/>
        <path id="DejaVuSans-68" d="M 3513 2113 
L 3513 0 
L 2938 0 
L 2938 2094 
Q 2938 2591 2744 2837 
Q 2550 3084 2163 3084 
Q 1697 3084 1428 2787 
Q 1159 2491 1159 1978 
L 1159 0 
L 581 0 
L 581 4863 
L 1159 4863 
L 1159 2956 
Q 1366 3272 1645 3428 
Q 1925 3584 2291 3584 
Q 2894 3584 3203 3211 
Q 3513 2838 3513 2113 
z
" transform="scale(0.015625)"/>
        <path id="DejaVuSans-73" d="M 2834 3397 
L 2834 2853 
Q 2591 2978 2328 3040 
Q 2066 3103 1784 3103 
Q 1356 3103 1142 2972 
Q 928 2841 928 2578 
Q 928 2378 1081 2264 
Q 1234 2150 1697 2047 
L 1894 2003 
Q 2506 1872 2764 1633 
Q 3022 1394 3022 966 
Q 3022 478 2636 193 
Q 2250 -91 1575 -91 
Q 1294 -91 989 -36 
Q 684 19 347 128 
L 347 722 
Q 666 556 975 473 
Q 1284 391 1588 391 
Q 1994 391 2212 530 
Q 2431 669 2431 922 
Q 2431 1156 2273 1281 
Q 2116 1406 1581 1522 
L 1381 1569 
Q 847 1681 609 1914 
Q 372 2147 372 2553 
Q 372 3047 722 3315 
Q 1072 3584 1716 3584 
Q 2034 3584 2315 3537 
Q 2597 3491 2834 3397 
z
" transform="scale(0.015625)"/>
       </defs>
       <use xlink:href="#DejaVuSans-50"/>
       <use xlink:href="#DejaVuSans-72" x="58.552734"/>
       <use xlink:href="#DejaVuSans-69" x="99.666016"/>
       <use xlink:href="#DejaVuSans-6d" x="127.449219"/>
       <use xlink:href="#DejaVuSans-61" x="224.861328"/>
       <use xlink:href="#DejaVuSans-72" x="286.140625"/>
       <use xlink:href="#DejaVuSans-79" x="327.253906"/>
       <use xlink:href="#DejaVuSans-20" x="386.433594"/>
       <use xlink:href="#DejaVuSans-61" x="418.220703"/>
       <use xlink:href="#DejaVuSans-6c" x="479.5"/>
       <use xlink:href="#DejaVuSans-63" x="507.283203"/>
       <use xlink:href="#DejaVuSans-6f" x="562.263672"/>
       <use xlink:href="#DejaVuSans-68" x="623.445312"/>
       <use xlink:href="#DejaVuSans-6f" x="686.824219"/>
       <use xlink:href="#DejaVuSans-6c" x="748.005859"/>
       <use xlink:href="#DejaVuSans-73" x="775.789062"/>
      </g>
     </g>
    </g>
    <g id="xtick_2">
     <g id="line2d_2">
      <g>
       <use xlink:href="#mdd41683c0a" x="115.791547" y="199.741458" style="stroke: #000000; stroke-width: 0.8"/>
      </g>
     </g>
     <g id="text_2">
      <!-- Carboxylic acids and esters -->
      <g transform="translate(17.209814 309.225537) rotate(-45) scale(0.1 -0.1)">
       <defs>
        <path id="DejaVuSans-43" d="M 4122 4306 
L 4122 3641 
Q 3803 3938 3442 4084 
Q 3081 4231 2675 4231 
Q 1875 4231 1450 3742 
Q 1025 3253 1025 2328 
Q 1025 1406 1450 917 
Q 1875 428 2675 428 
Q 3081 428 3442 575 
Q 3803 722 4122 1019 
L 4122 359 
Q 3791 134 3420 21 
Q 3050 -91 2638 -91 
Q 1578 -91 968 557 
Q 359 1206 359 2328 
Q 359 3453 968 4101 
Q 1578 4750 2638 4750 
Q 3056 4750 3426 4639 
Q 3797 4528 4122 4306 
z
" transform="scale(0.015625)"/>
        <path id="DejaVuSans-62" d="M 3116 1747 
Q 3116 2381 2855 2742 
Q 2594 3103 2138 3103 
Q 1681 3103 1420 2742 
Q 1159 2381 1159 1747 
Q 1159 1113 1420 752 
Q 1681 391 2138 391 
Q 2594 391 2855 752 
Q 3116 1113 3116 1747 
z
M 1159 2969 
Q 1341 3281 1617 3432 
Q 1894 3584 2278 3584 
Q 2916 3584 3314 3078 
Q 3713 2572 3713 1747 
Q 3713 922 3314 415 
Q 2916 -91 2278 -91 
Q 1894 -91 1617 61 
Q 1341 213 1159 525 
L 1159 0 
L 581 0 
L 581 4863 
L 1159 4863 
L 1159 2969 
z
" transform="scale(0.015625)"/>
        <path id="DejaVuSans-78" d="M 3513 3500 
L 2247 1797 
L 3578 0 
L 2900 0 
L 1881 1375 
L 863 0 
L 184 0 
L 1544 1831 
L 300 3500 
L 978 3500 
L 1906 2253 
L 2834 3500 
L 3513 3500 
z
" transform="scale(0.015625)"/>
        <path id="DejaVuSans-64" d="M 2906 2969 
L 2906 4863 
L 3481 4863 
L 3481 0 
L 2906 0 
L 2906 525 
Q 2725 213 2448 61 
Q 2172 -91 1784 -91 
Q 1150 -91 751 415 
Q 353 922 353 1747 
Q 353 2572 751 3078 
Q 1150 3584 1784 3584 
Q 2172 3584 2448 3432 
Q 2725 3281 2906 2969 
z
M 947 1747 
Q 947 1113 1208 752 
Q 1469 391 1925 391 
Q 2381 391 2643 752 
Q 2906 1113 2906 1747 
Q 2906 2381 2643 2742 
Q 2381 3103 1925 3103 
Q 1469 3103 1208 2742 
Q 947 2381 947 1747 
z
" transform="scale(0.015625)"/>
        <path id="DejaVuSans-6e" d="M 3513 2113 
L 3513 0 
L 2938 0 
L 2938 2094 
Q 2938 2591 2744 2837 
Q 2550 3084 2163 3084 
Q 1697 3084 1428 2787 
Q 1159 2491 1159 1978 
L 1159 0 
L 581 0 
L 581 3500 
L 1159 3500 
L 1159 2956 
Q 1366 3272 1645 3428 
Q 1925 3584 2291 3584 
Q 2894 3584 3203 3211 
Q 3513 2838 3513 2113 
z
" transform="scale(0.015625)"/>
        <path id="DejaVuSans-65" d="M 3597 1894 
L 3597 1613 
L 953 1613 
Q 991 1019 1311 708 
Q 1631 397 2203 397 
Q 2534 397 2845 478 
Q 3156 559 3463 722 
L 3463 178 
Q 3153 47 2828 -22 
Q 2503 -91 2169 -91 
Q 1331 -91 842 396 
Q 353 884 353 1716 
Q 353 2575 817 3079 
Q 1281 3584 2069 3584 
Q 2775 3584 3186 3129 
Q 3597 2675 3597 1894 
z
M 3022 2063 
Q 3016 2534 2758 2815 
Q 2500 3097 2075 3097 
Q 1594 3097 1305 2825 
Q 1016 2553 972 2059 
L 3022 2063 
z
" transform="scale(0.015625)"/>
        <path id="DejaVuSans-74" d="M 1172 4494 
L 1172 3500 
L 2356 3500 
L 2356 3053 
L 1172 3053 
L 1172 1153 
Q 1172 725 1289 603 
Q 1406 481 1766 481 
L 2356 481 
L 2356 0 
L 1766 0 
Q 1100 0 847 248 
Q 594 497 594 1153 
L 594 3053 
L 172 3053 
L 172 3500 
L 594 3500 
L 594 4494 
L 1172 4494 
z
" transform="scale(0.015625)"/>
       </defs>
       <use xlink:href="#DejaVuSans-43"/>
       <use xlink:href="#DejaVuSans-61" x="69.824219"/>
       <use xlink:href="#DejaVuSans-72" x="131.103516"/>
       <use xlink:href="#DejaVuSans-62" x="172.216797"/>
       <use xlink:href="#DejaVuSans-6f" x="235.693359"/>
       <use xlink:href="#DejaVuSans-78" x="293.75"/>
       <use xlink:href="#DejaVuSans-79" x="352.929688"/>
       <use xlink:href="#DejaVuSans-6c" x="412.109375"/>
       <use xlink:href="#DejaVuSans-69" x="439.892578"/>
       <use xlink:href="#DejaVuSans-63" x="467.675781"/>
       <use xlink:href="#DejaVuSans-20" x="522.65625"/>
       <use xlink:href="#DejaVuSans-61" x="554.443359"/>
       <use xlink:href="#DejaVuSans-63" x="615.722656"/>
       <use xlink:href="#DejaVuSans-69" x="670.703125"/>
       <use xlink:href="#DejaVuSans-64" x="698.486328"/>
       <use xlink:href="#DejaVuSans-73" x="761.962891"/>
       <use xlink:href="#DejaVuSans-20" x="814.0625"/>
       <use xlink:href="#DejaVuSans-61" x="845.849609"/>
       <use xlink:href="#DejaVuSans-6e" x="907.128906"/>
       <use xlink:href="#DejaVuSans-64" x="970.507812"/>
       <use xlink:href="#DejaVuSans-20" x="1033.984375"/>
       <use xlink:href="#DejaVuSans-65" x="1065.771484"/>
       <use xlink:href="#DejaVuSans-73" x="1127.294922"/>
       <use xlink:href="#DejaVuSans-74" x="1179.394531"/>
       <use xlink:href="#DejaVuSans-65" x="1218.603516"/>
       <use xlink:href="#DejaVuSans-72" x="1280.126953"/>
       <use xlink:href="#DejaVuSans-73" x="1321.240234"/>
      </g>
     </g>
    </g>
    <g id="xtick_3">
     <g id="line2d_3">
      <g>
       <use xlink:href="#mdd41683c0a" x="136.046605" y="199.741458" style="stroke: #000000; stroke-width: 0.8"/>
      </g>
     </g>
     <g id="text_3">
      <!-- Phenols -->
      <g transform="translate(107.024291 239.666117) rotate(-45) scale(0.1 -0.1)">
       <use xlink:href="#DejaVuSans-50"/>
       <use xlink:href="#DejaVuSans-68" x="60.302734"/>
       <use xlink:href="#DejaVuSans-65" x="123.681641"/>
       <use xlink:href="#DejaVuSans-6e" x="185.205078"/>
       <use xlink:href="#DejaVuSans-6f" x="248.583984"/>
       <use xlink:href="#DejaVuSans-6c" x="309.765625"/>
       <use xlink:href="#DejaVuSans-73" x="337.548828"/>
      </g>
     </g>
    </g>
    <g id="xtick_4">
     <g id="line2d_4">
      <g>
       <use xlink:href="#mdd41683c0a" x="156.301663" y="199.741458" style="stroke: #000000; stroke-width: 0.8"/>
      </g>
     </g>
     <g id="text_4">
      <!-- Hydorgen gas -->
      <g transform="translate(105.65514 261.290327) rotate(-45) scale(0.1 -0.1)">
       <defs>
        <path id="DejaVuSans-48" d="M 628 4666 
L 1259 4666 
L 1259 2753 
L 3553 2753 
L 3553 4666 
L 4184 4666 
L 4184 0 
L 3553 0 
L 3553 2222 
L 1259 2222 
L 1259 0 
L 628 0 
L 628 4666 
z
" transform="scale(0.015625)"/>
        <path id="DejaVuSans-67" d="M 2906 1791 
Q 2906 2416 2648 2759 
Q 2391 3103 1925 3103 
Q 1463 3103 1205 2759 
Q 947 2416 947 1791 
Q 947 1169 1205 825 
Q 1463 481 1925 481 
Q 2391 481 2648 825 
Q 2906 1169 2906 1791 
z
M 3481 434 
Q 3481 -459 3084 -895 
Q 2688 -1331 1869 -1331 
Q 1566 -1331 1297 -1286 
Q 1028 -1241 775 -1147 
L 775 -588 
Q 1028 -725 1275 -790 
Q 1522 -856 1778 -856 
Q 2344 -856 2625 -561 
Q 2906 -266 2906 331 
L 2906 616 
Q 2728 306 2450 153 
Q 2172 0 1784 0 
Q 1141 0 747 490 
Q 353 981 353 1791 
Q 353 2603 747 3093 
Q 1141 3584 1784 3584 
Q 2172 3584 2450 3431 
Q 2728 3278 2906 2969 
L 2906 3500 
L 3481 3500 
L 3481 434 
z
" transform="scale(0.015625)"/>
       </defs>
       <use xlink:href="#DejaVuSans-48"/>
       <use xlink:href="#DejaVuSans-79" x="75.195312"/>
       <use xlink:href="#DejaVuSans-64" x="134.375"/>
       <use xlink:href="#DejaVuSans-6f" x="197.851562"/>
       <use xlink:href="#DejaVuSans-72" x="259.033203"/>
       <use xlink:href="#DejaVuSans-67" x="298.396484"/>
       <use xlink:href="#DejaVuSans-65" x="361.873047"/>
       <use xlink:href="#DejaVuSans-6e" x="423.396484"/>
       <use xlink:href="#DejaVuSans-20" x="486.775391"/>
       <use xlink:href="#DejaVuSans-67" x="518.5625"/>
       <use xlink:href="#DejaVuSans-61" x="582.039062"/>
       <use xlink:href="#DejaVuSans-73" x="643.318359"/>
      </g>
     </g>
    </g>
    <g id="xtick_5">
     <g id="line2d_5">
      <g>
       <use xlink:href="#mdd41683c0a" x="176.556721" y="199.741458" style="stroke: #000000; stroke-width: 0.8"/>
      </g>
     </g>
     <g id="text_5">
      <!-- Pharmaceuticals -->
      <g transform="translate(116.678035 270.52249) rotate(-45) scale(0.1 -0.1)">
       <defs>
        <path id="DejaVuSans-75" d="M 544 1381 
L 544 3500 
L 1119 3500 
L 1119 1403 
Q 1119 906 1312 657 
Q 1506 409 1894 409 
Q 2359 409 2629 706 
Q 2900 1003 2900 1516 
L 2900 3500 
L 3475 3500 
L 3475 0 
L 2900 0 
L 2900 538 
Q 2691 219 2414 64 
Q 2138 -91 1772 -91 
Q 1169 -91 856 284 
Q 544 659 544 1381 
z
M 1991 3584 
L 1991 3584 
z
" transform="scale(0.015625)"/>
       </defs>
       <use xlink:href="#DejaVuSans-50"/>
       <use xlink:href="#DejaVuSans-68" x="60.302734"/>
       <use xlink:href="#DejaVuSans-61" x="123.681641"/>
       <use xlink:href="#DejaVuSans-72" x="184.960938"/>
       <use xlink:href="#DejaVuSans-6d" x="224.324219"/>
       <use xlink:href="#DejaVuSans-61" x="321.736328"/>
       <use xlink:href="#DejaVuSans-63" x="383.015625"/>
       <use xlink:href="#DejaVuSans-65" x="437.996094"/>
       <use xlink:href="#DejaVuSans-75" x="499.519531"/>
       <use xlink:href="#DejaVuSans-74" x="562.898438"/>
       <use xlink:href="#DejaVuSans-69" x="602.107422"/>
       <use xlink:href="#DejaVuSans-63" x="629.890625"/>
       <use xlink:href="#DejaVuSans-61" x="684.871094"/>
       <use xlink:href="#DejaVuSans-6c" x="746.150391"/>
       <use xlink:href="#DejaVuSans-73" x="773.933594"/>
      </g>
     </g>
    </g>
    <g id="xtick_6">
     <g id="line2d_6">
      <g>
       <use xlink:href="#mdd41683c0a" x="196.811778" y="199.741458" style="stroke: #000000; stroke-width: 0.8"/>
      </g>
     </g>
     <g id="text_6">
      <!-- Proteins -->
      <g transform="translate(166.874645 240.580937) rotate(-45) scale(0.1 -0.1)">
       <use xlink:href="#DejaVuSans-50"/>
       <use xlink:href="#DejaVuSans-72" x="58.552734"/>
       <use xlink:href="#DejaVuSans-6f" x="97.416016"/>
       <use xlink:href="#DejaVuSans-74" x="158.597656"/>
       <use xlink:href="#DejaVuSans-65" x="197.806641"/>
       <use xlink:href="#DejaVuSans-69" x="259.330078"/>
       <use xlink:href="#DejaVuSans-6e" x="287.113281"/>
       <use xlink:href="#DejaVuSans-73" x="350.492188"/>
      </g>
     </g>
    </g>
    <g id="xtick_7">
     <g id="line2d_7">
      <g>
       <use xlink:href="#mdd41683c0a" x="217.066836" y="199.741458" style="stroke: #000000; stroke-width: 0.8"/>
      </g>
     </g>
     <g id="text_7">
      <!-- Dyes and pigments -->
      <g transform="translate(147.015756 280.694884) rotate(-45) scale(0.1 -0.1)">
       <defs>
        <path id="DejaVuSans-44" d="M 1259 4147 
L 1259 519 
L 2022 519 
Q 2988 519 3436 956 
Q 3884 1394 3884 2338 
Q 3884 3275 3436 3711 
Q 2988 4147 2022 4147 
L 1259 4147 
z
M 628 4666 
L 1925 4666 
Q 3281 4666 3915 4102 
Q 4550 3538 4550 2338 
Q 4550 1131 3912 565 
Q 3275 0 1925 0 
L 628 0 
L 628 4666 
z
" transform="scale(0.015625)"/>
        <path id="DejaVuSans-70" d="M 1159 525 
L 1159 -1331 
L 581 -1331 
L 581 3500 
L 1159 3500 
L 1159 2969 
Q 1341 3281 1617 3432 
Q 1894 3584 2278 3584 
Q 2916 3584 3314 3078 
Q 3713 2572 3713 1747 
Q 3713 922 3314 415 
Q 2916 -91 2278 -91 
Q 1894 -91 1617 61 
Q 1341 213 1159 525 
z
M 3116 1747 
Q 3116 2381 2855 2742 
Q 2594 3103 2138 3103 
Q 1681 3103 1420 2742 
Q 1159 2381 1159 1747 
Q 1159 1113 1420 752 
Q 1681 391 2138 391 
Q 2594 391 2855 752 
Q 3116 1113 3116 1747 
z
" transform="scale(0.015625)"/>
       </defs>
       <use xlink:href="#DejaVuSans-44"/>
       <use xlink:href="#DejaVuSans-79" x="77.001953"/>
       <use xlink:href="#DejaVuSans-65" x="136.181641"/>
       <use xlink:href="#DejaVuSans-73" x="197.705078"/>
       <use xlink:href="#DejaVuSans-20" x="249.804688"/>
       <use xlink:href="#DejaVuSans-61" x="281.591797"/>
       <use xlink:href="#DejaVuSans-6e" x="342.871094"/>
       <use xlink:href="#DejaVuSans-64" x="406.25"/>
       <use xlink:href="#DejaVuSans-20" x="469.726562"/>
       <use xlink:href="#DejaVuSans-70" x="501.513672"/>
       <use xlink:href="#DejaVuSans-69" x="564.990234"/>
       <use xlink:href="#DejaVuSans-67" x="592.773438"/>
       <use xlink:href="#DejaVuSans-6d" x="656.25"/>
       <use xlink:href="#DejaVuSans-65" x="753.662109"/>
       <use xlink:href="#DejaVuSans-6e" x="815.185547"/>
       <use xlink:href="#DejaVuSans-74" x="878.564453"/>
       <use xlink:href="#DejaVuSans-73" x="917.773438"/>
      </g>
     </g>
    </g>
    <g id="xtick_8">
     <g id="line2d_8">
      <g>
       <use xlink:href="#mdd41683c0a" x="237.321894" y="199.741458" style="stroke: #000000; stroke-width: 0.8"/>
      </g>
     </g>
     <g id="text_8">
      <!-- Electricity -->
      <g transform="translate(200.726908 247.238789) rotate(-45) scale(0.1 -0.1)">
       <defs>
        <path id="DejaVuSans-45" d="M 628 4666 
L 3578 4666 
L 3578 4134 
L 1259 4134 
L 1259 2753 
L 3481 2753 
L 3481 2222 
L 1259 2222 
L 1259 531 
L 3634 531 
L 3634 0 
L 628 0 
L 628 4666 
z
" transform="scale(0.015625)"/>
       </defs>
       <use xlink:href="#DejaVuSans-45"/>
       <use xlink:href="#DejaVuSans-6c" x="63.183594"/>
       <use xlink:href="#DejaVuSans-65" x="90.966797"/>
       <use xlink:href="#DejaVuSans-63" x="152.490234"/>
       <use xlink:href="#DejaVuSans-74" x="207.470703"/>
       <use xlink:href="#DejaVuSans-72" x="246.679688"/>
       <use xlink:href="#DejaVuSans-69" x="287.792969"/>
       <use xlink:href="#DejaVuSans-63" x="315.576172"/>
       <use xlink:href="#DejaVuSans-69" x="370.556641"/>
       <use xlink:href="#DejaVuSans-74" x="398.339844"/>
       <use xlink:href="#DejaVuSans-79" x="437.548828"/>
      </g>
     </g>
    </g>
    <g id="xtick_9">
     <g id="line2d_9">
      <g>
       <use xlink:href="#mdd41683c0a" x="257.576952" y="199.741458" style="stroke: #000000; stroke-width: 0.8"/>
      </g>
     </g>
     <g id="text_9">
      <!-- Polyester polymers -->
      <g transform="translate(188.516926 279.703829) rotate(-45) scale(0.1 -0.1)">
       <use xlink:href="#DejaVuSans-50"/>
       <use xlink:href="#DejaVuSans-6f" x="56.677734"/>
       <use xlink:href="#DejaVuSans-6c" x="117.859375"/>
       <use xlink:href="#DejaVuSans-79" x="145.642578"/>
       <use xlink:href="#DejaVuSans-65" x="204.822266"/>
       <use xlink:href="#DejaVuSans-73" x="266.345703"/>
       <use xlink:href="#DejaVuSans-74" x="318.445312"/>
       <use xlink:href="#DejaVuSans-65" x="357.654297"/>
       <use xlink:href="#DejaVuSans-72" x="419.177734"/>
       <use xlink:href="#DejaVuSans-20" x="460.291016"/>
       <use xlink:href="#DejaVuSans-70" x="492.078125"/>
       <use xlink:href="#DejaVuSans-6f" x="555.554688"/>
       <use xlink:href="#DejaVuSans-6c" x="616.736328"/>
       <use xlink:href="#DejaVuSans-79" x="644.519531"/>
       <use xlink:href="#DejaVuSans-6d" x="703.699219"/>
       <use xlink:href="#DejaVuSans-65" x="801.111328"/>
       <use xlink:href="#DejaVuSans-72" x="862.634766"/>
       <use xlink:href="#DejaVuSans-73" x="903.748047"/>
      </g>
     </g>
    </g>
    <g id="xtick_10">
     <g id="line2d_10">
      <g>
       <use xlink:href="#mdd41683c0a" x="277.832009" y="199.741458" style="stroke: #000000; stroke-width: 0.8"/>
      </g>
     </g>
     <g id="text_10">
      <!-- Other -->
      <g transform="translate(256.284035 232.191778) rotate(-45) scale(0.1 -0.1)">
       <defs>
        <path id="DejaVuSans-4f" d="M 2522 4238 
Q 1834 4238 1429 3725 
Q 1025 3213 1025 2328 
Q 1025 1447 1429 934 
Q 1834 422 2522 422 
Q 3209 422 3611 934 
Q 4013 1447 4013 2328 
Q 4013 3213 3611 3725 
Q 3209 4238 2522 4238 
z
M 2522 4750 
Q 3503 4750 4090 4092 
Q 4678 3434 4678 2328 
Q 4678 1225 4090 567 
Q 3503 -91 2522 -91 
Q 1538 -91 948 565 
Q 359 1222 359 2328 
Q 359 3434 948 4092 
Q 1538 4750 2522 4750 
z
" transform="scale(0.015625)"/>
       </defs>
       <use xlink:href="#DejaVuSans-4f"/>
       <use xlink:href="#DejaVuSans-74" x="78.710938"/>
       <use xlink:href="#DejaVuSans-68" x="117.919922"/>
       <use xlink:href="#DejaVuSans-65" x="181.298828"/>
       <use xlink:href="#DejaVuSans-72" x="242.822266"/>
      </g>
     </g>
    </g>
    <g id="xtick_11">
     <g id="line2d_11">
      <g>
       <use xlink:href="#mdd41683c0a" x="298.087067" y="199.741458" style="stroke: #000000; stroke-width: 0.8"/>
      </g>
     </g>
     <g id="text_11">
      <!-- Polysaccharides -->
      <g transform="translate(240.130827 268.600043) rotate(-45) scale(0.1 -0.1)">
       <use xlink:href="#DejaVuSans-50"/>
       <use xlink:href="#DejaVuSans-6f" x="56.677734"/>
       <use xlink:href="#DejaVuSans-6c" x="117.859375"/>
       <use xlink:href="#DejaVuSans-79" x="145.642578"/>
       <use xlink:href="#DejaVuSans-73" x="204.822266"/>
       <use xlink:href="#DejaVuSans-61" x="256.921875"/>
       <use xlink:href="#DejaVuSans-63" x="318.201172"/>
       <use xlink:href="#DejaVuSans-63" x="373.181641"/>
       <use xlink:href="#DejaVuSans-68" x="428.162109"/>
       <use xlink:href="#DejaVuSans-61" x="491.541016"/>
       <use xlink:href="#DejaVuSans-72" x="552.820312"/>
       <use xlink:href="#DejaVuSans-69" x="593.933594"/>
       <use xlink:href="#DejaVuSans-64" x="621.716797"/>
       <use xlink:href="#DejaVuSans-65" x="685.193359"/>
       <use xlink:href="#DejaVuSans-73" x="746.716797"/>
      </g>
     </g>
    </g>
    <g id="xtick_12">
     <g id="line2d_12">
      <g>
       <use xlink:href="#mdd41683c0a" x="318.342125" y="199.741458" style="stroke: #000000; stroke-width: 0.8"/>
      </g>
     </g>
     <g id="text_12">
      <!-- Metabolites to support growth -->
      <g transform="translate(210.174675 318.811254) rotate(-45) scale(0.1 -0.1)">
       <defs>
        <path id="DejaVuSans-4d" d="M 628 4666 
L 1569 4666 
L 2759 1491 
L 3956 4666 
L 4897 4666 
L 4897 0 
L 4281 0 
L 4281 4097 
L 3078 897 
L 2444 897 
L 1241 4097 
L 1241 0 
L 628 0 
L 628 4666 
z
" transform="scale(0.015625)"/>
        <path id="DejaVuSans-77" d="M 269 3500 
L 844 3500 
L 1563 769 
L 2278 3500 
L 2956 3500 
L 3675 769 
L 4391 3500 
L 4966 3500 
L 4050 0 
L 3372 0 
L 2619 2869 
L 1863 0 
L 1184 0 
L 269 3500 
z
" transform="scale(0.015625)"/>
       </defs>
       <use xlink:href="#DejaVuSans-4d"/>
       <use xlink:href="#DejaVuSans-65" x="86.279297"/>
       <use xlink:href="#DejaVuSans-74" x="147.802734"/>
       <use xlink:href="#DejaVuSans-61" x="187.011719"/>
       <use xlink:href="#DejaVuSans-62" x="248.291016"/>
       <use xlink:href="#DejaVuSans-6f" x="311.767578"/>
       <use xlink:href="#DejaVuSans-6c" x="372.949219"/>
       <use xlink:href="#DejaVuSans-69" x="400.732422"/>
       <use xlink:href="#DejaVuSans-74" x="428.515625"/>
       <use xlink:href="#DejaVuSans-65" x="467.724609"/>
       <use xlink:href="#DejaVuSans-73" x="529.248047"/>
       <use xlink:href="#DejaVuSans-20" x="581.347656"/>
       <use xlink:href="#DejaVuSans-74" x="613.134766"/>
       <use xlink:href="#DejaVuSans-6f" x="652.34375"/>
       <use xlink:href="#DejaVuSans-20" x="713.525391"/>
       <use xlink:href="#DejaVuSans-73" x="745.3125"/>
       <use xlink:href="#DejaVuSans-75" x="797.412109"/>
       <use xlink:href="#DejaVuSans-70" x="860.791016"/>
       <use xlink:href="#DejaVuSans-70" x="924.267578"/>
       <use xlink:href="#DejaVuSans-6f" x="987.744141"/>
       <use xlink:href="#DejaVuSans-72" x="1048.925781"/>
       <use xlink:href="#DejaVuSans-74" x="1090.039062"/>
       <use xlink:href="#DejaVuSans-20" x="1129.248047"/>
       <use xlink:href="#DejaVuSans-67" x="1161.035156"/>
       <use xlink:href="#DejaVuSans-72" x="1224.511719"/>
       <use xlink:href="#DejaVuSans-6f" x="1263.375"/>
       <use xlink:href="#DejaVuSans-77" x="1324.556641"/>
       <use xlink:href="#DejaVuSans-74" x="1406.34375"/>
       <use xlink:href="#DejaVuSans-68" x="1445.552734"/>
      </g>
     </g>
    </g>
    <g id="xtick_13">
     <g id="line2d_13">
      <g>
       <use xlink:href="#mdd41683c0a" x="338.597182" y="199.741458" style="stroke: #000000; stroke-width: 0.8"/>
      </g>
     </g>
     <g id="text_13">
      <!-- Cellulose -->
      <g transform="translate(305.102418 244.138568) rotate(-45) scale(0.1 -0.1)">
       <use xlink:href="#DejaVuSans-43"/>
       <use xlink:href="#DejaVuSans-65" x="69.824219"/>
       <use xlink:href="#DejaVuSans-6c" x="131.347656"/>
       <use xlink:href="#DejaVuSans-6c" x="159.130859"/>
       <use xlink:href="#DejaVuSans-75" x="186.914062"/>
       <use xlink:href="#DejaVuSans-6c" x="250.292969"/>
       <use xlink:href="#DejaVuSans-6f" x="278.076172"/>
       <use xlink:href="#DejaVuSans-73" x="339.257812"/>
       <use xlink:href="#DejaVuSans-65" x="391.357422"/>
      </g>
     </g>
    </g>
    <g id="xtick_14">
     <g id="line2d_14">
      <g>
       <use xlink:href="#mdd41683c0a" x="358.85224" y="199.741458" style="stroke: #000000; stroke-width: 0.8"/>
      </g>
     </g>
     <g id="text_14">
      <!-- Methane -->
      <g transform="translate(326.510944 242.9851) rotate(-45) scale(0.1 -0.1)">
       <use xlink:href="#DejaVuSans-4d"/>
       <use xlink:href="#DejaVuSans-65" x="86.279297"/>
       <use xlink:href="#DejaVuSans-74" x="147.802734"/>
       <use xlink:href="#DejaVuSans-68" x="187.011719"/>
       <use xlink:href="#DejaVuSans-61" x="250.390625"/>
       <use xlink:href="#DejaVuSans-6e" x="311.669922"/>
       <use xlink:href="#DejaVuSans-65" x="375.048828"/>
      </g>
     </g>
    </g>
    <g id="xtick_15">
     <g id="line2d_15">
      <g>
       <use xlink:href="#mdd41683c0a" x="379.107298" y="199.741458" style="stroke: #000000; stroke-width: 0.8"/>
      </g>
     </g>
     <g id="text_15">
      <!-- Antibiotics -->
      <g transform="translate(340.493743 249.257358) rotate(-45) scale(0.1 -0.1)">
       <defs>
        <path id="DejaVuSans-41" d="M 2188 4044 
L 1331 1722 
L 3047 1722 
L 2188 4044 
z
M 1831 4666 
L 2547 4666 
L 4325 0 
L 3669 0 
L 3244 1197 
L 1141 1197 
L 716 0 
L 50 0 
L 1831 4666 
z
" transform="scale(0.015625)"/>
       </defs>
       <use xlink:href="#DejaVuSans-41"/>
       <use xlink:href="#DejaVuSans-6e" x="68.408203"/>
       <use xlink:href="#DejaVuSans-74" x="131.787109"/>
       <use xlink:href="#DejaVuSans-69" x="170.996094"/>
       <use xlink:href="#DejaVuSans-62" x="198.779297"/>
       <use xlink:href="#DejaVuSans-69" x="262.255859"/>
       <use xlink:href="#DejaVuSans-6f" x="290.039062"/>
       <use xlink:href="#DejaVuSans-74" x="351.220703"/>
       <use xlink:href="#DejaVuSans-69" x="390.429688"/>
       <use xlink:href="#DejaVuSans-63" x="418.212891"/>
       <use xlink:href="#DejaVuSans-73" x="473.193359"/>
      </g>
     </g>
    </g>
    <g id="xtick_16">
     <g id="line2d_16">
      <g>
       <use xlink:href="#mdd41683c0a" x="399.362356" y="199.741458" style="stroke: #000000; stroke-width: 0.8"/>
      </g>
     </g>
     <g id="text_16">
      <!-- Glycols -->
      <g transform="translate(372.400595 237.605564) rotate(-45) scale(0.1 -0.1)">
       <defs>
        <path id="DejaVuSans-47" d="M 3809 666 
L 3809 1919 
L 2778 1919 
L 2778 2438 
L 4434 2438 
L 4434 434 
Q 4069 175 3628 42 
Q 3188 -91 2688 -91 
Q 1594 -91 976 548 
Q 359 1188 359 2328 
Q 359 3472 976 4111 
Q 1594 4750 2688 4750 
Q 3144 4750 3555 4637 
Q 3966 4525 4313 4306 
L 4313 3634 
Q 3963 3931 3569 4081 
Q 3175 4231 2741 4231 
Q 1884 4231 1454 3753 
Q 1025 3275 1025 2328 
Q 1025 1384 1454 906 
Q 1884 428 2741 428 
Q 3075 428 3337 486 
Q 3600 544 3809 666 
z
" transform="scale(0.015625)"/>
       </defs>
       <use xlink:href="#DejaVuSans-47"/>
       <use xlink:href="#DejaVuSans-6c" x="77.490234"/>
       <use xlink:href="#DejaVuSans-79" x="105.273438"/>
       <use xlink:href="#DejaVuSans-63" x="164.453125"/>
       <use xlink:href="#DejaVuSans-6f" x="219.433594"/>
       <use xlink:href="#DejaVuSans-6c" x="280.615234"/>
       <use xlink:href="#DejaVuSans-73" x="308.398438"/>
      </g>
     </g>
    </g>
    <g id="xtick_17">
     <g id="line2d_17">
      <g>
       <use xlink:href="#mdd41683c0a" x="419.617413" y="199.741458" style="stroke: #000000; stroke-width: 0.8"/>
      </g>
     </g>
     <g id="text_17">
      <!-- Biomass -->
      <g transform="translate(388.416327 241.84489) rotate(-45) scale(0.1 -0.1)">
       <defs>
        <path id="DejaVuSans-42" d="M 1259 2228 
L 1259 519 
L 2272 519 
Q 2781 519 3026 730 
Q 3272 941 3272 1375 
Q 3272 1813 3026 2020 
Q 2781 2228 2272 2228 
L 1259 2228 
z
M 1259 4147 
L 1259 2741 
L 2194 2741 
Q 2656 2741 2882 2914 
Q 3109 3088 3109 3444 
Q 3109 3797 2882 3972 
Q 2656 4147 2194 4147 
L 1259 4147 
z
M 628 4666 
L 2241 4666 
Q 2963 4666 3353 4366 
Q 3744 4066 3744 3513 
Q 3744 3084 3544 2831 
Q 3344 2578 2956 2516 
Q 3422 2416 3680 2098 
Q 3938 1781 3938 1306 
Q 3938 681 3513 340 
Q 3088 0 2303 0 
L 628 0 
L 628 4666 
z
" transform="scale(0.015625)"/>
       </defs>
       <use xlink:href="#DejaVuSans-42"/>
       <use xlink:href="#DejaVuSans-69" x="68.603516"/>
       <use xlink:href="#DejaVuSans-6f" x="96.386719"/>
       <use xlink:href="#DejaVuSans-6d" x="157.568359"/>
       <use xlink:href="#DejaVuSans-61" x="254.980469"/>
       <use xlink:href="#DejaVuSans-73" x="316.259766"/>
       <use xlink:href="#DejaVuSans-73" x="368.359375"/>
      </g>
     </g>
    </g>
    <g id="xtick_18">
     <g id="line2d_18">
      <g>
       <use xlink:href="#mdd41683c0a" x="439.872471" y="199.741458" style="stroke: #000000; stroke-width: 0.8"/>
      </g>
     </g>
     <g id="text_18">
      <!-- Amino acids -->
      <g transform="translate(395.299332 255.216942) rotate(-45) scale(0.1 -0.1)">
       <use xlink:href="#DejaVuSans-41"/>
       <use xlink:href="#DejaVuSans-6d" x="68.408203"/>
       <use xlink:href="#DejaVuSans-69" x="165.820312"/>
       <use xlink:href="#DejaVuSans-6e" x="193.603516"/>
       <use xlink:href="#DejaVuSans-6f" x="256.982422"/>
       <use xlink:href="#DejaVuSans-20" x="318.164062"/>
       <use xlink:href="#DejaVuSans-61" x="349.951172"/>
       <use xlink:href="#DejaVuSans-63" x="411.230469"/>
       <use xlink:href="#DejaVuSans-69" x="466.210938"/>
       <use xlink:href="#DejaVuSans-64" x="493.994141"/>
       <use xlink:href="#DejaVuSans-73" x="557.470703"/>
      </g>
     </g>
    </g>
    <g id="text_19">
     <!-- Product -->
     <g transform="translate(248.722449 331.880252) scale(0.1 -0.1)">
      <use xlink:href="#DejaVuSans-50"/>
      <use xlink:href="#DejaVuSans-72" x="58.552734"/>
      <use xlink:href="#DejaVuSans-6f" x="97.416016"/>
      <use xlink:href="#DejaVuSans-64" x="158.597656"/>
      <use xlink:href="#DejaVuSans-75" x="222.074219"/>
      <use xlink:href="#DejaVuSans-63" x="285.453125"/>
      <use xlink:href="#DejaVuSans-74" x="340.433594"/>
     </g>
    </g>
   </g>
   <g id="matplotlib.axis_2">
    <g id="ytick_1">
     <g id="line2d_19">
      <defs>
       <path id="m7229ef4b74" d="M 0 0 
L -3.5 0 
" style="stroke: #000000; stroke-width: 0.8"/>
      </defs>
      <g>
       <use xlink:href="#m7229ef4b74" x="85.408961" y="199.741458" style="stroke: #000000; stroke-width: 0.8"/>
      </g>
     </g>
     <g id="text_20">
      <!-- 0 -->
      <g transform="translate(72.046461 203.540677) scale(0.1 -0.1)">
       <defs>
        <path id="DejaVuSans-30" d="M 2034 4250 
Q 1547 4250 1301 3770 
Q 1056 3291 1056 2328 
Q 1056 1369 1301 889 
Q 1547 409 2034 409 
Q 2525 409 2770 889 
Q 3016 1369 3016 2328 
Q 3016 3291 2770 3770 
Q 2525 4250 2034 4250 
z
M 2034 4750 
Q 2819 4750 3233 4129 
Q 3647 3509 3647 2328 
Q 3647 1150 3233 529 
Q 2819 -91 2034 -91 
Q 1250 -91 836 529 
Q 422 1150 422 2328 
Q 422 3509 836 4129 
Q 1250 4750 2034 4750 
z
" transform="scale(0.015625)"/>
       </defs>
       <use xlink:href="#DejaVuSans-30"/>
      </g>
     </g>
    </g>
    <g id="ytick_2">
     <g id="line2d_20">
      <g>
       <use xlink:href="#m7229ef4b74" x="85.408961" y="172.057728" style="stroke: #000000; stroke-width: 0.8"/>
      </g>
     </g>
     <g id="text_21">
      <!-- 2 -->
      <g transform="translate(72.046461 175.856947) scale(0.1 -0.1)">
       <defs>
        <path id="DejaVuSans-32" d="M 1228 531 
L 3431 531 
L 3431 0 
L 469 0 
L 469 531 
Q 828 903 1448 1529 
Q 2069 2156 2228 2338 
Q 2531 2678 2651 2914 
Q 2772 3150 2772 3378 
Q 2772 3750 2511 3984 
Q 2250 4219 1831 4219 
Q 1534 4219 1204 4116 
Q 875 4013 500 3803 
L 500 4441 
Q 881 4594 1212 4672 
Q 1544 4750 1819 4750 
Q 2544 4750 2975 4387 
Q 3406 4025 3406 3419 
Q 3406 3131 3298 2873 
Q 3191 2616 2906 2266 
Q 2828 2175 2409 1742 
Q 1991 1309 1228 531 
z
" transform="scale(0.015625)"/>
       </defs>
       <use xlink:href="#DejaVuSans-32"/>
      </g>
     </g>
    </g>
    <g id="ytick_3">
     <g id="line2d_21">
      <g>
       <use xlink:href="#m7229ef4b74" x="85.408961" y="144.373998" style="stroke: #000000; stroke-width: 0.8"/>
      </g>
     </g>
     <g id="text_22">
      <!-- 4 -->
      <g transform="translate(72.046461 148.173216) scale(0.1 -0.1)">
       <defs>
        <path id="DejaVuSans-34" d="M 2419 4116 
L 825 1625 
L 2419 1625 
L 2419 4116 
z
M 2253 4666 
L 3047 4666 
L 3047 1625 
L 3713 1625 
L 3713 1100 
L 3047 1100 
L 3047 0 
L 2419 0 
L 2419 1100 
L 313 1100 
L 313 1709 
L 2253 4666 
z
" transform="scale(0.015625)"/>
       </defs>
       <use xlink:href="#DejaVuSans-34"/>
      </g>
     </g>
    </g>
    <g id="ytick_4">
     <g id="line2d_22">
      <g>
       <use xlink:href="#m7229ef4b74" x="85.408961" y="116.690268" style="stroke: #000000; stroke-width: 0.8"/>
      </g>
     </g>
     <g id="text_23">
      <!-- 6 -->
      <g transform="translate(72.046461 120.489486) scale(0.1 -0.1)">
       <defs>
        <path id="DejaVuSans-36" d="M 2113 2584 
Q 1688 2584 1439 2293 
Q 1191 2003 1191 1497 
Q 1191 994 1439 701 
Q 1688 409 2113 409 
Q 2538 409 2786 701 
Q 3034 994 3034 1497 
Q 3034 2003 2786 2293 
Q 2538 2584 2113 2584 
z
M 3366 4563 
L 3366 3988 
Q 3128 4100 2886 4159 
Q 2644 4219 2406 4219 
Q 1781 4219 1451 3797 
Q 1122 3375 1075 2522 
Q 1259 2794 1537 2939 
Q 1816 3084 2150 3084 
Q 2853 3084 3261 2657 
Q 3669 2231 3669 1497 
Q 3669 778 3244 343 
Q 2819 -91 2113 -91 
Q 1303 -91 875 529 
Q 447 1150 447 2328 
Q 447 3434 972 4092 
Q 1497 4750 2381 4750 
Q 2619 4750 2861 4703 
Q 3103 4656 3366 4563 
z
" transform="scale(0.015625)"/>
       </defs>
       <use xlink:href="#DejaVuSans-36"/>
      </g>
     </g>
    </g>
    <g id="ytick_5">
     <g id="line2d_23">
      <g>
       <use xlink:href="#m7229ef4b74" x="85.408961" y="89.006538" style="stroke: #000000; stroke-width: 0.8"/>
      </g>
     </g>
     <g id="text_24">
      <!-- 8 -->
      <g transform="translate(72.046461 92.805756) scale(0.1 -0.1)">
       <defs>
        <path id="DejaVuSans-38" d="M 2034 2216 
Q 1584 2216 1326 1975 
Q 1069 1734 1069 1313 
Q 1069 891 1326 650 
Q 1584 409 2034 409 
Q 2484 409 2743 651 
Q 3003 894 3003 1313 
Q 3003 1734 2745 1975 
Q 2488 2216 2034 2216 
z
M 1403 2484 
Q 997 2584 770 2862 
Q 544 3141 544 3541 
Q 544 4100 942 4425 
Q 1341 4750 2034 4750 
Q 2731 4750 3128 4425 
Q 3525 4100 3525 3541 
Q 3525 3141 3298 2862 
Q 3072 2584 2669 2484 
Q 3125 2378 3379 2068 
Q 3634 1759 3634 1313 
Q 3634 634 3220 271 
Q 2806 -91 2034 -91 
Q 1263 -91 848 271 
Q 434 634 434 1313 
Q 434 1759 690 2068 
Q 947 2378 1403 2484 
z
M 1172 3481 
Q 1172 3119 1398 2916 
Q 1625 2713 2034 2713 
Q 2441 2713 2670 2916 
Q 2900 3119 2900 3481 
Q 2900 3844 2670 4047 
Q 2441 4250 2034 4250 
Q 1625 4250 1398 4047 
Q 1172 3844 1172 3481 
z
" transform="scale(0.015625)"/>
       </defs>
       <use xlink:href="#DejaVuSans-38"/>
      </g>
     </g>
    </g>
    <g id="ytick_6">
     <g id="line2d_24">
      <g>
       <use xlink:href="#m7229ef4b74" x="85.408961" y="61.322807" style="stroke: #000000; stroke-width: 0.8"/>
      </g>
     </g>
     <g id="text_25">
      <!-- 10 -->
      <g transform="translate(65.683961 65.122026) scale(0.1 -0.1)">
       <defs>
        <path id="DejaVuSans-31" d="M 794 531 
L 1825 531 
L 1825 4091 
L 703 3866 
L 703 4441 
L 1819 4666 
L 2450 4666 
L 2450 531 
L 3481 531 
L 3481 0 
L 794 0 
L 794 531 
z
" transform="scale(0.015625)"/>
       </defs>
       <use xlink:href="#DejaVuSans-31"/>
       <use xlink:href="#DejaVuSans-30" x="63.623047"/>
      </g>
     </g>
    </g>
    <g id="ytick_7">
     <g id="line2d_25">
      <g>
       <use xlink:href="#m7229ef4b74" x="85.408961" y="33.639077" style="stroke: #000000; stroke-width: 0.8"/>
      </g>
     </g>
     <g id="text_26">
      <!-- 12 -->
      <g transform="translate(65.683961 37.438296) scale(0.1 -0.1)">
       <use xlink:href="#DejaVuSans-31"/>
       <use xlink:href="#DejaVuSans-32" x="63.623047"/>
      </g>
     </g>
    </g>
    <g id="text_27">
     <!-- Number of publications -->
     <g transform="translate(59.604273 163.644948) rotate(-90) scale(0.1 -0.1)">
      <defs>
       <path id="DejaVuSans-4e" d="M 628 4666 
L 1478 4666 
L 3547 763 
L 3547 4666 
L 4159 4666 
L 4159 0 
L 3309 0 
L 1241 3903 
L 1241 0 
L 628 0 
L 628 4666 
z
" transform="scale(0.015625)"/>
       <path id="DejaVuSans-66" d="M 2375 4863 
L 2375 4384 
L 1825 4384 
Q 1516 4384 1395 4259 
Q 1275 4134 1275 3809 
L 1275 3500 
L 2222 3500 
L 2222 3053 
L 1275 3053 
L 1275 0 
L 697 0 
L 697 3053 
L 147 3053 
L 147 3500 
L 697 3500 
L 697 3744 
Q 697 4328 969 4595 
Q 1241 4863 1831 4863 
L 2375 4863 
z
" transform="scale(0.015625)"/>
      </defs>
      <use xlink:href="#DejaVuSans-4e"/>
      <use xlink:href="#DejaVuSans-75" x="74.804688"/>
      <use xlink:href="#DejaVuSans-6d" x="138.183594"/>
      <use xlink:href="#DejaVuSans-62" x="235.595703"/>
      <use xlink:href="#DejaVuSans-65" x="299.072266"/>
      <use xlink:href="#DejaVuSans-72" x="360.595703"/>
      <use xlink:href="#DejaVuSans-20" x="401.708984"/>
      <use xlink:href="#DejaVuSans-6f" x="433.496094"/>
      <use xlink:href="#DejaVuSans-66" x="494.677734"/>
      <use xlink:href="#DejaVuSans-20" x="529.882812"/>
      <use xlink:href="#DejaVuSans-70" x="561.669922"/>
      <use xlink:href="#DejaVuSans-75" x="625.146484"/>
      <use xlink:href="#DejaVuSans-62" x="688.525391"/>
      <use xlink:href="#DejaVuSans-6c" x="752.001953"/>
      <use xlink:href="#DejaVuSans-69" x="779.785156"/>
      <use xlink:href="#DejaVuSans-63" x="807.568359"/>
      <use xlink:href="#DejaVuSans-61" x="862.548828"/>
      <use xlink:href="#DejaVuSans-74" x="923.828125"/>
      <use xlink:href="#DejaVuSans-69" x="963.037109"/>
      <use xlink:href="#DejaVuSans-6f" x="990.820312"/>
      <use xlink:href="#DejaVuSans-6e" x="1052.001953"/>
      <use xlink:href="#DejaVuSans-73" x="1115.380859"/>
     </g>
    </g>
   </g>
   <g id="patch_21">
    <path d="M 85.408961 199.741458 
L 85.408961 10.8 
" style="fill: none; stroke: #000000; stroke-width: 0.8; stroke-linejoin: miter; stroke-linecap: square"/>
   </g>
   <g id="patch_22">
    <path d="M 450 199.741458 
L 450 10.8 
" style="fill: none; stroke: #000000; stroke-width: 0.8; stroke-linejoin: miter; stroke-linecap: square"/>
   </g>
   <g id="patch_23">
    <path d="M 85.408961 199.741458 
L 450 199.741458 
" style="fill: none; stroke: #000000; stroke-width: 0.8; stroke-linejoin: miter; stroke-linecap: square"/>
   </g>
   <g id="patch_24">
    <path d="M 85.408961 10.8 
L 450 10.8 
" style="fill: none; stroke: #000000; stroke-width: 0.8; stroke-linejoin: miter; stroke-linecap: square"/>
   </g>
  </g>
 </g>
 <defs>
  <clipPath id="p24ee57e8de">
   <rect x="85.408961" y="10.8" width="364.591039" height="188.941458"/>
  </clipPath>
 </defs>
</svg>
